<?xml version="1.0" standalone="no"?>
<!DOCTYPE svg PUBLIC "-//W3C//DTD SVG 1.1//EN" "http://www.w3.org/Graphics/SVG/1.1/DTD/svg11.dtd" >
<svg xmlns="http://www.w3.org/2000/svg" xmlns:xlink="http://www.w3.org/1999/xlink" version="1.1">
<metadata>
Created by FontForge 20170731 at Wed Feb 10 09:08:17 2021
 By Aleksey,,,
(c) 1991, Mark Jamra. All Rights Reserved.
</metadata>
<defs>
<font id="LatiennePro-Bold" horiz-adv-x="1290" >
  <font-face 
    font-family="Latienne Pro"
    font-weight="700"
    font-stretch="normal"
    units-per-em="2048"
    panose-1="2 10 8 3 6 3 2 2 0 3"
    ascent="1638"
    descent="-410"
    x-height="983"
    cap-height="1372"
    bbox="-324 -633 2894 1997"
    underline-thickness="178"
    underline-position="-456"
    unicode-range="U+0020-FB04"
  />
<missing-glyph horiz-adv-x="1024" 
d="M0 0v1434h1024v-1434h-1024zM512 809l348 522h-696zM573 717l349 -522v1044zM164 102h696l-348 523zM102 1239v-1044l349 522z" />
    <glyph glyph-name="T_h" unicode="Th" horiz-adv-x="2428" 
d="M838 1255v-811q0 -207 38 -292.5t138 -102.5v-55q-170 12 -357 12q-191 0 -354 -12v55q99 17 136.5 102t37.5 293v811q-159 0 -241.5 -62t-131.5 -224h-96q29 170 29 409q176 -12 440 -12h529q116 0 268 4q-3 68 -17 139l375 31l25 -24q-45 -202 -45 -478v-288
q88 140 172.5 197t204.5 57q70 0 119 -17.5t77.5 -45t44.5 -74t20.5 -92t4.5 -111.5v-285q0 -165 32.5 -245t104.5 -95v-45q-135 12 -299 12q-165 0 -297 -12v45q75 12 108 91.5t33 248.5v141q0 133 -33.5 189.5t-113.5 56.5q-110 0 -178 -121v-266q0 -165 31 -243t104 -97
v-45q-141 12 -297 12q-152 0 -287 -12v45q71 22 101 100t30 240v766q-113 110 -391 110h-65z" />
    <glyph glyph-name="T_h.caron" unicode="&#x164;h" horiz-adv-x="2428" 
d="M838 1255v-811q0 -207 38 -292.5t138 -102.5v-55q-170 12 -357 12q-191 0 -354 -12v55q99 17 136.5 102t37.5 293v811q-159 0 -241.5 -62t-131.5 -224h-96q29 170 29 409q176 -12 440 -12h529q116 0 268 4q-3 68 -17 139l375 31l25 -24q-45 -202 -45 -478v-288
q88 140 172.5 197t204.5 57q70 0 119 -17.5t77.5 -45t44.5 -74t20.5 -92t4.5 -111.5v-285q0 -165 32.5 -245t104.5 -95v-45q-135 12 -299 12q-165 0 -297 -12v45q75 12 108 91.5t33 248.5v141q0 133 -33.5 189.5t-113.5 56.5q-110 0 -178 -121v-266q0 -165 31 -243t104 -97
v-45q-141 12 -297 12q-152 0 -287 -12v45q71 22 101 100t30 240v766q-113 110 -391 110h-65zM240 1642l-25 15q42 56 115.5 123t115.5 67q29 0 78 -32l254 -158q83 71 142 176h325q-81 -93 -196.5 -169.5t-228.5 -122.5t-228 -73l-232 148q-66 41 -90 41q-18 0 -30 -15z" />
    <glyph glyph-name="T_h.caronswash" unicode="&#xe0c4;h" horiz-adv-x="2637" 
d="M1047 1114v-670q0 -207 38 -292.5t138 -102.5v-55q-159 12 -369 12q-201 0 -342 -12v55q99 17 136.5 102t37.5 293v699q-199 28 -319 28q-191 0 -191 -151q0 -117 96.5 -192t266.5 -87q-12 -104 -77 -161.5t-179 -57.5q-128 0 -205.5 74t-77.5 207q0 71 32 168.5
t81 173.5q88 137 199.5 204.5t271.5 67.5q101 0 373.5 -26.5t363.5 -26.5q145 0 242 28.5t170 116.5h88v-759q88 140 172.5 197t204.5 57q70 0 119 -17.5t77.5 -45t44.5 -74t20.5 -92t4.5 -111.5v-285q0 -165 32.5 -245t104.5 -95v-45q-135 12 -299 12q-165 0 -297 -12v45
q75 12 108 91.5t33 248.5v141q0 133 -33.5 189.5t-113.5 56.5q-110 0 -178 -121v-266q0 -165 31 -243t104 -97v-45q-141 12 -297 12q-152 0 -287 -12v45q71 22 101 100t30 240v788q-98 -67 -262 -67q-91 0 -194 14zM465 1642l-25 15q42 56 116 123t116 67q29 0 78 -32
l254 -158q81 69 141 176h325q-81 -93 -196.5 -169.5t-228.5 -122.5t-228 -73l-231 148q-66 41 -90 41q-18 0 -31 -15z" />
    <glyph glyph-name="T_h.commaaccent" unicode="&#x162;h" horiz-adv-x="2428" 
d="M838 1255v-811q0 -207 38 -292.5t138 -102.5v-55q-170 12 -357 12q-191 0 -354 -12v55q99 17 136.5 102t37.5 293v811q-159 0 -241.5 -62t-131.5 -224h-96q29 170 29 409q176 -12 440 -12h529q116 0 268 4q-3 68 -17 139l375 31l25 -24q-45 -202 -45 -478v-288
q88 140 172.5 197t204.5 57q70 0 119 -17.5t77.5 -45t44.5 -74t20.5 -92t4.5 -111.5v-285q0 -165 32.5 -245t104.5 -95v-45q-135 12 -299 12q-165 0 -297 -12v45q75 12 108 91.5t33 248.5v141q0 133 -33.5 189.5t-113.5 56.5q-110 0 -178 -121v-266q0 -165 31 -243t104 -97
v-45q-141 12 -297 12q-152 0 -287 -12v45q71 22 101 100t30 240v766q-113 110 -391 110h-65zM434 -227l-14 43q38 29 118.5 57.5t161.5 28.5t125.5 -42.5t44.5 -127.5q0 -192 -348 -252l-22 61q51 20 72.5 46t21.5 67q0 45 -40.5 82t-119.5 37z" />
    <glyph glyph-name="T_h.commaaccentswash" unicode="&#xe0c6;h" horiz-adv-x="2637" 
d="M1047 1114v-670q0 -207 38 -292.5t138 -102.5v-55q-159 12 -369 12q-201 0 -342 -12v55q99 17 136.5 102t37.5 293v699q-199 28 -319 28q-191 0 -191 -151q0 -117 96.5 -192t266.5 -87q-12 -104 -77 -161.5t-179 -57.5q-128 0 -205.5 74t-77.5 207q0 71 32 168.5
t81 173.5q88 137 199.5 204.5t271.5 67.5q101 0 373.5 -26.5t363.5 -26.5q145 0 242 28.5t170 116.5h88v-759q88 140 172.5 197t204.5 57q70 0 119 -17.5t77.5 -45t44.5 -74t20.5 -92t4.5 -111.5v-285q0 -165 32.5 -245t104.5 -95v-45q-135 12 -299 12q-165 0 -297 -12v45
q75 12 108 91.5t33 248.5v141q0 133 -33.5 189.5t-113.5 56.5q-110 0 -178 -121v-266q0 -165 31 -243t104 -97v-45q-141 12 -297 12q-152 0 -287 -12v45q71 22 101 100t30 240v788q-98 -67 -262 -67q-91 0 -194 14zM635 -227l-14 43q38 29 118.5 57.5t161.5 28.5
t125.5 -42.5t44.5 -127.5q0 -192 -348 -252l-23 61q51 20 73 46t22 67q0 45 -40.5 82t-119.5 37z" />
    <glyph glyph-name="T_h.swash" unicode="&#xe0ba;h" horiz-adv-x="2637" 
d="M1047 1114v-670q0 -207 38 -292.5t138 -102.5v-55q-159 12 -369 12q-201 0 -342 -12v55q99 17 136.5 102t37.5 293v699q-199 28 -319 28q-191 0 -191 -151q0 -117 96.5 -192t266.5 -87q-12 -104 -77 -161.5t-179 -57.5q-128 0 -205.5 74t-77.5 207q0 71 32 168.5
t81 173.5q88 137 199.5 204.5t271.5 67.5q101 0 373.5 -26.5t363.5 -26.5q145 0 242 28.5t170 116.5h88v-759q88 140 172.5 197t204.5 57q70 0 119 -17.5t77.5 -45t44.5 -74t20.5 -92t4.5 -111.5v-285q0 -165 32.5 -245t104.5 -95v-45q-135 12 -299 12q-165 0 -297 -12v45
q75 12 108 91.5t33 248.5v141q0 133 -33.5 189.5t-113.5 56.5q-110 0 -178 -121v-266q0 -165 31 -243t104 -97v-45q-141 12 -297 12q-152 0 -287 -12v45q71 22 101 100t30 240v788q-98 -67 -262 -67q-91 0 -194 14z" />
    <glyph glyph-name="f_b" unicode="fb" horiz-adv-x="1990" 
d="M502 983h221l18 -27l-59 -92q-86 13 -180 13v-498q0 -179 32.5 -249t131.5 -91v-45q-153 12 -322 12q-164 0 -293 -12v45q75 13 107 92.5t32 247.5v498q-72 0 -139 -13l-16 21l49 98h106q6 256 157.5 407.5t428.5 151.5q79 0 137 -14l306 14q-19 -199 -19 -504v-313
q78 145 169 212t208 67q160 0 251 -128t91 -352q0 -281 -161.5 -412.5t-506.5 -131.5q-289 0 -420 51l54 69v1037q0 170 -29 237.5t-119 67.5q-56 0 -98 -25t-67.5 -66t-41.5 -102.5t-21.5 -124t-6.5 -141.5zM1200 565v-174q0 -160 42 -231.5t134 -71.5q104 0 165 96t61 262
q0 154 -52.5 240t-146.5 86q-45 0 -80 -17t-58 -48.5t-38 -64.5t-27 -77z" />
    <glyph glyph-name="f_f_b" unicode="ffb" horiz-adv-x="2684" 
d="M885 983q1 93 15.5 153.5t47.5 127.5q-33 62 -86 104.5t-123 42.5q-237 0 -237 -428h383zM1196 983h221l19 -27l-60 -92q-86 13 -180 13v-498q0 -179 32.5 -249t131.5 -91v-45q-153 12 -322 12q-164 0 -293 -12v45q75 13 107.5 92.5t32.5 247.5v498h-383v-498
q0 -179 32.5 -249t131.5 -91v-45q-153 12 -322 12q-164 0 -293 -12v45q75 13 107 92.5t32 247.5v498q-72 0 -139 -13l-16 21l49 98h106q10 243 165 384.5t409 141.5q96 0 166.5 -22t140.5 -74q87 69 175 99t224 30q80 0 138 -14l305 14q-19 -199 -19 -504v-313
q78 145 169 212t208 67q160 0 251 -128t91 -352q0 -281 -161.5 -412.5t-505.5 -131.5q-289 0 -420 51l53 69v1037q0 171 -28.5 238t-118.5 67q-56 0 -98 -25t-68 -66t-41.5 -102.5t-21.5 -124.5t-7 -141zM1894 565v-174q0 -159 42 -231t135 -72q104 0 164.5 96t60.5 262
q0 154 -52.5 240t-146.5 86q-45 0 -80 -17t-58 -48.5t-38 -64.5t-27 -77z" />
    <glyph glyph-name="f_f_h" unicode="ffh" horiz-adv-x="2709" 
d="M885 983q7 169 59 277q-31 63 -83 107t-122 44q-237 0 -237 -428h383zM1194 983h225l19 -27l-58 -92q-82 10 -186 10v-495q0 -40 0.5 -59.5t3.5 -61.5t8.5 -65.5t18 -56t30 -50.5t45 -32t62.5 -15v-45q-117 12 -326 12q-156 0 -291 -12v45q75 13 107.5 92.5t32.5 247.5
v495h-383v-495q0 -179 32.5 -249t131.5 -91v-45q-153 12 -322 12q-164 0 -293 -12v45q75 13 107 92.5t32 247.5v495q-77 0 -139 -12l-16 21l49 100h106q10 243 165 384.5t409 141.5q96 0 165.5 -21t139.5 -73q147 125 381 125q77 0 143 -16l322 16q-23 -185 -23 -502v-288
q88 140 172.5 197t204.5 57q70 0 119 -17.5t77.5 -45t44.5 -74t20.5 -92t4.5 -111.5v-285q0 -165 33 -245t105 -95v-45q-135 12 -299 12q-165 0 -297 -12v45q75 12 108 91.5t33 248.5v141q0 133 -33.5 189.5t-113.5 56.5q-111 0 -179 -121v-266q0 -164 31.5 -242.5
t104.5 -97.5v-45q-141 12 -297 12q-152 0 -287 -12v45q71 22 101 100t30 240v729q0 200 -28 267t-117 67q-236 0 -236 -459z" />
    <glyph glyph-name="f_f_j" unicode="ffj" horiz-adv-x="2017" 
d="M887 983q2 88 14 142.5t47 127.5q-23 57 -80 107.5t-131 50.5q-235 0 -235 -428h385zM1198 983h186q375 0 535 12q-23 -227 -23 -596v-297q0 -204 -27.5 -293.5t-113.5 -164.5q-69 -60 -171.5 -92.5t-221.5 -32.5q-136 0 -209.5 51.5t-73.5 146.5q0 92 71 150.5t183 58.5
q58 0 82 -8q-35 -67 -35 -143q0 -71 22.5 -109.5t63.5 -38.5q40 0 64.5 35t37.5 121t13 233v547q0 177 -20 250q-10 38 -37.5 53t-75.5 15h-250v-502q0 -182 36.5 -258t127.5 -82v-45q-141 12 -322 12q-160 0 -292 -12v45q74 14 106.5 93.5t32.5 246.5v502h-385v-502
q0 -37 0.5 -58.5t3.5 -61.5t9 -65t18 -57t29.5 -50.5t44.5 -32.5t61 -15v-45q-147 12 -342 12q-154 0 -271 -12v45q73 15 105.5 94.5t32.5 245.5v502q-90 -3 -138 -17l-20 17l49 102h109q11 243 164.5 384.5t406.5 141.5q92 0 163.5 -22t145.5 -74q161 127 455 127
q389 0 389 -229q0 -91 -67.5 -147t-176.5 -56q-36 0 -80 10q39 69 39 137q0 86 -49 137.5t-131 51.5q-50 0 -90 -17t-66 -42.5t-45 -66.5t-29 -78.5t-15.5 -88t-7 -86t-1.5 -82.5z" />
    <glyph glyph-name="f_f_k" unicode="ffk" horiz-adv-x="2664" 
d="M887 983q1 85 13.5 141t45.5 131q-80 156 -207 156q-237 0 -237 -428h385zM1196 983h223l21 -27l-58 -86q-112 11 -186 11v-502q0 -48 2 -83.5t7.5 -76.5t17 -70t29.5 -54.5t46.5 -39.5t65.5 -16v-45q-123 12 -328 12q-156 0 -288 -12v45q75 13 107 92.5t32 247.5v502
h-385v-502q0 -66 3 -110t12.5 -89.5t27 -72.5t48.5 -45.5t75 -22.5v-45q-141 12 -342 12q-157 0 -271 -12v45q73 15 105.5 94.5t32.5 245.5v502q-60 -1 -81.5 -4t-56.5 -13l-20 17l49 102h109q11 243 164.5 384.5t406.5 141.5q97 0 168.5 -23t138.5 -75q153 127 385 127
q70 0 139 -14l318 16q-21 -175 -21 -491v-457l158 125q100 77 100 145q0 39 -22 56.5t-78 23.5v47q132 -12 272 -12q143 0 263 12v-37q-87 -38 -166.5 -90t-177.5 -127l-111 -86q40 -3 75.5 -18t59.5 -33t50.5 -51.5t42 -57t40.5 -65.5l115 -195q60 -103 99.5 -141.5
t92.5 -52.5v-35h-307q-83 0 -111.5 15t-68.5 81l-225 371q-24 39 -45.5 62t-55.5 42v-192q0 -164 32 -243.5t106 -96.5v-45q-120 12 -306 12q-171 0 -276 -12v45q71 25 100 102t29 238v696q0 75 -1 119t-6 91.5t-14 72t-25.5 46.5t-40.5 30t-58 8q-236 0 -236 -459z" />
    <glyph glyph-name="f_h" unicode="fh" horiz-adv-x="2015" 
d="M500 983h225l18 -27l-57 -92q-82 10 -186 10v-495q0 -40 0.5 -59.5t3.5 -61.5t8.5 -65.5t18 -56t30 -50.5t45 -32t62.5 -15v-45q-117 12 -326 12q-156 0 -291 -12v45q75 13 107 92.5t32 247.5v495q-94 0 -139 -10l-16 17l47 102h108q8 254 156.5 405.5t409.5 151.5
q77 0 143 -16l322 16q-23 -185 -23 -502v-288q88 140 172.5 197t204.5 57q70 0 119 -17.5t77.5 -45t44.5 -74t20.5 -92t4.5 -111.5v-285q0 -165 32.5 -245t104.5 -95v-45q-135 12 -299 12q-165 0 -297 -12v45q75 12 108.5 92t33.5 248v141q0 133 -34 189.5t-114 56.5
q-110 0 -178 -121v-266q0 -165 31 -243t104 -97v-45q-141 12 -297 12q-151 0 -286 -12v45q71 22 101 100t30 240v729q0 200 -28.5 267t-117.5 67q-67 0 -114.5 -35t-73 -101t-36.5 -144t-11 -179z" />
    <glyph glyph-name="f_j" unicode="fj" horiz-adv-x="1323" 
d="M502 983h223q360 0 500 12q-23 -227 -23 -596v-297q0 -204 -27.5 -293.5t-113.5 -164.5q-69 -60 -171.5 -92.5t-221.5 -32.5q-136 0 -209.5 51.5t-73.5 146.5q0 92 71 150.5t183 58.5q58 0 82 -8q-35 -67 -35 -143q0 -71 22.5 -109.5t63.5 -38.5q40 0 64.5 35t37.5 121
t13 233v547q0 115 -5.5 177t-23.5 96q-13 27 -38.5 37t-67.5 10h-250v-504q0 -182 36.5 -258t127.5 -82v-45q-167 12 -322 12q-150 0 -293 -12v45q74 14 106.5 93.5t32.5 246.5v504q-76 -3 -139 -19l-16 23l47 96h108q9 277 170.5 417t470.5 140q390 0 390 -229
q0 -91 -67.5 -147t-174.5 -56q-44 0 -82 10q39 64 39 137q0 86 -49 137.5t-129 51.5q-59 0 -103.5 -21t-73 -58.5t-46.5 -96.5t-25 -127t-8 -158z" />
    <glyph glyph-name="f_k" unicode="fk" horiz-adv-x="1970" 
d="M502 983h223l20 -27l-57 -86q-112 11 -186 11v-502q0 -48 2 -83.5t7.5 -76.5t17 -70t29.5 -54.5t46.5 -39.5t65.5 -16v-45q-123 12 -328 12q-157 0 -289 -12v45q75 13 107.5 92.5t32.5 247.5v502q-60 -1 -81.5 -4t-56.5 -13l-20 17l49 102h109q6 254 155 404.5t414 150.5
q70 0 139 -14l318 16q-21 -175 -21 -491v-457l158 125q100 77 100 145q0 39 -22 56.5t-78 23.5v47q132 -12 272 -12q142 0 262 12v-37q-87 -38 -166.5 -90t-177.5 -127l-110 -86q40 -3 75.5 -18t59.5 -33t50.5 -51.5t42 -57t40.5 -65.5l115 -195q60 -103 99.5 -141.5
t92.5 -52.5v-35h-307q-83 0 -111.5 15t-68.5 81l-226 371q-25 40 -45.5 62.5t-54.5 41.5v-192q0 -164 32 -243.5t105 -96.5v-45q-120 12 -305 12q-171 0 -276 -12v45q71 25 100 102t29 238v696q0 75 -1.5 119.5t-6 91.5t-14 71.5t-26 46.5t-40.5 30t-58 8q-53 0 -94.5 -22.5
t-66 -63.5t-40.5 -84.5t-23 -102t-9 -98t-2 -88.5z" />
    <glyph glyph-name="f_i" unicode="fi" horiz-adv-x="1359" 
d="M502 983h313q193 0 387 12q-16 -156 -16 -350v-266q0 -165 31 -243t104 -97v-45q-150 12 -297 12q-145 0 -293 -12v45q72 19 103.5 97.5t31.5 242.5v233q0 75 -5.5 124.5t-14.5 79t-27.5 44.5t-37 19t-50.5 4h-229v-504q0 -182 36.5 -258t127.5 -82v-45q-167 12 -322 12
q-150 0 -293 -12v45q74 14 106.5 93.5t32.5 246.5v504q-76 -3 -139 -19l-16 23l47 96h108q9 279 161.5 418t459.5 139q389 0 389 -229q0 -91 -67.5 -147t-174.5 -56q-43 0 -81 10q38 63 38 137q0 86 -49 137.5t-129 51.5q-50 0 -87 -14t-62.5 -43t-42.5 -66t-26 -92.5
t-12.5 -112t-4.5 -133.5z" />
    <glyph glyph-name="f_l" unicode="fl" horiz-adv-x="1372" 
d="M500 983h225l18 -27l-57 -92q-82 10 -186 10v-495q0 -40 0.5 -59.5t3.5 -61.5t8.5 -65.5t18 -56t30 -50.5t45 -32t62.5 -15v-45q-117 12 -326 12q-156 0 -291 -12v45q75 13 107 92.5t32 247.5v495q-94 0 -139 -10l-16 17l47 102h108q8 254 156.5 405.5t409.5 151.5
q77 0 143 -16l315 16q-18 -211 -18 -491v-670q0 -166 32 -245.5t105 -94.5v-45q-123 12 -289 12q-159 0 -294 -12v45q72 23 101.5 100.5t29.5 239.5v696q0 168 -13 250q-20 117 -133 117q-67 0 -114.5 -35t-73 -101t-36.5 -144t-11 -179z" />
    <glyph glyph-name="f_f" unicode="ff" horiz-adv-x="1443" 
d="M885 983q1 92 14.5 147.5t46.5 122.5q-26 61 -83.5 109.5t-125.5 48.5q-53 0 -93.5 -20t-65 -57t-41 -77.5t-23.5 -94t-9.5 -93t-2.5 -86.5h383zM1196 983h238l18 -27l-59 -92q-86 13 -197 13v-498q0 -179 32.5 -249t131.5 -91v-45q-153 12 -322 12q-164 0 -293 -12v45
q75 13 107.5 92.5t32.5 247.5v498h-383v-498q0 -179 32.5 -249t131.5 -91v-45q-153 12 -322 12q-164 0 -293 -12v45q75 13 107 92.5t32 247.5v498q-72 0 -139 -13l-16 21l49 98h106q10 243 164 384.5t408 141.5q178 0 309 -96q160 127 455 127q389 0 389 -229
q0 -90 -69.5 -146.5t-174.5 -56.5q-35 0 -80 10q39 69 39 137q0 81 -47 135t-133 54q-54 0 -95.5 -17.5t-69 -51.5t-46 -75t-28 -96t-13 -107t-2.5 -114z" />
    <glyph glyph-name="f_f_i" unicode="ffi" horiz-adv-x="2074" 
d="M885 881h-385v-502q0 -37 0.5 -58.5t3.5 -61.5t9 -65t18 -57t29.5 -50.5t44.5 -32.5t61 -15v-45q-147 12 -342 12q-154 0 -271 -12v45q73 15 105 94.5t32 245.5v502q-89 -3 -137 -17l-20 17l49 102h108q10 243 164 384.5t408 141.5q92 0 163.5 -22t145.5 -74
q161 127 455 127q389 0 389 -229q0 -91 -67.5 -147t-176.5 -56q-36 0 -80 10q39 69 39 137q0 86 -49 137.5t-131 51.5q-50 0 -90 -17t-66 -42.5t-45 -66.5t-29 -78.5t-15.5 -88t-7 -86t-1.5 -82.5h332q196 0 389 12q-16 -156 -16 -350v-266q0 -165 31 -243t104 -97v-45
q-120 12 -297 12q-161 0 -293 -12v45q72 19 103.5 97.5t31.5 242.5v231q0 120 -22 203q-11 37 -36 52.5t-77 15.5h-250v-502q0 -182 36.5 -258t127.5 -82v-45q-141 12 -322 12q-161 0 -293 -12v45q74 14 107 93.5t33 246.5v502zM885 983q2 88 14 142.5t47 127.5
q-23 57 -80 107.5t-131 50.5q-235 0 -235 -428h385z" />
    <glyph glyph-name="f_f_l" unicode="ffl" horiz-adv-x="2066" 
d="M885 881h-385v-502q0 -66 3 -110t12.5 -89.5t27 -72.5t48.5 -45.5t75 -22.5v-45q-141 12 -342 12q-157 0 -271 -12v45q73 15 105 94.5t32 245.5v502q-59 -1 -80.5 -4t-56.5 -13l-20 17l49 102h108q10 243 164 384.5t408 141.5q97 0 168.5 -23t138.5 -75q153 127 385 127
q70 0 139 -14l316 16q-19 -145 -19 -416v-745q0 -166 32.5 -245.5t105.5 -94.5v-45q-99 12 -289 12q-154 0 -295 -12v45q72 23 101.5 100t29.5 240v696q0 174 -12 250q-20 117 -133 117q-236 0 -236 -459h223l21 -27l-58 -86q-112 11 -186 11v-502q0 -48 2 -83.5t7.5 -76.5
t17 -70t29.5 -54.5t46.5 -39.5t65.5 -16v-45q-123 12 -328 12q-157 0 -289 -12v45q75 13 107.5 92.5t32.5 247.5v502zM885 983q1 85 13.5 141t45.5 131q-80 156 -207 156q-237 0 -237 -428h385z" />
    <glyph glyph-name=".notdef" horiz-adv-x="1024" 
d="M0 0v1434h1024v-1434h-1024zM512 809l348 522h-696zM573 717l349 -522v1044zM164 102h696l-348 523zM102 1239v-1044l349 522z" />
    <glyph glyph-name=".null" horiz-adv-x="0" 
 />
    <glyph glyph-name="nonmarkingreturn" horiz-adv-x="682" 
 />
    <glyph glyph-name="space" unicode=" " horiz-adv-x="389" 
 />
    <glyph glyph-name="exclam" unicode="!" horiz-adv-x="681" 
d="M514 1386l59 -53q-53 -180 -87.5 -394.5t-43.5 -420.5q-63 -32 -155 -88l-74 43q0 515 -43 827q213 31 344 86zM336 350q78 0 133 -54.5t55 -131.5t-55 -132t-133 -55q-76 0 -131 55t-55 132q0 76 55 131t131 55z" />
    <glyph glyph-name="quotedbl" unicode="&#x22;" horiz-adv-x="892" 
d="M365 1393l36 -35q-54 -200 -57 -481l-164 -29l-33 18q0 329 -45 500q136 0 263 27zM754 1393l37 -35q-55 -206 -58 -481l-162 -29l-34 18q0 329 -45 500q135 0 262 27z" />
    <glyph glyph-name="numbersign" unicode="#" 
d="M705 430h-250l-76 -315h-207l76 315h-217l26 107h215l74 305h-217l27 106h215l73 303h209l-73 -303h249l72 303h209l-74 -303h224l-27 -106h-221l-74 -305h223l-26 -107h-222l-75 -315h-209zM729 537l74 305h-248l-74 -305h248z" />
    <glyph glyph-name="dollar" unicode="$" 
d="M569 1518h109v-152q43 0 75.5 -1t81 -6t84.5 -14t75.5 -27t65 -42t42 -61.5t16.5 -84.5q0 -94 -56 -145t-159 -51q-86 0 -139 29q22 58 22 143q0 157 -108 166v-398q202 -85 268 -123q130 -75 174 -176q29 -67 29 -157q0 -179 -119.5 -282.5t-351.5 -125.5v-182h-109v178
q-42 2 -75.5 4.5t-81 9t-84 17t-76 29t-65 43t-42 61t-16.5 80.5q0 95 62 151t169 56q85 0 127 -23q-34 -73 -34 -160q0 -78 29.5 -122t86.5 -48v465q-178 76 -247 120q-151 97 -172 238q-3 24 -3 50q0 160 108.5 261t313.5 124v156zM569 1266q-53 -18 -81.5 -69.5
t-28.5 -117.5q0 -122 110 -159v346zM678 109q63 12 97 65t34 141q0 77 -29 125t-102 84v-415z" />
    <glyph glyph-name="percent" unicode="%" horiz-adv-x="1867" 
d="M616 16q-96 -14 -136.5 -28.5t-123.5 -59.5l-16 29l776 1190q-74 -8 -123 -8q-131 0 -213 35q21 -62 21 -146q0 -193 -97 -292t-286 -99q-173 0 -261.5 91t-88.5 271q0 177 93.5 282t250.5 105q45 0 45 -30q0 -11 -5.5 -17.5t-23.5 -15.5q-102 -51 -102 -274
q0 -150 31 -239t83 -89q49 0 79 73t30 195q0 127 -39 230q-47 6 -47 38q0 24 34.5 49t74 39.5t61.5 14.5q20 0 40 -18t50 -62q123 -45 293 -45q91 0 162 8q76 79 127 111t110 32q47 0 79 -33.5t32 -82.5q0 -30 -42.5 -54.5t-119.5 -37.5zM1800 358q0 -192 -93 -285t-286 -93
q-352 0 -352 372q0 188 96.5 284.5t284.5 96.5q350 0 350 -375zM1548 313q0 148 -32.5 239t-85.5 91q-49 0 -76 -67.5t-27 -192.5q0 -143 32.5 -231.5t84.5 -88.5q34 0 57 29t32 76t12 79.5t3 65.5z" />
    <glyph glyph-name="ampersand" unicode="&#x26;" horiz-adv-x="1697" 
d="M940 666l104 145q123 -12 240 -12q169 0 238.5 22t97.5 86h37q-9 -75 -19.5 -125.5t-29 -91.5t-42.5 -64t-63 -38.5t-86.5 -21t-116.5 -5.5h-110q6 -27 6 -67q0 -91 -47 -158q146 -84 246 -84q51 0 88 27.5t71 89.5l48 -19q-62 -213 -124 -291.5t-153 -78.5
q-180 0 -385 133q-73 -62 -163.5 -97.5t-233.5 -35.5q-223 0 -345 92.5t-122 261.5q0 68 18.5 124.5t48 96t77 75t93.5 58.5t109 49q-43 88 -43 195q0 161 122 252.5t337 91.5q155 0 242 -55.5t87 -155.5q0 -61 -30 -93t-105 -65l-305 -139q57 -106 152 -213.5t186 -169.5
q33 42 33 98q0 115 -144 148zM692 854q88 35 121 79t33 120q0 135 -76 135q-46 0 -76 -50t-30 -143q0 -77 28 -141zM461 643q-66 -66 -66 -180q0 -152 84.5 -245t222.5 -93q96 0 156 39q-267 188 -397 479z" />
    <glyph glyph-name="quotesingle" unicode="'" horiz-adv-x="505" 
d="M365 1393l38 -31q-49 -191 -59 -485l-164 -29l-33 18q0 326 -45 500q136 0 263 27z" />
    <glyph glyph-name="parenleft" unicode="(" horiz-adv-x="727" 
d="M629 1559l20 -70q-40 -36 -72.5 -83t-54 -98.5t-38.5 -110t-26 -118t-15.5 -122.5t-8 -122.5t-2.5 -119t0 -112.5v-52q0 -274 5 -363q26 -430 200 -602q14 -14 29 -26l-37 -72q-104 35 -186 86t-138.5 109t-96.5 136t-63 152.5t-36 174.5t-17 185t-4 201q0 109 3.5 190.5
t16.5 181.5t35.5 175t63 154.5t96.5 137.5t138.5 108t187.5 80z" />
    <glyph glyph-name="parenright" unicode=")" horiz-adv-x="727" 
d="M100 1559q81 -22 148 -56.5t118.5 -75.5t92 -95t69 -108t49 -123t32.5 -132t19 -142t9 -146t2 -151q0 -86 -2 -150.5t-8 -144.5t-17.5 -140.5t-31.5 -130t-48 -123t-68.5 -109t-92 -98t-120 -80.5t-151.5 -66l-39 72q38 31 70 72.5t55 88.5t41 101.5t29 111t19.5 117
t11.5 119l6 117t2 111.5t0 102v49q0 265 -4 339q-21 381 -167 554q-22 25 -46 47z" />
    <glyph glyph-name="asterisk" unicode="*" horiz-adv-x="1064" 
d="M367 1430l299 47l47 -58l-123 -270l244 209l108 -246l-31 -61h-293l256 -123l-182 -201h-84l-73 277l-78 -277h-90l-177 201l265 123h-299l-33 61l125 246l227 -209z" />
    <glyph glyph-name="plus" unicode="+" 
d="M545 1176h194v-381h385v-189h-385v-389h-194v389h-379v189h379v381z" />
    <glyph glyph-name="comma" unicode="," horiz-adv-x="665" 
d="M106 266l-14 43q72 38 151 62t142 24q158 0 158 -170q0 -132 -86.5 -251t-241.5 -201l-43 61q94 116 94 256q0 176 -160 176z" />
    <glyph glyph-name="hyphen" unicode="-" horiz-adv-x="837" 
d="M756 840v-318q-274 -75 -674 -231v330q329 85 674 219z" />
    <glyph glyph-name="period" unicode="." horiz-adv-x="665" 
d="M332 397q88 0 149.5 -61.5t61.5 -149.5q0 -86 -61.5 -147.5t-149.5 -61.5q-86 0 -147.5 61.5t-61.5 147.5q0 88 61.5 149.5t147.5 61.5z" />
    <glyph glyph-name="slash" unicode="/" horiz-adv-x="964" 
d="M680 1610l217 -78l-729 -2116l-219 76z" />
    <glyph glyph-name="zero" unicode="0" 
d="M1219 692q0 -133 -17 -237.5t-58 -195.5t-107.5 -151t-168.5 -94t-237 -34q-286 0 -422.5 169.5t-136.5 524.5q0 712 594 712q284 0 418.5 -169t134.5 -525zM858 618q0 298 -62 480t-163 182q-37 0 -68 -24.5t-50.5 -62t-34.5 -90.5t-22.5 -101.5t-12.5 -104t-6 -89.5
t-1 -65q0 -54 3.5 -120t17.5 -168t37 -181.5t68 -137.5t104 -58q91 0 140.5 140t49.5 400z" />
    <glyph glyph-name="one" unicode="1" 
d="M967 1434l39 -66q-32 -32 -54.5 -73.5t-33.5 -76t-16.5 -90t-6 -85.5t-0.5 -93v-28v-478q0 -207 38 -292.5t138 -102.5v-55q-141 12 -342 12q-195 0 -358 -12v55q107 9 148.5 94.5t41.5 300.5v598q-159 -107 -371 -153l72 258q161 27 358.5 109t346.5 178z" />
    <glyph glyph-name="two" unicode="2" 
d="M1118 463h64q-4 -43 -7.5 -70.5t-13 -83.5t-20 -94t-29.5 -86t-41.5 -77.5t-56 -50.5t-72.5 -21q-68 0 -332 19t-467 19q-24 -41 -67 -41q-39 0 -39 41q0 40 31 100t85.5 109t108.5 49q457 508 457 789q0 96 -38.5 153.5t-102.5 57.5q-58 0 -90.5 -43.5t-32.5 -120.5
q0 -94 47 -172q-79 -39 -170 -39q-96 0 -148.5 51t-52.5 144q0 135 140 212.5t384 77.5q221 0 325.5 -79t104.5 -246q0 -69 -24 -139t-56 -126t-94 -121t-105.5 -106t-124.5 -101t-118.5 -85.5t-117.5 -78.5q-29 -19 -42 -28q138 0 307 -6t205 -6q83 0 130 46.5t73 152.5z
" />
    <glyph glyph-name="three" unicode="3" 
d="M872 782q281 -67 281 -342q0 -219 -167 -339.5t-470 -120.5q-207 0 -306 56.5t-99 176.5q0 107 74.5 169t203.5 62q57 0 117 -14q-53 -92 -53 -192q0 -148 127 -148q89 0 145.5 89t56.5 229q0 191 -131 274q-191 -70 -266 -70q-38 0 -60 22t-22 60q0 61 64 90t198 29
q39 0 70 -2q119 93 119 268q0 87 -38 141t-98 54q-55 0 -86.5 -43.5t-31.5 -118.5q0 -94 53 -170q-86 -41 -166 -41q-101 0 -156 50.5t-55 142.5q0 133 141.5 212.5t378.5 79.5q210 0 319 -75t109 -221q0 -61 -18.5 -109t-56 -84t-77.5 -61.5t-100 -53.5z" />
    <glyph glyph-name="four" unicode="4" 
d="M1008 276v-270l-279 -45l-31 29v303q-154 16 -346 16q-140 0 -219 -6q-22 -35 -53 -35q-23 0 -38 18.5t-15 45.5q0 74 43 137t106 82q71 151 118.5 312.5t47.5 250.5q0 133 -86 133q-37 0 -84 -24l-20 55q102 50 207 79t184 29q82 0 120.5 -27.5t38.5 -84.5
q0 -49 -34 -129t-74 -151t-108 -171t-100.5 -145t-86.5 -117q78 12 180 12q129 0 219 -12v424q146 19 256 82l54 -49v-473q75 0 119 58.5t63 178.5h55q0 -45 -0.5 -74t-4.5 -87.5t-11 -98.5t-22.5 -90.5t-37 -81.5t-55 -52.5t-76.5 -21.5h-30z" />
    <glyph glyph-name="five" unicode="5" 
d="M1028 1485h64q-20 -218 -106 -318t-253 -100q-142 0 -315 43q10 -62 10 -129q0 -88 -10 -156q134 84 309 84q200 0 315 -114t115 -312q0 -247 -161.5 -375t-473.5 -128q-203 0 -300 57t-97 178q0 106 74.5 167.5t203.5 61.5q75 0 117 -14q-55 -88 -55 -194
q0 -72 32.5 -111t92.5 -39q90 0 142 87.5t52 238.5q0 149 -56.5 228t-162.5 79q-105 0 -180 -55q-24 -95 -115 -95q-35 0 -55 16t-20 44t10.5 44.5t42.5 41.5q14 89 14 248q0 202 -43 387l29 41q174 -33 385 -33q46 0 69.5 0.5t72 3.5t79 11t68 21.5t64 36.5t42.5 54z" />
    <glyph glyph-name="six" unicode="6" 
d="M575 729q123 100 285 100q160 0 250 -100t90 -278q0 -227 -141 -349t-402 -122q-274 0 -416.5 132.5t-142.5 387.5q0 299 197 537.5t577 398.5l41 -86q-446 -307 -446 -799q0 -210 56.5 -337.5t148.5 -127.5q82 0 131 86t49 229q0 132 -47.5 200.5t-138.5 68.5
q-29 0 -56 -8z" />
    <glyph glyph-name="seven" unicode="7" 
d="M195 895h-64q24 320 115 440q40 51 131 51q38 0 254.5 -10.5t369.5 -11.5q62 0 140 2q33 41 67 41q20 0 31.5 -12t11.5 -31q0 -65 -65.5 -147.5t-132.5 -106.5q-128 -254 -226.5 -539t-144.5 -548l-369 -60l-24 47q71 268 241 569.5t367 530.5q-95 -10 -227 -10
q-36 0 -128 3t-136 3q-94 0 -144 -50.5t-67 -160.5z" />
    <glyph glyph-name="eight" unicode="8" 
d="M879 801q164 -83 228 -168t64 -217q0 -214 -142.5 -325t-416.5 -111q-249 0 -371 83.5t-122 255.5q0 135 70.5 218t236.5 143q-139 78 -194.5 152t-55.5 182q0 178 139.5 275t393.5 97q212 0 320 -72.5t108 -215.5q0 -64 -18.5 -112.5t-57 -83t-79.5 -56.5t-103 -45z
M768 852q88 82 88 225q0 98 -42.5 151.5t-119.5 53.5q-78 0 -122 -48t-44 -134q0 -25 3 -45.5t13 -39t18 -32t28.5 -29.5t32 -25t43 -25.5t47 -24t55.5 -27.5zM526 627q-60 -54 -87 -117t-27 -150q0 -132 58 -207t159 -75q89 0 142.5 60t53.5 161q0 38 -10 71.5t-23 59
t-39.5 52t-47 42.5t-58 38t-58.5 33t-63 32z" />
    <glyph glyph-name="nine" unicode="9" 
d="M721 666q-44 -38 -121.5 -70.5t-173.5 -32.5q-153 0 -243.5 101t-90.5 270q0 215 144 333.5t405 118.5q269 0 410 -136.5t141 -397.5q0 -293 -188.5 -519t-585.5 -409l-43 90q450 307 450 809q0 204 -57.5 330.5t-151.5 126.5q-77 0 -127.5 -83t-50.5 -210
q0 -126 51 -196t142 -70q36 0 57 12z" />
    <glyph glyph-name="colon" unicode=":" horiz-adv-x="665" 
d="M332 385q85 0 145 -60t60 -145t-60 -144t-145 -59q-84 0 -143.5 59.5t-59.5 143.5q0 85 60 145t143 60zM332 1006q85 0 145 -60t60 -143q0 -85 -60 -145t-145 -60q-83 0 -143 60t-60 145q0 83 60 143t143 60z" />
    <glyph glyph-name="semicolon" unicode=";" horiz-adv-x="665" 
d="M106 266l-12 43q159 86 291 86q158 0 158 -170q0 -132 -86.5 -251t-241.5 -201l-43 61q94 116 94 256q0 176 -160 176zM330 1006q84 0 143 -59.5t59 -143.5q0 -85 -59 -145t-143 -60q-85 0 -144 60t-59 145q0 84 59.5 143.5t143.5 59.5z" />
    <glyph glyph-name="less" unicode="&#x3c;" 
d="M172 702l793 494l90 -158l-563 -336l563 -376l-113 -156z" />
    <glyph glyph-name="equal" unicode="=" 
d="M166 965h958v-183h-958v183zM166 610h958v-182h-958v182z" />
    <glyph glyph-name="greater" unicode="&#x3e;" 
d="M1118 666l-790 -492l-92 156l563 336l-563 376l112 156z" />
    <glyph glyph-name="question" unicode="?" horiz-adv-x="1085" 
d="M698 563l17 -37q-178 -110 -326 -110q-60 0 -92.5 32t-32.5 91q0 36 16 70.5t50 69t63.5 59.5t77.5 61q88 67 134 129t46 145q0 88 -38.5 146.5t-96.5 58.5q-51 0 -80.5 -47.5t-29.5 -124.5q0 -88 47 -166q-71 -41 -166 -41q-97 0 -151 53t-54 150q0 131 139 207.5
t375 76.5q203 0 311.5 -74t108.5 -212q0 -51 -13 -89t-45 -72t-69.5 -60.5t-102.5 -65.5q-104 -63 -155 -112t-51 -95q0 -25 17 -41t44 -16q29 0 57 14zM522 350q77 0 132 -55t55 -131q0 -77 -54.5 -132t-132.5 -55q-76 0 -131 55t-55 132q0 76 55 131t131 55z" />
    <glyph glyph-name="at" unicode="@" horiz-adv-x="1650" 
d="M1030 1049l193 26l26 -33q-121 -363 -121 -553q0 -46 15 -63.5t55 -17.5q96 0 153.5 99t57.5 281q0 250 -142.5 385.5t-385.5 135.5q-169 0 -305 -84t-213.5 -235.5t-77.5 -342.5q0 -149 42.5 -261t121.5 -180.5t185 -102t240 -33.5q149 0 277 49l31 -96
q-136 -64 -340 -64q-233 0 -405 72.5t-270.5 223.5t-98.5 368q0 181 62.5 329.5t172 247.5t258 153t320.5 54q321 0 511.5 -159.5t190.5 -438.5q0 -226 -131.5 -363t-333.5 -137q-207 0 -207 109q0 33 13 100l12 70q-86 -149 -158 -214t-151 -65q-77 0 -120.5 58t-43.5 159
q0 135 56 259.5t148.5 200t192.5 75.5q99 0 160 -72zM698 602q0 -54 11 -77t45 -23q70 0 155 170q32 65 53 130.5t21 98.5q0 38 -19 58t-53 20q-43 0 -84.5 -45.5t-68.5 -108t-43.5 -124.5t-16.5 -99z" />
    <glyph glyph-name="A" unicode="A" horiz-adv-x="1462" 
d="M852 440h-453l-34 -104q-39 -119 -39 -156q0 -115 137 -133v-53q-114 12 -262 12q-130 0 -256 -12v47q47 6 89.5 38.5t80 91t67 120.5t62.5 149l211 549q35 92 45 130.5t10 72.5q0 110 -145 113v61q90 -4 184 -4q171 0 332 22q39 -163 112 -358l203 -534
q142 -378 270 -451v-47q-141 12 -336 12q-178 0 -319 -12v53q123 9 123 109q0 56 -43 174zM807 575l-178 455l-172 -455h350z" />
    <glyph glyph-name="B" unicode="B" horiz-adv-x="1394" 
d="M846 735q66 -5 115 -12.5t106 -23t97 -41t74 -62.5t51.5 -93t17.5 -128q0 -381 -525 -381q-75 0 -206.5 6t-184.5 6q-184 0 -334 -12v55q100 19 137 103.5t37 291.5v476q0 207 -37 292.5t-137 104.5v55q120 -12 338 -12q37 0 180 6t226 6q48 0 84.5 -1.5t85 -7.5t84 -17
t72.5 -30.5t60.5 -47t38.5 -69t15 -93.5q0 -84 -32.5 -151t-89.5 -110.5t-125 -70.5t-148 -39zM586 778q16 -2 37 -2q239 0 239 258q0 113 -45 172.5t-131 59.5q-68 0 -100 -25v-463zM586 664v-207q0 -255 55 -316q35 -41 100 -41q82 0 127 64.5t45 181.5q0 148 -76 234
t-208 86q-4 0 -18.5 -1t-24.5 -1z" />
    <glyph glyph-name="C" unicode="C" horiz-adv-x="1486" 
d="M1335 928h-104q-95 344 -371 344q-182 0 -277.5 -144.5t-95.5 -427.5q0 -59 4 -113.5t15 -116.5t28 -114.5t46 -102t67 -84t92.5 -55t120.5 -20.5q156 0 277 94t215 289l100 -47q-69 -191 -100 -371q-99 -35 -250.5 -57t-292.5 -22q-372 0 -546.5 166.5t-174.5 519.5
q0 370 195 545t604 175q240 0 448 -51q-8 -109 -8 -198q0 -105 8 -209z" />
    <glyph glyph-name="D" unicode="D" horiz-adv-x="1652" 
d="M57 1372q138 -12 314 -12q77 0 256.5 6t269.5 6q343 0 505.5 -159.5t162.5 -510.5q0 -356 -176.5 -532t-534.5 -176q-74 0 -238 6t-223 6q-177 0 -336 -12v55q68 13 105 54t53 121t16 220v476q0 207 -37 292.5t-137 104.5v55zM594 1225v-811q0 -131 20 -213
q29 -105 197 -105q183 0 268.5 138t85.5 432q0 307 -95.5 450.5t-299.5 143.5q-104 0 -176 -35z" />
    <glyph glyph-name="E" unicode="E" horiz-adv-x="1333" 
d="M594 1253v-458h72q42 0 71 2.5t60.5 12t53 26t40 45t29.5 69.5h96q-17 -113 -17 -229q0 -125 17 -229h-96q-38 98 -91.5 132.5t-162.5 34.5h-72v-206q0 -185 24 -258q30 -93 160 -93q73 0 141.5 30.5t123 83t96 111t75.5 126.5l99 -52q-96 -185 -158 -419
q-203 18 -479 18h-250q-229 0 -367 -6v55q98 19 135 104t37 291v476q0 207 -37 292.5t-135 104.5v55q95 -6 275 -6h334q262 0 452 12q7 -228 51 -401l-88 -27q-70 172 -161 237.5t-271 65.5h-57z" />
    <glyph glyph-name="F" unicode="F" horiz-adv-x="1218" 
d="M594 1257v-493h63q49 0 87.5 6t77.5 22t64.5 49.5t33.5 82.5h100q-16 -104 -16 -236q0 -134 16 -227h-100q-32 99 -93 133.5t-176 34.5h-57v-185q0 -66 1.5 -108.5t7 -87.5t16 -72t27.5 -53t43 -40t61.5 -23t83.5 -11v-55q-182 12 -410 12q-212 0 -365 -12v55
q98 20 135 105t37 290v476q0 206 -37 291.5t-135 105.5v55q120 -6 297 -6h310q314 0 452 12q14 -195 60 -401l-91 -33q-48 116 -102 181.5t-136 98.5t-206 33h-49z" />
    <glyph glyph-name="G" unicode="G" horiz-adv-x="1556" 
d="M1333 928h-108q-46 169 -140.5 255.5t-232.5 86.5q-178 0 -271.5 -142t-93.5 -419q0 -295 95.5 -461t261.5 -166q58 0 104 19.5t68 52.5q15 23 19.5 55t4.5 100q0 136 -40.5 190.5t-149.5 63.5v53q124 -14 352 -14q165 0 293 14v-53q-46 -8 -67 -44t-21 -111l2 -218
l72 -63q-92 -57 -261 -102t-409 -45q-376 0 -549.5 161t-173.5 510q0 376 192.5 555.5t604.5 179.5q258 0 448 -51q-10 -92 -10 -188q0 -109 10 -219z" />
    <glyph glyph-name="H" unicode="H" horiz-adv-x="1712" 
d="M594 782h524v138q0 207 -38 292.5t-138 104.5v55q169 -12 350 -12q204 0 363 12v-55q-100 -19 -138 -104.5t-38 -292.5v-476q0 -207 38 -292.5t138 -102.5v-55q-135 12 -346 12q-189 0 -367 -12v55q100 17 138 102.5t38 292.5v199h-524v-199q0 -207 38 -292.5t136 -102.5
v-55q-132 12 -350 12q-208 0 -361 -12v55q99 17 136.5 102t37.5 293v476q0 207 -37 292.5t-137 104.5v55q153 -12 346 -12q221 0 365 12v-55q-99 -19 -136.5 -104t-37.5 -293v-138z" />
    <glyph glyph-name="I" unicode="I" horiz-adv-x="825" 
d="M768 49v-55q-180 12 -332 12q-125 0 -379 -12v55q99 17 136.5 102t37.5 293v476q0 207 -37 292.5t-137 104.5v55q199 -12 346 -12q123 0 365 12v-55q-99 -19 -136.5 -104t-37.5 -293v-476q0 -207 38 -292.5t136 -102.5z" />
    <glyph glyph-name="J" unicode="J" horiz-adv-x="1110" 
d="M395 412q-53 -80 -53 -189q0 -127 82 -127q79 0 98 96.5t19 407.5v320q0 207 -37 292.5t-137 104.5v55q135 -12 370 -12q182 0 338 12v-55q-100 -19 -138 -104.5t-38 -292.5v-316q0 -103 -2.5 -161.5t-13 -135t-32 -118.5t-61 -89t-97.5 -69.5t-143 -38t-198 -15.5
q-180 0 -266 50.5t-86 154.5q0 107 82 176.5t209 69.5q68 0 104 -16z" />
    <glyph glyph-name="K" unicode="K" horiz-adv-x="1603" 
d="M770 49v-55q-123 12 -352 12q-205 0 -361 -12v55q99 17 136.5 102t37.5 293v476q0 207 -37 292.5t-137 104.5v55q144 -12 355 -12q188 0 358 12v-55q-100 -19 -137 -103.5t-37 -293.5v-476q0 -208 37.5 -293t136.5 -102zM901 797q22 -4 41.5 -10.5t35 -12t31.5 -16.5
t26 -18t24.5 -22.5t22 -23t22 -28t21 -29t23 -33.5t23.5 -35l185 -268q69 -100 143.5 -170.5t130.5 -85.5v-45h-348q-44 0 -66.5 0.5t-49.5 9t-39.5 16t-36.5 33.5t-40.5 49.5t-52.5 75.5l-231 336q-96 141 -170 205l379 348q94 85 94 158q0 26 -9 42.5t-29 25.5t-39.5 12
t-53.5 6v55q135 -12 283 -12q153 0 270 12v-51q-67 -38 -136.5 -97.5t-269.5 -250.5z" />
    <glyph glyph-name="L" unicode="L" horiz-adv-x="1294" 
d="M57 1372q147 -12 330 -12q189 0 383 12v-55q-100 -19 -137 -103.5t-37 -293.5v-517q0 -126 20 -198q29 -103 160 -103q125 0 230.5 84.5t207.5 268.5l95 -52q-91 -197 -154 -421q-252 18 -559 18h-285q-155 0 -254 -6v55q99 17 136.5 102t37.5 293v476q0 207 -37 292.5
t-137 104.5v55z" />
    <glyph glyph-name="M" unicode="M" horiz-adv-x="1986" 
d="M975 436l205 477q103 244 161 459q117 -12 263 -12q147 0 264 12v-53q-27 -4 -48.5 -17.5t-35 -31t-23 -44.5t-14 -48t-7 -51.5t-3 -46t-0.5 -40.5q0 -49 6 -166l24 -362q15 -223 56.5 -333.5t118.5 -133.5v-51q-129 12 -304 12q-192 0 -356 -12v53q148 37 148 244
q0 79 -7 186l-34 533l-132 -308q-156 -365 -237 -708h-236l-370 1016l-39 -555q-6 -77 -6 -152q0 -110 31.5 -168t131.5 -88v-53q-120 12 -274 12q-125 0 -260 -12v53q50 4 86.5 24t60 52t39.5 84t24.5 108.5t14.5 137.5l41 559q4 74 4 123q0 95 -31 136t-114 48v53
q114 -12 270 -12q153 0 279 12q36 -181 116 -405z" />
    <glyph glyph-name="N" unicode="N" horiz-adv-x="1626" 
d="M1260 397v523q0 206 -38.5 292t-138.5 105v55q129 -12 250 -12q130 0 250 12v-55q-100 -19 -138 -104.5t-38 -292.5v-398q0 -313 14 -528h-305l-747 1055v-605q0 -207 38 -292.5t138 -102.5v-55q-95 12 -252 12q-124 0 -250 -12v55q100 17 138 102.5t38 292.5v476
q0 207 -38 292.5t-138 104.5v55q153 -12 285 -12q152 0 278 12q83 -165 230 -373z" />
    <glyph glyph-name="O" unicode="O" horiz-adv-x="1685" 
d="M1597 690q0 -191 -52.5 -329t-155.5 -221t-244 -121.5t-328 -38.5q-362 0 -545.5 171t-183.5 529q0 187 56 324.5t162.5 220.5t249.5 122t327 39q364 0 539 -170.5t175 -525.5zM1198 678q0 295 -89 444.5t-261 149.5t-266.5 -145t-94.5 -414q0 -103 11.5 -192t37.5 -169
t66 -136t100 -89t136 -33q82 0 145.5 32.5t103 87t65.5 131t36 158t10 175.5z" />
    <glyph glyph-name="P" unicode="P" horiz-adv-x="1310" 
d="M596 606v-162q0 -89 4 -144t16.5 -106.5t37 -79t64 -44.5t99.5 -21v-55q-159 12 -389 12q-227 0 -371 -12v55q99 17 136.5 102t37.5 293v476q0 207 -37 292.5t-137 104.5v55q141 -12 369 -12q40 0 175 6t241 6q74 0 131 -6.5t115 -26.5t96 -54t62 -92t24 -136
q0 -207 -151.5 -332t-401.5 -125q-79 0 -121 6zM596 723q25 -4 51 -4q109 0 172.5 79t63.5 214q0 123 -50 191.5t-139 68.5q-61 0 -98 -29v-520z" />
    <glyph glyph-name="Q" unicode="Q" horiz-adv-x="1687" 
d="M1642 -72l56 -20q-45 -171 -86 -260t-84.5 -120.5t-110.5 -31.5q-100 0 -461.5 59.5t-623.5 120.5q-34 -20 -51 -20q-15 0 -24 10t-9 27q0 19 27.5 52.5t69.5 67t101 58.5t113 25q43 0 68 -2q97 22 225 83q-393 0 -579.5 171.5t-186.5 537.5q0 354 193.5 527t588.5 173
q370 0 550.5 -172.5t180.5 -525.5q0 -122 -23 -221t-55 -169.5t-99 -131.5t-120.5 -98t-157 -77.5t-171 -61.5t-197.5 -58q474 -86 664 -86q90 0 130.5 29t71.5 114zM1200 645q0 312 -89 470.5t-261 158.5q-174 0 -269.5 -152t-95.5 -432q0 -282 92.5 -445t264.5 -163
q358 0 358 563z" />
    <glyph glyph-name="R" unicode="R" horiz-adv-x="1517" 
d="M596 672v-228q0 -208 37.5 -293t136.5 -102v-55q-166 12 -364 12q-202 0 -349 -12v55q99 17 136.5 102t37.5 293v476q0 207 -37 292.5t-137 104.5v55q117 -12 326 -12q63 0 199 6t241 6q72 0 129 -6t118.5 -26t103 -53t68 -91t26.5 -137q0 -134 -92 -228t-265 -135
q107 -14 165.5 -51.5t109.5 -132.5l117 -213q67 -120 117.5 -178t123.5 -70v-51h-375h-51.5t-36 4t-26.5 7.5t-19 16t-18.5 24t-20.5 36.5l-219 399q-75 134 -125 181q-34 0 -57 4zM596 776q30 -6 66 -6q103 0 162 68t59 188q0 115 -50.5 181.5t-136.5 66.5q-61 0 -100 -27
v-471z" />
    <glyph glyph-name="S" unicode="S" horiz-adv-x="1210" 
d="M1085 930h-114q-34 160 -120 254t-198 94q-86 0 -132 -43t-46 -121q0 -30 5 -54t12 -43t25.5 -37t34.5 -31t50 -31t61.5 -31t79.5 -37q46 -21 68 -31t62.5 -30.5t61 -33.5t52.5 -36t48.5 -42.5t37.5 -48t31 -57.5t17 -65.5t7 -77.5q0 -213 -165.5 -330.5t-452.5 -117.5
q-111 0 -211 17.5t-148 35t-83 35.5q18 94 18 245q0 85 -6 168h113q18 -166 108.5 -278.5t222.5 -112.5q103 0 161 55t58 154q0 54 -18 96.5t-56 76.5t-82.5 59.5t-111.5 54.5q-52 23 -80.5 35.5t-76 37.5t-74 45.5t-60.5 52.5t-51.5 65t-30 77t-12.5 94q0 189 152 291
t432 102q131 0 240.5 -17.5t170.5 -41.5q-12 -90 -12 -180q0 -109 12 -217z" />
    <glyph glyph-name="T" unicode="T" horiz-adv-x="1316" 
d="M838 1255v-811q0 -207 38 -292.5t138 -102.5v-55q-170 12 -357 12q-191 0 -354 -12v55q99 17 136.5 102t37.5 293v811q-159 0 -241.5 -62t-131.5 -224h-96q29 170 29 409q176 -12 440 -12h361q254 0 434 12q3 -173 37 -409h-101q-44 165 -123 225.5t-247 60.5z" />
    <glyph glyph-name="U" unicode="U" horiz-adv-x="1691" 
d="M1098 -6v338q-100 -192 -209.5 -272t-270.5 -80q-104 0 -178.5 25.5t-118 67t-68.5 109t-32.5 135t-7.5 162.5v441q0 207 -37 292.5t-137 104.5v55q144 -12 358 -12q209 0 353 12v-55q-99 -19 -137 -105t-38 -292v-338q0 -62 3.5 -104.5t16 -86.5t34.5 -70t60.5 -42.5
t92.5 -16.5q90 0 166 43.5t150 140.5v474q0 140 -16.5 221t-53.5 122t-104 54v55q181 -12 366 -12q174 0 344 12v-55q-100 -19 -137 -104.5t-37 -292.5v-476q0 -208 37.5 -293t136.5 -102v-55q-123 12 -268 12q-136 0 -268 -12z" />
    <glyph glyph-name="V" unicode="V" horiz-adv-x="1466" 
d="M825 332l234 610q43 111 57 160.5t14 91.5q0 53 -31 82.5t-102 42.5v53q102 -12 250 -12q161 0 269 12v-53q-158 -23 -312 -422l-155 -403q-95 -248 -156 -500h-318l-325 866q-68 183 -131.5 296t-143.5 163v53q150 -12 332 -12q169 0 338 12v-53q-125 -12 -125 -102
q0 -42 13 -87t55 -159z" />
    <glyph glyph-name="W" unicode="W" horiz-adv-x="2267" 
d="M1116 801l-160 -473q-60 -179 -94 -334h-334l-282 850q-69 208 -125.5 320t-124.5 151v57q147 -12 336 -12q193 0 334 12v-57q-75 -8 -109.5 -37.5t-34.5 -87.5q0 -56 43 -186l221 -676l248 719q-73 226 -172 268v57q150 -12 328 -12q181 0 334 12v-57
q-77 -9 -109.5 -41.5t-32.5 -102.5q0 -45 15.5 -105t66.5 -210l178 -528l199 573q70 199 70 277q0 63 -35 96t-107 41v57q114 -12 271 -12q138 0 258 12v-57q-162 -70 -281 -400l-184 -520q-73 -209 -117 -401h-336z" />
    <glyph glyph-name="X" unicode="X" horiz-adv-x="1531" 
d="M848 909l121 148q55 65 75.5 105t20.5 77q0 40 -21 57.5t-75 20.5v55q129 -12 254 -12q122 0 245 12v-41q-81 -39 -165.5 -123.5t-245.5 -277.5l-123 -148l213 -311q110 -160 216.5 -278t174.5 -154v-45q-120 12 -340 12q-180 0 -350 -12v45q50 5 68 18t18 47
q0 48 -64 142l-184 276l-170 -205q-117 -141 -117 -215q0 -32 21 -46t74 -17v-45q-108 12 -263 12q-146 0 -266 -12v45q163 53 369 295l264 311l-182 264q-242 353 -379 422v41q150 -12 325 -12q188 0 367 12v-55q-41 -5 -58.5 -19t-17.5 -45q0 -61 107 -215z" />
    <glyph glyph-name="Y" unicode="Y" horiz-adv-x="1366" 
d="M780 776l125 203q99 161 99 242q0 49 -23 70t-80 24v57q120 -12 252 -12q135 0 240 12v-45q-74 -31 -152 -119t-186 -266l-183 -299v-199q0 -206 38 -292t137 -103v-55q-163 12 -361 12q-192 0 -348 -12v55q100 17 138 102.5t38 292.5v103l-231 395q-93 159 -173 249
t-157 124v57q138 -12 321 -12q188 0 361 12v-57q-47 -3 -65.5 -20.5t-18.5 -57.5q0 -38 18.5 -81.5t77.5 -145.5z" />
    <glyph glyph-name="Z" unicode="Z" horiz-adv-x="1361" 
d="M168 877l-51 6q29 366 119 446q10 9 23.5 15.5t31.5 10.5t31 6.5t36 3.5t33 1h34.5h27.5h804l41 -68q-125 -237 -358 -513t-496 -496q147 -2 345 -16.5t245 -14.5q100 0 146 42t77 159h60q-23 -199 -57 -294q-66 -185 -203 -185q-75 0 -362.5 23.5t-516.5 23.5
q-50 -47 -88 -47q-39 0 -39 36q0 42 38 106.5t96.5 115t107.5 51.5q133 156 292.5 407t250.5 447q-85 6 -131 6q-255 0 -376 -61.5t-161 -210.5z" />
    <glyph glyph-name="bracketleft" unicode="[" horiz-adv-x="727" 
d="M129 1522q135 -11 289 -11q152 0 276 11v-152q-98 16 -233 16v-1726q123 0 233 14v-157q-114 12 -272 12q-149 0 -293 -12v2005z" />
    <glyph glyph-name="backslash" unicode="\" horiz-adv-x="964" 
d="M285 1610l731 -2118l-219 -76l-729 2116z" />
    <glyph glyph-name="bracketright" unicode="]" horiz-adv-x="727" 
d="M600 1522v-2005q-144 12 -293 12q-158 0 -272 -12v157q110 -14 233 -14v1726q-135 0 -233 -16v152q124 -11 276 -11q154 0 289 11z" />
    <glyph glyph-name="asciicircum" unicode="^" horiz-adv-x="1024" 
d="M180 721h-149l440 713h21l491 -713h-397l-213 309z" />
    <glyph glyph-name="underscore" unicode="_" horiz-adv-x="1011" 
d="M0 -190h1012v-179h-1012v179z" />
    <glyph glyph-name="grave" unicode="`" horiz-adv-x="1024" 
d="M662 1108l-93 -43q-72 83 -163 151t-166 103q31 64 105.5 121t160.5 80q43 -58 89.5 -179t66.5 -233z" />
    <glyph glyph-name="a" unicode="a" horiz-adv-x="1110" 
d="M1067 250l55 -23q-38 -127 -110.5 -187t-188.5 -60q-97 0 -146 51.5t-56 161.5q-54 -112 -127.5 -162.5t-182.5 -50.5q-120 0 -185 60.5t-65 170.5q0 157 141.5 242t418.5 94v37q0 179 -26.5 255t-100.5 76q-54 0 -85.5 -37.5t-31.5 -103.5q0 -78 47 -137
q-67 -35 -150 -35q-84 0 -132 42t-48 114q0 109 140.5 177.5t361.5 68.5q182 0 264 -68.5t82 -220.5q0 -46 -4 -153t-4 -146q0 -140 13.5 -197t45.5 -57q11 0 20.5 4.5t15.5 10.5t13 17.5t9.5 17.5t8.5 20.5t7 17.5zM621 475q-112 -7 -175 -61.5t-63 -143.5q0 -112 82 -112
q95 0 156 129v188z" />
    <glyph glyph-name="b" unicode="b" horiz-adv-x="1253" 
d="M94 31l53 69v1037q0 161 -29.5 238t-101.5 102v45l465 20q-18 -189 -18 -504v-313q78 145 169 212t208 67q160 0 251 -128t91 -352q0 -281 -161.5 -412.5t-506.5 -131.5q-289 0 -420 51zM463 565v-174q0 -160 42 -231.5t134 -71.5q104 0 164.5 96t60.5 262q0 154 -52 240
t-146 86q-45 0 -80 -17t-58 -48.5t-38 -64.5t-27 -77z" />
    <glyph glyph-name="c" unicode="c" horiz-adv-x="1009" 
d="M948 313l53 -45q-205 -288 -501 -288q-200 0 -314 118.5t-114 327.5q0 270 158 424t436 154q280 0 280 -181q0 -95 -70.5 -157t-177.5 -62q-39 0 -57 2q39 77 39 152q0 68 -28 108.5t-74 40.5q-82 0 -130.5 -91.5t-48.5 -242.5q0 -188 73 -294.5t202 -106.5
q142 0 274 141z" />
    <glyph glyph-name="d" unicode="d" horiz-adv-x="1284" 
d="M1130 1540q-22 -225 -22 -586v-575q0 -160 30 -237.5t101 -102.5v-45q-65 6 -186 6q-134 0 -226 -20q-34 117 -34 249q-86 -134 -172.5 -191.5t-200.5 -57.5q-161 0 -254.5 129.5t-93.5 353.5q0 258 139.5 399.5t394.5 141.5q106 0 187 -25v125q0 185 -29 269.5
t-100 107.5v39zM793 342v305q0 123 -47 187.5t-136 64.5q-103 0 -161 -93.5t-58 -260.5q0 -160 49.5 -245t143.5 -85q125 0 209 127z" />
    <glyph glyph-name="e" unicode="e" horiz-adv-x="1091" 
d="M395 555v-6q0 -27 2 -53.5t9.5 -66.5t19.5 -74t35.5 -70t54.5 -61.5t78.5 -41.5t105.5 -16q162 0 293 143l54 -43q-190 -286 -512 -286q-217 0 -340 128t-123 355q0 255 139.5 398t388.5 143q200 0 308 -88t108 -252q0 -50 -12 -109h-609zM395 649l289 15q6 27 6 65
q0 88 -35 138.5t-96 50.5q-155 0 -164 -269z" />
    <glyph glyph-name="f" unicode="f" horiz-adv-x="745" 
d="M502 983h237l19 -27l-60 -92q-86 13 -196 13v-498q0 -179 32.5 -249t131.5 -91v-45q-153 12 -322 12q-164 0 -293 -12v45q75 13 107 92.5t32 247.5v498q-72 0 -139 -13l-16 21l49 98h106q17 289 154.5 425t407.5 136q297 0 297 -198q0 -90 -64.5 -145.5t-169.5 -55.5
q-47 0 -74 6q31 65 31 156q0 64 -25.5 99.5t-76.5 35.5q-163 0 -168 -459z" />
    <glyph glyph-name="g" unicode="g" horiz-adv-x="1093" 
d="M342 401q-131 26 -192.5 97.5t-61.5 197.5q0 152 108.5 230t319.5 78q164 0 266 -50q100 8 153.5 58.5t53.5 140.5q57 -19 88 -64.5t31 -111.5q0 -67 -32.5 -103t-94.5 -36q-44 0 -86 18q37 -75 37 -151q0 -154 -111 -233t-325 -79q-29 0 -56 2q-78 -55 -78 -88
q0 -16 6 -24t33 -14.5t73 -9.5t134 -5q247 -6 356.5 -70t108.5 -231q-2 -188 -168.5 -299t-447.5 -111q-201 0 -311.5 59.5t-110.5 166.5q0 84 60.5 139t185.5 84q-35 6 -53 10.5t-46.5 15.5t-43.5 24.5t-26.5 38t-11.5 56.5q0 125 242 264zM627 688q0 103 -33 162t-90 59
q-54 0 -83.5 -48t-29.5 -136q0 -107 34 -171.5t91 -64.5q54 0 82.5 51.5t28.5 147.5zM831 -168q0 148 -266 148q-126 0 -199 -45t-73 -123q0 -69 65.5 -108.5t180.5 -39.5q135 0 213.5 44.5t78.5 123.5z" />
    <glyph glyph-name="h" unicode="h" horiz-adv-x="1308" 
d="M514 1540q-22 -177 -22 -502v-288q88 140 172 197t204 57q70 0 119 -17.5t77.5 -45t44.5 -74t21 -92.5t5 -111v-285q0 -165 32.5 -245t104.5 -95v-45q-135 12 -299 12q-165 0 -297 -12v45q75 12 108 91.5t33 248.5v141q0 133 -33.5 189.5t-113.5 56.5q-110 0 -178 -121
v-266q0 -165 31 -243t104 -97v-45q-141 12 -297 12q-152 0 -287 -12v45q71 22 101 100t30 240v729q0 178 -26 265t-105 112v39z" />
    <glyph glyph-name="i" unicode="i" horiz-adv-x="686" 
d="M526 995q-14 -151 -14 -391v-225q0 -165 31.5 -244t103.5 -96v-45q-126 12 -287 12q-171 0 -303 -12v45q72 19 102.5 97t30.5 243v184q0 83 -4 137t-17 108.5t-40.5 86.5t-71.5 45v39zM348 1509q82 0 139.5 -58t57.5 -140t-57.5 -139.5t-139.5 -57.5t-139 57.5t-57 139.5
q0 83 57 140.5t139 57.5z" />
    <glyph glyph-name="j" unicode="j" horiz-adv-x="628" 
d="M516 995q-22 -217 -22 -596v-297q0 -204 -28 -293.5t-114 -164.5q-69 -60 -171.5 -92.5t-221.5 -32.5q-136 0 -209.5 51.5t-73.5 146.5q0 92 71 150.5t183 58.5q58 0 82 -8q-11 -22 -16 -33t-12 -42t-7 -68q0 -71 22.5 -109.5t63.5 -38.5q40 0 64.5 35t37.5 121t13 233
v547q0 187 -29.5 271t-103.5 106v39zM332 1509q83 0 140.5 -58t57.5 -140t-57.5 -139.5t-140.5 -57.5q-82 0 -139.5 57.5t-57.5 139.5q0 83 57.5 140.5t139.5 57.5z" />
    <glyph glyph-name="k" unicode="k" horiz-adv-x="1261" 
d="M727 649q40 -3 75.5 -18t59.5 -33t50.5 -51.5t42 -57t40.5 -65.5l115 -195q60 -102 99.5 -141t93.5 -53v-35h-308q-83 0 -111.5 15t-68.5 81l-225 371q-24 39 -45.5 62t-55.5 42v-192q0 -164 32 -243.5t106 -96.5v-45q-120 12 -305 12q-172 0 -277 -12v45q71 25 100 102
t29 238v731q0 78 -4 131t-16.5 109t-39.5 90t-69 47v39l465 14q-21 -175 -21 -491v-457l158 125q101 78 101 145q0 39 -22.5 56.5t-78.5 23.5v47q132 -12 273 -12q142 0 262 12v-37q-87 -38 -166.5 -90t-177.5 -127z" />
    <glyph glyph-name="l" unicode="l" horiz-adv-x="665" 
d="M510 1540q-21 -187 -21 -493v-668q0 -165 32 -244t106 -96v-45q-132 12 -299 12q-162 0 -285 -12v45q72 23 101.5 100t29.5 240v731q0 66 -2 111.5t-10 95t-21.5 80.5t-38 55.5t-59.5 34.5v39z" />
    <glyph glyph-name="m" unicode="m" horiz-adv-x="1937" 
d="M508 995v-237q86 135 165 190.5t185 55.5q122 0 187.5 -59.5t84.5 -186.5q72 126 161.5 186t203.5 60q53 0 94.5 -12t69 -30.5t47.5 -49t31 -60t17 -72t7.5 -76.5t1.5 -81v-244q0 -167 33 -246.5t107 -93.5v-45q-120 12 -297 12q-161 0 -293 -12v45q72 17 103.5 96
t31.5 244v117v8q0 38 -1 58.5t-4.5 57t-13 58t-25.5 45t-43 34.5t-63 11q-108 0 -168 -117v-272q0 -170 33.5 -249.5t110.5 -90.5v-45q-123 12 -293 12q-166 0 -295 -12v45q73 15 105 94.5t32 245.5v141q0 129 -34 188.5t-107 59.5q-61 0 -99 -29t-75 -88v-272
q0 -165 31 -243t104 -97v-45q-132 12 -291 12q-168 0 -297 -12v45q72 17 103.5 96t31.5 244v184q0 47 -0.5 76t-3.5 70t-8 67t-15 56t-24 49t-35.5 35t-48.5 24v39z" />
    <glyph glyph-name="n" unicode="n" horiz-adv-x="1329" 
d="M508 995v-247q85 137 173 196.5t206 59.5q149 0 207.5 -77.5t58.5 -230.5v-317q0 -167 33 -247t108 -93v-45q-126 12 -297 12q-166 0 -301 -12v45q74 14 107 93.5t33 246.5v145q0 42 -1.5 68.5t-10 63t-23.5 58t-45 37t-72 15.5q-107 0 -176 -123v-264q0 -165 31.5 -244
t103.5 -96v-45q-120 12 -291 12q-162 0 -297 -12v45q72 19 103.5 97.5t31.5 242.5v182q0 66 -2 109.5t-9.5 94t-21.5 82t-40 57.5t-62 36v39z" />
    <glyph glyph-name="o" unicode="o" horiz-adv-x="1230" 
d="M1159 506q0 -257 -141.5 -391.5t-411.5 -134.5q-264 0 -399 127.5t-135 379.5q0 255 142 386t419 131q255 0 390.5 -128.5t135.5 -369.5zM825 465q0 204 -58 320t-161 116q-91 0 -141.5 -95t-50.5 -265q0 -217 55.5 -338t155.5 -121q92 0 146 103t54 280z" />
    <glyph glyph-name="p" unicode="p" horiz-adv-x="1282" 
d="M492 995v-245q71 132 160.5 193t213.5 61q163 0 253.5 -124.5t90.5 -349.5q0 -264 -137 -407t-389 -143q-119 0 -192 30v-82q0 -83 5 -134t21.5 -99.5t51 -73t89.5 -31.5v-47q-133 13 -329 13q-175 0 -295 -13v47q74 12 106.5 91.5t32.5 246.5v664q0 165 -31 243t-104 97
v45zM492 641v-242q0 -163 42 -237t136 -74q103 0 163 97.5t60 263.5q0 155 -51.5 241t-145.5 86q-62 0 -114.5 -36.5t-89.5 -98.5z" />
    <glyph glyph-name="q" unicode="q" horiz-adv-x="1236" 
d="M1061 1079l61 -22q-20 -193 -20 -522v-607q0 -165 31.5 -244t103.5 -94v-47q-135 15 -285 15q-181 0 -342 -15v47q107 9 141.5 84.5t34.5 253.5v305q-137 -253 -372 -253q-160 0 -251 127t-91 350q0 265 136 406t396 141q91 0 161.5 -14.5t101 -28.5t75.5 -41zM786 342
v193q0 65 -1.5 107t-7.5 88t-17.5 73.5t-31 51.5t-49 34t-69.5 10q-103 0 -164 -98t-61 -262q0 -153 52.5 -239.5t144.5 -86.5q126 0 204 129z" />
    <glyph glyph-name="r" unicode="r" horiz-adv-x="993" 
d="M512 995v-284q93 293 309 293q79 0 125.5 -44.5t46.5 -121.5q0 -95 -66.5 -162t-178.5 -82q26 39 26 88q0 47 -23 74.5t-69 27.5q-75 0 -129 -114q-25 -54 -33 -112.5t-8 -178.5q0 -177 36.5 -255.5t119.5 -84.5v-45q-135 12 -314 12q-145 0 -295 -12v45q71 22 101 100
t30 240v178q0 185 -26.5 268.5t-104.5 108.5v39z" />
    <glyph glyph-name="s" unicode="s" horiz-adv-x="927" 
d="M825 637h-49q-35 126 -110 199t-170 73q-51 0 -79 -25.5t-28 -70.5q0 -51 36 -83t146 -79q79 -34 126 -60.5t86.5 -62.5t56 -82.5t16.5 -109.5q0 -170 -119 -263t-336 -93q-108 0 -200 20t-142 43q19 120 19 238q0 81 -4 135h53q29 -152 107 -241t182 -89q68 0 106.5 36
t38.5 99q0 64 -46.5 101.5t-182.5 99.5q-132 59 -181 116t-49 156q0 149 107.5 229.5t304.5 80.5q183 0 311 -56q-8 -68 -8 -149q0 -89 8 -162z" />
    <glyph glyph-name="t" unicode="t" horiz-adv-x="776" 
d="M760 983l18 -31l-61 -88q-104 8 -234 8q-4 -111 -4 -333q0 -56 0.5 -90t2.5 -78.5t6 -71t11 -59.5t18 -51.5t26 -38t35.5 -29.5t47.5 -16.5t60 -6.5q39 0 88 17l19 -74q-154 -61 -349 -61q-50 0 -88 5t-67 18.5t-49.5 29t-34.5 44.5t-22 56.5t-12.5 73t-5.5 86t-1 104.5
q0 27 1 72t1 70l2 333q-66 0 -133 -6l-19 70q152 60 249.5 162.5t158.5 267.5h80q-18 -172 -21 -383h277z" />
    <glyph glyph-name="u" unicode="u" horiz-adv-x="1306" 
d="M1143 995q-13 -187 -13 -374v-242q0 -162 30.5 -239.5t101.5 -100.5v-45q-62 8 -170 8q-123 0 -240 -20q-37 122 -37 245q-147 -247 -371 -247q-68 0 -118 20.5t-80 53.5t-48 83t-24 100.5t-6 114.5v205q0 185 -29 269.5t-100 107.5v39l459 22q-15 -166 -15 -370v-166
q0 -114 38.5 -181t117.5 -67q60 0 105.5 34t70.5 97v215q0 185 -30 269.5t-103 107.5v39z" />
    <glyph glyph-name="v" unicode="v" horiz-adv-x="1161" 
d="M682 309l113 266q71 168 71 244q0 55 -36.5 84t-122.5 43v43q114 -12 258 -12q132 0 237 12v-39q-61 -17 -137 -132t-137 -253l-135 -305q-50 -109 -105 -266h-225l-287 661q-114 263 -203 295v39q156 -12 301 -12q177 0 306 12v-43q-111 -12 -111 -88q0 -38 16.5 -87.5
t57.5 -143.5z" />
    <glyph glyph-name="w" unicode="w" horiz-adv-x="1714" 
d="M856 543l-92 -232q-64 -156 -117 -317h-217l-235 633q-60 161 -105.5 233.5t-103.5 85.5v43q120 -12 286 -12q163 0 301 12v-43q-96 -18 -96 -104q0 -48 58 -203l112 -295l150 363q-40 114 -69 161.5t-81 77.5v43q111 -12 281 -12q142 0 274 12v-43q-54 -6 -76 -30.5
t-22 -77.5q0 -50 45 -168l121 -326l114 293q39 107 39 166q0 65 -32 96.5t-113 46.5v43q108 -12 238 -12q134 0 225 12v-43q-131 -88 -238 -352l-78 -191q-78 -196 -145 -409h-217z" />
    <glyph glyph-name="x" unicode="x" horiz-adv-x="1294" 
d="M825 545l193 -246q152 -193 280 -262v-43q-153 12 -325 12q-161 0 -336 -12v43q28 4 44 8t29 17.5t13 35.5q0 26 -17.5 57t-68.5 95l-94 123l-111 -119q-78 -87 -78 -135q0 -34 28.5 -55.5t78.5 -26.5v-43q-105 12 -240 12q-148 0 -262 -12v43q88 35 182.5 107t165.5 151
l154 172l-211 264q-108 137 -217 219v39q132 -12 327 -12q190 0 316 12v-43q-49 0 -71.5 -16t-22.5 -51q0 -49 69 -129l92 -109l82 90q64 70 64 129q0 42 -24 61t-85 25v43q120 -12 236 -12q112 0 244 12v-39q-171 -114 -332 -293z" />
    <glyph glyph-name="y" unicode="y" horiz-adv-x="1167" 
d="M705 342l122 291q45 105 45 172q0 63 -37 94.5t-124 40.5v49q102 -12 260 -12q143 0 237 12v-49q-76 -19 -142.5 -120t-152.5 -294l-96 -217q-19 -42 -85.5 -209.5t-123 -286.5t-108.5 -188q-69 -94 -207 -94q-106 0 -164.5 53t-58.5 148q0 71 29.5 120.5t70.5 75.5
q28 -68 66.5 -103.5t103.5 -35.5q69 0 121 45q51 44 51 100q0 23 -11 52.5t-46 101.5l-271 557q-90 186 -122.5 233.5t-88.5 61.5v49q123 -12 295 -12q158 0 305 12v-49q-104 0 -104 -72q0 -58 39 -135z" />
    <glyph glyph-name="z" unicode="z" horiz-adv-x="1032" 
d="M936 983l33 -55q-54 -106 -115 -197t-135.5 -173.5t-147 -150.5t-174.5 -155q56 -1 166.5 -8.5t134.5 -7.5q111 0 155 39.5t95 173.5h56q-25 -194 -57.5 -297.5t-70.5 -137.5t-100 -34q-39 0 -244 26.5t-309 26.5q-59 -53 -114 -53q-28 0 -44 14t-16 39q0 38 21 87
t66.5 90.5t101.5 41.5q202 253 360 547q-27 8 -94 8q-164 0 -260.5 -62.5t-137.5 -195.5h-59q13 98 25.5 165.5t28.5 117t32.5 78.5t41 45.5t50 22t64.5 5.5h647z" />
    <glyph glyph-name="braceleft" unicode="{" horiz-adv-x="729" 
d="M14 477v72q72 29 105 87t33 157q0 82 -12.5 247t-12.5 222q0 141 92 204.5t297 63.5q119 0 197 -19v-81q-141 0 -199.5 -49t-58.5 -169q0 -60 12 -178t12 -168q0 -143 -64 -226t-206 -126q63 -26 101.5 -46.5t74.5 -50t54.5 -66t29 -89.5t10.5 -125q0 -63 -12 -164
t-12 -166q0 -123 65 -169t193 -46v-79q-79 -17 -191 -17q-206 0 -300.5 61.5t-94.5 196.5q0 53 11.5 229t11.5 244q0 96 -29 155.5t-107 94.5z" />
    <glyph glyph-name="bar" unicode="|" horiz-adv-x="1024" 
d="M393 1503h240v-1982h-240v1982z" />
    <glyph glyph-name="braceright" unicode="}" horiz-adv-x="729" 
d="M715 549v-72q-78 -35 -106.5 -94.5t-28.5 -155.5q0 -68 11 -244t11 -229q0 -135 -94.5 -196.5t-300.5 -61.5q-112 0 -191 17v79q128 0 193 46t65 169q0 65 -12 166t-12 164q0 72 10.5 125t29 89.5t54.5 66t74.5 50t101.5 46.5q-142 43 -206 126t-64 226q0 50 12 168
t12 178q0 120 -58.5 169t-199.5 49v81q78 19 197 19q205 0 297 -63.5t92 -204.5q0 -57 -12 -222t-12 -247q0 -100 32.5 -157.5t104.5 -86.5z" />
    <glyph glyph-name="asciitilde" unicode="~" 
d="M1161 1227l49 -35q-104 -170 -186 -245t-180 -75q-105 0 -238 43q-146 48 -233 48q-49 0 -88 -8t-68.5 -25.5t-45.5 -30.5t-38 -35l-53 41q96 164 185.5 243t187.5 79q73 0 235 -51q115 -37 219 -37q86 0 152 23t102 65z" />
    <glyph glyph-name="uni00A0" unicode="&#xa0;" horiz-adv-x="389" 
 />
    <glyph glyph-name="exclamdown" unicode="&#xa1;" horiz-adv-x="681" 
d="M168 -440l-59 51q53 181 87.5 395.5t43.5 419.5q137 78 155 90l74 -45q0 -509 43 -825q-209 -30 -344 -86zM344 969q78 0 133 -55.5t55 -133.5q0 -77 -55 -131.5t-133 -54.5q-76 0 -131 55t-55 131q0 78 54.5 133.5t131.5 55.5z" />
    <glyph glyph-name="cent" unicode="&#xa2;" 
d="M623 1323h108v-133q25 2 57 2q306 0 306 -188q0 -95 -65.5 -156.5t-166.5 -61.5q-31 0 -49 2q21 68 21 138q0 79 -27.5 126t-75.5 50v-742q41 -4 89 2t124.5 41.5t140.5 100.5l56 -47q-27 -41 -64 -82.5t-89 -86.5t-119.5 -76.5t-137.5 -39.5v-158h-108v154
q-215 13 -330 118t-115 326q0 231 115 377t330 187v147zM623 1092q-119 -54 -119 -371q0 -150 36 -227.5t83 -104.5v703z" />
    <glyph glyph-name="sterling" unicode="&#xa3;" 
d="M1081 788v-120h-415q-37 -143 -100 -219t-195 -136q113 -2 339 -23.5t279 -21.5q77 0 118.5 45t61.5 150h66q-15 -124 -33 -209.5t-46 -149t-67 -94t-92 -30.5q-54 0 -195 18.5t-337.5 37.5t-380.5 21q-92 -63 -147 -63q-54 0 -54 53q0 34 22.5 82t57 91.5t80.5 74.5
t88 31q63 65 114.5 162t71.5 180h-256v120h279q13 72 24 125t27 109.5t33.5 96.5t42 80.5t54.5 67.5t69 51.5t86.5 38t106.5 21.5t130 8q338 0 338 -208q0 -104 -69.5 -167t-186.5 -63q-42 0 -96 15q37 103 37 184q0 131 -72 131q-37 0 -65 -44.5t-54.5 -149.5t-58.5 -296
h395z" />
    <glyph glyph-name="currency" unicode="&#xa4;" 
d="M268 958l-145 146l110 110l146 -145q118 92 264 92q142 0 262 -92l152 150l110 -111l-151 -150q90 -120 90 -264q0 -145 -90 -262l151 -151l-110 -111l-152 149q-120 -92 -262 -92q-146 0 -264 95l-146 -148l-110 113l145 143q-49 61 -69.5 121t-20.5 139t18 132.5
t72 135.5zM389 694q0 -108 75.5 -186t178.5 -78q104 0 178 77t74 187t-74 188.5t-178 78.5q-103 0 -178.5 -79t-75.5 -188z" />
    <glyph glyph-name="yen" unicode="&#xa5;" 
d="M745 770l150 279q63 118 63 174q0 89 -102 92v57q102 -12 221 -12q113 0 201 12v-57q-107 -44 -223 -256l-107 -199h285v-121h-352l-50 -94v-96h402v-121h-402v-41q0 -47 2.5 -83.5t13 -81.5t28 -76.5t51 -58t78.5 -36.5v-57q-135 12 -336 12q-199 0 -349 -12v57
q94 13 135.5 92t41.5 242v43h-398v121h398l-93 190h-305v121h248l-63 127q-74 149 -134 222t-137 106v57q129 -12 301 -12q210 0 318 12v-57q-38 0 -60 -20.5t-22 -55.5q0 -14 3 -30t5.5 -26.5t10 -29.5t10.5 -25.5t13.5 -28.5t12.5 -26z" />
    <glyph glyph-name="brokenbar" unicode="&#xa6;" horiz-adv-x="1024" 
d="M393 1366h240v-741h-240v741zM393 313h240v-655h-240v655z" />
    <glyph glyph-name="section" unicode="&#xa7;" 
d="M948 207q89 -47 128.5 -111t39.5 -159q0 -186 -134.5 -288t-383.5 -102q-218 0 -336.5 67.5t-118.5 192.5q0 88 62 143.5t160 55.5q73 0 133 -29q-31 -74 -31 -155q0 -83 38.5 -127.5t110.5 -44.5q71 0 114.5 47t43.5 123q0 87 -60.5 137t-217.5 111q-49 19 -75.5 29.5
t-68 28.5t-63.5 30.5t-53.5 31.5t-48 36.5t-36 41t-29 48t-16 55t-6.5 65.5q0 107 55 184.5t173 137.5q-71 40 -105.5 96.5t-34.5 144.5q0 180 148 284.5t403 104.5q197 0 301.5 -61.5t104.5 -179.5q0 -91 -56.5 -140t-160.5 -49q-81 0 -140 25q25 60 25 133
q0 81 -41.5 127.5t-112.5 46.5q-69 0 -111 -43t-42 -112q0 -29 6.5 -52t24.5 -43.5t37.5 -35.5t60 -34t76 -33.5t100.5 -39.5q161 -61 217 -94q130 -75 155 -193q7 -33 7 -71q0 -246 -242 -330zM420 707q-51 -51 -51 -121q0 -26 6.5 -47.5t15 -38.5t30.5 -34t39 -29
t55.5 -30t65 -29t81.5 -34q45 -18 104 -44t74 -32q65 51 65 131q0 47 -25 79t-87.5 66t-196.5 89q-157 65 -176 74z" />
    <glyph glyph-name="dieresis" unicode="&#xa8;" horiz-adv-x="1024" 
d="M270 1456q75 0 129 -53.5t54 -128.5t-54 -128.5t-129 -53.5t-128.5 53.5t-53.5 128.5t53.5 128.5t128.5 53.5zM754 1456q75 0 128.5 -53.5t53.5 -128.5t-53.5 -128.5t-128.5 -53.5t-129 53.5t-54 128.5t54 128.5t129 53.5z" />
    <glyph glyph-name="copyright" unicode="&#xa9;" horiz-adv-x="1603" 
d="M1106 811h-68q-22 97 -74.5 147t-129.5 50q-205 0 -205 -314q0 -161 52 -246.5t150 -85.5q92 0 149 53.5t110 170.5l61 -23q-39 -111 -53 -215q-140 -53 -293 -53q-212 0 -311 91.5t-99 289.5q0 205 110 302t343 97q164 0 258 -35q-6 -46 -6 -108q0 -56 6 -121zM244 680
q0 -242 159 -404.5t396 -162.5q236 0 395.5 163t159.5 404q0 157 -72.5 287t-200 205t-282.5 75q-156 0 -283.5 -75t-199.5 -204.5t-72 -287.5zM92 680q0 150 54 281.5t148 224.5t225 146.5t280 53.5q150 0 281 -53.5t224.5 -147t147 -224.5t53.5 -281q0 -148 -53.5 -279
t-146.5 -225t-224.5 -148.5t-281.5 -54.5q-149 0 -280 54.5t-225 148.5t-148 225t-54 279z" />
    <glyph glyph-name="ordfeminine" unicode="&#xaa;" horiz-adv-x="702" 
d="M653 946l52 -20q-46 -166 -191 -166q-57 0 -87.5 22.5t-45.5 75.5q-40 -56 -78.5 -77t-99.5 -21q-77 0 -119.5 39.5t-42.5 109.5q0 97 79.5 146t256.5 63v21q0 4 0.5 24.5t0 31.5t-2 31.5t-5.5 33t-11 25.5t-18.5 19.5t-27.5 6.5q-57 0 -57 -72q0 -41 25 -70
q-43 -26 -103 -26q-54 0 -85.5 24.5t-31.5 65.5q0 67 88 110t226 43q113 0 166 -43.5t53 -136.5q0 -28 -2 -88t-2 -88q0 -78 5.5 -107.5t20.5 -29.5q11 0 19 11.5t18 41.5zM377 1051q-119 -17 -119 -107q0 -55 37 -55q48 0 82 67v95z" />
    <glyph glyph-name="guillemotleft" unicode="&#xab;" horiz-adv-x="1028" 
d="M412 10h-29q-4 47 -68 115l-260 283q67 155 185 298.5t241 221.5v-303q-148 -19 -231 -90l196 -213q32 -33 43 -54t11 -45q0 -29 -32 -103t-56 -110zM858 10h-29q-4 48 -67 115l-260 283q67 155 185 298.5t241 221.5v-303q-150 -19 -232 -90l197 -213q32 -34 42.5 -54.5
t10.5 -46.5q0 -32 -25 -91.5t-63 -119.5z" />
    <glyph glyph-name="logicalnot" unicode="&#xac;" 
d="M166 795h956v-471h-204v276h-752v195z" />
    <glyph glyph-name="uni00AD" unicode="&#xad;" horiz-adv-x="837" 
d="M756 840v-318q-274 -75 -674 -231v330q329 85 674 219z" />
    <glyph glyph-name="registered" unicode="&#xae;" horiz-adv-x="749" 
d="M340 1075v-51q0 -46 7.5 -65t29.5 -23v-14q-32 4 -78 4q-44 0 -76 -4v14q19 5 26 23.5t7 64.5v109q0 46 -7 64.5t-26 23.5v14q28 -4 72 -4q11 0 40 2t52 2q102 0 102 -72q0 -30 -20.5 -52t-54.5 -30q34 -6 51 -41l33 -61q15 -37 43 -43v-12h-82q-12 0 -17 1t-10.5 5
t-9.5 14l-43 90q-16 32 -27 39q-6 0 -12 2zM340 1102q6 -2 12 -2q49 0 49 55t-41 55q-12 0 -20 -4v-104zM61 1073q0 133 88 223t226 90q136 0 224.5 -89.5t88.5 -221.5q0 -138 -87.5 -226.5t-225.5 -88.5q-139 0 -226.5 87.5t-87.5 225.5zM133 1075q0 -108 67 -180t175 -72
q105 0 173 72.5t68 179.5q0 106 -68 178t-173 72q-108 0 -175 -71.5t-67 -178.5z" />
    <glyph glyph-name="macron" unicode="&#xaf;" horiz-adv-x="1024" 
d="M207 1401h694l17 -45l-62 -160h-709l-16 31z" />
    <glyph glyph-name="degree" unicode="&#xb0;" horiz-adv-x="966" 
d="M483 1384q140 0 240 -97.5t100 -235.5q0 -139 -100 -237.5t-240 -98.5t-240 98.5t-100 237.5q0 138 100 235.5t240 97.5zM483 1235q-75 0 -127.5 -53.5t-52.5 -130.5q0 -76 53 -131.5t127 -55.5q73 0 127 56t54 131q0 76 -53.5 130t-127.5 54z" />
    <glyph glyph-name="plusminus" unicode="&#xb1;" 
d="M545 1266h194v-383h385v-189h-385v-389h-194v389h-379v189h379v383zM166 221h958v-188h-958v188z" />
    <glyph glyph-name="two.superior" unicode="&#xb2;" horiz-adv-x="808" 
d="M696 1090h64q-9 -67 -16 -108.5t-19.5 -84.5t-29 -65.5t-42.5 -37t-61 -14.5q-32 0 -190.5 11.5t-303.5 11.5q-28 -25 -47 -25q-39 0 -39 37q0 39 50 101.5t98 62.5q136 139 209 256t73 195q0 52 -21.5 81t-58.5 29q-73 0 -73 -82q0 -60 37 -106q-39 -31 -117 -31
q-65 0 -101 33.5t-36 93.5q0 86 92 135t252 49q282 0 282 -205q0 -113 -85.5 -209t-311.5 -237q55 0 150 -4t129 -4q47 0 73 26t43 91z" />
    <glyph glyph-name="three.superior" unicode="&#xb3;" horiz-adv-x="778" 
d="M371 1284q31 19 50 61.5t19 94.5q0 100 -80 100q-67 0 -67 -80q0 -51 39 -98q-42 -33 -113 -33q-66 0 -104.5 33t-38.5 90q0 81 93.5 130.5t246.5 49.5q138 0 210 -47.5t72 -138.5q0 -65 -30 -107t-105 -82q80 -26 117 -72t37 -122q0 -134 -105 -208.5t-299 -74.5
q-278 0 -278 152q0 69 51.5 108t140.5 39q41 0 78 -12q-41 -65 -41 -123q0 -74 72 -74q57 0 90 47t33 127q0 50 -19.5 89.5t-54.5 58.5q-113 -39 -162 -39q-31 0 -49 15.5t-18 41.5q0 41 47.5 57.5t167.5 16.5z" />
    <glyph glyph-name="acute" unicode="&#xb4;" horiz-adv-x="1024" 
d="M354 1065l-53 82q181 181 311 403q63 -31 122.5 -90.5t96.5 -128.5q-88 -78 -218.5 -148.5t-258.5 -117.5z" />
    <glyph glyph-name="mu" unicode="&#xb5;" 
d="M27 924v39l460 20q-14 -155 -14 -371v-149q0 -43 6.5 -82.5t22.5 -80t48 -65t77 -24.5q60 0 105.5 34t70.5 97v205q0 59 -2 101.5t-9.5 94t-21.5 85t-39 60.5t-61 36v39l460 24q-10 -160 -10 -401v-207q0 -163 29 -240t100 -100v-45q-73 8 -178 8q-117 0 -231 -20
q-37 102 -37 245q-64 -104 -154 -174.5t-196 -70.5q-63 0 -103 18q0 -224 10 -354q-139 -31 -251 -86l-58 51q105 446 105 741v195q0 186 -28.5 270t-100.5 107z" />
    <glyph glyph-name="mu" unicode="&#x3bc;" 
d="M27 924v39l460 20q-14 -155 -14 -371v-149q0 -43 6.5 -82.5t22.5 -80t48 -65t77 -24.5q60 0 105.5 34t70.5 97v205q0 59 -2 101.5t-9.5 94t-21.5 85t-39 60.5t-61 36v39l460 24q-10 -160 -10 -401v-207q0 -163 29 -240t100 -100v-45q-73 8 -178 8q-117 0 -231 -20
q-37 102 -37 245q-64 -104 -154 -174.5t-196 -70.5q-63 0 -103 18q0 -224 10 -354q-139 -31 -251 -86l-58 51q105 446 105 741v195q0 186 -28.5 270t-100.5 107z" />
    <glyph glyph-name="paragraph" unicode="&#xb6;" 
d="M907 1454l148 59v-147h186l19 -25l-56 -92q-82 15 -149 15v-881q102 0 186 12l19 -30l-56 -93h-149v-180q0 -144 -26 -245.5t-87 -177.5t-167.5 -113t-262.5 -37q-143 0 -219 53t-76 154q0 96 71.5 151t196.5 55q61 0 93 -12q-39 -67 -39 -143q0 -62 31.5 -97.5
t86.5 -35.5q250 0 250 426v202h-110q-390 0 -555.5 121.5t-165.5 407.5q0 132 32.5 231t88.5 162t142.5 102t184.5 54.5t224 15.5h159v88zM907 1264q-124 -1 -176.5 -78.5t-52.5 -259.5v-160q0 -219 48.5 -301t180.5 -82v881z" />
    <glyph glyph-name="periodcentered" unicode="&#xb7;" horiz-adv-x="665" 
d="M334 918q90 0 154.5 -65.5t64.5 -156.5q0 -92 -64 -156.5t-155 -64.5q-92 0 -156.5 64.5t-64.5 156.5q0 91 64.5 156.5t156.5 65.5z" />
    <glyph glyph-name="cedilla" unicode="&#xb8;" horiz-adv-x="1024" 
d="M426 -195l-20 33q114 90 190 90q51 0 90 -54.5t39 -125.5q0 -91 -85.5 -151t-213.5 -60q-35 0 -98 8l34 131q56 -22 93 -22q34 0 52.5 14.5t18.5 40.5q0 29 -23.5 68t-49.5 39q-11 0 -27 -11z" />
    <glyph glyph-name="one.superior" unicode="&#xb9;" horiz-adv-x="667" 
d="M532 1665l35 -57q-44 -41 -57.5 -90.5t-13.5 -171.5v-279q0 -123 22.5 -168.5t87.5 -54.5v-56q-117 9 -213 9q-107 0 -254 -9v58q70 1 95.5 48t25.5 173v328q-75 -37 -121 -53t-119 -31l56 178q84 11 223.5 64.5t232.5 111.5z" />
    <glyph glyph-name="ordmasculine" unicode="&#xba;" horiz-adv-x="776" 
d="M725 1081q0 -157 -88.5 -239t-255.5 -82q-163 0 -247.5 79t-84.5 232q0 155 88 235t260 80q158 0 243 -78.5t85 -226.5zM500 1057q0 114 -31.5 178.5t-87.5 64.5q-48 0 -75 -52.5t-27 -145.5q0 -120 30 -189t82 -69q50 0 79.5 58t29.5 155z" />
    <glyph glyph-name="guillemotright" unicode="&#xbb;" horiz-adv-x="1028" 
d="M168 928h29q1 -9 3.5 -17.5t8 -18.5t8.5 -16t12.5 -17.5t11.5 -14.5t13 -16l12 -13l260 -285q-68 -154 -185.5 -298t-240.5 -222v303q82 12 135.5 32.5t96.5 57.5l-197 213q-32 35 -42.5 55t-10.5 44q0 34 29 101t57 112zM616 928h27q2 -20 15 -43t23.5 -35.5t31.5 -34.5
l260 -285q-68 -154 -185.5 -298t-240.5 -222v303q152 22 231 90l-196 213q-33 34 -43.5 54.5t-10.5 46.5q0 32 25 92.5t63 118.5z" />
    <glyph glyph-name="onequarter" unicode="&#xbc;" horiz-adv-x="1988" 
d="M594 1419l35 -57q-44 -41 -58 -91t-14 -171v-279q0 -122 23 -168t88 -55v-55q-104 8 -213 8q-123 0 -254 -8v57q70 1 95.5 48t25.5 173v328q-75 -37 -121 -53t-119 -31l55 178q84 11 224 64.5t233 111.5zM1098 1386l155 -53l-465 -1353l-155 53zM1765 164v-158l-172 -29
l-28 25v172q-85 10 -187 10q-77 0 -155 -4q-20 -20 -41 -20q-20 0 -33.5 13.5t-13.5 35.5q0 45 29 86t69 53q46 92 74 181.5t28 140.5q0 65 -39 65q-27 0 -63 -20l-25 55q137 72 269 72q104 0 104 -78q0 -38 -29.5 -98t-61.5 -107.5t-82 -116t-65 -90.5q40 4 97 4
q66 0 131 -6v254q97 11 164 51l34 -39v-276q95 6 101 145h59q-2 -179 -39.5 -253.5t-124.5 -67.5z" />
    <glyph glyph-name="onehalf" unicode="&#xbd;" horiz-adv-x="1988" 
d="M594 1419l35 -57q-44 -41 -58 -91t-14 -171v-279q0 -122 23 -168t88 -55v-55q-91 8 -230 8q-153 0 -237 -8v57q70 1 95.5 48t25.5 173v328q-75 -37 -121 -53t-119 -31l55 178q84 11 224 64.5t233 111.5zM1098 1386l155 -53l-465 -1353l-155 53zM1831 299h63
q-9 -67 -16 -108.5t-19.5 -84t-29 -65.5t-42.5 -37t-61 -14q-32 0 -190 11t-303 11q-27 -24 -47 -24q-39 0 -39 37q0 39 49.5 101t97.5 62q136 139 209.5 256t73.5 195q0 52 -21.5 81.5t-58.5 29.5q-74 0 -74 -82q0 -61 37 -107q-39 -31 -117 -31q-65 0 -101 33.5t-36 93.5
q0 86 92 135.5t252 49.5q283 0 283 -205q0 -113 -86 -209.5t-311 -237.5q54 0 149 -4t129 -4q47 0 73.5 26.5t43.5 90.5z" />
    <glyph glyph-name="threequarters" unicode="&#xbe;" horiz-adv-x="2072" 
d="M651 1012q80 -26 117 -72.5t37 -122.5q0 -134 -105 -208t-299 -74q-278 0 -278 151q0 69 51.5 108.5t140.5 39.5q38 0 78 -13q-41 -65 -41 -123q0 -73 72 -73q57 0 90 47t33 127q0 50 -19.5 89t-54.5 58q-113 -39 -162 -39q-31 0 -49 16t-18 42q0 41 47.5 57t167.5 16
q31 19 50 61.5t19 94.5q0 100 -79 100q-68 0 -68 -80q0 -51 39 -98q-42 -33 -113 -33q-66 0 -104.5 33t-38.5 90q0 81 93.5 130.5t246.5 49.5q138 0 210 -47.5t72 -138.5q0 -65 -30 -106.5t-105 -81.5zM1182 1386l155 -53l-465 -1353l-155 53zM1831 164v-158l-172 -29
l-29 25v172q-85 10 -186 10q-78 0 -156 -4q-20 -20 -41 -20q-20 0 -33.5 13.5t-13.5 35.5q0 45 29 86t69 53q46 92 74.5 181.5t28.5 140.5q0 65 -39 65q-28 0 -64 -20l-24 55q137 72 268 72q105 0 105 -78q0 -38 -29.5 -98t-61.5 -107.5t-82 -116t-65 -90.5q40 4 96 4
q66 0 131 -6v254q97 11 164 51l35 -39v-276q94 6 100 145h60q-2 -179 -39.5 -253.5t-124.5 -67.5z" />
    <glyph glyph-name="questiondown" unicode="&#xbf;" horiz-adv-x="1085" 
d="M385 381l-14 39q174 108 325 108q123 0 123 -122q0 -28 -12.5 -57t-27.5 -50.5t-45.5 -51t-46.5 -43t-51.5 -41t-41.5 -32.5q-77 -62 -118.5 -120.5t-41.5 -137.5q0 -88 38 -146.5t95 -58.5q51 0 82 47t31 125q0 85 -47 166q78 41 166 41q97 0 151 -54t54 -151
q0 -130 -140 -207t-375 -77q-203 0 -312 74t-109 212q0 85 37 137.5t143 120.5q7 4 48.5 28.5t69.5 43.5t64 47.5t55 58.5t19 58q0 26 -16 42.5t-44 16.5q-23 0 -59 -16zM561 594q-77 0 -131.5 55t-54.5 131q0 78 54.5 133.5t131.5 55.5q78 0 133.5 -55.5t55.5 -133.5
q0 -77 -55.5 -131.5t-133.5 -54.5z" />
    <glyph glyph-name="Agrave" unicode="&#xc0;" horiz-adv-x="1462" 
d="M852 440h-453l-34 -104q-39 -119 -39 -156q0 -115 137 -133v-53q-114 12 -262 12q-130 0 -256 -12v47q47 6 89.5 38.5t80 91t67 120.5t62.5 149l211 549q35 92 45 130.5t10 72.5q0 110 -145 113v61q90 -4 184 -4q171 0 332 22q39 -163 112 -358l203 -534
q142 -378 270 -451v-47q-141 12 -336 12q-178 0 -319 -12v53q123 9 123 109q0 56 -43 174zM807 575l-178 455l-172 -455h350zM922 1571l-50 -96q-276 90 -524 96q3 73 26.5 158t55.5 135q237 -79 492 -293z" />
    <glyph glyph-name="Aacute" unicode="&#xc1;" horiz-adv-x="1462" 
d="M852 440h-453l-34 -104q-39 -119 -39 -156q0 -115 137 -133v-53q-114 12 -262 12q-130 0 -256 -12v47q47 6 89.5 38.5t80 91t67 120.5t62.5 149l211 549q35 92 45 130.5t10 72.5q0 110 -145 113v61q90 -4 184 -4q171 0 332 22q39 -163 112 -358l203 -534
q142 -378 270 -451v-47q-141 12 -336 12q-178 0 -319 -12v53q123 9 123 109q0 56 -43 174zM807 575l-178 455l-172 -455h350zM539 1460l-43 99q110 69 223 162t188 177q46 -39 94 -109t76 -140q-77 -53 -233.5 -108t-304.5 -81z" />
    <glyph glyph-name="Acircumflex" unicode="&#xc2;" horiz-adv-x="1462" 
d="M852 440h-453l-34 -104q-39 -119 -39 -156q0 -115 137 -133v-53q-114 12 -262 12q-130 0 -256 -12v47q47 6 89.5 38.5t80 91t67 120.5t62.5 149l211 549q35 92 45 130.5t10 72.5q0 110 -145 113v61q90 -4 184 -4q171 0 332 22q39 -163 112 -358l203 -534
q142 -378 270 -451v-47q-141 12 -336 12q-178 0 -319 -12v53q123 9 123 109q0 56 -43 174zM807 575l-178 455l-172 -455h350zM1182 1673l24 -14q-40 -54 -115.5 -122.5t-117.5 -68.5q-28 0 -78 33l-254 158q-81 -69 -141 -176h-326q119 137 295 229.5t358 134.5l232 -147
q66 -41 92 -41q17 0 31 14z" />
    <glyph glyph-name="Atilde" unicode="&#xc3;" horiz-adv-x="1462" 
d="M852 440h-453l-34 -104q-39 -119 -39 -156q0 -115 137 -133v-53q-114 12 -262 12q-130 0 -256 -12v47q47 6 89.5 38.5t80 91t67 120.5t62.5 149l211 549q35 92 45 130.5t10 72.5q0 110 -145 113v61q90 -4 184 -4q171 0 332 22q39 -163 112 -358l203 -534
q142 -378 270 -451v-47q-141 12 -336 12q-178 0 -319 -12v53q123 9 123 109q0 56 -43 174zM807 575l-178 455l-172 -455h350zM1096 1810l57 -22q-40 -149 -93.5 -214t-135.5 -65q-74 0 -283 56q-182 51 -252 51q-42 0 -64.5 -18t-43.5 -66l-56 22q50 143 105 211t121 68
q53 0 116 -12.5t185 -44.5q196 -52 247 -52q68 0 97 86z" />
    <glyph glyph-name="Adieresis" unicode="&#xc4;" horiz-adv-x="1462" 
d="M852 440h-453l-34 -104q-39 -119 -39 -156q0 -115 137 -133v-53q-114 12 -262 12q-130 0 -256 -12v47q47 6 89.5 38.5t80 91t67 120.5t62.5 149l211 549q35 92 45 130.5t10 72.5q0 110 -145 113v61q90 -4 184 -4q171 0 332 22q39 -163 112 -358l203 -534
q142 -378 270 -451v-47q-141 12 -336 12q-178 0 -319 -12v53q123 9 123 109q0 56 -43 174zM807 575l-178 455l-172 -455h350zM430 1855q76 0 131 -54.5t55 -131.5q0 -78 -54.5 -133t-131.5 -55q-78 0 -133 55t-55 133q0 77 55 131.5t133 54.5zM928 1855q76 0 131 -54.5
t55 -131.5q0 -78 -54.5 -133t-131.5 -55q-78 0 -132.5 55t-54.5 133q0 76 55 131t132 55z" />
    <glyph glyph-name="Aring" unicode="&#xc5;" horiz-adv-x="1462" 
d="M852 440h-453l-34 -104q-39 -119 -39 -156q0 -115 137 -133v-53q-114 12 -262 12q-130 0 -256 -12v47q47 6 89.5 38.5t80 91t67 120.5t62.5 149l211 549q35 92 45 130.5t10 72.5q0 110 -145 113v61q90 -4 184 -4q171 0 332 22q39 -163 112 -358l203 -534
q142 -378 270 -451v-47q-141 12 -336 12q-178 0 -319 -12v53q123 9 123 109q0 56 -43 174zM807 575l-178 455l-172 -455h350zM657 1972q117 0 187.5 -72.5t70.5 -179.5t-70.5 -179.5t-187.5 -72.5t-187.5 72.5t-70.5 179.5t70.5 179.5t187.5 72.5zM657 1843q-50 0 -83 -35.5
t-33 -87.5t33 -87.5t83 -35.5t83.5 35.5t33.5 87.5t-33.5 87.5t-83.5 35.5z" />
    <glyph glyph-name="AE" unicode="&#xc6;" horiz-adv-x="2009" 
d="M1303 1253v-465h43q108 0 168.5 32.5t82.5 127.5h97q-19 -98 -19 -217q0 -133 19 -237h-97q-37 99 -87.5 135.5t-149.5 36.5h-57v-238q0 -190 36.5 -256t141.5 -66q57 0 111 22t95 55t81.5 82t67.5 92.5t56 97.5l97 -54q-94 -192 -158 -421q-207 20 -438 20h-277
q-233 0 -350 -6v55q102 13 141 99t39 296v222h-313l-193 -306l-10 -16q-11 -16 -13 -19t-12 -18.5t-13 -21t-11 -20t-11 -22t-8.5 -20.5t-7.5 -22t-4 -20t-2 -21q0 -49 31.5 -76.5t99.5 -36.5v-53q-132 12 -264 12q-130 0 -256 -12v47q54 30 100.5 70t92.5 99t69.5 94
t71.5 110l446 702q72 113 72 150q0 25 -18 35t-64 10v61q126 -6 262 -6h389q251 0 418 12q0 -194 55 -403l-90 -27q-79 180 -163 242.5t-244 62.5h-53zM946 788v383l-239 -383h239z" />
    <glyph glyph-name="Ccedilla" unicode="&#xc7;" horiz-adv-x="1486" 
d="M1335 928h-104q-95 344 -371 344q-182 0 -277.5 -144.5t-95.5 -427.5q0 -59 4 -113.5t15 -116.5t28 -114.5t46 -102t67 -84t92.5 -55t120.5 -20.5q156 0 277 94t215 289l100 -47q-69 -191 -100 -371q-99 -35 -250.5 -57t-292.5 -22q-372 0 -546.5 166.5t-174.5 519.5
q0 370 195 545t604 175q240 0 448 -51q-8 -109 -8 -198q0 -105 8 -209zM659 -199l-20 33q119 92 195 92q53 0 93 -56.5t40 -129.5q0 -92 -88 -153.5t-217 -61.5q-54 0 -105 8l37 135q57 -24 94 -24q35 0 55.5 15.5t20.5 41.5q0 31 -25.5 71t-52.5 40q-10 0 -27 -11z" />
    <glyph glyph-name="Egrave" unicode="&#xc8;" horiz-adv-x="1333" 
d="M594 1253v-458h72q42 0 71 2.5t60.5 12t53 26t40 45t29.5 69.5h96q-17 -113 -17 -229q0 -125 17 -229h-96q-38 98 -91.5 132.5t-162.5 34.5h-72v-206q0 -185 24 -258q30 -93 160 -93q73 0 141.5 30.5t123 83t96 111t75.5 126.5l99 -52q-96 -185 -158 -419
q-203 18 -479 18h-250q-229 0 -367 -6v55q98 19 135 104t37 291v476q0 207 -37 292.5t-135 104.5v55q95 -6 275 -6h334q262 0 452 12q7 -228 51 -401l-88 -27q-70 172 -161 237.5t-271 65.5h-57zM860 1571l-49 -96q-276 90 -524 96q3 73 26.5 158t55.5 135q236 -78 491 -293
z" />
    <glyph glyph-name="Eacute" unicode="&#xc9;" horiz-adv-x="1333" 
d="M594 1253v-458h72q42 0 71 2.5t60.5 12t53 26t40 45t29.5 69.5h96q-17 -113 -17 -229q0 -125 17 -229h-96q-38 98 -91.5 132.5t-162.5 34.5h-72v-206q0 -185 24 -258q30 -93 160 -93q73 0 141.5 30.5t123 83t96 111t75.5 126.5l99 -52q-96 -185 -158 -419
q-203 18 -479 18h-250q-229 0 -367 -6v55q98 19 135 104t37 291v476q0 207 -37 292.5t-135 104.5v55q95 -6 275 -6h334q262 0 452 12q7 -228 51 -401l-88 -27q-70 172 -161 237.5t-271 65.5h-57zM473 1460l-43 99q110 70 223.5 162.5t188.5 176.5q46 -39 94 -109t76 -140
q-76 -52 -233.5 -107.5t-305.5 -81.5z" />
    <glyph glyph-name="Ecircumflex" unicode="&#xca;" horiz-adv-x="1333" 
d="M594 1253v-458h72q42 0 71 2.5t60.5 12t53 26t40 45t29.5 69.5h96q-17 -113 -17 -229q0 -125 17 -229h-96q-38 98 -91.5 132.5t-162.5 34.5h-72v-206q0 -185 24 -258q30 -93 160 -93q73 0 141.5 30.5t123 83t96 111t75.5 126.5l99 -52q-96 -185 -158 -419
q-203 18 -479 18h-250q-229 0 -367 -6v55q98 19 135 104t37 291v476q0 207 -37 292.5t-135 104.5v55q95 -6 275 -6h334q262 0 452 12q7 -228 51 -401l-88 -27q-70 172 -161 237.5t-271 65.5h-57zM1159 1673l25 -14q-40 -54 -116 -122.5t-118 -68.5q-28 0 -78 33l-254 158
q-81 -69 -141 -176h-325q119 137 295 229.5t358 134.5l231 -147q66 -41 92 -41q17 0 31 14z" />
    <glyph glyph-name="Edieresis" unicode="&#xcb;" horiz-adv-x="1333" 
d="M594 1253v-458h72q42 0 71 2.5t60.5 12t53 26t40 45t29.5 69.5h96q-17 -113 -17 -229q0 -125 17 -229h-96q-38 98 -91.5 132.5t-162.5 34.5h-72v-206q0 -185 24 -258q30 -93 160 -93q73 0 141.5 30.5t123 83t96 111t75.5 126.5l99 -52q-96 -185 -158 -419
q-203 18 -479 18h-250q-229 0 -367 -6v55q98 19 135 104t37 291v476q0 207 -37 292.5t-135 104.5v55q95 -6 275 -6h334q262 0 452 12q7 -228 51 -401l-88 -27q-70 172 -161 237.5t-271 65.5h-57zM383 1855q77 0 131.5 -54.5t54.5 -131.5q0 -78 -54.5 -133t-131.5 -55
q-78 0 -133 55t-55 133q0 77 55 131.5t133 54.5zM881 1855q77 0 131.5 -54.5t54.5 -131.5q0 -78 -54.5 -133t-131.5 -55q-78 0 -132.5 55t-54.5 133q0 76 55 131t132 55z" />
    <glyph glyph-name="Igrave" unicode="&#xcc;" horiz-adv-x="825" 
d="M768 49v-55q-180 12 -332 12q-125 0 -379 -12v55q99 17 136.5 102t37.5 293v476q0 207 -37 292.5t-137 104.5v55q199 -12 346 -12q123 0 365 12v-55q-99 -19 -136.5 -104t-37.5 -293v-476q0 -207 38 -292.5t136 -102.5zM686 1571l-49 -96q-276 90 -524 96q3 73 26.5 158
t55.5 135q236 -78 491 -293z" />
    <glyph glyph-name="Iacute" unicode="&#xcd;" horiz-adv-x="825" 
d="M768 49v-55q-180 12 -332 12q-125 0 -379 -12v55q99 17 136.5 102t37.5 293v476q0 207 -37 292.5t-137 104.5v55q199 -12 346 -12q123 0 365 12v-55q-99 -19 -136.5 -104t-37.5 -293v-476q0 -207 38 -292.5t136 -102.5zM260 1460l-43 99q110 70 223.5 162.5t188.5 176.5
q46 -39 94 -109t76 -140q-76 -52 -233.5 -107.5t-305.5 -81.5z" />
    <glyph glyph-name="Icircumflex" unicode="&#xce;" horiz-adv-x="825" 
d="M768 49v-55q-180 12 -332 12q-125 0 -379 -12v55q99 17 136.5 102t37.5 293v476q0 207 -37 292.5t-137 104.5v55q199 -12 346 -12q123 0 365 12v-55q-99 -19 -136.5 -104t-37.5 -293v-476q0 -207 38 -292.5t136 -102.5zM903 1673l25 -14q-40 -54 -116 -122.5t-118 -68.5
q-28 0 -78 33l-254 158q-81 -69 -141 -176h-325q119 137 295 229.5t358 134.5l231 -147q66 -41 92 -41q17 0 31 14z" />
    <glyph glyph-name="Idieresis" unicode="&#xcf;" horiz-adv-x="825" 
d="M193 1829q71 0 121.5 -51t50.5 -123t-50.5 -123t-121.5 -51q-72 0 -123.5 51t-51.5 123t51.5 123t123.5 51zM635 1829q71 0 121.5 -51t50.5 -123t-50.5 -123t-121.5 -51q-72 0 -123 51t-51 123t51 123t123 51zM768 49v-55q-180 12 -332 12q-125 0 -379 -12v55
q99 17 136.5 102t37.5 293v476q0 207 -37 292.5t-137 104.5v55q199 -12 346 -12q123 0 365 12v-55q-99 -19 -136.5 -104t-37.5 -293v-476q0 -207 38 -292.5t136 -102.5z" />
    <glyph glyph-name="Eth" unicode="&#xd0;" horiz-adv-x="1652" 
d="M231 655q-89 0 -163 -14l-19 23l55 108h127v150q0 139 -16.5 219.5t-53.5 121.5t-104 54v55q126 -12 344 -12q63 0 229 6t267 6q348 0 508 -164.5t160 -507.5q0 -361 -180.5 -533.5t-536.5 -172.5q-105 0 -262 6t-211 6q-183 0 -318 -12v55q67 13 104 54t53.5 121.5
t16.5 219.5v211zM594 655v-243q0 -143 20 -211q29 -105 197 -105q181 0 266.5 138.5t85.5 429.5q0 309 -95.5 452.5t-299.5 143.5q-111 0 -174 -35v-453h252l18 -27l-67 -104q-65 14 -203 14z" />
    <glyph glyph-name="Ntilde" unicode="&#xd1;" horiz-adv-x="1626" 
d="M1260 397v523q0 206 -38.5 292t-138.5 105v55q129 -12 250 -12q130 0 250 12v-55q-100 -19 -138 -104.5t-38 -292.5v-398q0 -313 14 -528h-305l-747 1055v-605q0 -207 38 -292.5t138 -102.5v-55q-95 12 -252 12q-124 0 -250 -12v55q100 17 138 102.5t38 292.5v476
q0 207 -38 292.5t-138 104.5v55q153 -12 285 -12q152 0 278 12q83 -165 230 -373zM1247 1810l58 -22q-40 -149 -94 -214t-136 -65q-73 0 -282 56q-182 51 -252 51q-42 0 -65.5 -18t-43.5 -66l-55 22q50 143 104.5 211t120.5 68q53 0 116 -12.5t185 -44.5q196 -52 248 -52
q67 0 96 86z" />
    <glyph glyph-name="Ograve" unicode="&#xd2;" horiz-adv-x="1685" 
d="M1597 690q0 -191 -52.5 -329t-155.5 -221t-244 -121.5t-328 -38.5q-362 0 -545.5 171t-183.5 529q0 187 56 324.5t162.5 220.5t249.5 122t327 39q364 0 539 -170.5t175 -525.5zM1198 678q0 295 -89 444.5t-261 149.5t-266.5 -145t-94.5 -414q0 -103 11.5 -192t37.5 -169
t66 -136t100 -89t136 -33q82 0 145.5 32.5t103 87t65.5 131t36 158t10 175.5zM1077 1571l-49 -96q-276 90 -524 96q3 73 26.5 158t55.5 135q236 -78 491 -293z" />
    <glyph glyph-name="Oacute" unicode="&#xd3;" horiz-adv-x="1685" 
d="M1597 690q0 -191 -52.5 -329t-155.5 -221t-244 -121.5t-328 -38.5q-362 0 -545.5 171t-183.5 529q0 187 56 324.5t162.5 220.5t249.5 122t327 39q364 0 539 -170.5t175 -525.5zM1198 678q0 295 -89 444.5t-261 149.5t-266.5 -145t-94.5 -414q0 -103 11.5 -192t37.5 -169
t66 -136t100 -89t136 -33q82 0 145.5 32.5t103 87t65.5 131t36 158t10 175.5zM690 1460l-43 99q110 70 223.5 162.5t188.5 176.5q46 -39 94 -109t76 -140q-76 -52 -233.5 -107.5t-305.5 -81.5z" />
    <glyph glyph-name="Ocircumflex" unicode="&#xd4;" horiz-adv-x="1685" 
d="M1597 690q0 -191 -52.5 -329t-155.5 -221t-244 -121.5t-328 -38.5q-362 0 -545.5 171t-183.5 529q0 187 56 324.5t162.5 220.5t249.5 122t327 39q364 0 539 -170.5t175 -525.5zM1198 678q0 295 -89 444.5t-261 149.5t-266.5 -145t-94.5 -414q0 -103 11.5 -192t37.5 -169
t66 -136t100 -89t136 -33q82 0 145.5 32.5t103 87t65.5 131t36 158t10 175.5zM1335 1673l25 -14q-40 -54 -116 -122.5t-118 -68.5q-27 0 -77 33l-254 158q-83 -71 -142 -176h-325q119 137 295 229.5t358 134.5l231 -147q66 -41 93 -41q16 0 30 14z" />
    <glyph glyph-name="Otilde" unicode="&#xd5;" horiz-adv-x="1685" 
d="M1597 690q0 -191 -52.5 -329t-155.5 -221t-244 -121.5t-328 -38.5q-362 0 -545.5 171t-183.5 529q0 187 56 324.5t162.5 220.5t249.5 122t327 39q364 0 539 -170.5t175 -525.5zM1198 678q0 295 -89 444.5t-261 149.5t-266.5 -145t-94.5 -414q0 -103 11.5 -192t37.5 -169
t66 -136t100 -89t136 -33q82 0 145.5 32.5t103 87t65.5 131t36 158t10 175.5zM1249 1810l58 -22q-40 -149 -94 -214t-136 -65q-73 0 -282 56q-182 51 -252 51q-42 0 -65.5 -18t-43.5 -66l-55 22q50 143 104.5 211t120.5 68q53 0 116 -12.5t185 -44.5q196 -52 248 -52
q67 0 96 86z" />
    <glyph glyph-name="Odieresis" unicode="&#xd6;" horiz-adv-x="1685" 
d="M1597 690q0 -191 -52.5 -329t-155.5 -221t-244 -121.5t-328 -38.5q-362 0 -545.5 171t-183.5 529q0 187 56 324.5t162.5 220.5t249.5 122t327 39q364 0 539 -170.5t175 -525.5zM1198 678q0 295 -89 444.5t-261 149.5t-266.5 -145t-94.5 -414q0 -103 11.5 -192t37.5 -169
t66 -136t100 -89t136 -33q82 0 145.5 32.5t103 87t65.5 131t36 158t10 175.5zM629 1855q77 0 131.5 -54.5t54.5 -131.5q0 -78 -54.5 -133t-131.5 -55q-78 0 -133.5 55t-55.5 133q0 77 55.5 131.5t133.5 54.5zM1126 1855q77 0 132 -55t55 -131q0 -78 -55 -133t-132 -55
q-78 0 -132 55t-54 133q0 77 55 131.5t131 54.5z" />
    <glyph glyph-name="multiply" unicode="&#xd7;" 
d="M182 1020l135 135l324 -324l324 324l133 -133l-322 -324l326 -325l-135 -135l-326 323l-319 -321l-140 139l322 319z" />
    <glyph glyph-name="Oslash" unicode="&#xd8;" horiz-adv-x="1683" 
d="M1417 1452l92 -78l-108 -137q104 -97 149 -223.5t45 -321.5q0 -359 -191 -535.5t-581 -176.5q-242 0 -407 67l-135 -170l-97 82l129 156q-118 95 -171.5 228.5t-53.5 334.5q0 352 199 530t592 178q123 0 219.5 -18t199.5 -61zM1114 1126q-49 78 -110 112t-150 34
q-182 0 -276.5 -142t-94.5 -415q0 -182 49 -365zM588 225q50 -70 110 -101.5t146 -31.5q178 0 270 149.5t92 438.5q0 172 -35 313z" />
    <glyph glyph-name="Ugrave" unicode="&#xd9;" horiz-adv-x="1691" 
d="M1098 -6v338q-100 -192 -209.5 -272t-270.5 -80q-104 0 -178.5 25.5t-118 67t-68.5 109t-32.5 135t-7.5 162.5v441q0 207 -37 292.5t-137 104.5v55q144 -12 358 -12q209 0 353 12v-55q-99 -19 -137 -105t-38 -292v-338q0 -62 3.5 -104.5t16 -86.5t34.5 -70t60.5 -42.5
t92.5 -16.5q90 0 166 43.5t150 140.5v474q0 140 -16.5 221t-53.5 122t-104 54v55q181 -12 366 -12q174 0 344 12v-55q-100 -19 -137 -104.5t-37 -292.5v-476q0 -208 37.5 -293t136.5 -102v-55q-123 12 -268 12q-136 0 -268 -12zM1077 1571l-49 -96q-276 90 -524 96
q3 73 26.5 158t55.5 135q236 -78 491 -293z" />
    <glyph glyph-name="Uacute" unicode="&#xda;" horiz-adv-x="1691" 
d="M1098 -6v338q-100 -192 -209.5 -272t-270.5 -80q-104 0 -178.5 25.5t-118 67t-68.5 109t-32.5 135t-7.5 162.5v441q0 207 -37 292.5t-137 104.5v55q144 -12 358 -12q209 0 353 12v-55q-99 -19 -137 -105t-38 -292v-338q0 -62 3.5 -104.5t16 -86.5t34.5 -70t60.5 -42.5
t92.5 -16.5q90 0 166 43.5t150 140.5v474q0 140 -16.5 221t-53.5 122t-104 54v55q181 -12 366 -12q174 0 344 12v-55q-100 -19 -137 -104.5t-37 -292.5v-476q0 -208 37.5 -293t136.5 -102v-55q-123 12 -268 12q-136 0 -268 -12zM690 1460l-43 99q110 70 223.5 162.5
t188.5 176.5q46 -39 94 -109t76 -140q-76 -52 -233.5 -107.5t-305.5 -81.5z" />
    <glyph glyph-name="Ucircumflex" unicode="&#xdb;" horiz-adv-x="1691" 
d="M1098 -6v338q-100 -192 -209.5 -272t-270.5 -80q-104 0 -178.5 25.5t-118 67t-68.5 109t-32.5 135t-7.5 162.5v441q0 207 -37 292.5t-137 104.5v55q144 -12 358 -12q209 0 353 12v-55q-99 -19 -137 -105t-38 -292v-338q0 -62 3.5 -104.5t16 -86.5t34.5 -70t60.5 -42.5
t92.5 -16.5q90 0 166 43.5t150 140.5v474q0 140 -16.5 221t-53.5 122t-104 54v55q181 -12 366 -12q174 0 344 12v-55q-100 -19 -137 -104.5t-37 -292.5v-476q0 -208 37.5 -293t136.5 -102v-55q-123 12 -268 12q-136 0 -268 -12zM1337 1673l25 -14q-40 -54 -116 -122.5
t-118 -68.5q-27 0 -77 33l-254 158q-83 -71 -142 -176h-325q119 137 295 229.5t358 134.5l231 -147q66 -41 93 -41q16 0 30 14z" />
    <glyph glyph-name="Udieresis" unicode="&#xdc;" horiz-adv-x="1691" 
d="M1098 -6v338q-100 -192 -209.5 -272t-270.5 -80q-104 0 -178.5 25.5t-118 67t-68.5 109t-32.5 135t-7.5 162.5v441q0 207 -37 292.5t-137 104.5v55q144 -12 358 -12q209 0 353 12v-55q-99 -19 -137 -105t-38 -292v-338q0 -62 3.5 -104.5t16 -86.5t34.5 -70t60.5 -42.5
t92.5 -16.5q90 0 166 43.5t150 140.5v474q0 140 -16.5 221t-53.5 122t-104 54v55q181 -12 366 -12q174 0 344 12v-55q-100 -19 -137 -104.5t-37 -292.5v-476q0 -208 37.5 -293t136.5 -102v-55q-123 12 -268 12q-136 0 -268 -12zM590 1855q76 0 131 -54.5t55 -131.5
q0 -78 -54.5 -133t-131.5 -55q-78 0 -133.5 55t-55.5 133q0 77 55.5 131.5t133.5 54.5zM1087 1855q77 0 132 -55t55 -131q0 -78 -55 -133t-132 -55q-78 0 -132 55t-54 133q0 77 54.5 131.5t131.5 54.5z" />
    <glyph glyph-name="Yacute" unicode="&#xdd;" horiz-adv-x="1366" 
d="M780 776l125 203q99 161 99 242q0 49 -23 70t-80 24v57q120 -12 252 -12q135 0 240 12v-45q-74 -31 -152 -119t-186 -266l-183 -299v-199q0 -206 38 -292t137 -103v-55q-163 12 -361 12q-192 0 -348 -12v55q100 17 138 102.5t38 292.5v103l-231 395q-93 159 -173 249
t-157 124v57q138 -12 321 -12q188 0 361 12v-57q-47 -3 -65.5 -20.5t-18.5 -57.5q0 -38 18.5 -81.5t77.5 -145.5zM563 1460l-43 99q110 70 223.5 162.5t188.5 176.5q46 -39 94 -109t76 -140q-76 -52 -233.5 -107.5t-305.5 -81.5z" />
    <glyph glyph-name="Thorn" unicode="&#xde;" horiz-adv-x="1308" 
d="M596 1094q112 34 266 34q406 0 406 -317q0 -212 -150 -336.5t-405 -124.5q-78 0 -117 8q6 -169 54.5 -237t166.5 -74v-53q-173 12 -393 12q-213 0 -369 -12v55q100 17 138 102.5t38 292.5v478q0 207 -38 292.5t-138 102.5v55q180 -12 359 -12q196 0 352 12v-55
q-70 -3 -118.5 -66.5t-51.5 -156.5zM596 1004v-535q21 -6 47 -6q112 0 176 80t64 221q0 256 -195 256q-60 0 -92 -16z" />
    <glyph glyph-name="germandbls" unicode="&#xdf;" horiz-adv-x="1353" 
d="M190 983q7 265 173.5 411t461.5 146q177 0 269 -66.5t92 -193.5q0 -81 -41.5 -150t-134.5 -145q-99 -81 -121.5 -106.5t-22.5 -61.5q0 -42 32 -68t161 -94q137 -73 192.5 -139.5t55.5 -171.5q0 -171 -120.5 -269t-330.5 -98q-133 0 -238 41q13 97 13 177q0 58 -6 157h61
q12 -125 69.5 -199.5t137.5 -74.5q60 0 91.5 35.5t31.5 101.5q0 71 -40 113.5t-140 97.5q-48 26 -70.5 39t-56 37.5t-49 45t-27.5 51t-12 65.5q0 58 22.5 99t83.5 107q84 89 121 158t37 172q0 104 -42.5 167t-113.5 63q-62 0 -107.5 -37t-69.5 -100t-35 -132.5t-11 -148.5
v-633v-340v-45q-80 12 -219 12q-131 0 -236 -12v45q75 13 107 92.5t32 247.5v491q-85 -3 -139 -12l-18 27l49 98h108z" />
    <glyph glyph-name="agrave" unicode="&#xe0;" horiz-adv-x="1110" 
d="M1067 250l55 -23q-38 -127 -110.5 -187t-188.5 -60q-97 0 -146 51.5t-56 161.5q-54 -112 -127.5 -162.5t-182.5 -50.5q-120 0 -185 60.5t-65 170.5q0 157 141.5 242t418.5 94v37q0 179 -26.5 255t-100.5 76q-54 0 -85.5 -37.5t-31.5 -103.5q0 -78 47 -137
q-67 -35 -150 -35q-84 0 -132 42t-48 114q0 109 140.5 177.5t361.5 68.5q182 0 264 -68.5t82 -220.5q0 -46 -4 -153t-4 -146q0 -140 13.5 -197t45.5 -57q11 0 20.5 4.5t15.5 10.5t13 17.5t9.5 17.5t8.5 20.5t7 17.5zM621 475q-112 -7 -175 -61.5t-63 -143.5q0 -112 82 -112
q95 0 156 129v188zM662 1108l-93 -43q-72 83 -163 151t-166 103q31 64 105.5 121t160.5 80q43 -58 89.5 -179t66.5 -233z" />
    <glyph glyph-name="aacute" unicode="&#xe1;" horiz-adv-x="1110" 
d="M1067 250l55 -23q-38 -127 -110.5 -187t-188.5 -60q-97 0 -146 51.5t-56 161.5q-54 -112 -127.5 -162.5t-182.5 -50.5q-120 0 -185 60.5t-65 170.5q0 157 141.5 242t418.5 94v37q0 179 -26.5 255t-100.5 76q-54 0 -85.5 -37.5t-31.5 -103.5q0 -78 47 -137
q-67 -35 -150 -35q-84 0 -132 42t-48 114q0 109 140.5 177.5t361.5 68.5q182 0 264 -68.5t82 -220.5q0 -46 -4 -153t-4 -146q0 -140 13.5 -197t45.5 -57q11 0 20.5 4.5t15.5 10.5t13 17.5t9.5 17.5t8.5 20.5t7 17.5zM621 475q-112 -7 -175 -61.5t-63 -143.5q0 -112 82 -112
q95 0 156 129v188zM354 1065l-53 82q181 181 311 403q63 -31 122.5 -90.5t96.5 -128.5q-88 -78 -218.5 -148.5t-258.5 -117.5z" />
    <glyph glyph-name="acircumflex" unicode="&#xe2;" horiz-adv-x="1110" 
d="M1067 250l55 -23q-38 -127 -110.5 -187t-188.5 -60q-97 0 -146 51.5t-56 161.5q-54 -112 -127.5 -162.5t-182.5 -50.5q-120 0 -185 60.5t-65 170.5q0 157 141.5 242t418.5 94v37q0 179 -26.5 255t-100.5 76q-54 0 -85.5 -37.5t-31.5 -103.5q0 -78 47 -137
q-67 -35 -150 -35q-84 0 -132 42t-48 114q0 109 140.5 177.5t361.5 68.5q182 0 264 -68.5t82 -220.5q0 -46 -4 -153t-4 -146q0 -140 13.5 -197t45.5 -57q11 0 20.5 4.5t15.5 10.5t13 17.5t9.5 17.5t8.5 20.5t7 17.5zM621 475q-112 -7 -175 -61.5t-63 -143.5q0 -112 82 -112
q95 0 156 129v188zM625 1516l239 -271q50 -56 73.5 -69t68.5 -11l8 -35l-213 -59q-24 -6 -39 -6q-61 0 -117 65l-149 168q-75 -80 -127 -227h-256q79 136 227 258.5t285 186.5z" />
    <glyph glyph-name="atilde" unicode="&#xe3;" horiz-adv-x="1110" 
d="M1067 250l55 -23q-38 -127 -110.5 -187t-188.5 -60q-97 0 -146 51.5t-56 161.5q-54 -112 -127.5 -162.5t-182.5 -50.5q-120 0 -185 60.5t-65 170.5q0 157 141.5 242t418.5 94v37q0 179 -26.5 255t-100.5 76q-54 0 -85.5 -37.5t-31.5 -103.5q0 -78 47 -137
q-67 -35 -150 -35q-84 0 -132 42t-48 114q0 109 140.5 177.5t361.5 68.5q182 0 264 -68.5t82 -220.5q0 -46 -4 -153t-4 -146q0 -140 13.5 -197t45.5 -57q11 0 20.5 4.5t15.5 10.5t13 17.5t9.5 17.5t8.5 20.5t7 17.5zM621 475q-112 -7 -175 -61.5t-63 -143.5q0 -112 82 -112
q95 0 156 129v188zM907 1405l60 -21q-37 -136 -87.5 -196t-127.5 -60q-70 0 -260 52q-171 47 -232 47q-38 0 -57.5 -16.5t-38.5 -61.5l-58 20q46 132 97 194t114 62q76 0 277 -53q181 -47 227 -47q60 0 86 80z" />
    <glyph glyph-name="adieresis" unicode="&#xe4;" horiz-adv-x="1110" 
d="M1067 250l55 -23q-38 -127 -110.5 -187t-188.5 -60q-97 0 -146 51.5t-56 161.5q-54 -112 -127.5 -162.5t-182.5 -50.5q-120 0 -185 60.5t-65 170.5q0 157 141.5 242t418.5 94v37q0 179 -26.5 255t-100.5 76q-54 0 -85.5 -37.5t-31.5 -103.5q0 -78 47 -137
q-67 -35 -150 -35q-84 0 -132 42t-48 114q0 109 140.5 177.5t361.5 68.5q182 0 264 -68.5t82 -220.5q0 -46 -4 -153t-4 -146q0 -140 13.5 -197t45.5 -57q11 0 20.5 4.5t15.5 10.5t13 17.5t9.5 17.5t8.5 20.5t7 17.5zM621 475q-112 -7 -175 -61.5t-63 -143.5q0 -112 82 -112
q95 0 156 129v188zM297 1456q75 0 128.5 -53.5t53.5 -128.5t-53.5 -128.5t-128.5 -53.5t-128.5 53.5t-53.5 128.5t53.5 128.5t128.5 53.5zM780 1456q75 0 129 -53.5t54 -128.5t-54 -128.5t-129 -53.5t-128.5 53.5t-53.5 128.5t53.5 128.5t128.5 53.5z" />
    <glyph glyph-name="aring" unicode="&#xe5;" horiz-adv-x="1110" 
d="M1067 250l55 -23q-38 -127 -110.5 -187t-188.5 -60q-97 0 -146 51.5t-56 161.5q-54 -112 -127.5 -162.5t-182.5 -50.5q-120 0 -185 60.5t-65 170.5q0 157 141.5 242t418.5 94v37q0 179 -26.5 255t-100.5 76q-54 0 -85.5 -37.5t-31.5 -103.5q0 -78 47 -137
q-67 -35 -150 -35q-84 0 -132 42t-48 114q0 109 140.5 177.5t361.5 68.5q182 0 264 -68.5t82 -220.5q0 -46 -4 -153t-4 -146q0 -140 13.5 -197t45.5 -57q11 0 20.5 4.5t15.5 10.5t13 17.5t9.5 17.5t8.5 20.5t7 17.5zM621 475q-112 -7 -175 -61.5t-63 -143.5q0 -112 82 -112
q95 0 156 129v188zM553 1569q105 0 177.5 -72t72.5 -174t-72.5 -173t-177.5 -71t-177.5 71t-72.5 173t72.5 174t177.5 72zM553 1444q-49 0 -81 -35.5t-32 -85.5t32 -84.5t81 -34.5t81 34.5t32 84.5t-32 85.5t-81 35.5z" />
    <glyph glyph-name="ae" unicode="&#xe6;" horiz-adv-x="1538" 
d="M1438 311l53 -45q-203 -286 -483 -286q-126 0 -211 54.5t-142 172.5q-78 -121 -159 -174t-189 -53q-118 0 -182 61t-64 174q0 155 142 244t395 92v49q0 6 0.5 32t0 41.5t-1.5 44.5t-4 48t-8 44t-13.5 41t-20 31.5t-28.5 23t-38 7.5q-51 0 -79.5 -35t-28.5 -98
q0 -79 45 -143q-62 -41 -146 -41q-83 0 -133.5 44.5t-50.5 115.5q0 109 134 178.5t345 69.5q103 0 154.5 -27t77.5 -94q51 66 115 94.5t159 28.5q177 0 279 -92t102 -250q0 -64 -20 -113h-572v-6q6 -182 83 -282.5t212 -100.5q146 0 277 149zM596 473q-99 -9 -156 -65
t-57 -144q0 -49 21 -75.5t59 -26.5q79 0 162 104q-24 90 -29 201v6zM1126 662q4 20 4 65q0 91 -29.5 139.5t-84.5 48.5q-138 0 -150 -266z" />
    <glyph glyph-name="ccedilla" unicode="&#xe7;" horiz-adv-x="1009" 
d="M948 313l53 -45q-205 -288 -501 -288q-200 0 -314 118.5t-114 327.5q0 270 158 424t436 154q280 0 280 -181q0 -95 -70.5 -157t-177.5 -62q-39 0 -57 2q39 77 39 152q0 68 -28 108.5t-74 40.5q-82 0 -130.5 -91.5t-48.5 -242.5q0 -188 73 -294.5t202 -106.5
q142 0 274 141zM426 -195l-20 33q114 90 190 90q51 0 90 -54.5t39 -125.5q0 -91 -85.5 -151t-213.5 -60q-35 0 -98 8l34 131q56 -22 93 -22q34 0 52.5 14.5t18.5 40.5q0 29 -23.5 68t-49.5 39q-11 0 -27 -11z" />
    <glyph glyph-name="egrave" unicode="&#xe8;" horiz-adv-x="1091" 
d="M395 555v-6q0 -27 2 -53.5t9.5 -66.5t19.5 -74t35.5 -70t54.5 -61.5t78.5 -41.5t105.5 -16q162 0 293 143l54 -43q-190 -286 -512 -286q-217 0 -340 128t-123 355q0 255 139.5 398t388.5 143q200 0 308 -88t108 -252q0 -50 -12 -109h-609zM395 649l289 15q6 27 6 65
q0 88 -35 138.5t-96 50.5q-155 0 -164 -269zM700 1108l-92 -43q-72 83 -163 151t-166 103q31 64 105.5 121t160.5 80q43 -57 89 -178.5t66 -233.5z" />
    <glyph glyph-name="eacute" unicode="&#xe9;" horiz-adv-x="1091" 
d="M395 555v-6q0 -27 2 -53.5t9.5 -66.5t19.5 -74t35.5 -70t54.5 -61.5t78.5 -41.5t105.5 -16q162 0 293 143l54 -43q-190 -286 -512 -286q-217 0 -340 128t-123 355q0 255 139.5 398t388.5 143q200 0 308 -88t108 -252q0 -50 -12 -109h-609zM395 649l289 15q6 27 6 65
q0 88 -35 138.5t-96 50.5q-155 0 -164 -269zM420 1065l-53 82q181 181 311 403q63 -31 122.5 -90.5t96.5 -128.5q-88 -78 -218.5 -148.5t-258.5 -117.5z" />
    <glyph glyph-name="ecircumflex" unicode="&#xea;" horiz-adv-x="1091" 
d="M395 555v-6q0 -27 2 -53.5t9.5 -66.5t19.5 -74t35.5 -70t54.5 -61.5t78.5 -41.5t105.5 -16q162 0 293 143l54 -43q-190 -286 -512 -286q-217 0 -340 128t-123 355q0 255 139.5 398t388.5 143q200 0 308 -88t108 -252q0 -50 -12 -109h-609zM395 649l289 15q6 27 6 65
q0 88 -35 138.5t-96 50.5q-155 0 -164 -269zM629 1516l239 -271q50 -56 73.5 -69t68.5 -11l8 -35l-213 -59q-24 -6 -39 -6q-61 0 -117 65l-149 168q-75 -80 -127 -227h-256q79 136 227 258.5t285 186.5z" />
    <glyph glyph-name="edieresis" unicode="&#xeb;" horiz-adv-x="1091" 
d="M395 555v-6q0 -27 2 -53.5t9.5 -66.5t19.5 -74t35.5 -70t54.5 -61.5t78.5 -41.5t105.5 -16q162 0 293 143l54 -43q-190 -286 -512 -286q-217 0 -340 128t-123 355q0 255 139.5 398t388.5 143q200 0 308 -88t108 -252q0 -50 -12 -109h-609zM395 649l289 15q6 27 6 65
q0 88 -35 138.5t-96 50.5q-155 0 -164 -269zM317 1456q75 0 129 -53.5t54 -128.5t-54 -128.5t-129 -53.5t-128.5 53.5t-53.5 128.5t53.5 128.5t128.5 53.5zM801 1456q75 0 128.5 -53.5t53.5 -128.5t-53.5 -128.5t-128.5 -53.5t-129 53.5t-54 128.5t54 128.5t129 53.5z" />
    <glyph glyph-name="igrave" unicode="&#xec;" horiz-adv-x="686" 
d="M526 995q-14 -151 -14 -391v-225q0 -165 31.5 -244t103.5 -96v-45q-126 12 -287 12q-171 0 -303 -12v45q72 19 102.5 97t30.5 243v184q0 83 -4 137t-17 108.5t-40.5 86.5t-71.5 45v39zM477 1108l-92 -43q-72 82 -163 150.5t-167 103.5q31 64 106 121t161 80
q43 -57 89 -178.5t66 -233.5z" />
    <glyph glyph-name="iacute" unicode="&#xed;" horiz-adv-x="686" 
d="M526 995q-14 -151 -14 -391v-225q0 -165 31.5 -244t103.5 -96v-45q-126 12 -287 12q-171 0 -303 -12v45q72 19 102.5 97t30.5 243v184q0 83 -4 137t-17 108.5t-40.5 86.5t-71.5 45v39zM119 1065l-53 82q181 181 311 403q63 -31 122.5 -90.5t96.5 -128.5
q-88 -78 -218.5 -148.5t-258.5 -117.5z" />
    <glyph glyph-name="icircumflex" unicode="&#xee;" horiz-adv-x="686" 
d="M526 995q-14 -151 -14 -391v-225q0 -165 31.5 -244t103.5 -96v-45q-126 12 -287 12q-171 0 -303 -12v45q72 19 102.5 97t30.5 243v184q0 83 -4 137t-17 108.5t-40.5 86.5t-71.5 45v39zM403 1516l240 -271q50 -56 73 -69t68 -11l9 -35l-213 -59q-24 -6 -39 -6
q-61 0 -117 65l-150 168q-75 -80 -127 -227h-256q79 136 227 258.5t285 186.5z" />
    <glyph glyph-name="idieresis" unicode="&#xef;" horiz-adv-x="686" 
d="M106 1427q69 0 118.5 -48.5t49.5 -118.5q0 -69 -49.5 -118.5t-118.5 -49.5t-118 49.5t-49 118.5q0 70 49 118.5t118 48.5zM539 1427q69 0 118.5 -48.5t49.5 -118.5q0 -69 -49.5 -118.5t-118.5 -49.5t-118.5 49.5t-49.5 118.5q0 70 49.5 118.5t118.5 48.5zM526 995
q-14 -151 -14 -391v-225q0 -165 31.5 -244t103.5 -96v-45q-126 12 -287 12q-171 0 -303 -12v45q72 19 102.5 97t30.5 243v184q0 83 -4 137t-17 108.5t-40.5 86.5t-71.5 45v39z" />
    <glyph glyph-name="eth" unicode="&#xf0;" horiz-adv-x="1228" 
d="M205 1477l39 86q182 -65 311 -146l184 133l33 -12v-102q-89 -55 -123 -82q261 -182 383.5 -385t122.5 -455q0 -264 -139.5 -399t-413.5 -135q-264 0 -398 127.5t-134 379.5q0 243 134.5 380t373.5 137q72 0 145 -21q-70 152 -207 283q-158 -113 -246 -201l-39 12v109
l209 147q-113 91 -235 144zM604 899q-91 0 -141.5 -94.5t-50.5 -261.5q0 -217 55.5 -339t153.5 -122q91 0 145.5 103.5t54.5 273.5q0 209 -57 324.5t-160 115.5z" />
    <glyph glyph-name="ntilde" unicode="&#xf1;" horiz-adv-x="1329" 
d="M508 995v-247q85 137 173 196.5t206 59.5q149 0 207.5 -77.5t58.5 -230.5v-317q0 -167 33 -247t108 -93v-45q-126 12 -297 12q-166 0 -301 -12v45q74 14 107 93.5t33 246.5v145q0 42 -1.5 68.5t-10 63t-23.5 58t-45 37t-72 15.5q-107 0 -176 -123v-264q0 -165 31.5 -244
t103.5 -96v-45q-120 12 -291 12q-162 0 -297 -12v45q72 19 103.5 97.5t31.5 242.5v182q0 66 -2 109.5t-9.5 94t-21.5 82t-40 57.5t-62 36v39zM1032 1405l60 -21q-37 -136 -87.5 -196t-127.5 -60q-71 0 -261 52q-171 47 -231 47q-38 0 -57.5 -16.5t-38.5 -61.5l-58 20
q46 132 97 194t114 62q76 0 277 -53q181 -47 227 -47q60 0 86 80z" />
    <glyph glyph-name="ograve" unicode="&#xf2;" horiz-adv-x="1230" 
d="M1159 506q0 -257 -141.5 -391.5t-411.5 -134.5q-264 0 -399 127.5t-135 379.5q0 255 142 386t419 131q255 0 390.5 -128.5t135.5 -369.5zM825 465q0 204 -58 320t-161 116q-91 0 -141.5 -95t-50.5 -265q0 -217 55.5 -338t155.5 -121q92 0 146 103t54 280zM754 1108
l-92 -43q-72 82 -163 150.5t-167 103.5q31 64 105.5 121t160.5 80q43 -58 89.5 -179t66.5 -233z" />
    <glyph glyph-name="oacute" unicode="&#xf3;" horiz-adv-x="1230" 
d="M1159 506q0 -257 -141.5 -391.5t-411.5 -134.5q-264 0 -399 127.5t-135 379.5q0 255 142 386t419 131q255 0 390.5 -128.5t135.5 -369.5zM825 465q0 204 -58 320t-161 116q-91 0 -141.5 -95t-50.5 -265q0 -217 55.5 -338t155.5 -121q92 0 146 103t54 280zM477 1065
l-53 82q181 181 311 403q63 -31 122.5 -90.5t96.5 -128.5q-88 -78 -218.5 -148.5t-258.5 -117.5z" />
    <glyph glyph-name="ocircumflex" unicode="&#xf4;" horiz-adv-x="1230" 
d="M1159 506q0 -257 -141.5 -391.5t-411.5 -134.5q-264 0 -399 127.5t-135 379.5q0 255 142 386t419 131q255 0 390.5 -128.5t135.5 -369.5zM825 465q0 204 -58 320t-161 116q-91 0 -141.5 -95t-50.5 -265q0 -217 55.5 -338t155.5 -121q92 0 146 103t54 280zM680 1516
l240 -271q50 -56 73 -69t68 -11l8 -35l-213 -59q-24 -6 -39 -6q-61 0 -117 65l-149 168q-75 -80 -127 -227h-256q79 136 227 258.5t285 186.5z" />
    <glyph glyph-name="otilde" unicode="&#xf5;" horiz-adv-x="1230" 
d="M1159 506q0 -257 -141.5 -391.5t-411.5 -134.5q-264 0 -399 127.5t-135 379.5q0 255 142 386t419 131q255 0 390.5 -128.5t135.5 -369.5zM825 465q0 204 -58 320t-161 116q-91 0 -141.5 -95t-50.5 -265q0 -217 55.5 -338t155.5 -121q92 0 146 103t54 280zM983 1405
l59 -21q-37 -136 -87.5 -196t-127.5 -60q-70 0 -260 52q-171 47 -231 47q-38 0 -57.5 -16.5t-38.5 -61.5l-58 20q46 132 97 194t114 62q76 0 277 -53q181 -47 227 -47q60 0 86 80z" />
    <glyph glyph-name="odieresis" unicode="&#xf6;" horiz-adv-x="1230" 
d="M1159 506q0 -257 -141.5 -391.5t-411.5 -134.5q-264 0 -399 127.5t-135 379.5q0 255 142 386t419 131q255 0 390.5 -128.5t135.5 -369.5zM825 465q0 204 -58 320t-161 116q-91 0 -141.5 -95t-50.5 -265q0 -217 55.5 -338t155.5 -121q92 0 146 103t54 280zM373 1456
q75 0 128.5 -53.5t53.5 -128.5t-53.5 -128.5t-128.5 -53.5t-129 53.5t-54 128.5t54 128.5t129 53.5zM856 1456q75 0 128.5 -53.5t53.5 -128.5t-53.5 -128.5t-128.5 -53.5t-128.5 53.5t-53.5 128.5t53.5 128.5t128.5 53.5z" />
    <glyph glyph-name="divide" unicode="&#xf7;" 
d="M166 795h958v-195h-958v195zM645 1192q59 0 100 -41.5t41 -101.5q0 -59 -41.5 -100.5t-99.5 -41.5t-99.5 41.5t-41.5 100.5q0 60 41 101.5t100 41.5zM645 485q59 0 100 -41.5t41 -99.5q0 -60 -41 -101.5t-100 -41.5t-100 41.5t-41 101.5q0 58 41 99.5t100 41.5z" />
    <glyph glyph-name="oslash" unicode="&#xf8;" horiz-adv-x="1228" 
d="M999 1083l86 -71l-86 -113q86 -78 122 -168t36 -231q0 -250 -142 -385t-405 -135q-164 0 -291 51l-118 -150l-84 70l110 141q-83 73 -119 167t-36 233q0 254 140 383t415 129q150 0 276 -50zM768 803q-35 57 -73.5 80.5t-92.5 23.5q-104 0 -158.5 -97t-54.5 -282
q0 -112 29 -213zM461 190q34 -63 70 -88.5t92 -25.5q106 0 163.5 103.5t57.5 293.5q0 117 -31 209z" />
    <glyph glyph-name="ugrave" unicode="&#xf9;" horiz-adv-x="1306" 
d="M1143 995q-13 -187 -13 -374v-242q0 -162 30.5 -239.5t101.5 -100.5v-45q-62 8 -170 8q-123 0 -240 -20q-37 122 -37 245q-147 -247 -371 -247q-68 0 -118 20.5t-80 53.5t-48 83t-24 100.5t-6 114.5v205q0 185 -29 269.5t-100 107.5v39l459 22q-15 -166 -15 -370v-166
q0 -114 38.5 -181t117.5 -67q60 0 105.5 34t70.5 97v215q0 185 -30 269.5t-103 107.5v39zM754 1108l-92 -43q-72 82 -163 150.5t-167 103.5q31 64 105.5 121t160.5 80q43 -58 89.5 -179t66.5 -233z" />
    <glyph glyph-name="uacute" unicode="&#xfa;" horiz-adv-x="1306" 
d="M1143 995q-13 -187 -13 -374v-242q0 -162 30.5 -239.5t101.5 -100.5v-45q-62 8 -170 8q-123 0 -240 -20q-37 122 -37 245q-147 -247 -371 -247q-68 0 -118 20.5t-80 53.5t-48 83t-24 100.5t-6 114.5v205q0 185 -29 269.5t-100 107.5v39l459 22q-15 -166 -15 -370v-166
q0 -114 38.5 -181t117.5 -67q60 0 105.5 34t70.5 97v215q0 185 -30 269.5t-103 107.5v39zM477 1065l-53 82q181 181 311 403q63 -31 122.5 -90.5t96.5 -128.5q-88 -78 -218.5 -148.5t-258.5 -117.5z" />
    <glyph glyph-name="ucircumflex" unicode="&#xfb;" horiz-adv-x="1306" 
d="M1143 995q-13 -187 -13 -374v-242q0 -162 30.5 -239.5t101.5 -100.5v-45q-62 8 -170 8q-123 0 -240 -20q-37 122 -37 245q-147 -247 -371 -247q-68 0 -118 20.5t-80 53.5t-48 83t-24 100.5t-6 114.5v205q0 185 -29 269.5t-100 107.5v39l459 22q-15 -166 -15 -370v-166
q0 -114 38.5 -181t117.5 -67q60 0 105.5 34t70.5 97v215q0 185 -30 269.5t-103 107.5v39zM711 1516l239 -271q50 -56 73.5 -69t68.5 -11l8 -35l-213 -59q-24 -6 -39 -6q-61 0 -117 65l-149 168q-75 -80 -127 -227h-256q79 136 227 258.5t285 186.5z" />
    <glyph glyph-name="udieresis" unicode="&#xfc;" horiz-adv-x="1306" 
d="M1143 995q-13 -187 -13 -374v-242q0 -162 30.5 -239.5t101.5 -100.5v-45q-62 8 -170 8q-123 0 -240 -20q-37 122 -37 245q-147 -247 -371 -247q-68 0 -118 20.5t-80 53.5t-48 83t-24 100.5t-6 114.5v205q0 185 -29 269.5t-100 107.5v39l459 22q-15 -166 -15 -370v-166
q0 -114 38.5 -181t117.5 -67q60 0 105.5 34t70.5 97v215q0 185 -30 269.5t-103 107.5v39zM395 1456q75 0 129 -53.5t54 -128.5t-54 -128.5t-129 -53.5t-128.5 53.5t-53.5 128.5t53.5 128.5t128.5 53.5zM879 1456q75 0 128.5 -53.5t53.5 -128.5t-53.5 -128.5t-128.5 -53.5
t-129 53.5t-54 128.5t54 128.5t129 53.5z" />
    <glyph glyph-name="yacute" unicode="&#xfd;" horiz-adv-x="1167" 
d="M705 342l122 291q45 105 45 172q0 63 -37 94.5t-124 40.5v49q102 -12 260 -12q143 0 237 12v-49q-76 -19 -142.5 -120t-152.5 -294l-96 -217q-19 -42 -85.5 -209.5t-123 -286.5t-108.5 -188q-69 -94 -207 -94q-106 0 -164.5 53t-58.5 148q0 71 29.5 120.5t70.5 75.5
q28 -68 66.5 -103.5t103.5 -35.5q69 0 121 45q51 44 51 100q0 23 -11 52.5t-46 101.5l-271 557q-90 186 -122.5 233.5t-88.5 61.5v49q123 -12 295 -12q158 0 305 12v-49q-104 0 -104 -72q0 -58 39 -135zM485 1065l-53 82q181 181 311 403q63 -31 123 -90.5t97 -128.5
q-88 -78 -218.5 -148.5t-259.5 -117.5z" />
    <glyph glyph-name="thorn" unicode="&#xfe;" horiz-adv-x="1251" 
d="M459 1540v-790q71 132 161 193t214 61q164 0 254 -123.5t90 -348.5q0 -264 -137.5 -408t-389.5 -144q-106 0 -192 30v-82v-15q0 -139 18 -197q34 -105 150 -126v-47q-133 13 -340 13q-155 0 -285 -13v47q75 12 108 91.5t33 246.5v1209q0 165 -31.5 244t-103.5 96v45z
M459 641v-242q0 -163 42 -236t136 -73q103 0 163 96t60 260q0 157 -51 243.5t-145 86.5q-121 0 -205 -135z" />
    <glyph glyph-name="ydieresis" unicode="&#xff;" horiz-adv-x="1167" 
d="M705 342l122 291q45 105 45 172q0 63 -37 94.5t-124 40.5v49q102 -12 260 -12q143 0 237 12v-49q-76 -19 -142.5 -120t-152.5 -294l-96 -217q-19 -42 -85.5 -209.5t-123 -286.5t-108.5 -188q-69 -94 -207 -94q-106 0 -164.5 53t-58.5 148q0 71 29.5 120.5t70.5 75.5
q28 -68 66.5 -103.5t103.5 -35.5q69 0 121 45q51 44 51 100q0 23 -11 52.5t-46 101.5l-271 557q-90 186 -122.5 233.5t-88.5 61.5v49q123 -12 295 -12q158 0 305 12v-49q-104 0 -104 -72q0 -58 39 -135zM395 1456q75 0 129 -53.5t54 -128.5t-54 -128.5t-129 -53.5
t-128.5 53.5t-53.5 128.5t53.5 128.5t128.5 53.5zM879 1456q75 0 128.5 -53.5t53.5 -128.5t-53.5 -128.5t-128.5 -53.5t-129 53.5t-54 128.5t54 128.5t129 53.5z" />
    <glyph glyph-name="Amacron" unicode="&#x100;" horiz-adv-x="1462" 
d="M852 440h-453l-34 -104q-39 -119 -39 -156q0 -115 137 -133v-53q-114 12 -262 12q-130 0 -256 -12v47q47 6 89.5 38.5t80 91t67 120.5t62.5 149l211 549q35 92 45 130.5t10 72.5q0 110 -145 113v61q90 -4 184 -4q171 0 332 22q39 -163 112 -358l203 -534
q142 -378 270 -451v-47q-141 12 -336 12q-178 0 -319 -12v53q123 9 123 109q0 56 -43 174zM807 575l-178 455l-172 -455h350zM352 1751h735l17 -45l-62 -160h-749l-17 31z" />
    <glyph glyph-name="amacron" unicode="&#x101;" horiz-adv-x="1110" 
d="M1067 250l55 -23q-38 -127 -110.5 -187t-188.5 -60q-97 0 -146 51.5t-56 161.5q-54 -112 -127.5 -162.5t-182.5 -50.5q-120 0 -185 60.5t-65 170.5q0 157 141.5 242t418.5 94v37q0 179 -26.5 255t-100.5 76q-54 0 -85.5 -37.5t-31.5 -103.5q0 -78 47 -137
q-67 -35 -150 -35q-84 0 -132 42t-48 114q0 109 140.5 177.5t361.5 68.5q182 0 264 -68.5t82 -220.5q0 -46 -4 -153t-4 -146q0 -140 13.5 -197t45.5 -57q11 0 20.5 4.5t15.5 10.5t13 17.5t9.5 17.5t8.5 20.5t7 17.5zM621 475q-112 -7 -175 -61.5t-63 -143.5q0 -112 82 -112
q95 0 156 129v188zM217 1401h694l17 -45l-62 -160h-708l-17 31z" />
    <glyph glyph-name="Abreve" unicode="&#x102;" horiz-adv-x="1462" 
d="M852 440h-453l-34 -104q-39 -119 -39 -156q0 -115 137 -133v-53q-114 12 -262 12q-130 0 -256 -12v47q47 6 89.5 38.5t80 91t67 120.5t62.5 149l211 549q35 92 45 130.5t10 72.5q0 110 -145 113v61q90 -4 184 -4q171 0 332 22q39 -163 112 -358l203 -534
q142 -378 270 -451v-47q-141 12 -336 12q-178 0 -319 -12v53q123 9 123 109q0 56 -43 174zM807 575l-178 455l-172 -455h350zM862 1847h187q2 -18 2 -49q0 -125 -103 -201.5t-291 -76.5q-98 0 -167 19t-110.5 57.5t-62 87t-28.5 116.5q28 34 101 58t147 24
q11 -125 58.5 -189.5t147.5 -64.5q138 0 138 119q0 37 -19 100z" />
    <glyph glyph-name="abreve" unicode="&#x103;" horiz-adv-x="1110" 
d="M1067 250l55 -23q-38 -127 -110.5 -187t-188.5 -60q-97 0 -146 51.5t-56 161.5q-54 -112 -127.5 -162.5t-182.5 -50.5q-120 0 -185 60.5t-65 170.5q0 157 141.5 242t418.5 94v37q0 179 -26.5 255t-100.5 76q-54 0 -85.5 -37.5t-31.5 -103.5q0 -78 47 -137
q-67 -35 -150 -35q-84 0 -132 42t-48 114q0 109 140.5 177.5t361.5 68.5q182 0 264 -68.5t82 -220.5q0 -46 -4 -153t-4 -146q0 -140 13.5 -197t45.5 -57q11 0 20.5 4.5t15.5 10.5t13 17.5t9.5 17.5t8.5 20.5t7 17.5zM621 475q-112 -7 -175 -61.5t-63 -143.5q0 -112 82 -112
q95 0 156 129v188zM686 1448h186q0 -13 1 -29.5t1 -19.5q0 -152 -96.5 -236t-269.5 -84q-155 0 -226 78.5t-87 243.5q26 33 96 57.5t151 24.5q21 -295 166 -295q46 0 71.5 34.5t25.5 98.5q0 50 -19 127z" />
    <glyph glyph-name="Aogonek" unicode="&#x104;" horiz-adv-x="1462" 
d="M852 440h-453l-34 -104q-39 -119 -39 -156q0 -115 137 -133v-53q-114 12 -262 12q-130 0 -256 -12v47q47 6 89.5 38.5t80 91t67 120.5t62.5 149l211 549q35 92 45 130.5t10 72.5q0 110 -145 113v61q90 -4 184 -4q171 0 332 22q39 -163 112 -358l203 -534
q142 -378 270 -451v-47q-71 6 -231 10q-80 -84 -80 -205q0 -127 88 -127q38 0 75 19t58 43l43 -43q-51 -81 -146 -141t-202 -60q-98 0 -149.5 43t-51.5 139q0 93 56.5 179.5t146.5 154.5q-140 -3 -262 -12v53q123 9 123 109q0 56 -43 174zM807 575l-178 455l-172 -455h350z
" />
    <glyph glyph-name="aogonek" unicode="&#x105;" horiz-adv-x="1110" 
d="M1067 250l55 -23q-58 -189 -192 -231q-47 -42 -73 -101t-26 -112q0 -48 22 -79.5t67 -31.5q38 0 75 19t58 43l41 -45q-51 -80 -144.5 -139.5t-201.5 -59.5q-82 0 -136.5 44.5t-54.5 137.5q0 85 59 168t150 146q-133 24 -145 207q-54 -112 -127.5 -162.5t-182.5 -50.5
q-120 0 -185 60.5t-65 170.5q0 157 141.5 242t418.5 94v37q0 179 -26.5 255t-100.5 76q-54 0 -85.5 -37.5t-31.5 -103.5q0 -78 47 -137q-67 -35 -150 -35q-84 0 -132 42t-48 114q0 109 140.5 177.5t361.5 68.5q182 0 264 -68.5t82 -220.5q0 -46 -4 -153t-4 -146
q0 -140 13.5 -197t45.5 -57q11 0 20.5 4.5t15.5 10.5t13 17.5t9.5 17.5t8.5 20.5t7 17.5zM621 475q-112 -7 -175 -61.5t-63 -143.5q0 -112 82 -112q95 0 156 129v188z" />
    <glyph glyph-name="Cacute" unicode="&#x106;" horiz-adv-x="1486" 
d="M1335 928h-104q-95 344 -371 344q-182 0 -277.5 -144.5t-95.5 -427.5q0 -59 4 -113.5t15 -116.5t28 -114.5t46 -102t67 -84t92.5 -55t120.5 -20.5q156 0 277 94t215 289l100 -47q-69 -191 -100 -371q-99 -35 -250.5 -57t-292.5 -22q-372 0 -546.5 166.5t-174.5 519.5
q0 370 195 545t604 175q240 0 448 -51q-8 -109 -8 -198q0 -105 8 -209zM672 1460l-43 99q110 69 223 162t188 177q46 -39 94 -109t76 -140q-77 -53 -233.5 -108t-304.5 -81z" />
    <glyph glyph-name="cacute" unicode="&#x107;" horiz-adv-x="1009" 
d="M948 313l53 -45q-205 -288 -501 -288q-200 0 -314 118.5t-114 327.5q0 270 158 424t436 154q280 0 280 -181q0 -95 -70.5 -157t-177.5 -62q-39 0 -57 2q39 77 39 152q0 68 -28 108.5t-74 40.5q-82 0 -130.5 -91.5t-48.5 -242.5q0 -188 73 -294.5t202 -106.5
q142 0 274 141zM444 1065l-53 82q181 181 311 403q63 -31 123 -90.5t97 -128.5q-88 -78 -218.5 -148.5t-259.5 -117.5z" />
    <glyph glyph-name="Ccircumflex" unicode="&#x108;" horiz-adv-x="1486" 
d="M1335 928h-104q-95 344 -371 344q-182 0 -277.5 -144.5t-95.5 -427.5q0 -59 4 -113.5t15 -116.5t28 -114.5t46 -102t67 -84t92.5 -55t120.5 -20.5q156 0 277 94t215 289l100 -47q-69 -191 -100 -371q-99 -35 -250.5 -57t-292.5 -22q-372 0 -546.5 166.5t-174.5 519.5
q0 370 195 545t604 175q240 0 448 -51q-8 -109 -8 -198q0 -105 8 -209zM1352 1673l24 -14q-40 -54 -115.5 -122.5t-117.5 -68.5q-28 0 -78 33l-254 158q-81 -69 -141 -176h-326q119 137 295 229.5t358 134.5l232 -147q66 -41 92 -41q17 0 31 14z" />
    <glyph glyph-name="ccircumflex" unicode="&#x109;" horiz-adv-x="1009" 
d="M948 313l53 -45q-205 -288 -501 -288q-200 0 -314 118.5t-114 327.5q0 270 158 424t436 154q280 0 280 -181q0 -95 -70.5 -157t-177.5 -62q-39 0 -57 2q39 77 39 152q0 68 -28 108.5t-74 40.5q-82 0 -130.5 -91.5t-48.5 -242.5q0 -188 73 -294.5t202 -106.5
q142 0 274 141zM668 1516l239 -271q50 -56 73.5 -69t68.5 -11l8 -35l-213 -59q-24 -6 -39 -6q-61 0 -117 65l-149 168q-75 -80 -127 -227h-256q79 136 227 258.5t285 186.5z" />
    <glyph glyph-name="Cdotaccent" unicode="&#x10a;" horiz-adv-x="1486" 
d="M1335 928h-104q-95 344 -371 344q-182 0 -277.5 -144.5t-95.5 -427.5q0 -59 4 -113.5t15 -116.5t28 -114.5t46 -102t67 -84t92.5 -55t120.5 -20.5q156 0 277 94t215 289l100 -47q-69 -191 -100 -371q-99 -35 -250.5 -57t-292.5 -22q-372 0 -546.5 166.5t-174.5 519.5
q0 370 195 545t604 175q240 0 448 -51q-8 -109 -8 -198q0 -105 8 -209zM852 1896q82 0 139.5 -57t57.5 -139t-57.5 -139.5t-139.5 -57.5t-139.5 57.5t-57.5 139.5t57.5 139t139.5 57z" />
    <glyph glyph-name="cdotaccent" unicode="&#x10b;" horiz-adv-x="1009" 
d="M948 313l53 -45q-205 -288 -501 -288q-200 0 -314 118.5t-114 327.5q0 270 158 424t436 154q280 0 280 -181q0 -95 -70.5 -157t-177.5 -62q-39 0 -57 2q39 77 39 152q0 68 -28 108.5t-74 40.5q-82 0 -130.5 -91.5t-48.5 -242.5q0 -188 73 -294.5t202 -106.5
q142 0 274 141zM580 1456q75 0 128.5 -53.5t53.5 -128.5t-53.5 -128.5t-128.5 -53.5t-129 53.5t-54 128.5t54 128.5t129 53.5z" />
    <glyph glyph-name="Ccaron" unicode="&#x10c;" horiz-adv-x="1486" 
d="M1335 928h-104q-95 344 -371 344q-182 0 -277.5 -144.5t-95.5 -427.5q0 -59 4 -113.5t15 -116.5t28 -114.5t46 -102t67 -84t92.5 -55t120.5 -20.5q156 0 277 94t215 289l100 -47q-69 -191 -100 -371q-99 -35 -250.5 -57t-292.5 -22q-372 0 -546.5 166.5t-174.5 519.5
q0 370 195 545t604 175q240 0 448 -51q-8 -109 -8 -198q0 -105 8 -209zM416 1642l-25 15q42 56 116 123t116 67q28 0 77 -32l254 -158q83 71 142 176h325q-81 -93 -196.5 -169.5t-228.5 -122.5t-228 -73l-231 148q-66 41 -91 41q-17 0 -30 -15z" />
    <glyph glyph-name="ccaron" unicode="&#x10d;" horiz-adv-x="1009" 
d="M948 313l53 -45q-205 -288 -501 -288q-200 0 -314 118.5t-114 327.5q0 270 158 424t436 154q280 0 280 -181q0 -95 -70.5 -157t-177.5 -62q-39 0 -57 2q39 77 39 152q0 68 -28 108.5t-74 40.5q-82 0 -130.5 -91.5t-48.5 -242.5q0 -188 73 -294.5t202 -106.5
q142 0 274 141zM545 1065l-240 268q-49 55 -72 68.5t-69 13.5l-8 33l206 59q31 9 50 9q54 0 112 -66l150 -168q78 84 127 227h256q-80 -139 -223.5 -257t-288.5 -187z" />
    <glyph glyph-name="Dcaron" unicode="&#x10e;" horiz-adv-x="1652" 
d="M57 1372q138 -12 314 -12q77 0 256.5 6t269.5 6q343 0 505.5 -159.5t162.5 -510.5q0 -356 -176.5 -532t-534.5 -176q-74 0 -238 6t-223 6q-177 0 -336 -12v55q68 13 105 54t53 121t16 220v476q0 207 -37 292.5t-137 104.5v55zM594 1225v-811q0 -131 20 -213
q29 -105 197 -105q183 0 268.5 138t85.5 432q0 307 -95.5 450.5t-299.5 143.5q-104 0 -176 -35zM334 1642l-25 15q42 56 116 123t116 67q28 0 77 -32l254 -158q83 71 142 176h325q-81 -93 -196.5 -169.5t-228.5 -122.5t-228 -73l-231 148q-66 41 -90 41q-19 0 -31 -15z" />
    <glyph glyph-name="dcaron" unicode="&#x10f;" horiz-adv-x="1284" 
d="M1130 1540q-22 -225 -22 -586v-575q0 -160 30 -237.5t101 -102.5v-45q-65 6 -186 6q-134 0 -226 -20q-34 117 -34 249q-86 -134 -172.5 -191.5t-200.5 -57.5q-161 0 -254.5 129.5t-93.5 353.5q0 258 139.5 399.5t394.5 141.5q106 0 187 -25v125q0 185 -29 269.5
t-100 107.5v39zM793 342v305q0 123 -47 187.5t-136 64.5q-103 0 -161 -93.5t-58 -260.5q0 -160 49.5 -245t143.5 -85q125 0 209 127zM1200 1413l-14 43q48 30 127.5 58t152.5 28q83 0 126.5 -35.5t43.5 -117.5q0 -97 -95.5 -164.5t-260.5 -87.5l-14 61q51 20 72.5 44
t21.5 58q0 50 -39.5 81.5t-120.5 31.5z" />
    <glyph glyph-name="Dcroat" unicode="&#x110;" horiz-adv-x="1652" 
d="M231 655q-89 0 -163 -14l-19 23l55 108h127v150q0 139 -16.5 219.5t-53.5 121.5t-104 54v55q126 -12 344 -12q63 0 229 6t267 6q348 0 508 -164.5t160 -507.5q0 -361 -180.5 -533.5t-536.5 -172.5q-105 0 -262 6t-211 6q-183 0 -318 -12v55q67 13 104 54t53.5 121.5
t16.5 219.5v211zM594 655v-243q0 -143 20 -211q29 -105 197 -105q181 0 266.5 138.5t85.5 429.5q0 309 -95.5 452.5t-299.5 143.5q-111 0 -174 -35v-453h252l18 -27l-67 -104q-65 14 -203 14z" />
    <glyph glyph-name="dcroat" unicode="&#x111;" horiz-adv-x="1284" 
d="M422 1266h362q-10 97 -38.5 147.5t-81.5 67.5v39l466 20q-15 -139 -18 -274h135l15 -27l-27 -82h-127v-778q0 -160 30 -237.5t101 -102.5v-45q-65 6 -186 6q-134 0 -226 -20q-34 117 -34 249q-86 -134 -172.5 -191.5t-200.5 -57.5q-161 0 -254.5 129.5t-93.5 353.5
q0 258 139.5 399.5t394.5 141.5q106 0 187 -25v178h-390l-16 31zM793 342v305q0 123 -47 187.5t-136 64.5q-103 0 -161 -93.5t-58 -260.5q0 -160 49.5 -245t143.5 -85q125 0 209 127z" />
    <glyph glyph-name="Emacron" unicode="&#x112;" horiz-adv-x="1333" 
d="M594 1253v-458h72q42 0 71 2.5t60.5 12t53 26t40 45t29.5 69.5h96q-17 -113 -17 -229q0 -125 17 -229h-96q-38 98 -91.5 132.5t-162.5 34.5h-72v-206q0 -185 24 -258q30 -93 160 -93q73 0 141.5 30.5t123 83t96 111t75.5 126.5l99 -52q-96 -185 -158 -419
q-203 18 -479 18h-250q-229 0 -367 -6v55q98 19 135 104t37 291v476q0 207 -37 292.5t-135 104.5v55q95 -6 275 -6h334q262 0 452 12q7 -228 51 -401l-88 -27q-70 172 -161 237.5t-271 65.5h-57zM328 1751h735l16 -45l-61 -160h-750l-16 31z" />
    <glyph glyph-name="emacron" unicode="&#x113;" horiz-adv-x="1091" 
d="M395 555v-6q0 -27 2 -53.5t9.5 -66.5t19.5 -74t35.5 -70t54.5 -61.5t78.5 -41.5t105.5 -16q162 0 293 143l54 -43q-190 -286 -512 -286q-217 0 -340 128t-123 355q0 255 139.5 398t388.5 143q200 0 308 -88t108 -252q0 -50 -12 -109h-609zM395 649l289 15q6 27 6 65
q0 88 -35 138.5t-96 50.5q-155 0 -164 -269zM274 1401h695l16 -45l-61 -160h-709l-16 31z" />
    <glyph glyph-name="Ebreve" unicode="&#x114;" horiz-adv-x="1333" 
d="M594 1253v-458h72q42 0 71 2.5t60.5 12t53 26t40 45t29.5 69.5h96q-17 -113 -17 -229q0 -125 17 -229h-96q-38 98 -91.5 132.5t-162.5 34.5h-72v-206q0 -185 24 -258q30 -93 160 -93q73 0 141.5 30.5t123 83t96 111t75.5 126.5l99 -52q-96 -185 -158 -419
q-203 18 -479 18h-250q-229 0 -367 -6v55q98 19 135 104t37 291v476q0 207 -37 292.5t-135 104.5v55q95 -6 275 -6h334q262 0 452 12q7 -228 51 -401l-88 -27q-70 172 -161 237.5t-271 65.5h-57zM817 1847h187q2 -18 2 -49q0 -125 -103 -201.5t-291 -76.5q-98 0 -167 19
t-110.5 57.5t-62 87t-28.5 116.5q28 34 101 58t147 24q11 -125 58.5 -189.5t147.5 -64.5q138 0 138 119q0 37 -19 100z" />
    <glyph glyph-name="ebreve" unicode="&#x115;" horiz-adv-x="1091" 
d="M395 555v-6q0 -27 2 -53.5t9.5 -66.5t19.5 -74t35.5 -70t54.5 -61.5t78.5 -41.5t105.5 -16q162 0 293 143l54 -43q-190 -286 -512 -286q-217 0 -340 128t-123 355q0 255 139.5 398t388.5 143q200 0 308 -88t108 -252q0 -50 -12 -109h-609zM395 649l289 15q6 27 6 65
q0 88 -35 138.5t-96 50.5q-155 0 -164 -269zM696 1448h187q0 -13 1 -29.5t1 -19.5q0 -152 -96.5 -236t-270.5 -84q-155 0 -226 78.5t-87 243.5q26 33 96.5 57.5t151.5 24.5q21 -295 165 -295q46 0 71.5 34.5t25.5 98.5q0 50 -19 127z" />
    <glyph glyph-name="Edotaccent" unicode="&#x116;" horiz-adv-x="1333" 
d="M594 1253v-458h72q42 0 71 2.5t60.5 12t53 26t40 45t29.5 69.5h96q-17 -113 -17 -229q0 -125 17 -229h-96q-38 98 -91.5 132.5t-162.5 34.5h-72v-206q0 -185 24 -258q30 -93 160 -93q73 0 141.5 30.5t123 83t96 111t75.5 126.5l99 -52q-96 -185 -158 -419
q-203 18 -479 18h-250q-229 0 -367 -6v55q98 19 135 104t37 291v476q0 207 -37 292.5t-135 104.5v55q95 -6 275 -6h334q262 0 452 12q7 -228 51 -401l-88 -27q-70 172 -161 237.5t-271 65.5h-57zM645 1896q82 0 139.5 -57t57.5 -139t-57.5 -139.5t-139.5 -57.5t-139 57.5
t-57 139.5t57 139t139 57z" />
    <glyph glyph-name="edotaccent" unicode="&#x117;" horiz-adv-x="1091" 
d="M395 555v-6q0 -27 2 -53.5t9.5 -66.5t19.5 -74t35.5 -70t54.5 -61.5t78.5 -41.5t105.5 -16q162 0 293 143l54 -43q-190 -286 -512 -286q-217 0 -340 128t-123 355q0 255 139.5 398t388.5 143q200 0 308 -88t108 -252q0 -50 -12 -109h-609zM395 649l289 15q6 27 6 65
q0 88 -35 138.5t-96 50.5q-155 0 -164 -269zM565 1456q75 0 129 -53.5t54 -128.5t-54 -128.5t-129 -53.5t-128.5 53.5t-53.5 128.5t53.5 128.5t128.5 53.5z" />
    <glyph glyph-name="Eogonek" unicode="&#x118;" horiz-adv-x="1333" 
d="M594 1253v-458h72q42 0 71 2.5t60.5 12t53 26t40 45t29.5 69.5h96q-17 -113 -17 -229q0 -125 17 -229h-96q-38 98 -91.5 132.5t-162.5 34.5h-72v-206q0 -185 24 -258q30 -93 160 -93q73 0 141.5 30.5t123 83t96 111t75.5 126.5l99 -52q-96 -185 -158 -419q-55 6 -115 10
q-114 -72 -114 -209q0 -48 22 -79.5t66 -31.5q38 0 75 19t58 43l43 -43q-51 -81 -146 -141t-202 -60q-201 0 -201 182q0 95 69.5 181t174.5 145q-70 2 -209 2h-250q-229 0 -367 -6v55q98 19 135 104t37 291v476q0 207 -37 292.5t-135 104.5v55q95 -6 275 -6h334
q262 0 452 12q7 -228 51 -401l-88 -27q-70 172 -161 237.5t-271 65.5h-57z" />
    <glyph glyph-name="eogonek" unicode="&#x119;" horiz-adv-x="1091" 
d="M395 555v-6q0 -27 2 -53.5t9.5 -66.5t19.5 -74t35.5 -70t54.5 -61.5t78.5 -41.5t105.5 -16q162 0 293 143l54 -43q-94 -143 -226 -215q-75 -43 -115 -115t-40 -145q0 -48 21.5 -79t66.5 -31q38 0 75 18.5t58 42.5l43 -45q-51 -80 -145.5 -139.5t-202.5 -59.5
q-82 0 -136.5 45t-54.5 138q0 149 187 301q-14 -2 -43 -2q-217 0 -340 128t-123 355q0 255 139.5 398t388.5 143q200 0 308 -88t108 -252q0 -50 -12 -109h-609zM395 649l289 15q6 27 6 65q0 88 -35 138.5t-96 50.5q-155 0 -164 -269z" />
    <glyph glyph-name="Ecaron" unicode="&#x11a;" horiz-adv-x="1333" 
d="M594 1253v-458h72q42 0 71 2.5t60.5 12t53 26t40 45t29.5 69.5h96q-17 -113 -17 -229q0 -125 17 -229h-96q-38 98 -91.5 132.5t-162.5 34.5h-72v-206q0 -185 24 -258q30 -93 160 -93q73 0 141.5 30.5t123 83t96 111t75.5 126.5l99 -52q-96 -185 -158 -419
q-203 18 -479 18h-250q-229 0 -367 -6v55q98 19 135 104t37 291v476q0 207 -37 292.5t-135 104.5v55q95 -6 275 -6h334q262 0 452 12q7 -228 51 -401l-88 -27q-70 172 -161 237.5t-271 65.5h-57zM176 1642l-24 15q42 56 115.5 123t115.5 67q29 0 78 -32l254 -158
q81 69 141 176h326q-119 -136 -296 -229t-358 -136l-231 148q-66 41 -90 41q-19 0 -31 -15z" />
    <glyph glyph-name="ecaron" unicode="&#x11b;" horiz-adv-x="1091" 
d="M395 555v-6q0 -27 2 -53.5t9.5 -66.5t19.5 -74t35.5 -70t54.5 -61.5t78.5 -41.5t105.5 -16q162 0 293 143l54 -43q-190 -286 -512 -286q-217 0 -340 128t-123 355q0 255 139.5 398t388.5 143q200 0 308 -88t108 -252q0 -50 -12 -109h-609zM395 649l289 15q6 27 6 65
q0 88 -35 138.5t-96 50.5q-155 0 -164 -269zM524 1065l-239 268q-49 55 -72.5 68.5t-69.5 13.5l-8 33l207 59q32 9 49 9q55 0 113 -66l149 -168q78 84 127 227h256q-80 -139 -223.5 -257t-288.5 -187z" />
    <glyph glyph-name="Gcircumflex" unicode="&#x11c;" horiz-adv-x="1556" 
d="M1333 928h-108q-46 169 -140.5 255.5t-232.5 86.5q-178 0 -271.5 -142t-93.5 -419q0 -295 95.5 -461t261.5 -166q58 0 104 19.5t68 52.5q15 23 19.5 55t4.5 100q0 136 -40.5 190.5t-149.5 63.5v53q124 -14 352 -14q165 0 293 14v-53q-46 -8 -67 -44t-21 -111l2 -218
l72 -63q-92 -57 -261 -102t-409 -45q-376 0 -549.5 161t-173.5 510q0 376 192.5 555.5t604.5 179.5q258 0 448 -51q-10 -92 -10 -188q0 -109 10 -219zM1270 1673l24 -14q-40 -54 -115.5 -122.5t-117.5 -68.5q-28 0 -78 33l-254 158q-81 -69 -141 -176h-326
q119 137 295 229.5t358 134.5l232 -147q66 -41 92 -41q17 0 31 14z" />
    <glyph glyph-name="gcircumflex" unicode="&#x11d;" horiz-adv-x="1093" 
d="M342 401q-131 26 -192.5 97.5t-61.5 197.5q0 152 108.5 230t319.5 78q164 0 266 -50q100 8 153.5 58.5t53.5 140.5q57 -19 88 -64.5t31 -111.5q0 -67 -32.5 -103t-94.5 -36q-44 0 -86 18q37 -75 37 -151q0 -154 -111 -233t-325 -79q-29 0 -56 2q-78 -55 -78 -88
q0 -16 6 -24t33 -14.5t73 -9.5t134 -5q247 -6 356.5 -70t108.5 -231q-2 -188 -168.5 -299t-447.5 -111q-201 0 -311.5 59.5t-110.5 166.5q0 84 60.5 139t185.5 84q-35 6 -53 10.5t-46.5 15.5t-43.5 24.5t-26.5 38t-11.5 56.5q0 125 242 264zM627 688q0 103 -33 162t-90 59
q-54 0 -83.5 -48t-29.5 -136q0 -107 34 -171.5t91 -64.5q54 0 82.5 51.5t28.5 147.5zM831 -168q0 148 -266 148q-126 0 -199 -45t-73 -123q0 -69 65.5 -108.5t180.5 -39.5q135 0 213.5 44.5t78.5 123.5zM567 1536l240 -270q50 -56 73 -69t68 -11l8 -35l-213 -59
q-28 -7 -38 -7q-60 0 -117 66l-150 168q-75 -80 -127 -227h-256q79 136 227 258t285 186z" />
    <glyph glyph-name="Gbreve" unicode="&#x11e;" horiz-adv-x="1556" 
d="M1333 928h-108q-46 169 -140.5 255.5t-232.5 86.5q-178 0 -271.5 -142t-93.5 -419q0 -295 95.5 -461t261.5 -166q58 0 104 19.5t68 52.5q15 23 19.5 55t4.5 100q0 136 -40.5 190.5t-149.5 63.5v53q124 -14 352 -14q165 0 293 14v-53q-46 -8 -67 -44t-21 -111l2 -218
l72 -63q-92 -57 -261 -102t-409 -45q-376 0 -549.5 161t-173.5 510q0 376 192.5 555.5t604.5 179.5q258 0 448 -51q-10 -92 -10 -188q0 -109 10 -219zM971 1847h186q2 -18 2 -49q0 -125 -102.5 -201.5t-290.5 -76.5q-190 0 -271.5 70.5t-97.5 209.5q28 34 101 58t147 24
q11 -125 59 -189.5t148 -64.5q137 0 137 119q0 40 -18 100z" />
    <glyph glyph-name="gbreve" unicode="&#x11f;" horiz-adv-x="1093" 
d="M342 401q-131 26 -192.5 97.5t-61.5 197.5q0 152 108.5 230t319.5 78q164 0 266 -50q100 8 153.5 58.5t53.5 140.5q57 -19 88 -64.5t31 -111.5q0 -67 -32.5 -103t-94.5 -36q-44 0 -86 18q37 -75 37 -151q0 -154 -111 -233t-325 -79q-29 0 -56 2q-78 -55 -78 -88
q0 -16 6 -24t33 -14.5t73 -9.5t134 -5q247 -6 356.5 -70t108.5 -231q-2 -188 -168.5 -299t-447.5 -111q-201 0 -311.5 59.5t-110.5 166.5q0 84 60.5 139t185.5 84q-35 6 -53 10.5t-46.5 15.5t-43.5 24.5t-26.5 38t-11.5 56.5q0 125 242 264zM627 688q0 103 -33 162t-90 59
q-54 0 -83.5 -48t-29.5 -136q0 -107 34 -171.5t91 -64.5q54 0 82.5 51.5t28.5 147.5zM831 -168q0 148 -266 148q-126 0 -199 -45t-73 -123q0 -69 65.5 -108.5t180.5 -39.5q135 0 213.5 44.5t78.5 123.5zM662 1448h186q0 -13 1 -29.5t1 -19.5q0 -152 -96.5 -236t-270.5 -84
q-155 0 -226 78.5t-87 243.5q26 33 96.5 57.5t151.5 24.5q21 -295 166 -295q46 0 71 34.5t25 98.5q0 54 -18 127z" />
    <glyph glyph-name="Gdotaccent" unicode="&#x120;" horiz-adv-x="1556" 
d="M1333 928h-108q-46 169 -140.5 255.5t-232.5 86.5q-178 0 -271.5 -142t-93.5 -419q0 -295 95.5 -461t261.5 -166q58 0 104 19.5t68 52.5q15 23 19.5 55t4.5 100q0 136 -40.5 190.5t-149.5 63.5v53q124 -14 352 -14q165 0 293 14v-53q-46 -8 -67 -44t-21 -111l2 -218
l72 -63q-92 -57 -261 -102t-409 -45q-376 0 -549.5 161t-173.5 510q0 376 192.5 555.5t604.5 179.5q258 0 448 -51q-10 -92 -10 -188q0 -109 10 -219zM840 1896q82 0 139 -57t57 -139t-57 -139.5t-139 -57.5t-139.5 57.5t-57.5 139.5t57.5 139t139.5 57z" />
    <glyph glyph-name="gdotaccent" unicode="&#x121;" horiz-adv-x="1093" 
d="M342 401q-131 26 -192.5 97.5t-61.5 197.5q0 152 108.5 230t319.5 78q164 0 266 -50q100 8 153.5 58.5t53.5 140.5q57 -19 88 -64.5t31 -111.5q0 -67 -32.5 -103t-94.5 -36q-44 0 -86 18q37 -75 37 -151q0 -154 -111 -233t-325 -79q-29 0 -56 2q-78 -55 -78 -88
q0 -16 6 -24t33 -14.5t73 -9.5t134 -5q247 -6 356.5 -70t108.5 -231q-2 -188 -168.5 -299t-447.5 -111q-201 0 -311.5 59.5t-110.5 166.5q0 84 60.5 139t185.5 84q-35 6 -53 10.5t-46.5 15.5t-43.5 24.5t-26.5 38t-11.5 56.5q0 125 242 264zM627 688q0 103 -33 162t-90 59
q-54 0 -83.5 -48t-29.5 -136q0 -107 34 -171.5t91 -64.5q54 0 82.5 51.5t28.5 147.5zM831 -168q0 148 -266 148q-126 0 -199 -45t-73 -123q0 -69 65.5 -108.5t180.5 -39.5q135 0 213.5 44.5t78.5 123.5zM512 1456q75 0 128.5 -53.5t53.5 -128.5t-53.5 -128.5t-128.5 -53.5
t-128.5 53.5t-53.5 128.5t53.5 128.5t128.5 53.5z" />
    <glyph glyph-name="Gcommaaccent" unicode="&#x122;" horiz-adv-x="1556" 
d="M1333 928h-108q-46 169 -140.5 255.5t-232.5 86.5q-178 0 -271.5 -142t-93.5 -419q0 -295 95.5 -461t261.5 -166q58 0 104 19.5t68 52.5q15 23 19.5 55t4.5 100q0 136 -40.5 190.5t-149.5 63.5v53q124 -14 352 -14q165 0 293 14v-53q-46 -8 -67 -44t-21 -111l2 -218
l72 -63q-92 -57 -261 -102t-409 -45q-376 0 -549.5 161t-173.5 510q0 376 192.5 555.5t604.5 179.5q258 0 448 -51q-10 -92 -10 -188q0 -109 10 -219zM588 -227l-15 43q38 28 119 57t162 29t125.5 -42.5t44.5 -127.5q0 -192 -348 -252l-23 61q51 20 73 46t22 67
q0 45 -40.5 82t-119.5 37z" />
    <glyph glyph-name="gcommaaccent" unicode="&#x123;" horiz-adv-x="1093" 
d="M741 1243l15 -43q-50 -33 -129 -59.5t-164 -26.5q-158 0 -158 154q0 178 346 258l23 -62q-50 -20 -71 -47.5t-21 -68.5q0 -44 39.5 -74.5t119.5 -30.5zM342 401q-131 26 -192.5 97.5t-61.5 197.5q0 152 108.5 230t319.5 78q164 0 266 -50q100 8 153.5 58.5t53.5 140.5
q57 -19 88 -64.5t31 -111.5q0 -67 -32.5 -103t-94.5 -36q-44 0 -86 18q37 -75 37 -151q0 -154 -111 -233t-325 -79q-29 0 -56 2q-78 -55 -78 -88q0 -16 6 -24t33 -14.5t73 -9.5t134 -5q247 -6 356.5 -70t108.5 -231q-2 -188 -168.5 -299t-447.5 -111q-201 0 -311.5 59.5
t-110.5 166.5q0 84 60.5 139t185.5 84q-35 6 -53 10.5t-46.5 15.5t-43.5 24.5t-26.5 38t-11.5 56.5q0 125 242 264zM627 688q0 103 -33 162t-90 59q-54 0 -83.5 -48t-29.5 -136q0 -107 34 -171.5t91 -64.5q54 0 82.5 51.5t28.5 147.5zM831 -168q0 148 -266 148
q-126 0 -199 -45t-73 -123q0 -69 65.5 -108.5t180.5 -39.5q135 0 213.5 44.5t78.5 123.5z" />
    <glyph glyph-name="Hcircumflex" unicode="&#x124;" horiz-adv-x="1712" 
d="M594 782h524v138q0 207 -38 292.5t-138 104.5v55q169 -12 350 -12q204 0 363 12v-55q-100 -19 -138 -104.5t-38 -292.5v-476q0 -207 38 -292.5t138 -102.5v-55q-135 12 -346 12q-189 0 -367 -12v55q100 17 138 102.5t38 292.5v199h-524v-199q0 -207 38 -292.5t136 -102.5
v-55q-132 12 -350 12q-208 0 -361 -12v55q99 17 136.5 102t37.5 293v476q0 207 -37 292.5t-137 104.5v55q153 -12 346 -12q221 0 365 12v-55q-99 -19 -136.5 -104t-37.5 -293v-138zM1389 1673l24 -14q-40 -54 -115.5 -122.5t-117.5 -68.5q-28 0 -78 33l-254 158
q-81 -69 -141 -176h-326q119 137 295 229.5t358 134.5l232 -147q66 -41 92 -41q17 0 31 14z" />
    <glyph glyph-name="hcircumflex" unicode="&#x125;" horiz-adv-x="1308" 
d="M786 1802l27 -20q-35 -55 -109.5 -123t-107.5 -68q-32 0 -129 33l-219 76q-43 -19 -84.5 -45.5t-57.5 -48.5h-325q115 117 308 191t345 91l193 -65q99 -35 129 -35q16 0 30 14zM514 1540q-22 -177 -22 -502v-288q88 140 172 197t204 57q70 0 119 -17.5t77.5 -45t44.5 -74
t21 -92.5t5 -111v-285q0 -165 32.5 -245t104.5 -95v-45q-135 12 -299 12q-165 0 -297 -12v45q75 12 108 91.5t33 248.5v141q0 133 -33.5 189.5t-113.5 56.5q-110 0 -178 -121v-266q0 -165 31 -243t104 -97v-45q-141 12 -297 12q-152 0 -287 -12v45q71 22 101 100t30 240v729
q0 178 -26 265t-105 112v39z" />
    <glyph glyph-name="Hbar" unicode="&#x126;" horiz-adv-x="1712" 
d="M94 1057h131q-10 129 -48 187t-120 73v55q153 -12 346 -12q221 0 365 12v-55q-81 -15 -120.5 -73.5t-49.5 -186.5h514q-10 128 -49 186.5t-121 73.5v55q169 -12 350 -12q204 0 363 12v-55q-83 -15 -122.5 -73.5t-49.5 -186.5h153l19 -25l-25 -84h-151v-504
q0 -207 38 -292.5t138 -102.5v-55q-135 12 -346 12q-189 0 -367 -12v55q100 17 138 102.5t38 292.5v199h-524v-199q0 -207 38 -292.5t136 -102.5v-55q-132 12 -350 12q-208 0 -361 -12v55q99 17 136.5 102t37.5 293v504h-157l-17 31zM594 782h524v166h-524v-166z" />
    <glyph glyph-name="hbar" unicode="&#x127;" horiz-adv-x="1308" 
d="M514 1540q-13 -113 -20 -274h385l16 -31l-29 -78h-374v-407q88 140 172 197t204 57q70 0 119 -17.5t77.5 -45t44.5 -74t21 -92.5t5 -111v-285q0 -165 32.5 -245t104.5 -95v-45q-135 12 -299 12q-165 0 -297 -12v45q75 12 108 91.5t33 248.5v141q0 133 -33.5 189.5
t-113.5 56.5q-110 0 -178 -121v-266q0 -165 31 -243t104 -97v-45q-141 12 -297 12q-152 0 -287 -12v45q71 22 101 100t30 240v778h-139l-17 31l35 78h115q-9 94 -38 146.5t-87 72.5v39z" />
    <glyph glyph-name="Itilde" unicode="&#x128;" horiz-adv-x="825" 
d="M768 49v-55q-180 12 -332 12q-125 0 -379 -12v55q99 17 136.5 102t37.5 293v476q0 207 -37 292.5t-137 104.5v55q199 -12 346 -12q123 0 365 12v-55q-99 -19 -136.5 -104t-37.5 -293v-476q0 -207 38 -292.5t136 -102.5zM819 1810l58 -22q-40 -149 -94 -214t-136 -65
q-73 0 -282 56q-182 51 -252 51q-42 0 -65.5 -18t-43.5 -66l-55 22q50 143 104.5 211t120.5 68q53 0 116 -12.5t185 -44.5q196 -52 248 -52q67 0 96 86z" />
    <glyph glyph-name="itilde" unicode="&#x129;" horiz-adv-x="686" 
d="M526 995q-14 -151 -14 -391v-225q0 -165 31.5 -244t103.5 -96v-45q-126 12 -287 12q-171 0 -303 -12v45q72 19 102.5 97t30.5 243v184q0 83 -4 137t-17 108.5t-40.5 86.5t-71.5 45v39zM715 1405l59 -21q-37 -136 -87.5 -196t-127.5 -60q-70 0 -260 52q-171 47 -231 47
q-38 0 -58 -16.5t-39 -61.5l-57 20q46 132 97 194t114 62q75 0 276 -53q181 -47 228 -47q60 0 86 80z" />
    <glyph glyph-name="Imacron" unicode="&#x12a;" horiz-adv-x="825" 
d="M768 49v-55q-180 12 -332 12q-125 0 -379 -12v55q99 17 136.5 102t37.5 293v476q0 207 -37 292.5t-137 104.5v55q199 -12 346 -12q123 0 365 12v-55q-99 -19 -136.5 -104t-37.5 -293v-476q0 -207 38 -292.5t136 -102.5zM90 1751h735l17 -45l-62 -160h-749l-17 31z" />
    <glyph glyph-name="imacron" unicode="&#x12b;" horiz-adv-x="686" 
d="M526 995q-14 -151 -14 -391v-225q0 -165 31.5 -244t103.5 -96v-45q-126 12 -287 12q-171 0 -303 -12v45q72 19 102.5 97t30.5 243v184q0 83 -4 137t-17 108.5t-40.5 86.5t-71.5 45v39zM6 1401h694l17 -45l-62 -160h-708l-17 31z" />
    <glyph glyph-name="Ibreve" unicode="&#x12c;" horiz-adv-x="825" 
d="M768 49v-55q-180 12 -332 12q-125 0 -379 -12v55q99 17 136.5 102t37.5 293v476q0 207 -37 292.5t-137 104.5v55q199 -12 346 -12q123 0 365 12v-55q-99 -19 -136.5 -104t-37.5 -293v-476q0 -207 38 -292.5t136 -102.5zM606 1847h187q2 -18 2 -49q0 -125 -103 -201.5
t-291 -76.5q-98 0 -167 19t-110.5 57.5t-62 87t-28.5 116.5q28 34 101 58t147 24q11 -125 58.5 -189.5t147.5 -64.5q138 0 138 119q0 37 -19 100z" />
    <glyph glyph-name="ibreve" unicode="&#x12d;" horiz-adv-x="686" 
d="M526 995q-14 -151 -14 -391v-225q0 -165 31.5 -244t103.5 -96v-45q-126 12 -287 12q-171 0 -303 -12v45q72 19 102.5 97t30.5 243v184q0 83 -4 137t-17 108.5t-40.5 86.5t-71.5 45v39zM475 1448h187q0 -13 1 -29.5t1 -19.5q0 -152 -96.5 -236t-270.5 -84
q-155 0 -226 78.5t-87 243.5q26 33 96 57.5t151 24.5q21 -295 166 -295q46 0 71.5 34.5t25.5 98.5q0 50 -19 127z" />
    <glyph glyph-name="Iogonek" unicode="&#x12e;" horiz-adv-x="825" 
d="M768 49v-55q-133 9 -264 12q-82 -84 -82 -207q0 -127 88 -127q38 0 75 19t58 43l43 -43q-51 -81 -146 -141t-202 -60q-89 0 -145 44t-56 138q0 93 56.5 179t146.5 153q-96 -2 -283 -10v55q99 17 136.5 102t37.5 293v476q0 207 -37 292.5t-137 104.5v55q199 -12 346 -12
q123 0 365 12v-55q-99 -19 -136.5 -104t-37.5 -293v-476q0 -207 38 -292.5t136 -102.5z" />
    <glyph glyph-name="iogonek" unicode="&#x12f;" horiz-adv-x="686" 
d="M526 995q-14 -151 -14 -391v-225q0 -165 31.5 -244t103.5 -96v-45q-99 9 -217 12q-48 -41 -71 -102t-23 -121q0 -48 22 -79.5t66 -31.5q38 0 75 19t58 43l37 -43q-52 -81 -143.5 -141t-198.5 -60q-82 0 -136.5 44.5t-54.5 137.5t67.5 181t168.5 153q-138 -3 -240 -12v45
q72 19 102.5 97t30.5 243v184q0 83 -4 137t-17 108.5t-40.5 86.5t-71.5 45v39zM348 1509q82 0 139.5 -58t57.5 -140t-57.5 -139.5t-139.5 -57.5t-139 57.5t-57 139.5q0 83 57 140.5t139 57.5z" />
    <glyph glyph-name="Idotaccent" unicode="&#x130;" horiz-adv-x="825" 
d="M768 49v-55q-180 12 -332 12q-125 0 -379 -12v55q99 17 136.5 102t37.5 293v476q0 207 -37 292.5t-137 104.5v55q199 -12 346 -12q123 0 365 12v-55q-99 -19 -136.5 -104t-37.5 -293v-476q0 -207 38 -292.5t136 -102.5zM414 1896q82 0 139 -57t57 -139t-57 -139.5
t-139 -57.5t-139.5 57.5t-57.5 139.5t57.5 139t139.5 57z" />
    <glyph glyph-name="dotlessi" unicode="&#x131;" horiz-adv-x="686" 
d="M526 995q-14 -151 -14 -391v-225q0 -165 31.5 -244t103.5 -96v-45q-126 12 -287 12q-171 0 -303 -12v45q72 19 102.5 97t30.5 243v184q0 83 -4 137t-17 108.5t-40.5 86.5t-71.5 45v39z" />
    <glyph glyph-name="IJ" unicode="&#x132;" horiz-adv-x="1933" 
d="M768 49v-55q-180 12 -332 12q-125 0 -379 -12v55q99 17 136.5 102t37.5 293v476q0 207 -37 292.5t-137 104.5v55q199 -12 346 -12q123 0 365 12v-55q-99 -19 -136.5 -104t-37.5 -293v-476q0 -207 38 -292.5t136 -102.5zM1219 412q-54 -82 -54 -189q0 -127 82 -127
q79 0 98 96.5t19 407.5v320q0 207 -37 292.5t-137 104.5v55q135 -12 371 -12q181 0 337 12v-55q-100 -19 -138 -104.5t-38 -292.5v-316q0 -80 -1 -127t-6.5 -111.5t-16 -101.5t-29 -84t-46.5 -73t-69 -54.5t-94.5 -42.5t-124.5 -23.5t-159 -9.5q-180 0 -266.5 50.5
t-86.5 154.5q0 107 82 176.5t209 69.5q69 0 105 -16z" />
    <glyph glyph-name="ij" unicode="&#x133;" horiz-adv-x="1320" 
d="M526 995q-14 -151 -14 -391v-225q0 -165 31.5 -244t103.5 -96v-45q-126 12 -287 12q-171 0 -303 -12v45q72 19 102.5 97t30.5 243v184q0 83 -4 137t-17 108.5t-40.5 86.5t-71.5 45v39zM348 1509q82 0 139.5 -58t57.5 -140t-57.5 -139.5t-139.5 -57.5t-139 57.5t-57 139.5
q0 83 57 140.5t139 57.5zM1208 995q-22 -217 -22 -596v-297q0 -204 -28 -293.5t-114 -164.5q-69 -60 -171.5 -92.5t-221.5 -32.5q-136 0 -209 51.5t-73 146.5q0 92 71 150.5t183 58.5q58 0 82 -8q-35 -67 -35 -143q0 -71 22.5 -109.5t63.5 -38.5q40 0 64.5 35t37 121
t12.5 233v547q0 187 -29.5 271t-103.5 106v39zM1024 1509q83 0 141 -58t58 -140t-58 -139.5t-141 -57.5q-82 0 -139.5 57.5t-57.5 139.5q0 83 57.5 140.5t139.5 57.5z" />
    <glyph glyph-name="Jcircumflex" unicode="&#x134;" horiz-adv-x="1110" 
d="M395 412q-53 -80 -53 -189q0 -127 82 -127q79 0 98 96.5t19 407.5v320q0 207 -37 292.5t-137 104.5v55q135 -12 370 -12q182 0 338 12v-55q-100 -19 -138 -104.5t-38 -292.5v-316q0 -103 -2.5 -161.5t-13 -135t-32 -118.5t-61 -89t-97.5 -69.5t-143 -38t-198 -15.5
q-180 0 -266 50.5t-86 154.5q0 107 82 176.5t209 69.5q68 0 104 -16zM1190 1673l24 -14q-40 -54 -115.5 -122.5t-117.5 -68.5q-28 0 -78 33l-254 158q-81 -69 -141 -176h-326q119 137 295.5 229.5t358.5 134.5l231 -147q66 -41 92 -41q17 0 31 14z" />
    <glyph glyph-name="jcircumflex" unicode="&#x135;" horiz-adv-x="628" 
d="M516 995q-22 -217 -22 -596v-297q0 -204 -28 -293.5t-114 -164.5q-69 -60 -171.5 -92.5t-221.5 -32.5q-136 0 -209.5 51.5t-73.5 146.5q0 92 71 150.5t183 58.5q58 0 82 -8q-11 -22 -16 -33t-12 -42t-7 -68q0 -71 22.5 -109.5t63.5 -38.5q40 0 64.5 35t37.5 121t13 233
v547q0 187 -29.5 271t-103.5 106v39zM410 1516l239 -271q50 -56 73.5 -69t68.5 -11l8 -35l-213 -59q-24 -6 -39 -6q-61 0 -117 65l-149 168q-75 -80 -127 -227h-256q79 136 227 258.5t285 186.5z" />
    <glyph glyph-name="Kcommaaccent" unicode="&#x136;" horiz-adv-x="1603" 
d="M770 49v-55q-123 12 -352 12q-205 0 -361 -12v55q99 17 136.5 102t37.5 293v476q0 207 -37 292.5t-137 104.5v55q144 -12 355 -12q188 0 358 12v-55q-100 -19 -137 -103.5t-37 -293.5v-476q0 -208 37.5 -293t136.5 -102zM901 797q22 -4 41.5 -10.5t35 -12t31.5 -16.5
t26 -18t24.5 -22.5t22 -23t22 -28t21 -29t23 -33.5t23.5 -35l185 -268q69 -100 143.5 -170.5t130.5 -85.5v-45h-348q-44 0 -66.5 0.5t-49.5 9t-39.5 16t-36.5 33.5t-40.5 49.5t-52.5 75.5l-231 336q-96 141 -170 205l379 348q94 85 94 158q0 26 -9 42.5t-29 25.5t-39.5 12
t-53.5 6v55q135 -12 283 -12q153 0 270 12v-51q-67 -38 -136.5 -97.5t-269.5 -250.5zM590 -227l-15 43q38 28 119 57t162 29t125.5 -42.5t44.5 -127.5q0 -192 -348 -252l-23 61q51 20 73 46t22 67q0 45 -40.5 82t-119.5 37z" />
    <glyph glyph-name="kcommaaccent" unicode="&#x137;" horiz-adv-x="1261" 
d="M727 649q40 -3 75.5 -18t59.5 -33t50.5 -51.5t42 -57t40.5 -65.5l115 -195q60 -102 99.5 -141t93.5 -53v-35h-308q-83 0 -111.5 15t-68.5 81l-225 371q-24 39 -45.5 62t-55.5 42v-192q0 -164 32 -243.5t106 -96.5v-45q-120 12 -305 12q-172 0 -277 -12v45q71 25 100 102
t29 238v731q0 78 -4 131t-16.5 109t-39.5 90t-69 47v39l465 14q-21 -175 -21 -491v-457l158 125q101 78 101 145q0 39 -22.5 56.5t-78.5 23.5v47q132 -12 273 -12q142 0 262 12v-37q-87 -38 -166.5 -90t-177.5 -127zM420 -244l-14 43q48 30 127.5 58t152.5 28
q83 0 126.5 -35.5t43.5 -117.5q0 -97 -95.5 -164.5t-260.5 -87.5l-15 61q51 20 73 44.5t22 58.5q0 50 -39.5 81t-120.5 31z" />
    <glyph glyph-name="kgreenlandic" unicode="&#x138;" horiz-adv-x="1261" 
d="M727 649q40 -3 75.5 -18t59.5 -33t50.5 -51.5t42 -57t40.5 -65.5l115 -195q60 -102 99.5 -141t93.5 -53v-35h-308q-83 0 -111.5 15t-68.5 81l-225 371q-24 39 -45.5 62t-55.5 42v-192q0 -164 32 -243.5t106 -96.5v-45q-120 12 -305 12q-172 0 -277 -12v45q71 25 100 102
t29 238v188q0 78 -4 131t-16.5 109t-39.5 90t-69 47v39l465 14q-21 -175 -21 -405l158 125q101 78 101 145q0 39 -22.5 56.5t-78.5 23.5v47q132 -12 273 -12q142 0 262 12v-37q-87 -38 -166.5 -90t-177.5 -127z" />
    <glyph glyph-name="Lacute" unicode="&#x139;" horiz-adv-x="1294" 
d="M57 1372q147 -12 330 -12q189 0 383 12v-55q-100 -19 -137 -103.5t-37 -293.5v-517q0 -126 20 -198q29 -103 160 -103q125 0 230.5 84.5t207.5 268.5l95 -52q-91 -197 -154 -421q-252 18 -559 18h-285q-155 0 -254 -6v55q99 17 136.5 102t37.5 293v476q0 207 -37 292.5
t-137 104.5v55zM399 1460l-43 99q110 70 223.5 162.5t188.5 176.5q46 -39 94 -109t76 -140q-76 -52 -233.5 -107.5t-305.5 -81.5z" />
    <glyph glyph-name="lacute" unicode="&#x13a;" horiz-adv-x="665" 
d="M98 1608l-28 94q217 113 415 295q52 -47 92.5 -121.5t55.5 -151.5q-108 -50 -254 -80t-281 -36zM510 1540q-21 -187 -21 -493v-668q0 -165 32 -244t106 -96v-45q-132 12 -299 12q-162 0 -285 -12v45q72 23 101.5 100t29.5 240v731q0 66 -2 111.5t-10 95t-21.5 80.5
t-38 55.5t-59.5 34.5v39z" />
    <glyph glyph-name="Lcommaaccent" unicode="&#x13b;" horiz-adv-x="1294" 
d="M57 1372q147 -12 330 -12q189 0 383 12v-55q-100 -19 -137 -103.5t-37 -293.5v-517q0 -126 20 -198q29 -103 160 -103q125 0 230.5 84.5t207.5 268.5l95 -52q-91 -197 -154 -421q-252 18 -559 18h-285q-155 0 -254 -6v55q99 17 136.5 102t37.5 293v476q0 207 -37 292.5
t-137 104.5v55zM393 -227l-14 43q38 29 118.5 57.5t161.5 28.5t125.5 -42.5t44.5 -127.5q0 -192 -348 -252l-22 61q51 20 72.5 46t21.5 67q0 45 -40.5 82t-119.5 37z" />
    <glyph glyph-name="lcommaaccent" unicode="&#x13c;" horiz-adv-x="665" 
d="M510 1540q-21 -187 -21 -493v-668q0 -165 32 -244t106 -96v-45q-132 12 -299 12q-162 0 -285 -12v45q72 23 101.5 100t29.5 240v731q0 66 -2 111.5t-10 95t-21.5 80.5t-38 55.5t-59.5 34.5v39zM86 -244l-14 43q48 30 127.5 58t152.5 28q83 0 126.5 -35.5t43.5 -117.5
q0 -97 -95.5 -164.5t-260.5 -87.5l-14 61q50 20 72 44.5t22 58.5q0 50 -39.5 81t-120.5 31z" />
    <glyph glyph-name="Lcaron" unicode="&#x13d;" horiz-adv-x="1294" 
d="M57 1372q147 -12 330 -12q189 0 383 12v-55q-100 -19 -137 -103.5t-37 -293.5v-517q0 -126 20 -198q29 -103 160 -103q125 0 230.5 84.5t207.5 268.5l95 -52q-91 -197 -154 -421q-252 18 -559 18h-285q-155 0 -254 -6v55q99 17 136.5 102t37.5 293v476q0 207 -37 292.5
t-137 104.5v55zM881 1251l-15 43q38 28 119 57t162 29t125.5 -42.5t44.5 -127.5q0 -192 -348 -252l-23 62q51 20 72.5 46t21.5 67q0 45 -40 81.5t-119 36.5z" />
    <glyph glyph-name="lcaron" unicode="&#x13e;" horiz-adv-x="665" 
d="M510 1540q-21 -187 -21 -493v-668q0 -165 32 -244t106 -96v-45q-132 12 -299 12q-162 0 -285 -12v45q72 23 101.5 100t29.5 240v731q0 66 -2 111.5t-10 95t-21.5 80.5t-38 55.5t-59.5 34.5v39zM563 1413l-14 43q48 30 127.5 58t152.5 28q83 0 126.5 -35.5t43.5 -117.5
q0 -97 -95.5 -164.5t-260.5 -87.5l-14 61q51 20 72.5 44t21.5 58q0 50 -39.5 81.5t-120.5 31.5z" />
    <glyph glyph-name="Ldot" unicode="&#x13f;" horiz-adv-x="1294" 
d="M57 1372q147 -12 330 -12q189 0 383 12v-55q-100 -19 -137 -103.5t-37 -293.5v-517q0 -126 20 -198q29 -103 160 -103q125 0 230.5 84.5t207.5 268.5l95 -52q-91 -197 -154 -421q-252 18 -559 18h-285q-155 0 -254 -6v55q99 17 136.5 102t37.5 293v476q0 207 -37 292.5
t-137 104.5v55zM1057 1026q91 0 155 -65t64 -156q0 -92 -64 -156.5t-155 -64.5q-92 0 -156.5 64.5t-64.5 156.5q0 91 64.5 156t156.5 65z" />
    <glyph glyph-name="ldot" unicode="&#x140;" horiz-adv-x="1097" 
d="M510 1540q-21 -187 -21 -493v-668q0 -165 32 -244t106 -96v-45q-132 12 -299 12q-162 0 -285 -12v45q72 23 101.5 100t29.5 240v731q0 66 -2 111.5t-10 95t-21.5 80.5t-38 55.5t-59.5 34.5v39zM879 1018q91 0 155 -65t64 -156q0 -92 -64 -157t-155 -65q-92 0 -157 65
t-65 157q0 91 65 156t157 65z" />
    <glyph glyph-name="Lslash" unicode="&#x141;" horiz-adv-x="1294" 
d="M231 532q-91 -51 -147 -98l-25 8v127l172 101v250q0 207 -37 292.5t-137 104.5v55q164 -12 363 -12q172 0 350 12v-55q-100 -19 -137 -103.5t-37 -293.5v-70l252 145l26 -14v-127q-24 -12 -86 -42.5t-108 -54.5t-84 -48v-306q0 -52 1.5 -86t7.5 -72t18 -61t31.5 -43.5
t50 -29.5t71.5 -9q125 0 230.5 84.5t207.5 268.5l95 -52q-91 -197 -154 -421q-231 18 -448 18h-396q-134 0 -254 -6v55q99 17 136.5 102t37.5 293v88z" />
    <glyph glyph-name="lslash" unicode="&#x142;" horiz-adv-x="665" 
d="M174 819q-73 -44 -117 -80l-26 11v116l143 84v160q0 69 -2 113.5t-9.5 93.5t-21 79.5t-38.5 55t-60 35.5v39l467 14q-21 -198 -21 -436l111 63l29 -14v-119q-78 -28 -140 -63v-592q0 -165 32 -244t106 -96v-45q-120 12 -299 12q-159 0 -285 -12v45q72 23 101.5 100
t29.5 240v440z" />
    <glyph glyph-name="Nacute" unicode="&#x143;" horiz-adv-x="1626" 
d="M1260 397v523q0 206 -38.5 292t-138.5 105v55q129 -12 250 -12q130 0 250 12v-55q-100 -19 -138 -104.5t-38 -292.5v-398q0 -313 14 -528h-305l-747 1055v-605q0 -207 38 -292.5t138 -102.5v-55q-95 12 -252 12q-124 0 -250 -12v55q100 17 138 102.5t38 292.5v476
q0 207 -38 292.5t-138 104.5v55q153 -12 285 -12q152 0 278 12q83 -165 230 -373zM647 1460l-43 99q110 70 223.5 162.5t188.5 176.5q46 -39 94 -109t76 -140q-76 -52 -233.5 -107.5t-305.5 -81.5z" />
    <glyph glyph-name="nacute" unicode="&#x144;" horiz-adv-x="1329" 
d="M508 995v-247q85 137 173 196.5t206 59.5q149 0 207.5 -77.5t58.5 -230.5v-317q0 -167 33 -247t108 -93v-45q-126 12 -297 12q-166 0 -301 -12v45q74 14 107 93.5t33 246.5v145q0 42 -1.5 68.5t-10 63t-23.5 58t-45 37t-72 15.5q-107 0 -176 -123v-264q0 -165 31.5 -244
t103.5 -96v-45q-120 12 -291 12q-162 0 -297 -12v45q72 19 103.5 97.5t31.5 242.5v182q0 66 -2 109.5t-9.5 94t-21.5 82t-40 57.5t-62 36v39zM528 1065l-53 82q181 181 311 403q63 -31 123 -90.5t97 -128.5q-88 -78 -218.5 -148.5t-259.5 -117.5z" />
    <glyph glyph-name="Ncommaaccent" unicode="&#x145;" horiz-adv-x="1626" 
d="M1260 397v523q0 206 -38.5 292t-138.5 105v55q129 -12 250 -12q130 0 250 12v-55q-100 -19 -138 -104.5t-38 -292.5v-398q0 -313 14 -528h-305l-747 1055v-605q0 -207 38 -292.5t138 -102.5v-55q-95 12 -252 12q-124 0 -250 -12v55q100 17 138 102.5t38 292.5v476
q0 207 -38 292.5t-138 104.5v55q153 -12 285 -12q152 0 278 12q83 -165 230 -373zM573 -227l-14 43q38 28 119 57t162 29t125.5 -42.5t44.5 -127.5q0 -192 -348 -252l-23 61q51 20 72.5 46t21.5 67q0 45 -40.5 82t-119.5 37z" />
    <glyph glyph-name="ncommaaccent" unicode="&#x146;" horiz-adv-x="1329" 
d="M508 995v-247q85 137 173 196.5t206 59.5q149 0 207.5 -77.5t58.5 -230.5v-317q0 -167 33 -247t108 -93v-45q-126 12 -297 12q-166 0 -301 -12v45q74 14 107 93.5t33 246.5v145q0 42 -1.5 68.5t-10 63t-23.5 58t-45 37t-72 15.5q-107 0 -176 -123v-264q0 -165 31.5 -244
t103.5 -96v-45q-120 12 -291 12q-162 0 -297 -12v45q72 19 103.5 97.5t31.5 242.5v182q0 66 -2 109.5t-9.5 94t-21.5 82t-40 57.5t-62 36v39zM426 -244l-14 43q48 30 127.5 58t152.5 28q83 0 126.5 -35.5t43.5 -117.5q0 -97 -95.5 -164.5t-260.5 -87.5l-14 61q50 20 72 44.5
t22 58.5q0 50 -39.5 81t-120.5 31z" />
    <glyph glyph-name="Ncaron" unicode="&#x147;" horiz-adv-x="1626" 
d="M1260 397v523q0 206 -38.5 292t-138.5 105v55q129 -12 250 -12q130 0 250 12v-55q-100 -19 -138 -104.5t-38 -292.5v-398q0 -313 14 -528h-305l-747 1055v-605q0 -207 38 -292.5t138 -102.5v-55q-95 12 -252 12q-124 0 -250 -12v55q100 17 138 102.5t38 292.5v476
q0 207 -38 292.5t-138 104.5v55q153 -12 285 -12q152 0 278 12q83 -165 230 -373zM383 1642l-25 15q42 56 116 123t116 67q29 0 78 -32l254 -158q81 69 141 176h326q-119 -136 -296 -229t-358 -136l-231 148q-66 41 -90 41q-18 0 -31 -15z" />
    <glyph glyph-name="ncaron" unicode="&#x148;" horiz-adv-x="1329" 
d="M508 995v-247q85 137 173 196.5t206 59.5q149 0 207.5 -77.5t58.5 -230.5v-317q0 -167 33 -247t108 -93v-45q-126 12 -297 12q-166 0 -301 -12v45q74 14 107 93.5t33 246.5v145q0 42 -1.5 68.5t-10 63t-23.5 58t-45 37t-72 15.5q-107 0 -176 -123v-264q0 -165 31.5 -244
t103.5 -96v-45q-120 12 -291 12q-162 0 -297 -12v45q72 19 103.5 97.5t31.5 242.5v182q0 66 -2 109.5t-9.5 94t-21.5 82t-40 57.5t-62 36v39zM602 1065l-240 268q-49 55 -72 68.5t-69 13.5l-8 33l207 59q32 9 49 9q55 0 113 -66l149 -168q78 84 127 227h256
q-80 -139 -223.5 -257t-288.5 -187z" />
    <glyph glyph-name="napostrophe" unicode="&#x149;" horiz-adv-x="1329" 
d="M508 995v-247q85 137 173 196.5t206 59.5q149 0 207.5 -77.5t58.5 -230.5v-317q0 -167 33 -247t108 -93v-45q-126 12 -297 12q-166 0 -301 -12v45q74 14 107 93.5t33 246.5v145q0 42 -1.5 68.5t-10 63t-23.5 58t-45 37t-72 15.5q-107 0 -176 -123v-264q0 -165 31.5 -244
t103.5 -96v-45q-120 12 -291 12q-162 0 -297 -12v45q72 19 103.5 97.5t31.5 242.5v182q0 66 -2 109.5t-9.5 94t-21.5 82t-40 57.5t-62 36v39zM70 1378l-15 43q47 30 127.5 58t153.5 28q83 0 126.5 -35.5t43.5 -117.5q0 -97 -95.5 -164.5t-260.5 -87.5l-15 61q50 20 72 44.5
t22 58.5q0 50 -39 81t-120 31z" />
    <glyph glyph-name="Eng" unicode="&#x14a;" horiz-adv-x="1626" 
d="M1260 -59l-891 1108v-605q0 -207 38 -292.5t138 -102.5v-55q-95 12 -252 12q-124 0 -250 -12v55q100 17 138 102.5t38 292.5v476q0 207 -38 292.5t-138 104.5v55q153 -12 285 -12q152 0 278 12q108 -187 240 -352l414 -524v424q0 206 -38.5 292t-138.5 105v55
q129 -12 250 -12q130 0 250 12v-55q-100 -19 -138 -104.5t-38 -292.5v-920q0 -129 -18.5 -221.5t-62 -161.5t-119 -103t-185.5 -34q-152 0 -230.5 48t-78.5 142q0 68 56.5 123t172.5 55q48 0 84 -16q-33 -46 -33 -113q0 -108 99 -108q28 0 50 7.5t45 29t38.5 56.5t25 95.5
t9.5 141.5z" />
    <glyph glyph-name="eng" unicode="&#x14b;" horiz-adv-x="1282" 
d="M508 995v-247q85 137 173 196.5t206 59.5q149 0 207.5 -77.5t58.5 -230.5v-520q0 -171 -12.5 -264t-41.5 -148.5t-89 -107.5q-144 -125 -353 -125q-112 0 -176.5 44t-64.5 138q0 74 58.5 119t154.5 45q58 0 82 -8q-35 -67 -35 -123q0 -106 67 -106q29 0 46.5 19
t28.5 72.5t14.5 136t3.5 222.5v434q0 42 -1.5 68.5t-10 63t-23.5 58t-45 37t-72 15.5q-107 0 -176 -123v-264q0 -165 31.5 -244t103.5 -96v-45q-120 12 -291 12q-162 0 -297 -12v45q72 19 103.5 97.5t31.5 242.5v182q0 66 -2 109.5t-9.5 94t-21.5 82t-40 57.5t-62 36v39z
" />
    <glyph glyph-name="Omacron" unicode="&#x14c;" horiz-adv-x="1685" 
d="M1597 690q0 -191 -52.5 -329t-155.5 -221t-244 -121.5t-328 -38.5q-362 0 -545.5 171t-183.5 529q0 187 56 324.5t162.5 220.5t249.5 122t327 39q364 0 539 -170.5t175 -525.5zM1198 678q0 295 -89 444.5t-261 149.5t-266.5 -145t-94.5 -414q0 -103 11.5 -192t37.5 -169
t66 -136t100 -89t136 -33q82 0 145.5 32.5t103 87t65.5 131t36 158t10 175.5zM520 1751h735l17 -45l-62 -160h-749l-17 31z" />
    <glyph glyph-name="omacron" unicode="&#x14d;" horiz-adv-x="1230" 
d="M1159 506q0 -257 -141.5 -391.5t-411.5 -134.5q-264 0 -399 127.5t-135 379.5q0 255 142 386t419 131q255 0 390.5 -128.5t135.5 -369.5zM825 465q0 204 -58 320t-161 116q-91 0 -141.5 -95t-50.5 -265q0 -217 55.5 -338t155.5 -121q92 0 146 103t54 280zM305 1401h694
l17 -45l-62 -160h-708l-17 31z" />
    <glyph glyph-name="Obreve" unicode="&#x14e;" horiz-adv-x="1685" 
d="M1597 690q0 -191 -52.5 -329t-155.5 -221t-244 -121.5t-328 -38.5q-362 0 -545.5 171t-183.5 529q0 187 56 324.5t162.5 220.5t249.5 122t327 39q364 0 539 -170.5t175 -525.5zM1198 678q0 295 -89 444.5t-261 149.5t-266.5 -145t-94.5 -414q0 -103 11.5 -192t37.5 -169
t66 -136t100 -89t136 -33q82 0 145.5 32.5t103 87t65.5 131t36 158t10 175.5zM1034 1847h187q2 -18 2 -49q0 -125 -103 -201.5t-291 -76.5q-98 0 -167 19t-110.5 57.5t-62 87t-28.5 116.5q28 34 101 58t147 24q11 -125 58.5 -189.5t147.5 -64.5q138 0 138 119q0 37 -19 100z
" />
    <glyph glyph-name="obreve" unicode="&#x14f;" horiz-adv-x="1230" 
d="M1159 506q0 -257 -141.5 -391.5t-411.5 -134.5q-264 0 -399 127.5t-135 379.5q0 255 142 386t419 131q255 0 390.5 -128.5t135.5 -369.5zM825 465q0 204 -58 320t-161 116q-91 0 -141.5 -95t-50.5 -265q0 -217 55.5 -338t155.5 -121q92 0 146 103t54 280zM766 1448h186
q0 -13 1 -29.5t1 -19.5q0 -152 -96.5 -236t-269.5 -84q-155 0 -226.5 79t-87.5 243q26 33 96.5 57.5t151.5 24.5q21 -295 166 -295q46 0 71 34.5t25 98.5q0 54 -18 127z" />
    <glyph glyph-name="Ohungarumlaut" unicode="&#x150;" horiz-adv-x="1685" 
d="M1597 690q0 -191 -52.5 -329t-155.5 -221t-244 -121.5t-328 -38.5q-362 0 -545.5 171t-183.5 529q0 187 56 324.5t162.5 220.5t249.5 122t327 39q364 0 539 -170.5t175 -525.5zM1198 678q0 295 -89 444.5t-261 149.5t-266.5 -145t-94.5 -414q0 -103 11.5 -192t37.5 -169
t66 -136t100 -89t136 -33q82 0 145.5 32.5t103 87t65.5 131t36 158t10 175.5zM991 1419l-59 88q95 87 190 200t154 210q52 -29 111.5 -89.5t99.5 -125.5q-66 -66 -210.5 -148t-285.5 -135zM502 1419l-60 88q95 87 190 200t154 210q52 -29 111.5 -89.5t99.5 -125.5
q-66 -66 -210 -148t-285 -135z" />
    <glyph glyph-name="ohungarumlaut" unicode="&#x151;" horiz-adv-x="1230" 
d="M1159 506q0 -257 -141.5 -391.5t-411.5 -134.5q-264 0 -399 127.5t-135 379.5q0 255 142 386t419 131q255 0 390.5 -128.5t135.5 -369.5zM825 465q0 204 -58 320t-161 116q-91 0 -141.5 -95t-50.5 -265q0 -217 55.5 -338t155.5 -121q92 0 146 103t54 280zM395 1073
l-67 55q80 175 141 398q154 -33 229 -142q-66 -99 -137 -172.5t-166 -138.5zM764 1073l-68 55q83 170 142 398q154 -33 229 -142q-66 -99 -137 -172.5t-166 -138.5z" />
    <glyph glyph-name="OE" unicode="&#x152;" horiz-adv-x="2064" 
d="M1360 1253v-458h49q106 0 160 34t82 119h94q-16 -96 -16 -219q0 -130 16 -235h-94q-30 90 -85 126.5t-151 36.5h-55v-272q0 -154 38 -216.5t130 -62.5q72 0 136.5 30.5t117 85.5t90 109.5t74.5 123.5l98 -52q-112 -221 -158 -421q-187 18 -456 18h-386q-111 -20 -235 -20
q-358 0 -539.5 178t-181.5 530t187 525t567 173q121 0 260 -20h295q322 0 454 12q6 -195 56 -401l-92 -29q-67 166 -160 235.5t-246 69.5h-49zM997 1114q0 86 -35 122t-118 36q-167 0 -257.5 -153.5t-90.5 -438.5q0 -286 86 -436t252 -150q92 0 127.5 43t35.5 152v825z" />
    <glyph glyph-name="oe" unicode="&#x153;" horiz-adv-x="1757" 
d="M1663 311l49 -41q-100 -150 -216.5 -221.5t-260.5 -71.5q-104 0 -171 34t-126 116q-77 -82 -158 -114.5t-205 -32.5q-243 0 -373 130t-130 373q0 253 136.5 387t393.5 134q124 0 208 -31.5t144 -100.5q66 72 141 103t185 31q189 0 294 -86t105 -240q0 -57 -16 -125h-573
v-12q5 -176 82 -276.5t210 -100.5q151 0 281 145zM797 467q0 189 -56.5 311.5t-144.5 122.5t-136 -94.5t-48 -265.5q0 -208 55 -333.5t147 -125.5q82 0 132.5 106.5t50.5 278.5zM1352 666q4 33 4 65q0 86 -31.5 135t-85.5 49q-69 0 -107 -69t-40 -195z" />
    <glyph glyph-name="Racute" unicode="&#x154;" horiz-adv-x="1517" 
d="M596 672v-228q0 -208 37.5 -293t136.5 -102v-55q-166 12 -364 12q-202 0 -349 -12v55q99 17 136.5 102t37.5 293v476q0 207 -37 292.5t-137 104.5v55q117 -12 326 -12q63 0 199 6t241 6q72 0 129 -6t118.5 -26t103 -53t68 -91t26.5 -137q0 -134 -92 -228t-265 -135
q107 -14 165.5 -51.5t109.5 -132.5l117 -213q67 -120 117.5 -178t123.5 -70v-51h-375h-51.5t-36 4t-26.5 7.5t-19 16t-18.5 24t-20.5 36.5l-219 399q-75 134 -125 181q-34 0 -57 4zM596 776q30 -6 66 -6q103 0 162 68t59 188q0 115 -50.5 181.5t-136.5 66.5q-61 0 -100 -27
v-471zM512 1460l-43 99q110 70 223.5 162.5t188.5 176.5q46 -39 94 -109t76 -140q-76 -52 -233.5 -107.5t-305.5 -81.5z" />
    <glyph glyph-name="racute" unicode="&#x155;" horiz-adv-x="993" 
d="M512 995v-284q93 293 309 293q79 0 125.5 -44.5t46.5 -121.5q0 -95 -66.5 -162t-178.5 -82q26 39 26 88q0 47 -23 74.5t-69 27.5q-75 0 -129 -114q-25 -54 -33 -112.5t-8 -178.5q0 -177 36.5 -255.5t119.5 -84.5v-45q-135 12 -314 12q-145 0 -295 -12v45q71 22 101 100
t30 240v178q0 185 -26.5 268.5t-104.5 108.5v39zM344 1065l-53 82q181 181 311 403q63 -31 122.5 -90.5t96.5 -128.5q-88 -78 -218.5 -148.5t-258.5 -117.5z" />
    <glyph glyph-name="Rcommaaccent" unicode="&#x156;" horiz-adv-x="1517" 
d="M596 672v-228q0 -208 37.5 -293t136.5 -102v-55q-166 12 -364 12q-202 0 -349 -12v55q99 17 136.5 102t37.5 293v476q0 207 -37 292.5t-137 104.5v55q117 -12 326 -12q63 0 199 6t241 6q72 0 129 -6t118.5 -26t103 -53t68 -91t26.5 -137q0 -134 -92 -228t-265 -135
q107 -14 165.5 -51.5t109.5 -132.5l117 -213q67 -120 117.5 -178t123.5 -70v-51h-375h-51.5t-36 4t-26.5 7.5t-19 16t-18.5 24t-20.5 36.5l-219 399q-75 134 -125 181q-34 0 -57 4zM596 776q30 -6 66 -6q103 0 162 68t59 188q0 115 -50.5 181.5t-136.5 66.5q-61 0 -100 -27
v-471zM547 -227l-15 43q38 28 119 57t162 29t125.5 -42.5t44.5 -127.5q0 -192 -348 -252l-23 61q51 20 73 46t22 67q0 45 -40.5 82t-119.5 37z" />
    <glyph glyph-name="rcommaaccent" unicode="&#x157;" horiz-adv-x="993" 
d="M512 995v-284q93 293 309 293q79 0 125.5 -44.5t46.5 -121.5q0 -95 -66.5 -162t-178.5 -82q26 39 26 88q0 47 -23 74.5t-69 27.5q-75 0 -129 -114q-25 -54 -33 -112.5t-8 -178.5q0 -177 36.5 -255.5t119.5 -84.5v-45q-135 12 -314 12q-145 0 -295 -12v45q71 22 101 100
t30 240v178q0 185 -26.5 268.5t-104.5 108.5v39zM117 -244l-15 43q47 30 127.5 58t153.5 28q83 0 126.5 -35.5t43.5 -117.5q0 -97 -95.5 -164.5t-260.5 -87.5l-15 61q50 20 72 44.5t22 58.5q0 50 -39 81t-120 31z" />
    <glyph glyph-name="Rcaron" unicode="&#x158;" horiz-adv-x="1517" 
d="M596 672v-228q0 -208 37.5 -293t136.5 -102v-55q-166 12 -364 12q-202 0 -349 -12v55q99 17 136.5 102t37.5 293v476q0 207 -37 292.5t-137 104.5v55q117 -12 326 -12q63 0 199 6t241 6q72 0 129 -6t118.5 -26t103 -53t68 -91t26.5 -137q0 -134 -92 -228t-265 -135
q107 -14 165.5 -51.5t109.5 -132.5l117 -213q67 -120 117.5 -178t123.5 -70v-51h-375h-51.5t-36 4t-26.5 7.5t-19 16t-18.5 24t-20.5 36.5l-219 399q-75 134 -125 181q-34 0 -57 4zM596 776q30 -6 66 -6q103 0 162 68t59 188q0 115 -50.5 181.5t-136.5 66.5q-61 0 -100 -27
v-471zM227 1642l-24 15q42 56 115.5 123t115.5 67q29 0 78 -32l254 -158q81 69 141 176h326q-81 -93 -196.5 -169.5t-228.5 -122.5t-228 -73l-232 148q-66 41 -90 41q-18 0 -31 -15z" />
    <glyph glyph-name="rcaron" unicode="&#x159;" horiz-adv-x="993" 
d="M512 995v-284q93 293 309 293q79 0 125.5 -44.5t46.5 -121.5q0 -95 -66.5 -162t-178.5 -82q26 39 26 88q0 47 -23 74.5t-69 27.5q-75 0 -129 -114q-25 -54 -33 -112.5t-8 -178.5q0 -177 36.5 -255.5t119.5 -84.5v-45q-135 12 -314 12q-145 0 -295 -12v45q71 22 101 100
t30 240v178q0 185 -26.5 268.5t-104.5 108.5v39zM436 1065l-239 268q-49 55 -72.5 68.5t-69.5 13.5l-8 33l207 59q32 9 49 9q55 0 113 -66l149 -168q78 84 127 227h256q-80 -139 -223.5 -257t-288.5 -187z" />
    <glyph glyph-name="Sacute" unicode="&#x15a;" horiz-adv-x="1210" 
d="M1085 930h-114q-34 160 -120 254t-198 94q-86 0 -132 -43t-46 -121q0 -30 5 -54t12 -43t25.5 -37t34.5 -31t50 -31t61.5 -31t79.5 -37q46 -21 68 -31t62.5 -30.5t61 -33.5t52.5 -36t48.5 -42.5t37.5 -48t31 -57.5t17 -65.5t7 -77.5q0 -213 -165.5 -330.5t-452.5 -117.5
q-111 0 -211 17.5t-148 35t-83 35.5q18 94 18 245q0 85 -6 168h113q18 -166 108.5 -278.5t222.5 -112.5q103 0 161 55t58 154q0 54 -18 96.5t-56 76.5t-82.5 59.5t-111.5 54.5q-52 23 -80.5 35.5t-76 37.5t-74 45.5t-60.5 52.5t-51.5 65t-30 77t-12.5 94q0 189 152 291
t432 102q131 0 240.5 -17.5t170.5 -41.5q-12 -90 -12 -180q0 -109 12 -217zM467 1460l-43 99q110 70 223.5 162.5t188.5 176.5q46 -39 94 -109t76 -140q-76 -52 -233.5 -107.5t-305.5 -81.5z" />
    <glyph glyph-name="sacute" unicode="&#x15b;" horiz-adv-x="927" 
d="M825 637h-49q-35 126 -110 199t-170 73q-51 0 -79 -25.5t-28 -70.5q0 -51 36 -83t146 -79q79 -34 126 -60.5t86.5 -62.5t56 -82.5t16.5 -109.5q0 -170 -119 -263t-336 -93q-108 0 -200 20t-142 43q19 120 19 238q0 81 -4 135h53q29 -152 107 -241t182 -89q68 0 106.5 36
t38.5 99q0 64 -46.5 101.5t-182.5 99.5q-132 59 -181 116t-49 156q0 149 107.5 229.5t304.5 80.5q183 0 311 -56q-8 -68 -8 -149q0 -89 8 -162zM311 1065l-53 82q181 181 311 403q63 -31 122.5 -90.5t96.5 -128.5q-88 -78 -218.5 -148.5t-258.5 -117.5z" />
    <glyph glyph-name="Scircumflex" unicode="&#x15c;" horiz-adv-x="1210" 
d="M1085 930h-114q-34 160 -120 254t-198 94q-86 0 -132 -43t-46 -121q0 -30 5 -54t12 -43t25.5 -37t34.5 -31t50 -31t61.5 -31t79.5 -37q46 -21 68 -31t62.5 -30.5t61 -33.5t52.5 -36t48.5 -42.5t37.5 -48t31 -57.5t17 -65.5t7 -77.5q0 -213 -165.5 -330.5t-452.5 -117.5
q-111 0 -211 17.5t-148 35t-83 35.5q18 94 18 245q0 85 -6 168h113q18 -166 108.5 -278.5t222.5 -112.5q103 0 161 55t58 154q0 54 -18 96.5t-56 76.5t-82.5 59.5t-111.5 54.5q-52 23 -80.5 35.5t-76 37.5t-74 45.5t-60.5 52.5t-51.5 65t-30 77t-12.5 94q0 189 152 291
t432 102q131 0 240.5 -17.5t170.5 -41.5q-12 -90 -12 -180q0 -109 12 -217zM1178 1673l24 -14q-40 -54 -115.5 -122.5t-117.5 -68.5q-28 0 -78 33l-254 158q-81 -69 -141 -176h-326q119 137 295 229.5t358 134.5l232 -147q66 -41 92 -41q17 0 31 14z" />
    <glyph glyph-name="scircumflex" unicode="&#x15d;" horiz-adv-x="927" 
d="M825 637h-49q-35 126 -110 199t-170 73q-51 0 -79 -25.5t-28 -70.5q0 -51 36 -83t146 -79q79 -34 126 -60.5t86.5 -62.5t56 -82.5t16.5 -109.5q0 -170 -119 -263t-336 -93q-108 0 -200 20t-142 43q19 120 19 238q0 81 -4 135h53q29 -152 107 -241t182 -89q68 0 106.5 36
t38.5 99q0 64 -46.5 101.5t-182.5 99.5q-132 59 -181 116t-49 156q0 149 107.5 229.5t304.5 80.5q183 0 311 -56q-8 -68 -8 -149q0 -89 8 -162zM604 1516l240 -271q50 -56 73 -69t68 -11l8 -35l-213 -59q-24 -6 -39 -6q-60 0 -116 65l-150 168q-75 -80 -127 -227h-256
q79 136 227 258.5t285 186.5z" />
    <glyph glyph-name="Scedilla" unicode="&#x15e;" horiz-adv-x="1210" 
d="M1085 930h-114q-34 160 -120 254t-198 94q-86 0 -132 -43t-46 -121q0 -30 5 -54t12 -43t25.5 -37t34.5 -31t50 -31t61.5 -31t79.5 -37q46 -21 68 -31t62.5 -30.5t61 -33.5t52.5 -36t48.5 -42.5t37.5 -48t31 -57.5t17 -65.5t7 -77.5q0 -213 -165.5 -330.5t-452.5 -117.5
q-111 0 -211 17.5t-148 35t-83 35.5q18 94 18 245q0 85 -6 168h113q18 -166 108.5 -278.5t222.5 -112.5q103 0 161 55t58 154q0 54 -18 96.5t-56 76.5t-82.5 59.5t-111.5 54.5q-52 23 -80.5 35.5t-76 37.5t-74 45.5t-60.5 52.5t-51.5 65t-30 77t-12.5 94q0 189 152 291
t432 102q131 0 240.5 -17.5t170.5 -41.5q-12 -90 -12 -180q0 -109 12 -217zM414 -199l-21 33q119 92 195 92q53 0 93 -56.5t40 -129.5q0 -92 -88 -153.5t-217 -61.5q-54 0 -105 8l37 135q57 -24 94 -24q35 0 55.5 15.5t20.5 41.5q0 31 -25.5 71t-52.5 40q-10 0 -26 -11z" />
    <glyph glyph-name="scedilla" unicode="&#x15f;" horiz-adv-x="927" 
d="M825 637h-49q-35 126 -110 199t-170 73q-51 0 -79 -25.5t-28 -70.5q0 -51 36 -83t146 -79q79 -34 126 -60.5t86.5 -62.5t56 -82.5t16.5 -109.5q0 -170 -119 -263t-336 -93q-108 0 -200 20t-142 43q19 120 19 238q0 81 -4 135h53q29 -152 107 -241t182 -89q68 0 106.5 36
t38.5 99q0 64 -46.5 101.5t-182.5 99.5q-132 59 -181 116t-49 156q0 149 107.5 229.5t304.5 80.5q183 0 311 -56q-8 -68 -8 -149q0 -89 8 -162zM309 -195l-20 33q114 90 190 90q51 0 90 -54.5t39 -125.5q0 -91 -85.5 -151t-213.5 -60q-35 0 -98 8l35 131q56 -22 92 -22
q34 0 53 14.5t19 40.5q0 29 -24 68t-50 39q-10 0 -27 -11z" />
    <glyph glyph-name="Scaron" unicode="&#x160;" horiz-adv-x="1210" 
d="M1085 930h-114q-34 160 -120 254t-198 94q-86 0 -132 -43t-46 -121q0 -30 5 -54t12 -43t25.5 -37t34.5 -31t50 -31t61.5 -31t79.5 -37q46 -21 68 -31t62.5 -30.5t61 -33.5t52.5 -36t48.5 -42.5t37.5 -48t31 -57.5t17 -65.5t7 -77.5q0 -213 -165.5 -330.5t-452.5 -117.5
q-111 0 -211 17.5t-148 35t-83 35.5q18 94 18 245q0 85 -6 168h113q18 -166 108.5 -278.5t222.5 -112.5q103 0 161 55t58 154q0 54 -18 96.5t-56 76.5t-82.5 59.5t-111.5 54.5q-52 23 -80.5 35.5t-76 37.5t-74 45.5t-60.5 52.5t-51.5 65t-30 77t-12.5 94q0 189 152 291
t432 102q131 0 240.5 -17.5t170.5 -41.5q-12 -90 -12 -180q0 -109 12 -217zM156 1642l-25 15q42 56 115.5 123t115.5 67q29 0 78 -32l254 -158q83 71 142 176h325q-81 -93 -196.5 -169.5t-228.5 -122.5t-228 -73l-232 148q-66 41 -90 41q-18 0 -30 -15z" />
    <glyph glyph-name="scaron" unicode="&#x161;" horiz-adv-x="927" 
d="M825 637h-49q-35 126 -110 199t-170 73q-51 0 -79 -25.5t-28 -70.5q0 -51 36 -83t146 -79q79 -34 126 -60.5t86.5 -62.5t56 -82.5t16.5 -109.5q0 -170 -119 -263t-336 -93q-108 0 -200 20t-142 43q19 120 19 238q0 81 -4 135h53q29 -152 107 -241t182 -89q68 0 106.5 36
t38.5 99q0 64 -46.5 101.5t-182.5 99.5q-132 59 -181 116t-49 156q0 149 107.5 229.5t304.5 80.5q183 0 311 -56q-8 -68 -8 -149q0 -89 8 -162zM420 1065l-240 268q-49 55 -72 68.5t-69 13.5l-8 33l207 59q32 9 49 9q54 0 112 -66l150 -168q78 84 127 227h256
q-80 -139 -223.5 -257t-288.5 -187z" />
    <glyph glyph-name="Tcommaaccent" unicode="&#x162;" horiz-adv-x="1316" 
d="M838 1255v-811q0 -207 38 -292.5t138 -102.5v-55q-170 12 -357 12q-191 0 -354 -12v55q99 17 136.5 102t37.5 293v811q-159 0 -241.5 -62t-131.5 -224h-96q29 170 29 409q176 -12 440 -12h361q254 0 434 12q3 -173 37 -409h-101q-44 165 -123 225.5t-247 60.5zM416 -227
l-15 43q38 28 119 57t162 29t125.5 -42.5t44.5 -127.5q0 -192 -348 -252l-23 61q51 20 72.5 46t21.5 67q0 45 -40 82t-119 37z" />
    <glyph glyph-name="tcommaaccent" unicode="&#x163;" horiz-adv-x="776" 
d="M760 983l18 -31l-61 -88q-104 8 -234 8q-4 -111 -4 -333q0 -56 0.5 -90t2.5 -78.5t6 -71t11 -59.5t18 -51.5t26 -38t35.5 -29.5t47.5 -16.5t60 -6.5q39 0 88 17l19 -74q-154 -61 -349 -61q-50 0 -88 5t-67 18.5t-49.5 29t-34.5 44.5t-22 56.5t-12.5 73t-5.5 86t-1 104.5
q0 27 1 72t1 70l2 333q-66 0 -133 -6l-19 70q152 60 249.5 162.5t158.5 267.5h80q-18 -172 -21 -383h277zM176 -244l-14 43q48 30 127.5 58t152.5 28q83 0 126.5 -35.5t43.5 -117.5q0 -97 -95.5 -164.5t-260.5 -87.5l-14 61q50 20 72 44.5t22 58.5q0 50 -39.5 81t-120.5 31z
" />
    <glyph glyph-name="Tcaron" unicode="&#x164;" horiz-adv-x="1316" 
d="M838 1255v-811q0 -207 38 -292.5t138 -102.5v-55q-170 12 -357 12q-191 0 -354 -12v55q99 17 136.5 102t37.5 293v811q-159 0 -241.5 -62t-131.5 -224h-96q29 170 29 409q176 -12 440 -12h361q254 0 434 12q3 -173 37 -409h-101q-44 165 -123 225.5t-247 60.5zM221 1642
l-24 15q42 56 115.5 123t115.5 67q29 0 78 -32l254 -158q81 69 141 176h326q-119 -136 -296 -229t-358 -136l-231 148q-66 41 -90 41q-18 0 -31 -15z" />
    <glyph glyph-name="tcaron" unicode="&#x165;" horiz-adv-x="776" 
d="M760 983l18 -31l-61 -88q-104 8 -234 8q-4 -111 -4 -333q0 -56 0.5 -90t2.5 -78.5t6 -71t11 -59.5t18 -51.5t26 -38t35.5 -29.5t47.5 -16.5t60 -6.5q39 0 88 17l19 -74q-154 -61 -349 -61q-50 0 -88 5t-67 18.5t-49.5 29t-34.5 44.5t-22 56.5t-12.5 73t-5.5 86t-1 104.5
q0 27 1 72t1 70l2 333q-66 0 -133 -6l-19 70q152 60 249.5 162.5t158.5 267.5h80q-18 -172 -21 -383h277zM567 1368l-14 43q47 30 127.5 58t153.5 28q83 0 126.5 -35.5t43.5 -118.5q0 -96 -96 -163.5t-261 -87.5l-14 61q51 20 72.5 44t21.5 58q0 50 -39.5 81.5t-120.5 31.5z
" />
    <glyph glyph-name="Tbar" unicode="&#x166;" horiz-adv-x="1316" 
d="M838 1255v-491h282l19 -27l-31 -92h-270v-201q0 -207 38 -292.5t138 -102.5v-55q-170 12 -357 12q-191 0 -354 -12v55q99 17 136.5 102t37.5 293v201h-276l-17 31l37 88h256v491q-159 0 -241.5 -62t-131.5 -224h-96q29 170 29 409q176 -12 440 -12h361q254 0 434 12
q3 -173 37 -409h-101q-44 165 -123 225.5t-247 60.5z" />
    <glyph glyph-name="tbar" unicode="&#x167;" horiz-adv-x="776" 
d="M760 983l18 -31l-61 -88q-104 8 -234 8q-4 -92 -4 -276h283l16 -27l-28 -82h-271v-88q0 -70 9.5 -122t31.5 -94t63.5 -63.5t102.5 -21.5q39 0 88 17l19 -74q-154 -61 -349 -61q-50 0 -88 5t-67 18.5t-49.5 29t-34.5 44.5t-22 56.5t-12.5 73t-5.5 86t-1 104.5q0 61 2 90
h-133l-17 31l35 78h115l2 276q-66 0 -133 -6l-19 70q152 60 249.5 162.5t158.5 267.5h80q-18 -172 -21 -383h277z" />
    <glyph glyph-name="Utilde" unicode="&#x168;" horiz-adv-x="1691" 
d="M1098 -6v338q-100 -192 -209.5 -272t-270.5 -80q-104 0 -178.5 25.5t-118 67t-68.5 109t-32.5 135t-7.5 162.5v441q0 207 -37 292.5t-137 104.5v55q144 -12 358 -12q209 0 353 12v-55q-99 -19 -137 -105t-38 -292v-338q0 -62 3.5 -104.5t16 -86.5t34.5 -70t60.5 -42.5
t92.5 -16.5q90 0 166 43.5t150 140.5v474q0 140 -16.5 221t-53.5 122t-104 54v55q181 -12 366 -12q174 0 344 12v-55q-100 -19 -137 -104.5t-37 -292.5v-476q0 -208 37.5 -293t136.5 -102v-55q-123 12 -268 12q-136 0 -268 -12zM1251 1810l58 -22q-40 -149 -94 -214
t-136 -65q-73 0 -282 56q-182 51 -252 51q-42 0 -65.5 -18t-43.5 -66l-55 22q50 143 104.5 211t120.5 68q53 0 116 -12.5t185 -44.5q196 -52 248 -52q67 0 96 86z" />
    <glyph glyph-name="utilde" unicode="&#x169;" horiz-adv-x="1306" 
d="M1143 995q-13 -187 -13 -374v-242q0 -162 30.5 -239.5t101.5 -100.5v-45q-62 8 -170 8q-123 0 -240 -20q-37 122 -37 245q-147 -247 -371 -247q-68 0 -118 20.5t-80 53.5t-48 83t-24 100.5t-6 114.5v205q0 185 -29 269.5t-100 107.5v39l459 22q-15 -166 -15 -370v-166
q0 -114 38.5 -181t117.5 -67q60 0 105.5 34t70.5 97v215q0 185 -30 269.5t-103 107.5v39zM1024 1405l59 -21q-37 -136 -87.5 -196t-127.5 -60q-70 0 -260 52q-171 47 -231 47q-38 0 -57.5 -16.5t-38.5 -61.5l-58 20q46 132 97 194t114 62q76 0 277 -53q181 -47 227 -47
q60 0 86 80z" />
    <glyph glyph-name="Umacron" unicode="&#x16a;" horiz-adv-x="1691" 
d="M1098 -6v338q-100 -192 -209.5 -272t-270.5 -80q-104 0 -178.5 25.5t-118 67t-68.5 109t-32.5 135t-7.5 162.5v441q0 207 -37 292.5t-137 104.5v55q144 -12 358 -12q209 0 353 12v-55q-99 -19 -137 -105t-38 -292v-338q0 -62 3.5 -104.5t16 -86.5t34.5 -70t60.5 -42.5
t92.5 -16.5q90 0 166 43.5t150 140.5v474q0 140 -16.5 221t-53.5 122t-104 54v55q181 -12 366 -12q174 0 344 12v-55q-100 -19 -137 -104.5t-37 -292.5v-476q0 -208 37.5 -293t136.5 -102v-55q-123 12 -268 12q-136 0 -268 -12zM520 1751h735l17 -45l-62 -160h-749l-17 31z
" />
    <glyph glyph-name="umacron" unicode="&#x16b;" horiz-adv-x="1306" 
d="M1143 995q-13 -187 -13 -374v-242q0 -162 30.5 -239.5t101.5 -100.5v-45q-62 8 -170 8q-123 0 -240 -20q-37 122 -37 245q-147 -247 -371 -247q-68 0 -118 20.5t-80 53.5t-48 83t-24 100.5t-6 114.5v205q0 185 -29 269.5t-100 107.5v39l459 22q-15 -166 -15 -370v-166
q0 -114 38.5 -181t117.5 -67q60 0 105.5 34t70.5 97v215q0 185 -30 269.5t-103 107.5v39zM336 1401h694l17 -45l-62 -160h-709l-16 31z" />
    <glyph glyph-name="Ubreve" unicode="&#x16c;" horiz-adv-x="1691" 
d="M1098 -6v338q-100 -192 -209.5 -272t-270.5 -80q-104 0 -178.5 25.5t-118 67t-68.5 109t-32.5 135t-7.5 162.5v441q0 207 -37 292.5t-137 104.5v55q144 -12 358 -12q209 0 353 12v-55q-99 -19 -137 -105t-38 -292v-338q0 -62 3.5 -104.5t16 -86.5t34.5 -70t60.5 -42.5
t92.5 -16.5q90 0 166 43.5t150 140.5v474q0 140 -16.5 221t-53.5 122t-104 54v55q181 -12 366 -12q174 0 344 12v-55q-100 -19 -137 -104.5t-37 -292.5v-476q0 -208 37.5 -293t136.5 -102v-55q-123 12 -268 12q-136 0 -268 -12zM1038 1847h187q2 -18 2 -49
q0 -125 -102.5 -201.5t-290.5 -76.5q-190 0 -271.5 70.5t-97.5 209.5q28 34 101 58t147 24q11 -125 59 -189.5t148 -64.5q137 0 137 119q0 37 -19 100z" />
    <glyph glyph-name="ubreve" unicode="&#x16d;" horiz-adv-x="1306" 
d="M1143 995q-13 -187 -13 -374v-242q0 -162 30.5 -239.5t101.5 -100.5v-45q-62 8 -170 8q-123 0 -240 -20q-37 122 -37 245q-147 -247 -371 -247q-68 0 -118 20.5t-80 53.5t-48 83t-24 100.5t-6 114.5v205q0 185 -29 269.5t-100 107.5v39l459 22q-15 -166 -15 -370v-166
q0 -114 38.5 -181t117.5 -67q60 0 105.5 34t70.5 97v215q0 185 -30 269.5t-103 107.5v39zM786 1448h187q0 -13 1 -29.5t1 -19.5q0 -152 -96.5 -236t-270.5 -84q-155 0 -226 78.5t-87 243.5q26 33 96.5 57.5t151.5 24.5q21 -295 166 -295q46 0 71 34.5t25 98.5q0 50 -19 127z
" />
    <glyph glyph-name="Uring" unicode="&#x16e;" horiz-adv-x="1691" 
d="M1098 -6v338q-100 -192 -209.5 -272t-270.5 -80q-104 0 -178.5 25.5t-118 67t-68.5 109t-32.5 135t-7.5 162.5v441q0 207 -37 292.5t-137 104.5v55q144 -12 358 -12q209 0 353 12v-55q-99 -19 -137 -105t-38 -292v-338q0 -62 3.5 -104.5t16 -86.5t34.5 -70t60.5 -42.5
t92.5 -16.5q90 0 166 43.5t150 140.5v474q0 140 -16.5 221t-53.5 122t-104 54v55q181 -12 366 -12q174 0 344 12v-55q-100 -19 -137 -104.5t-37 -292.5v-476q0 -208 37.5 -293t136.5 -102v-55q-123 12 -268 12q-136 0 -268 -12zM840 1972q117 0 187.5 -72.5t70.5 -179.5
t-70.5 -179.5t-187.5 -72.5t-187.5 72.5t-70.5 179.5t70.5 179.5t187.5 72.5zM840 1843q-50 0 -83.5 -35.5t-33.5 -87.5t33.5 -87.5t83.5 -35.5t83 35.5t33 87.5t-33 87.5t-83 35.5z" />
    <glyph glyph-name="uring" unicode="&#x16f;" horiz-adv-x="1306" 
d="M1143 995q-13 -187 -13 -374v-242q0 -162 30.5 -239.5t101.5 -100.5v-45q-62 8 -170 8q-123 0 -240 -20q-37 122 -37 245q-147 -247 -371 -247q-68 0 -118 20.5t-80 53.5t-48 83t-24 100.5t-6 114.5v205q0 185 -29 269.5t-100 107.5v39l459 22q-15 -166 -15 -370v-166
q0 -114 38.5 -181t117.5 -67q60 0 105.5 34t70.5 97v215q0 185 -30 269.5t-103 107.5v39zM635 1569q105 0 177.5 -72t72.5 -174t-72.5 -173t-177.5 -71t-177.5 71t-72.5 173t72.5 174t177.5 72zM635 1444q-49 0 -81 -35.5t-32 -85.5t32 -84.5t81 -34.5t81 34.5t32 84.5
t-32 85.5t-81 35.5z" />
    <glyph glyph-name="Uhungarumlaut" unicode="&#x170;" horiz-adv-x="1691" 
d="M1098 -6v338q-100 -192 -209.5 -272t-270.5 -80q-104 0 -178.5 25.5t-118 67t-68.5 109t-32.5 135t-7.5 162.5v441q0 207 -37 292.5t-137 104.5v55q144 -12 358 -12q209 0 353 12v-55q-99 -19 -137 -105t-38 -292v-338q0 -62 3.5 -104.5t16 -86.5t34.5 -70t60.5 -42.5
t92.5 -16.5q90 0 166 43.5t150 140.5v474q0 140 -16.5 221t-53.5 122t-104 54v55q181 -12 366 -12q174 0 344 12v-55q-100 -19 -137 -104.5t-37 -292.5v-476q0 -208 37.5 -293t136.5 -102v-55q-123 12 -268 12q-136 0 -268 -12zM975 1419l-60 88q95 88 190.5 200.5
t154.5 209.5q52 -29 111 -89.5t99 -125.5q-66 -66 -210 -148t-285 -135zM485 1419l-59 88q95 87 190 200t154 210q52 -29 111.5 -89.5t99.5 -125.5q-66 -66 -210.5 -148t-285.5 -135z" />
    <glyph glyph-name="uhungarumlaut" unicode="&#x171;" horiz-adv-x="1306" 
d="M1143 995q-13 -187 -13 -374v-242q0 -162 30.5 -239.5t101.5 -100.5v-45q-62 8 -170 8q-123 0 -240 -20q-37 122 -37 245q-147 -247 -371 -247q-68 0 -118 20.5t-80 53.5t-48 83t-24 100.5t-6 114.5v205q0 185 -29 269.5t-100 107.5v39l459 22q-15 -166 -15 -370v-166
q0 -114 38.5 -181t117.5 -67q60 0 105.5 34t70.5 97v215q0 185 -30 269.5t-103 107.5v39zM412 1073l-68 55q80 175 141 398q155 -33 230 -142q-66 -99 -137 -172.5t-166 -138.5zM780 1073l-67 55q81 165 141 398q154 -33 229 -142q-66 -99 -137 -172.5t-166 -138.5z" />
    <glyph glyph-name="Uogonek" unicode="&#x172;" horiz-adv-x="1691" 
d="M1098 -6v338q-100 -192 -209.5 -272t-270.5 -80q-104 0 -178.5 25.5t-118 67t-68.5 109t-32.5 135t-7.5 162.5v441q0 207 -37 292.5t-137 104.5v55q144 -12 358 -12q209 0 353 12v-55q-99 -19 -137 -105t-38 -292v-338q0 -62 3.5 -104.5t16 -86.5t34.5 -70t60.5 -42.5
t92.5 -16.5q90 0 166 43.5t150 140.5v474q0 140 -16.5 221t-53.5 122t-104 54v55q181 -12 366 -12q174 0 344 12v-55q-100 -19 -137 -104.5t-37 -292.5v-476q0 -208 37.5 -293t136.5 -102v-55q-123 12 -268 12h-78q-74 -36 -108.5 -95.5t-34.5 -127.5q0 -48 22 -79.5
t66 -31.5q38 0 75 19t58 43l41 -43q-51 -81 -145 -141t-201 -60q-89 0 -145 44t-56 138t67.5 178.5t170.5 143.5z" />
    <glyph glyph-name="uogonek" unicode="&#x173;" horiz-adv-x="1306" 
d="M1143 995q-13 -187 -13 -374v-242q0 -162 30.5 -239.5t101.5 -100.5v-45q-62 8 -170 8q-58 0 -99 -33.5t-58 -77.5t-17 -92q0 -127 88 -127q34 0 73.5 19.5t59.5 42.5l37 -43q-52 -81 -143.5 -141t-198.5 -60q-82 0 -136.5 44.5t-54.5 137.5q0 89 59 170.5t150 139.5
q-37 122 -37 245q-147 -247 -371 -247q-68 0 -118 20.5t-80 53.5t-48 83t-24 100.5t-6 114.5v205q0 185 -29 269.5t-100 107.5v39l459 22q-15 -166 -15 -370v-166q0 -114 38.5 -181t117.5 -67q60 0 105.5 34t70.5 97v215q0 185 -30 269.5t-103 107.5v39z" />
    <glyph glyph-name="Wcircumflex" unicode="&#x174;" horiz-adv-x="2267" 
d="M1116 801l-160 -473q-60 -179 -94 -334h-334l-282 850q-69 208 -125.5 320t-124.5 151v57q147 -12 336 -12q193 0 334 12v-57q-75 -8 -109.5 -37.5t-34.5 -87.5q0 -56 43 -186l221 -676l248 719q-73 226 -172 268v57q150 -12 328 -12q181 0 334 12v-57
q-77 -9 -109.5 -41.5t-32.5 -102.5q0 -45 15.5 -105t66.5 -210l178 -528l199 573q70 199 70 277q0 63 -35 96t-107 41v57q114 -12 271 -12q138 0 258 12v-57q-162 -70 -281 -400l-184 -520q-73 -209 -117 -401h-336zM1665 1673l25 -14q-40 -54 -116 -122.5t-118 -68.5
q-28 0 -78 33l-254 158q-81 -69 -141 -176h-326q119 137 295.5 229.5t358.5 134.5l231 -147q66 -41 92 -41q17 0 31 14z" />
    <glyph glyph-name="wcircumflex" unicode="&#x175;" horiz-adv-x="1714" 
d="M856 543l-92 -232q-64 -156 -117 -317h-217l-235 633q-60 161 -105.5 233.5t-103.5 85.5v43q120 -12 286 -12q163 0 301 12v-43q-96 -18 -96 -104q0 -48 58 -203l112 -295l150 363q-40 114 -69 161.5t-81 77.5v43q111 -12 281 -12q142 0 274 12v-43q-54 -6 -76 -30.5
t-22 -77.5q0 -50 45 -168l121 -326l114 293q39 107 39 166q0 65 -32 96.5t-113 46.5v43q108 -12 238 -12q134 0 225 12v-43q-131 -88 -238 -352l-78 -191q-78 -196 -145 -409h-217zM958 1516l240 -271q50 -56 73 -69t68 -11l9 -35l-213 -59q-24 -6 -39 -6q-61 0 -117 65
l-150 168q-75 -80 -127 -227h-256q79 136 227 258.5t285 186.5z" />
    <glyph glyph-name="Ycircumflex" unicode="&#x176;" horiz-adv-x="1366" 
d="M780 776l125 203q99 161 99 242q0 49 -23 70t-80 24v57q120 -12 252 -12q135 0 240 12v-45q-74 -31 -152 -119t-186 -266l-183 -299v-199q0 -206 38 -292t137 -103v-55q-163 12 -361 12q-192 0 -348 -12v55q100 17 138 102.5t38 292.5v103l-231 395q-93 159 -173 249
t-157 124v57q138 -12 321 -12q188 0 361 12v-57q-47 -3 -65.5 -20.5t-18.5 -57.5q0 -38 18.5 -81.5t77.5 -145.5zM1237 1673l25 -14q-40 -54 -116 -122.5t-118 -68.5q-28 0 -78 33l-254 158q-81 -69 -141 -176h-326q119 137 295.5 229.5t358.5 134.5l231 -147q66 -41 92 -41
q17 0 31 14z" />
    <glyph glyph-name="ycircumflex" unicode="&#x177;" horiz-adv-x="1167" 
d="M705 342l122 291q45 105 45 172q0 63 -37 94.5t-124 40.5v49q102 -12 260 -12q143 0 237 12v-49q-76 -19 -142.5 -120t-152.5 -294l-96 -217q-19 -42 -85.5 -209.5t-123 -286.5t-108.5 -188q-69 -94 -207 -94q-106 0 -164.5 53t-58.5 148q0 71 29.5 120.5t70.5 75.5
q28 -68 66.5 -103.5t103.5 -35.5q69 0 121 45q51 44 51 100q0 23 -11 52.5t-46 101.5l-271 557q-90 186 -122.5 233.5t-88.5 61.5v49q123 -12 295 -12q158 0 305 12v-49q-104 0 -104 -72q0 -58 39 -135zM707 1516l239 -271q50 -56 73 -69t68 -11l9 -35l-213 -59
q-24 -6 -39 -6q-61 0 -117 65l-149 168q-75 -80 -127 -227h-256q79 136 227 258.5t285 186.5z" />
    <glyph glyph-name="Ydieresis" unicode="&#x178;" horiz-adv-x="1366" 
d="M780 776l125 203q99 161 99 242q0 49 -23 70t-80 24v57q120 -12 252 -12q135 0 240 12v-45q-74 -31 -152 -119t-186 -266l-183 -299v-199q0 -206 38 -292t137 -103v-55q-163 12 -361 12q-192 0 -348 -12v55q100 17 138 102.5t38 292.5v103l-231 395q-93 159 -173 249
t-157 124v57q138 -12 321 -12q188 0 361 12v-57q-47 -3 -65.5 -20.5t-18.5 -57.5q0 -38 18.5 -81.5t77.5 -145.5zM489 1855q77 0 132 -55t55 -131q0 -78 -55 -133t-132 -55q-78 0 -133 55t-55 133q0 77 55 131.5t133 54.5zM987 1855q77 0 132 -55t55 -131q0 -78 -55 -133
t-132 -55q-78 0 -132 55t-54 133q0 77 54.5 131.5t131.5 54.5z" />
    <glyph glyph-name="Zacute" unicode="&#x179;" horiz-adv-x="1361" 
d="M168 877l-51 6q29 366 119 446q10 9 23.5 15.5t31.5 10.5t31 6.5t36 3.5t33 1h34.5h27.5h804l41 -68q-125 -237 -358 -513t-496 -496q147 -2 345 -16.5t245 -14.5q100 0 146 42t77 159h60q-23 -199 -57 -294q-66 -185 -203 -185q-75 0 -362.5 23.5t-516.5 23.5
q-50 -47 -88 -47q-39 0 -39 36q0 42 38 106.5t96.5 115t107.5 51.5q133 156 292.5 407t250.5 447q-85 6 -131 6q-255 0 -376 -61.5t-161 -210.5zM598 1460l-43 99q110 70 223.5 162.5t188.5 176.5q46 -39 94 -109t76 -140q-76 -52 -233.5 -107.5t-305.5 -81.5z" />
    <glyph glyph-name="zacute" unicode="&#x17a;" horiz-adv-x="1032" 
d="M936 983l33 -55q-54 -106 -115 -197t-135.5 -173.5t-147 -150.5t-174.5 -155q56 -1 166.5 -8.5t134.5 -7.5q111 0 155 39.5t95 173.5h56q-25 -194 -57.5 -297.5t-70.5 -137.5t-100 -34q-39 0 -244 26.5t-309 26.5q-59 -53 -114 -53q-28 0 -44 14t-16 39q0 38 21 87
t66.5 90.5t101.5 41.5q202 253 360 547q-27 8 -94 8q-164 0 -260.5 -62.5t-137.5 -195.5h-59q13 98 25.5 165.5t28.5 117t32.5 78.5t41 45.5t50 22t64.5 5.5h647zM408 1065l-54 82q184 184 312 403q63 -31 122.5 -90.5t96.5 -128.5q-88 -78 -218.5 -148.5t-258.5 -117.5z
" />
    <glyph glyph-name="Zdotaccent" unicode="&#x17b;" horiz-adv-x="1361" 
d="M168 877l-51 6q29 366 119 446q10 9 23.5 15.5t31.5 10.5t31 6.5t36 3.5t33 1h34.5h27.5h804l41 -68q-125 -237 -358 -513t-496 -496q147 -2 345 -16.5t245 -14.5q100 0 146 42t77 159h60q-23 -199 -57 -294q-66 -185 -203 -185q-75 0 -362.5 23.5t-516.5 23.5
q-50 -47 -88 -47q-39 0 -39 36q0 42 38 106.5t96.5 115t107.5 51.5q133 156 292.5 407t250.5 447q-85 6 -131 6q-255 0 -376 -61.5t-161 -210.5zM766 1896q82 0 139.5 -57t57.5 -139t-57.5 -139.5t-139.5 -57.5t-139.5 57.5t-57.5 139.5t57.5 139t139.5 57z" />
    <glyph glyph-name="zdotaccent" unicode="&#x17c;" horiz-adv-x="1032" 
d="M936 983l33 -55q-54 -106 -115 -197t-135.5 -173.5t-147 -150.5t-174.5 -155q56 -1 166.5 -8.5t134.5 -7.5q111 0 155 39.5t95 173.5h56q-25 -194 -57.5 -297.5t-70.5 -137.5t-100 -34q-39 0 -244 26.5t-309 26.5q-59 -53 -114 -53q-28 0 -44 14t-16 39q0 38 21 87
t66.5 90.5t101.5 41.5q202 253 360 547q-27 8 -94 8q-164 0 -260.5 -62.5t-137.5 -195.5h-59q13 98 25.5 165.5t28.5 117t32.5 78.5t41 45.5t50 22t64.5 5.5h647zM557 1456q75 0 128.5 -53.5t53.5 -128.5t-53.5 -128.5t-128.5 -53.5t-128.5 53.5t-53.5 128.5t53.5 128.5
t128.5 53.5z" />
    <glyph glyph-name="Zcaron" unicode="&#x17d;" horiz-adv-x="1361" 
d="M168 877l-51 6q29 366 119 446q10 9 23.5 15.5t31.5 10.5t31 6.5t36 3.5t33 1h34.5h27.5h804l41 -68q-125 -237 -358 -513t-496 -496q147 -2 345 -16.5t245 -14.5q100 0 146 42t77 159h60q-23 -199 -57 -294q-66 -185 -203 -185q-75 0 -362.5 23.5t-516.5 23.5
q-50 -47 -88 -47q-39 0 -39 36q0 42 38 106.5t96.5 115t107.5 51.5q133 156 292.5 407t250.5 447q-85 6 -131 6q-255 0 -376 -61.5t-161 -210.5zM285 1642l-25 15q42 56 116 123t116 67q28 0 77 -32l254 -158q83 71 142 176h325q-81 -93 -196.5 -169.5t-228.5 -122.5
t-228 -73l-231 148q-66 41 -91 41q-17 0 -30 -15z" />
    <glyph glyph-name="zcaron" unicode="&#x17e;" horiz-adv-x="1032" 
d="M936 983l33 -55q-54 -106 -115 -197t-135.5 -173.5t-147 -150.5t-174.5 -155q56 -1 166.5 -8.5t134.5 -7.5q111 0 155 39.5t95 173.5h56q-25 -194 -57.5 -297.5t-70.5 -137.5t-100 -34q-39 0 -244 26.5t-309 26.5q-59 -53 -114 -53q-28 0 -44 14t-16 39q0 38 21 87
t66.5 90.5t101.5 41.5q202 253 360 547q-27 8 -94 8q-164 0 -260.5 -62.5t-137.5 -195.5h-59q13 98 25.5 165.5t28.5 117t32.5 78.5t41 45.5t50 22t64.5 5.5h647zM471 1065l-240 268q-49 55 -72 68.5t-69 13.5l-8 33l207 59q32 9 49 9q55 0 113 -66l149 -168q78 84 127 227
h256q-80 -139 -223.5 -257t-288.5 -187z" />
    <glyph glyph-name="longs" unicode="&#x17f;" horiz-adv-x="745" 
d="M84 983h106q0 272 146 416.5t416 144.5q297 0 297 -198q0 -90 -64.5 -145.5t-169.5 -55.5q-47 0 -74 6q31 65 31 156q0 64 -25.5 99.5t-76.5 35.5q-168 0 -168 -459v-604q0 -179 32.5 -249t131.5 -91v-45q-153 12 -322 12q-164 0 -293 -12v45q75 13 107 92.5t32 247.5
v498q-72 0 -139 -13l-16 21z" />
    <glyph glyph-name="florin" unicode="&#x192;" 
d="M1081 793v-119h-340q-65 -446 -113.5 -645t-121.5 -310q-108 -168 -410 -168q-379 0 -379 236q0 104 71 164.5t194 60.5q79 0 131 -18q-58 -101 -58 -205q0 -125 72 -125q26 0 45.5 14t40 57.5t38 110t40 185.5t46 268.5t56.5 374.5h-262v119h283q13 86 25 146t33 127
t48 111.5t68.5 87t95.5 67t128 39.5t167 15q338 0 338 -210q0 -103 -69.5 -166.5t-182.5 -63.5q-57 0 -100 19q36 81 36 174q0 67 -19.5 103t-55.5 36q-58 0 -95 -114.5t-73 -370.5h323z" />
    <glyph glyph-name="AEacute" unicode="&#x1fc;" horiz-adv-x="2009" 
d="M1303 1253v-465h43q108 0 168.5 32.5t82.5 127.5h97q-19 -98 -19 -217q0 -133 19 -237h-97q-37 99 -87.5 135.5t-149.5 36.5h-57v-238q0 -190 36.5 -256t141.5 -66q57 0 111 22t95 55t81.5 82t67.5 92.5t56 97.5l97 -54q-94 -192 -158 -421q-207 20 -438 20h-277
q-233 0 -350 -6v55q102 13 141 99t39 296v222h-313l-193 -306l-10 -16q-11 -16 -13 -19t-12 -18.5t-13 -21t-11 -20t-11 -22t-8.5 -20.5t-7.5 -22t-4 -20t-2 -21q0 -49 31.5 -76.5t99.5 -36.5v-53q-132 12 -264 12q-130 0 -256 -12v47q54 30 100.5 70t92.5 99t69.5 94
t71.5 110l446 702q72 113 72 150q0 25 -18 35t-64 10v61q126 -6 262 -6h389q251 0 418 12q0 -194 55 -403l-90 -27q-79 180 -163 242.5t-244 62.5h-53zM946 788v383l-239 -383h239zM1047 1460l-43 99q110 69 223 162t188 177q46 -39 94 -109t76 -140q-77 -53 -233.5 -108
t-304.5 -81z" />
    <glyph glyph-name="aeacute" unicode="&#x1fd;" horiz-adv-x="1538" 
d="M1438 311l53 -45q-203 -286 -483 -286q-126 0 -211 54.5t-142 172.5q-78 -121 -159 -174t-189 -53q-118 0 -182 61t-64 174q0 155 142 244t395 92v49q0 6 0.5 32t0 41.5t-1.5 44.5t-4 48t-8 44t-13.5 41t-20 31.5t-28.5 23t-38 7.5q-51 0 -79.5 -35t-28.5 -98
q0 -79 45 -143q-62 -41 -146 -41q-83 0 -133.5 44.5t-50.5 115.5q0 109 134 178.5t345 69.5q103 0 154.5 -27t77.5 -94q51 66 115 94.5t159 28.5q177 0 279 -92t102 -250q0 -64 -20 -113h-572v-6q6 -182 83 -282.5t212 -100.5q146 0 277 149zM596 473q-99 -9 -156 -65
t-57 -144q0 -49 21 -75.5t59 -26.5q79 0 162 104q-24 90 -29 201v6zM1126 662q4 20 4 65q0 91 -29.5 139.5t-84.5 48.5q-138 0 -150 -266zM692 1065l-53 82q181 181 311 403q63 -31 122.5 -90.5t96.5 -128.5q-88 -78 -218.5 -148.5t-258.5 -117.5z" />
    <glyph glyph-name="Oslashacute" unicode="&#x1fe;" horiz-adv-x="1683" 
d="M1417 1452l92 -78l-108 -137q104 -97 149 -223.5t45 -321.5q0 -359 -191 -535.5t-581 -176.5q-242 0 -407 67l-135 -170l-97 82l129 156q-118 95 -171.5 228.5t-53.5 334.5q0 352 199 530t592 178q123 0 219.5 -18t199.5 -61zM1114 1126q-49 78 -110 112t-150 34
q-182 0 -276.5 -142t-94.5 -415q0 -182 49 -365zM588 225q50 -70 110 -101.5t146 -31.5q178 0 270 149.5t92 438.5q0 172 -35 313zM678 1460l-43 99q110 70 223.5 162.5t188.5 176.5q46 -39 94 -109t76 -140q-76 -52 -233.5 -107.5t-305.5 -81.5z" />
    <glyph glyph-name="oslashacute" unicode="&#x1ff;" horiz-adv-x="1228" 
d="M999 1083l86 -71l-86 -113q86 -78 122 -168t36 -231q0 -250 -142 -385t-405 -135q-164 0 -291 51l-118 -150l-84 70l110 141q-83 73 -119 167t-36 233q0 254 140 383t415 129q150 0 276 -50zM768 803q-35 57 -73.5 80.5t-92.5 23.5q-104 0 -158.5 -97t-54.5 -282
q0 -112 29 -213zM461 190q34 -63 70 -88.5t92 -25.5q106 0 163.5 103.5t57.5 293.5q0 117 -31 209zM498 1065l-54 82q184 184 312 403q63 -31 122.5 -90.5t96.5 -128.5q-88 -78 -218.5 -148.5t-258.5 -117.5z" />
    <glyph glyph-name="Scommaaccent" unicode="&#x218;" horiz-adv-x="1210" 
d="M1085 930h-114q-34 160 -120 254t-198 94q-86 0 -132 -43t-46 -121q0 -30 5 -54t12 -43t25.5 -37t34.5 -31t50 -31t61.5 -31t79.5 -37q46 -21 68 -31t62.5 -30.5t61 -33.5t52.5 -36t48.5 -42.5t37.5 -48t31 -57.5t17 -65.5t7 -77.5q0 -213 -165.5 -330.5t-452.5 -117.5
q-111 0 -211 17.5t-148 35t-83 35.5q18 94 18 245q0 85 -6 168h113q18 -166 108.5 -278.5t222.5 -112.5q103 0 161 55t58 154q0 54 -18 96.5t-56 76.5t-82.5 59.5t-111.5 54.5q-52 23 -80.5 35.5t-76 37.5t-74 45.5t-60.5 52.5t-51.5 65t-30 77t-12.5 94q0 189 152 291
t432 102q131 0 240.5 -17.5t170.5 -41.5q-12 -90 -12 -180q0 -109 12 -217zM383 -227l-14 43q38 29 118.5 57.5t161.5 28.5t125.5 -42.5t44.5 -127.5q0 -192 -348 -252l-22 61q51 20 72.5 46t21.5 67q0 45 -40.5 82t-119.5 37z" />
    <glyph glyph-name="scommaaccent" unicode="&#x219;" horiz-adv-x="927" 
d="M825 637h-49q-35 126 -110 199t-170 73q-51 0 -79 -25.5t-28 -70.5q0 -51 36 -83t146 -79q79 -34 126 -60.5t86.5 -62.5t56 -82.5t16.5 -109.5q0 -170 -119 -263t-336 -93q-108 0 -200 20t-142 43q19 120 19 238q0 81 -4 135h53q29 -152 107 -241t182 -89q68 0 106.5 36
t38.5 99q0 64 -46.5 101.5t-182.5 99.5q-132 59 -181 116t-49 156q0 149 107.5 229.5t304.5 80.5q183 0 311 -56q-8 -68 -8 -149q0 -89 8 -162zM211 -244l-14 43q48 30 127.5 58t152.5 28q83 0 126.5 -35.5t43.5 -117.5q0 -97 -95.5 -164.5t-260.5 -87.5l-15 61
q51 20 73 44.5t22 58.5q0 50 -39.5 81t-120.5 31z" />
    <glyph glyph-name="uni021A" unicode="&#x21a;" horiz-adv-x="1316" 
d="M838 1255v-811q0 -207 38 -292.5t138 -102.5v-55q-170 12 -357 12q-191 0 -354 -12v55q99 17 136.5 102t37.5 293v811q-159 0 -241.5 -62t-131.5 -224h-96q29 170 29 409q176 -12 440 -12h361q254 0 434 12q3 -173 37 -409h-101q-44 165 -123 225.5t-247 60.5zM412 -227
l-15 43q38 28 119 57t162 29t125.5 -42.5t44.5 -127.5q0 -192 -348 -252l-23 61q51 20 72.5 46t21.5 67q0 45 -40 82t-119 37z" />
    <glyph glyph-name="uni021B" unicode="&#x21b;" horiz-adv-x="776" 
d="M760 983l18 -31l-61 -88q-104 8 -234 8q-4 -111 -4 -333q0 -56 0.5 -90t2.5 -78.5t6 -71t11 -59.5t18 -51.5t26 -38t35.5 -29.5t47.5 -16.5t60 -6.5q39 0 88 17l19 -74q-154 -61 -349 -61q-50 0 -88 5t-67 18.5t-49.5 29t-34.5 44.5t-22 56.5t-12.5 73t-5.5 86t-1 104.5
q0 27 1 72t1 70l2 333q-66 0 -133 -6l-19 70q152 60 249.5 162.5t158.5 267.5h80q-18 -172 -21 -383h277zM176 -244l-14 43q48 30 127.5 58t152.5 28q83 0 126.5 -35.5t43.5 -117.5q0 -97 -95.5 -164.5t-260.5 -87.5l-14 61q50 20 72 44.5t22 58.5q0 50 -39.5 81t-120.5 31z
" />
    <glyph glyph-name="dotlessj" unicode="&#x237;" horiz-adv-x="628" 
d="M516 995q-22 -217 -22 -596v-297q0 -204 -28 -293.5t-114 -164.5q-69 -60 -171.5 -92.5t-221.5 -32.5q-136 0 -209.5 51.5t-73.5 146.5q0 92 71 150.5t183 58.5q58 0 82 -8q-11 -22 -16 -33t-12 -42t-7 -68q0 -71 22.5 -109.5t63.5 -38.5q40 0 64.5 35t37.5 121t13 233
v547q0 187 -29.5 271t-103.5 106v39z" />
    <glyph glyph-name="circumflex" unicode="&#x2c6;" horiz-adv-x="1024" 
d="M573 1516l240 -271q50 -56 73 -69t68 -11l9 -35l-213 -59q-24 -6 -39 -6q-61 0 -117 65l-150 168q-75 -80 -127 -227h-256q79 136 227 258.5t285 186.5z" />
    <glyph glyph-name="caron" unicode="&#x2c7;" horiz-adv-x="1024" 
d="M451 1065l-240 268q-49 55 -72 68.5t-69 13.5l-9 33l207 59q32 9 49 9q55 0 113 -66l150 -168q78 84 127 227h256q-80 -139 -223.5 -257t-288.5 -187z" />
    <glyph glyph-name="uni02C9" unicode="&#x2c9;" horiz-adv-x="1024" 
d="M207 1401h694l17 -45l-62 -160h-709l-16 31z" />
    <glyph glyph-name="breve" unicode="&#x2d8;" horiz-adv-x="1024" 
d="M664 1448h186q0 -13 1 -29.5t1 -19.5q0 -152 -96.5 -236t-270.5 -84q-155 0 -226 78.5t-87 243.5q26 33 96.5 57.5t151.5 24.5q21 -295 166 -295q46 0 71 34.5t25 98.5q0 54 -18 127z" />
    <glyph glyph-name="dotaccent" unicode="&#x2d9;" horiz-adv-x="1024" 
d="M512 1456q75 0 128.5 -53.5t53.5 -128.5t-53.5 -128.5t-128.5 -53.5t-128.5 53.5t-53.5 128.5t53.5 128.5t128.5 53.5z" />
    <glyph glyph-name="ring" unicode="&#x2da;" horiz-adv-x="1024" 
d="M512 1569q105 0 177.5 -72t72.5 -174t-72.5 -173t-177.5 -71t-177.5 71t-72.5 173t72.5 174t177.5 72zM512 1444q-49 0 -81 -35.5t-32 -85.5t32 -84.5t81 -34.5t81 34.5t32 84.5t-32 85.5t-81 35.5z" />
    <glyph glyph-name="ogonek" unicode="&#x2db;" horiz-adv-x="1024" 
d="M594 51l88 -35q-87 -35 -127.5 -97t-40.5 -136q0 -48 22 -79.5t66 -31.5q38 0 75 19t58 43l43 -47q-51 -80 -145.5 -138.5t-202.5 -58.5q-82 0 -136 44.5t-54 137.5q0 84 56.5 165t135.5 134.5t162 79.5z" />
    <glyph glyph-name="tilde" unicode="&#x2dc;" horiz-adv-x="1024" 
d="M883 1405l59 -21q-37 -136 -87.5 -196t-127.5 -60q-70 0 -260 52q-171 47 -231 47q-38 0 -58 -16.5t-39 -61.5l-57 20q46 132 97 194t114 62q75 0 276 -53q181 -47 228 -47q60 0 86 80z" />
    <glyph glyph-name="hungarumlaut" unicode="&#x2dd;" horiz-adv-x="1024" 
d="M279 1073l-68 55q80 175 141 398q155 -33 230 -142q-66 -99 -137 -172.5t-166 -138.5zM647 1073l-67 55q81 165 141 398q154 -33 229 -142q-66 -99 -137 -172.5t-166 -138.5z" />
    <glyph glyph-name="uni037E" unicode="&#x37e;" horiz-adv-x="665" 
d="M106 266l-12 43q159 86 291 86q158 0 158 -170q0 -132 -86.5 -251t-241.5 -201l-43 61q94 116 94 256q0 176 -160 176zM330 1006q84 0 143 -59.5t59 -143.5q0 -85 -59 -145t-143 -60q-85 0 -144 60t-59 145q0 84 59.5 143.5t143.5 59.5z" />
    <glyph glyph-name="Delta" unicode="&#x394;" 
d="M698 1386l611 -1357l-25 -29h-1280l-22 29l608 1357h108zM535 958l-334 -757h641z" />
    <glyph glyph-name="Delta" unicode="&#x2206;" 
d="M698 1386l611 -1357l-25 -29h-1280l-22 29l608 1357h108zM535 958l-334 -757h641z" />
    <glyph glyph-name="Omega" unicode="&#x3a9;" horiz-adv-x="1656" 
d="M725 0h-621q0 76 -13 203t-30 221h78q28 -97 61 -126.5t97 -29.5h174q-123 67 -212 198t-89 302q0 287 167.5 452.5t489.5 165.5q319 0 489.5 -160.5t170.5 -449.5q0 -90 -28 -173.5t-74.5 -147t-100.5 -111t-113 -76.5h179q75 0 107.5 28t60.5 128h77q-41 -212 -41 -424
h-622l-29 41q31 43 64.5 108.5t68.5 157.5t57.5 210.5t22.5 236.5q0 253 -74 389.5t-215 136.5q-286 0 -286 -532q0 -143 39.5 -296t85.5 -252t90 -159z" />
    <glyph glyph-name="pi" unicode="&#x3c0;" 
d="M78 571l-51 27q67 200 159.5 290.5t249.5 90.5q65 0 313 -2t326 -2q48 0 76 18t45 78l49 -6q-8 -275 -49 -313q-12 -11 -82 -15t-121 -2q-11 -161 -8 -393q0 -180 76 -180q11 0 20.5 4.5t15.5 10.5t13 17.5t9.5 17.5t8.5 20.5t7 17.5l55 -23q-38 -127 -110.5 -187
t-188.5 -60q-188 0 -203 227q0 224 17 532q-102 4 -228 4q0 -179 -10 -322t-26 -223.5t-29.5 -124t-26.5 -61.5q-39 -16 -130.5 -26.5t-166.5 -8.5l-12 35q46 46 96 121t97 171t77.5 213t30.5 226q-92 0 -161 -38t-138 -134z" />
    <glyph glyph-name="Wgrave" unicode="&#x1e80;" horiz-adv-x="2267" 
d="M1116 801l-160 -473q-60 -179 -94 -334h-334l-282 850q-69 208 -125.5 320t-124.5 151v57q147 -12 336 -12q193 0 334 12v-57q-75 -8 -109.5 -37.5t-34.5 -87.5q0 -56 43 -186l221 -676l248 719q-73 226 -172 268v57q150 -12 328 -12q181 0 334 12v-57
q-77 -9 -109.5 -41.5t-32.5 -102.5q0 -45 15.5 -105t66.5 -210l178 -528l199 573q70 199 70 277q0 63 -35 96t-107 41v57q114 -12 271 -12q138 0 258 12v-57q-162 -70 -281 -400l-184 -520q-73 -209 -117 -401h-336zM1419 1571l-49 -96q-276 90 -524 96q3 73 26.5 158
t55.5 135q236 -78 491 -293z" />
    <glyph glyph-name="wgrave" unicode="&#x1e81;" horiz-adv-x="1714" 
d="M856 543l-92 -232q-64 -156 -117 -317h-217l-235 633q-60 161 -105.5 233.5t-103.5 85.5v43q120 -12 286 -12q163 0 301 12v-43q-96 -18 -96 -104q0 -48 58 -203l112 -295l150 363q-40 114 -69 161.5t-81 77.5v43q111 -12 281 -12q142 0 274 12v-43q-54 -6 -76 -30.5
t-22 -77.5q0 -50 45 -168l121 -326l114 293q39 107 39 166q0 65 -32 96.5t-113 46.5v43q108 -12 238 -12q134 0 225 12v-43q-131 -88 -238 -352l-78 -191q-78 -196 -145 -409h-217zM1022 1108l-92 -43q-72 82 -163 150.5t-167 103.5q31 64 105.5 121t160.5 80
q43 -58 89.5 -179t66.5 -233z" />
    <glyph glyph-name="Wacute" unicode="&#x1e82;" horiz-adv-x="2267" 
d="M1116 801l-160 -473q-60 -179 -94 -334h-334l-282 850q-69 208 -125.5 320t-124.5 151v57q147 -12 336 -12q193 0 334 12v-57q-75 -8 -109.5 -37.5t-34.5 -87.5q0 -56 43 -186l221 -676l248 719q-73 226 -172 268v57q150 -12 328 -12q181 0 334 12v-57
q-77 -9 -109.5 -41.5t-32.5 -102.5q0 -45 15.5 -105t66.5 -210l178 -528l199 573q70 199 70 277q0 63 -35 96t-107 41v57q114 -12 271 -12q138 0 258 12v-57q-162 -70 -281 -400l-184 -520q-73 -209 -117 -401h-336zM954 1460l-43 99q110 70 223.5 162.5t188.5 176.5
q46 -39 94 -109t76 -140q-76 -52 -233.5 -107.5t-305.5 -81.5z" />
    <glyph glyph-name="wacute" unicode="&#x1e83;" horiz-adv-x="1714" 
d="M856 543l-92 -232q-64 -156 -117 -317h-217l-235 633q-60 161 -105.5 233.5t-103.5 85.5v43q120 -12 286 -12q163 0 301 12v-43q-96 -18 -96 -104q0 -48 58 -203l112 -295l150 363q-40 114 -69 161.5t-81 77.5v43q111 -12 281 -12q142 0 274 12v-43q-54 -6 -76 -30.5
t-22 -77.5q0 -50 45 -168l121 -326l114 293q39 107 39 166q0 65 -32 96.5t-113 46.5v43q108 -12 238 -12q134 0 225 12v-43q-131 -88 -238 -352l-78 -191q-78 -196 -145 -409h-217zM770 1065l-53 82q181 181 311 403q63 -31 122.5 -90.5t96.5 -128.5q-88 -78 -218.5 -148.5
t-258.5 -117.5z" />
    <glyph glyph-name="Wdieresis" unicode="&#x1e84;" horiz-adv-x="2267" 
d="M1116 801l-160 -473q-60 -179 -94 -334h-334l-282 850q-69 208 -125.5 320t-124.5 151v57q147 -12 336 -12q193 0 334 12v-57q-75 -8 -109.5 -37.5t-34.5 -87.5q0 -56 43 -186l221 -676l248 719q-73 226 -172 268v57q150 -12 328 -12q181 0 334 12v-57
q-77 -9 -109.5 -41.5t-32.5 -102.5q0 -45 15.5 -105t66.5 -210l178 -528l199 573q70 199 70 277q0 63 -35 96t-107 41v57q114 -12 271 -12q138 0 258 12v-57q-162 -70 -281 -400l-184 -520q-73 -209 -117 -401h-336zM926 1855q76 0 131 -54.5t55 -131.5q0 -78 -54.5 -133
t-131.5 -55q-78 0 -133.5 55t-55.5 133q0 77 55.5 131.5t133.5 54.5zM1423 1855q77 0 132 -55t55 -131q0 -78 -55 -133t-132 -55q-78 0 -132 55t-54 133q0 77 54.5 131.5t131.5 54.5z" />
    <glyph glyph-name="wdieresis" unicode="&#x1e85;" horiz-adv-x="1714" 
d="M856 543l-92 -232q-64 -156 -117 -317h-217l-235 633q-60 161 -105.5 233.5t-103.5 85.5v43q120 -12 286 -12q163 0 301 12v-43q-96 -18 -96 -104q0 -48 58 -203l112 -295l150 363q-40 114 -69 161.5t-81 77.5v43q111 -12 281 -12q142 0 274 12v-43q-54 -6 -76 -30.5
t-22 -77.5q0 -50 45 -168l121 -326l114 293q39 107 39 166q0 65 -32 96.5t-113 46.5v43q108 -12 238 -12q134 0 225 12v-43q-131 -88 -238 -352l-78 -191q-78 -196 -145 -409h-217zM674 1456q75 0 128.5 -53.5t53.5 -128.5t-53.5 -128.5t-128.5 -53.5t-128.5 53.5
t-53.5 128.5t53.5 128.5t128.5 53.5zM1157 1456q75 0 128.5 -53.5t53.5 -128.5t-53.5 -128.5t-128.5 -53.5t-128.5 53.5t-53.5 128.5t53.5 128.5t128.5 53.5z" />
    <glyph glyph-name="Ygrave" unicode="&#x1ef2;" horiz-adv-x="1366" 
d="M780 776l125 203q99 161 99 242q0 49 -23 70t-80 24v57q120 -12 252 -12q135 0 240 12v-45q-74 -31 -152 -119t-186 -266l-183 -299v-199q0 -206 38 -292t137 -103v-55q-163 12 -361 12q-192 0 -348 -12v55q100 17 138 102.5t38 292.5v103l-231 395q-93 159 -173 249
t-157 124v57q138 -12 321 -12q188 0 361 12v-57q-47 -3 -65.5 -20.5t-18.5 -57.5q0 -38 18.5 -81.5t77.5 -145.5zM907 1571l-49 -96q-276 90 -524 96q3 73 26.5 158t55.5 135q236 -78 491 -293z" />
    <glyph glyph-name="ygrave" unicode="&#x1ef3;" horiz-adv-x="1167" 
d="M705 342l122 291q45 105 45 172q0 63 -37 94.5t-124 40.5v49q102 -12 260 -12q143 0 237 12v-49q-76 -19 -142.5 -120t-152.5 -294l-96 -217q-19 -42 -85.5 -209.5t-123 -286.5t-108.5 -188q-69 -94 -207 -94q-106 0 -164.5 53t-58.5 148q0 71 29.5 120.5t70.5 75.5
q28 -68 66.5 -103.5t103.5 -35.5q69 0 121 45q51 44 51 100q0 23 -11 52.5t-46 101.5l-271 557q-90 186 -122.5 233.5t-88.5 61.5v49q123 -12 295 -12q158 0 305 12v-49q-104 0 -104 -72q0 -58 39 -135zM733 1108l-92 -43q-72 82 -163 150.5t-167 103.5q31 64 106 121
t161 80q43 -57 89 -178.5t66 -233.5z" />
    <glyph glyph-name="endash" unicode="&#x2013;" 
d="M1126 627v-232h-962v232h962z" />
    <glyph glyph-name="emdash" unicode="&#x2014;" horiz-adv-x="1818" 
d="M1696 627v-232h-1573v232h1573z" />
    <glyph glyph-name="quoteleft" unicode="&#x2018;" horiz-adv-x="665" 
d="M559 1147l19 -41q-164 -88 -297 -88q-158 0 -158 170q0 132 86 251t240 201l45 -61q-95 -115 -95 -256q0 -176 160 -176z" />
    <glyph glyph-name="quoteright" unicode="&#x2019;" horiz-adv-x="665" 
d="M109 1466l-21 41q164 88 299 88q156 0 156 -172q0 -132 -85.5 -250t-240.5 -200l-45 61q94 116 94 254q0 178 -157 178z" />
    <glyph glyph-name="quotesinglbase" unicode="&#x201a;" horiz-adv-x="665" 
d="M109 266l-21 41q168 88 299 88q156 0 156 -170q0 -132 -85.5 -251t-240.5 -201l-45 61q94 116 94 256q0 176 -157 176z" />
    <glyph glyph-name="quotedblleft" unicode="&#x201c;" horiz-adv-x="1200" 
d="M559 1147l19 -41q-164 -88 -297 -88q-158 0 -158 170q0 132 86 251t240 201l45 -61q-95 -115 -95 -256q0 -176 160 -176zM1092 1147l20 -41q-164 -88 -299 -88q-156 0 -156 170q0 132 85.5 250.5t240.5 201.5l43 -61q-92 -115 -92 -254q0 -178 158 -178z" />
    <glyph glyph-name="quotedblright" unicode="&#x201d;" horiz-adv-x="1200" 
d="M109 1466l-21 41q164 88 299 88q156 0 156 -172q0 -132 -85.5 -250t-240.5 -200l-45 61q94 116 94 254q0 178 -157 178zM641 1466l-18 41q164 88 297 88q157 0 157 -170q0 -134 -85 -252t-240 -200l-45 61q94 116 94 254q0 178 -160 178z" />
    <glyph glyph-name="quotedblbase" unicode="&#x201e;" horiz-adv-x="1200" 
d="M109 266l-21 41q164 88 299 88q156 0 156 -170q0 -132 -86 -251t-240 -201l-45 61q94 116 94 256q0 176 -157 176zM641 266l-18 41q164 88 297 88q157 0 157 -170q0 -132 -85.5 -251t-239.5 -201l-45 61q94 116 94 256q0 176 -160 176z" />
    <glyph glyph-name="dagger" unicode="&#x2020;" 
d="M776 1411l43 -29q-49 -212 -57 -467q194 11 434 66l29 -25q-42 -106 -74 -292q-183 50 -389 59q-2 -51 -2 -137q0 -198 16.5 -422t42.5 -387q-158 -98 -280 -223h-43v385q0 348 -111 542l111 68v174q-231 -10 -400 -59l-30 24q50 119 59 293q172 -53 371 -66
q0 184 -13 340z" />
    <glyph glyph-name="daggerdbl" unicode="&#x2021;" 
d="M784 1411l39 -25q-65 -245 -71 -471q222 6 444 66l29 -29q-23 -54 -46.5 -160.5t-29.5 -127.5q-218 56 -397 59q3 -84 31 -151.5t85 -149.5l-116 -66v-127q242 3 444 64l29 -29q-11 -25 -19.5 -53t-15 -62.5t-10.5 -56.5t-9.5 -64t-7.5 -57q-204 66 -411 66
q0 -203 14 -332l-301 -160l-33 33q61 229 66 449q-235 -10 -402 -66l-30 29q10 21 18.5 41.5t15 45t10.5 38.5t9 45t6.5 40t7 47.5l6.5 45.5q180 -61 359 -64q-6 146 -111 295l111 66v133q-208 -6 -402 -59l-30 34q30 86 59 283q190 -60 373 -66q0 219 -15 342z" />
    <glyph glyph-name="bullet" unicode="&#x2022;" horiz-adv-x="1366" 
d="M684 983q116 0 198.5 -84.5t82.5 -202.5t-82.5 -202t-198.5 -84q-117 0 -200 84t-83 202q0 119 83 203t200 84z" />
    <glyph glyph-name="ellipsis" unicode="&#x2026;" horiz-adv-x="1994" 
d="M332 397q88 0 149.5 -61.5t61.5 -149.5q0 -86 -61.5 -147.5t-149.5 -61.5q-86 0 -147.5 61.5t-61.5 147.5q0 88 61.5 149.5t147.5 61.5zM997 397q88 0 149.5 -61.5t61.5 -149.5q0 -86 -61.5 -147.5t-149.5 -61.5q-86 0 -147.5 61.5t-61.5 147.5q0 88 61.5 149.5
t147.5 61.5zM1663 397q88 0 148.5 -61.5t60.5 -149.5q0 -87 -61 -148t-148 -61t-148 61t-61 148q0 88 60.5 149.5t148.5 61.5z" />
    <glyph glyph-name="perthousand" unicode="&#x2030;" horiz-adv-x="2686" 
d="M616 16q-96 -14 -136.5 -28.5t-123.5 -59.5l-16 29l776 1190q-74 -8 -123 -8q-151 0 -233 35q20 -56 20 -146q0 -196 -87.5 -293.5t-274.5 -97.5q-173 0 -261.5 91t-88.5 271q0 177 93.5 282t250.5 105q45 0 45 -30q0 -11 -5.5 -17.5t-23.5 -15.5q-102 -51 -102 -274
q0 -150 31 -239t83 -89q49 0 79 73t30 195q0 127 -39 230q-47 6 -47 38q0 24 34.5 49t74 39.5t61.5 14.5q20 0 40 -18t50 -62q123 -45 293 -45q91 0 162 8q76 79 127 111t110 32q47 0 79 -33.5t32 -82.5q0 -30 -42.5 -54.5t-119.5 -37.5zM1815 358q0 -192 -93 -285t-286 -93
q-353 0 -353 372q0 188 96.5 284.5t284.5 96.5q351 0 351 -375zM1563 313q0 147 -33 238.5t-86 91.5q-49 0 -76 -67.5t-27 -192.5q0 -143 32.5 -231.5t84.5 -88.5q34 0 57 29t32.5 75.5t12.5 79.5t3 66zM2644 358q0 -191 -93 -284.5t-284 -93.5q-354 0 -354 372
q0 188 96.5 284.5t284.5 96.5q350 0 350 -375zM2392 313q0 148 -32.5 239t-86.5 91q-49 0 -75.5 -67.5t-26.5 -192.5q0 -143 32.5 -231.5t84.5 -88.5q34 0 57 29t32 76t12 79.5t3 65.5z" />
    <glyph glyph-name="guilsinglleft" unicode="&#x2039;" horiz-adv-x="581" 
d="M412 10h-29q-4 47 -68 115l-260 283q67 155 185 298.5t241 221.5v-303q-148 -19 -231 -90l196 -213q32 -35 43 -55.5t11 -45.5q0 -32 -25 -91.5t-63 -119.5z" />
    <glyph glyph-name="guilsinglright" unicode="&#x203a;" horiz-adv-x="581" 
d="M168 928h29q1 -9 3.5 -17.5t8 -18.5t8.5 -16t12.5 -17.5t11.5 -14.5t13 -16l12 -13l260 -285q-68 -154 -185.5 -298t-240.5 -222v303q82 12 135.5 32.5t96.5 57.5l-197 213q-32 35 -42.5 55.5t-10.5 45.5q0 32 24.5 92t61.5 119z" />
    <glyph glyph-name="fraction" unicode="&#x2044;" horiz-adv-x="315" 
d="M313 1386l156 -53l-465 -1353l-156 53z" />
    <glyph glyph-name="zero.superior" unicode="&#x2070;" horiz-adv-x="880" 
d="M829 1208q0 -130 -40 -223.5t-131 -149t-228 -55.5q-177 0 -278 105.5t-101 314.5q0 208 110 320t292 112q178 0 277 -106t99 -318zM590 1167q0 170 -41 275.5t-117 105.5q-46 0 -77.5 -45t-44.5 -112t-13 -150q0 -167 43 -274t115 -107q135 0 135 307z" />
    <glyph glyph-name="four.superior" unicode="&#x2074;" horiz-adv-x="835" 
d="M651 954v-157l-172 -29l-28 25v172q-85 10 -187 10q-77 0 -155 -4q-21 -21 -41 -21t-34 14t-14 35q0 45 29.5 86.5t69.5 53.5q46 92 74 181t28 140q0 66 -39 66q-26 0 -63 -21l-25 56q135 71 268 71q105 0 105 -78q0 -38 -29.5 -98t-61.5 -107t-82 -115.5t-65 -90.5
q40 4 97 4q66 0 131 -6v254q97 11 164 51l34 -39v-277q95 6 101 146h59q-2 -180 -39.5 -254.5t-124.5 -67.5z" />
    <glyph glyph-name="five.superior" unicode="&#x2075;" horiz-adv-x="788" 
d="M641 1696h49q-7 -149 -61.5 -213t-169.5 -64q-144 0 -236 27q4 -46 4 -80q0 -55 -4 -80q89 51 211 51q293 0 293 -260q0 -135 -101.5 -216t-301.5 -81q-273 0 -273 152q0 59 47.5 91t124.5 32q44 0 68 -8q-31 -44 -31 -101q0 -36 21 -59t63 -23q52 0 85.5 28.5t45.5 68
t12 90.5q0 174 -151 174q-79 0 -129 -45q-16 -54 -72 -54q-49 0 -49 39q0 29 27 47q6 68 6 154q0 134 -23 238l17 24q105 -18 286 -18q110 0 162 16.5t80 69.5z" />
    <glyph glyph-name="six.superior" unicode="&#x2076;" horiz-adv-x="825" 
d="M569 1679l33 -67q-142 -88 -222.5 -210.5t-80.5 -268.5q0 -267 133 -267q61 0 90 48t29 128q0 154 -100 154q-17 0 -35 -6l-33 51q69 64 176 64q45 0 83 -10.5t72.5 -34.5t54 -69.5t19.5 -107.5q0 -133 -97 -218t-257 -85q-173 0 -278 82.5t-105 237.5q0 207 130.5 343.5
t387.5 235.5z" />
    <glyph glyph-name="seven.superior" unicode="&#x2077;" horiz-adv-x="704" 
d="M84 1327h-53q16 210 71 283q25 32 80 32q47 0 196 -8t245 -8q43 0 63 2q21 27 49 27q12 0 19.5 -8t7.5 -19q0 -40 -38.5 -92.5t-78.5 -65.5q-202 -403 -252 -675l-248 -35l-16 28q43 161 155.5 336.5t252.5 325.5q-98 -4 -166 -4q-32 0 -85 1t-77 1q-60 0 -87 -28
t-38 -93z" />
    <glyph glyph-name="eight.superior" unicode="&#x2078;" horiz-adv-x="811" 
d="M573 1270q90 -36 136.5 -85.5t46.5 -133.5q0 -119 -90.5 -195t-274.5 -76q-174 0 -255 54.5t-81 162.5q0 70 48 125t143 80q-85 38 -123.5 85t-38.5 122q0 93 90 158t256 65q147 0 222 -47t75 -129q0 -136 -154 -186zM481 1313q23 18 38.5 53.5t15.5 77.5q0 47 -29 76.5
t-82 29.5t-81 -26t-28 -68q0 -44 41 -76.5t125 -66.5zM334 1155q-68 -44 -68 -143q0 -68 36.5 -110t100.5 -42q62 0 91.5 32t29.5 83q0 56 -40 96t-150 84z" />
    <glyph glyph-name="nine.superior" unicode="&#x2079;" horiz-adv-x="843" 
d="M434 1241l29 -53q-62 -62 -180 -62q-102 0 -169 58t-67 172q0 128 102 202t265 74q181 0 280 -84.5t99 -244.5q0 -376 -517 -570l-32 68q303 195 303 485q0 114 -38.5 187t-109.5 73q-55 0 -86.5 -45t-31.5 -112q0 -74 31.5 -115t88.5 -41q17 0 33 8z" />
    <glyph glyph-name="parenleft.superior" unicode="&#x207d;" horiz-adv-x="583" 
d="M532 1747q-79 -58 -111 -188t-32 -363q0 -262 32.5 -391t110.5 -195l-24 -51q-72 21 -128.5 52.5t-94.5 67t-65 84.5t-42 92.5t-23 104.5t-10 108.5t-2 115.5q0 65 3 116t12.5 110.5t26 105.5t45 93t67 82t95 63.5t126.5 45.5z" />
    <glyph glyph-name="parenright.superior" unicode="&#x207e;" horiz-adv-x="583" 
d="M66 1800q70 -17 126 -45.5t95 -63.5t67 -82t44.5 -93t26 -105.5t12.5 -110.5t3 -116q0 -68 -2 -115t-10 -108.5t-23 -105t-41.5 -92.5t-64.5 -84.5t-94.5 -67t-128.5 -52.5l-25 51q78 66 111 195t33 391q0 232 -32.5 362.5t-111.5 188.5z" />
    <glyph glyph-name="n.superior" unicode="&#x207f;" horiz-adv-x="927" 
d="M348 1241v-145q96 149 264 149q96 0 139.5 -45.5t43.5 -144.5v-199q0 -97 22 -145.5t70 -57.5v-37q-21 1 -61.5 3t-78 3t-73.5 1q-100 0 -203 -7v37q49 9 68.5 56t19.5 147v90q0 68 -19.5 103.5t-76.5 35.5q-72 0 -115 -75v-154q0 -99 19 -146.5t63 -56.5v-37
q-20 1 -60.5 3t-77.5 3t-71 1q-85 0 -190 -7v37q45 10 63.5 57t18.5 146v115q0 108 -10 145q-18 66 -72 78v37z" />
    <glyph glyph-name="zero.inferior" unicode="&#x2080;" horiz-adv-x="880" 
d="M829 162q0 -130 -40 -223.5t-131 -149t-228 -55.5q-177 0 -278 105.5t-101 314.5q0 208 110 320t292 112q178 0 277 -106t99 -318zM590 121q0 170 -41 275.5t-117 105.5q-46 0 -77.5 -45t-44.5 -112t-13 -150q0 -167 43 -274t115 -107q135 0 135 307z" />
    <glyph glyph-name="one.inferior" unicode="&#x2081;" horiz-adv-x="667" 
d="M532 614l35 -57q-44 -41 -57.5 -90.5t-13.5 -171.5v-279q0 -123 22.5 -168.5t87.5 -54.5v-55q-104 8 -213 8q-123 0 -254 -8v57q70 1 95.5 48t25.5 173v328q-75 -37 -121 -53t-119 -31l56 178q84 11 223.5 64.5t232.5 111.5z" />
    <glyph glyph-name="two.inferior" unicode="&#x2082;" horiz-adv-x="808" 
d="M696 45h64q-9 -67 -16 -108.5t-19.5 -84t-29 -65.5t-42.5 -37t-61 -14q-32 0 -190.5 11t-303.5 11q-27 -24 -47 -24q-39 0 -39 37q0 39 50 101t98 62q136 139 209 256t73 195q0 52 -21.5 81.5t-58.5 29.5q-73 0 -73 -82q0 -61 37 -107q-39 -31 -117 -31q-65 0 -101 33.5
t-36 93.5q0 86 92 135.5t252 49.5q282 0 282 -205q0 -113 -85.5 -209t-311.5 -237q55 0 150 -4.5t129 -4.5q47 0 73 26t43 91z" />
    <glyph glyph-name="three.inferior" unicode="&#x2083;" horiz-adv-x="778" 
d="M563 211q80 -26 117 -72.5t37 -122.5q0 -134 -105 -208t-299 -74q-278 0 -278 151q0 69 51.5 108.5t140.5 39.5q38 0 78 -13q-41 -65 -41 -122q0 -74 72 -74q57 0 90 47t33 127q0 50 -19.5 89t-54.5 58q-113 -39 -162 -39q-31 0 -49 16t-18 42q0 41 47.5 57.5t167.5 16.5
q31 19 50 61t19 94q0 49 -21 75t-59 26q-67 0 -67 -80q0 -52 39 -99q-40 -32 -113 -32q-66 0 -104.5 33t-38.5 90q0 81 93.5 130.5t246.5 49.5q138 0 210 -48t72 -139q0 -65 -30 -106.5t-105 -81.5z" />
    <glyph glyph-name="four.inferior" unicode="&#x2084;" horiz-adv-x="835" 
d="M651 -84v-158l-172 -28l-28 24v172q-93 11 -187 11q-58 0 -155 -5q-20 -20 -41 -20q-20 0 -34 14t-14 35q0 45 29.5 86t69.5 53q46 92 74 181.5t28 140.5q0 65 -39 65q-27 0 -63 -20l-25 55q137 72 268 72q105 0 105 -78q0 -38 -29.5 -98t-61.5 -107.5t-82 -116
t-65 -90.5q50 5 97 5q56 0 131 -7v254q95 11 164 52l34 -39v-277q95 6 101 146h59q-2 -180 -39.5 -254.5t-124.5 -67.5z" />
    </font>
</defs>
</svg>
