<?xml version="1.0" standalone="no"?>
<!DOCTYPE svg PUBLIC "-//W3C//DTD SVG 1.1//EN" "http://www.w3.org/Graphics/SVG/1.1/DTD/svg11.dtd" >
<svg xmlns="http://www.w3.org/2000/svg" xmlns:xlink="http://www.w3.org/1999/xlink" version="1.1">
<metadata>
Created by FontForge 20170731 at Wed Feb 10 09:07:58 2021
 By Aleksey,,,
(c) 1991, Mark Jamra. All Rights Reserved.
</metadata>
<defs>
<font id="LatiennePro-Regular" horiz-adv-x="1132" >
  <font-face 
    font-family="Latienne Pro"
    font-weight="400"
    font-stretch="normal"
    units-per-em="2048"
    panose-1="2 10 5 3 6 3 2 2 0 3"
    ascent="1638"
    descent="-410"
    x-height="946"
    cap-height="1372"
    bbox="-182 -584 4012 1917"
    underline-thickness="79"
    underline-position="-296"
    unicode-range="U+0020-FB04"
  />
<missing-glyph horiz-adv-x="1024" 
d="M0 0v1434h1024v-1434h-1024zM512 809l348 522h-696zM573 717l349 -522v1044zM164 102h696l-348 523zM102 1239v-1044l349 522z" />
    <glyph glyph-name="T_h" unicode="Th" horiz-adv-x="2144" 
d="M649 1290v-921q0 -184 32 -253.5t124 -76.5v-45q-111 12 -234 12q-118 0 -235 -12v45q92 7 124 76.5t32 253.5v921q-82 0 -134.5 -3.5t-106 -16.5t-86 -37t-58.5 -65.5t-39 -102.5h-48q30 163 39 313q166 -12 357 -12h487q157 0 271 6q-4 81 -17 146l182 22l13 -14
q-37 -209 -37 -475v-340q71 131 151.5 193.5t212.5 62.5q71 0 121 -20t78.5 -52t44.5 -86t20.5 -106t4.5 -128v-208q0 -185 33 -255.5t122 -74.5v-43q-115 12 -213 12q-91 0 -227 -12v43q89 6 121.5 76t32.5 254v172q0 161 -46.5 228t-156.5 67q-175 0 -299 -203v-264
q0 -183 33 -253.5t122 -76.5v-43q-115 12 -213 12q-97 0 -233 -12v43q91 5 125.5 75.5t34.5 254.5v841q-45 44 -120 61.5t-200 20.5h-215z" />
    <glyph glyph-name="T_h.caron" unicode="&#x164;h" horiz-adv-x="2144" 
d="M649 1290v-921q0 -184 32 -253.5t124 -76.5v-45q-111 12 -234 12q-118 0 -235 -12v45q92 7 124 76.5t32 253.5v921q-82 0 -134.5 -3.5t-106 -16.5t-86 -37t-58.5 -65.5t-39 -102.5h-48q30 163 39 313q166 -12 357 -12h487q157 0 271 6q-4 81 -17 146l182 22l13 -14
q-37 -209 -37 -475v-340q71 131 151.5 193.5t212.5 62.5q71 0 121 -20t78.5 -52t44.5 -86t20.5 -106t4.5 -128v-208q0 -185 33 -255.5t122 -74.5v-43q-115 12 -213 12q-91 0 -227 -12v43q89 6 121.5 76t32.5 254v172q0 161 -46.5 228t-156.5 67q-175 0 -299 -203v-264
q0 -183 33 -253.5t122 -76.5v-43q-115 12 -213 12q-97 0 -233 -12v43q91 5 125.5 75.5t34.5 254.5v841q-45 44 -120 61.5t-200 20.5h-215zM223 1661l-18 16q85 109 123 109q10 0 17.5 -4t39.5 -27l244 -174q52 23 103 75.5t83 117.5h189q-67 -89 -192 -167.5t-280 -129.5
l-217 155q-49 35 -71 35q-9 0 -21 -6z" />
    <glyph glyph-name="T_h.caronswash" unicode="&#xe0c4;h" horiz-adv-x="2285" 
d="M776 1253v-884q0 -184 32 -253.5t124 -76.5v-45q-120 12 -234 12q-113 0 -231 -12v45q92 7 124 76.5t32 253.5v895q-35 2 -64 2q-200 0 -312 -75t-112 -210q0 -82 36 -131.5t118 -81.5q-45 -74 -125 -74q-75 0 -119.5 48.5t-44.5 131.5q0 112 68.5 232t171.5 188
q75 49 167 70.5t232 21.5q38 0 210 -7t185 -7q129 0 201.5 15.5t105 47.5t41.5 91h54v-815q71 131 151.5 193.5t212.5 62.5q71 0 121 -20t78 -52t44 -86t20.5 -106t4.5 -128v-208q0 -125 14.5 -194.5t47.5 -101t94 -34.5v-43q-115 12 -213 12q-91 0 -227 -12v43q89 6 121 76
t32 254v172q0 161 -46 228t-156 67q-175 0 -299 -203v-264q0 -183 33 -253.5t122 -76.5v-43q-115 12 -213 12q-97 0 -233 -12v43q91 5 125.5 75.5t34.5 254.5v919q-92 -43 -258 -43q-46 0 -271 10zM375 1661l-19 16q85 109 123 109q11 0 18.5 -4t39.5 -27l243 -174
q53 23 104 76t83 117h188q-67 -89 -192 -167.5t-279 -129.5l-217 155q-49 35 -72 35q-8 0 -20 -6z" />
    <glyph glyph-name="T_h.commaaccent" unicode="&#x162;h" horiz-adv-x="2144" 
d="M649 1290v-921q0 -184 32 -253.5t124 -76.5v-45q-111 12 -234 12q-118 0 -235 -12v45q92 7 124 76.5t32 253.5v921q-82 0 -134.5 -3.5t-106 -16.5t-86 -37t-58.5 -65.5t-39 -102.5h-48q30 163 39 313q166 -12 357 -12h487q157 0 271 6q-4 81 -17 146l182 22l13 -14
q-37 -209 -37 -475v-340q71 131 151.5 193.5t212.5 62.5q71 0 121 -20t78.5 -52t44.5 -86t20.5 -106t4.5 -128v-208q0 -185 33 -255.5t122 -74.5v-43q-115 12 -213 12q-91 0 -227 -12v43q89 6 121.5 76t32.5 254v172q0 161 -46.5 228t-156.5 67q-175 0 -299 -203v-264
q0 -183 33 -253.5t122 -76.5v-43q-115 12 -213 12q-97 0 -233 -12v43q91 5 125.5 75.5t34.5 254.5v841q-45 44 -120 61.5t-200 20.5h-215zM410 -225l-9 18q53 35 109 58.5t88 23.5q41 0 59.5 -31t18.5 -98q0 -96 -57.5 -168t-159.5 -98l-17 43q93 27 93 141q0 51 -34 81
t-91 30z" />
    <glyph glyph-name="T_h.commaaccentswash" unicode="&#xe0c6;h" horiz-adv-x="2285" 
d="M776 1253v-884q0 -184 32 -253.5t124 -76.5v-45q-120 12 -234 12q-113 0 -231 -12v45q92 7 124 76.5t32 253.5v895q-35 2 -64 2q-200 0 -312 -75t-112 -210q0 -82 36 -131.5t118 -81.5q-45 -74 -125 -74q-75 0 -119.5 48.5t-44.5 131.5q0 112 68.5 232t171.5 188
q75 49 167 70.5t232 21.5q38 0 210 -7t185 -7q129 0 201.5 15.5t105 47.5t41.5 91h54v-815q71 131 151.5 193.5t212.5 62.5q71 0 121 -20t78 -52t44 -86t20.5 -106t4.5 -128v-208q0 -125 14.5 -194.5t47.5 -101t94 -34.5v-43q-115 12 -213 12q-91 0 -227 -12v43q89 6 121 76
t32 254v172q0 161 -46 228t-156 67q-175 0 -299 -203v-264q0 -183 33 -253.5t122 -76.5v-43q-115 12 -213 12q-97 0 -233 -12v43q91 5 125.5 75.5t34.5 254.5v919q-92 -43 -258 -43q-46 0 -271 10zM528 -225l-8 18q53 35 109 58.5t88 23.5q41 0 59.5 -31t18.5 -98
q0 -96 -57.5 -168t-159.5 -98l-17 43q92 27 92 141q0 51 -34 81t-91 30z" />
    <glyph glyph-name="T_h.swash" unicode="&#xe0ba;h" horiz-adv-x="2285" 
d="M776 1253v-884q0 -184 32 -253.5t124 -76.5v-45q-120 12 -234 12q-113 0 -231 -12v45q92 7 124 76.5t32 253.5v895q-35 2 -64 2q-200 0 -312 -75t-112 -210q0 -82 36 -131.5t118 -81.5q-45 -74 -125 -74q-75 0 -119.5 48.5t-44.5 131.5q0 112 68.5 232t171.5 188
q75 49 167 70.5t232 21.5q38 0 210 -7t185 -7q129 0 201.5 15.5t105 47.5t41.5 91h54v-815q71 131 151.5 193.5t212.5 62.5q71 0 121 -20t78 -52t44 -86t20.5 -106t4.5 -128v-208q0 -125 14.5 -194.5t47.5 -101t94 -34.5v-43q-115 12 -213 12q-91 0 -227 -12v43q89 6 121 76
t32 254v172q0 161 -46 228t-156 67q-175 0 -299 -203v-264q0 -183 33 -253.5t122 -76.5v-43q-115 12 -213 12q-97 0 -233 -12v43q91 5 125.5 75.5t34.5 254.5v919q-92 -43 -258 -43q-46 0 -271 10z" />
    <glyph glyph-name="f_b" unicode="fb" horiz-adv-x="1785" 
d="M379 946h289l14 -22l-45 -76q-29 5 -65.5 8t-61 4.5t-68.5 3t-63 2.5v-499q0 -140 7 -182q18 -108 103 -136q37 -12 86 -12v-43q-172 12 -260 12q-75 0 -235 -12v43q94 3 129 73t35 257v499q-124 -9 -164 -18l-12 18l53 80h123q7 292 131 443t336 151q50 0 104 -12
l205 12q-27 -253 -27 -440v-389q67 132 157 194t212 62q158 0 241 -109.5t83 -320.5q0 -557 -494 -557q-197 0 -369 65l39 47v1008q0 78 -2 127.5t-9 94t-19 68.5t-33.5 42.5t-50 25t-70.5 6.5q-140 0 -219.5 -132t-79.5 -386zM993 631v-252q0 -61 6 -108.5t22 -90.5
t41.5 -71t67 -44t97.5 -16q145 0 226 113.5t81 316.5q0 175 -58 268t-167 93q-88 0 -170.5 -54.5t-145.5 -154.5z" />
    <glyph glyph-name="f_f_b" unicode="ffb" horiz-adv-x="2443" 
d="M881 946q0 151 37 258q-24 110 -86.5 172t-155.5 62q-32 0 -63 -8t-67 -26.5t-65.5 -55t-54.5 -88.5t-39 -132.5t-14 -181.5h508zM1012 946h297l14 -22l-45 -76q-94 15 -266 18v-499q0 -103 8 -163.5t31 -99t59.5 -52.5t97.5 -15v-43q-164 12 -250 12t-241 -12v43
q95 3 129.5 72.5t34.5 257.5v499h-508v-499q0 -197 38 -263t154 -67v-43q-172 12 -256 12q-77 0 -229 -12v43q93 3 127.5 73t34.5 257v499q-84 0 -162 -16l-12 16l51 80h123q0 131 33 234t83 164.5t117 101.5t128 55t122 15q92 0 159.5 -33t125.5 -105q134 162 352 162
q52 0 113 -12l202 12q-26 -166 -26 -440v-389q67 132 156.5 194t211.5 62q158 0 241 -109.5t83 -320.5q0 -557 -494 -557q-196 0 -368 65l39 47v1008q0 89 -3.5 144t-14 101.5t-31.5 70t-53.5 36t-82.5 12.5q-107 0 -181 -70.5t-108 -184.5t-34 -263zM1651 631v-252
q0 -78 10 -134t35 -102.5t72 -70t116 -23.5q145 0 226 113.5t81 316.5q0 175 -58 268t-167 93q-88 0 -170 -54.5t-145 -154.5z" />
    <glyph glyph-name="f_f_h" unicode="ffh" horiz-adv-x="2500" 
d="M881 946q0 151 37 258q-24 110 -86.5 172t-155.5 62q-32 0 -63 -8t-67 -26.5t-65.5 -55t-54.5 -88.5t-39 -132.5t-14 -181.5h508zM1012 946h297l14 -22l-45 -76q-94 15 -266 18v-499q0 -103 8 -163.5t31 -99t59.5 -52.5t97.5 -15v-43q-164 12 -250 12t-241 -12v43
q95 3 129.5 72.5t34.5 257.5v499h-508v-499q0 -197 38 -263t154 -67v-43q-172 12 -256 12q-77 0 -229 -12v43q93 3 127.5 73t34.5 257v499q-84 0 -162 -16l-12 16l51 80h123q0 131 33 234t83 164.5t117 101.5t128 55t122 15q92 0 159.5 -33t125.5 -105q134 162 352 162
q52 0 113 -12l202 12q-26 -166 -26 -440v-389q71 131 151.5 193.5t212.5 62.5q71 0 121 -20t78.5 -52t44.5 -86t20.5 -106t4.5 -128v-208q0 -185 33 -255.5t122 -74.5v-43q-115 12 -213 12q-91 0 -227 -12v43q89 6 121 76t32 254v172q0 161 -46 228t-156 67
q-175 0 -299 -203v-264q0 -183 33 -253.5t122 -76.5v-43q-115 12 -213 12q-97 0 -233 -12v43q91 5 125.5 75.5t34.5 254.5v733q0 89 -3.5 144t-14 101.5t-31.5 70t-53.5 36t-82.5 12.5q-323 0 -323 -518z" />
    <glyph glyph-name="f_f_j" unicode="ffj" horiz-adv-x="1835" 
d="M883 946q0 138 35 258q-58 234 -240 234q-290 0 -305 -492h510zM1014 946h231q236 0 406 10q-17 -152 -17 -378v-531q0 -184 -22 -273.5t-86 -164.5q-47 -57 -119 -88t-154 -31q-78 0 -120.5 35t-42.5 100q0 66 46.5 108t118.5 42q17 0 31 -2q-35 -49 -35 -105
q0 -44 23 -70t63 -26q166 0 166 403v574q0 197 -37 270q-15 28 -38 37.5t-78 9.5h-336v-499q0 -102 7.5 -162t30 -99t58 -53t96.5 -16v-43q-164 12 -248 12q-79 0 -239 -12v43q94 3 129 73t35 257v499h-510v-499q0 -197 38 -263t154 -67v-43q-172 12 -256 12q-77 0 -229 -12
v43q93 3 127.5 73t34.5 257v499q-84 0 -162 -16l-12 16l51 80h123q5 117 32.5 215t82.5 180t149.5 128.5t220.5 46.5q92 0 159.5 -32.5t123.5 -103.5q67 81 151 121.5t199 40.5q130 0 203 -52.5t73 -143.5q0 -65 -41.5 -110.5t-99.5 -45.5q-15 0 -29 2q19 38 19 82
q0 84 -50 136t-135 52q-58 0 -104.5 -23.5t-76.5 -65.5t-51 -91.5t-32 -111.5t-16 -114t-6 -110z" />
    <glyph glyph-name="f_f_k" unicode="ffk" horiz-adv-x="2437" 
d="M881 946q0 151 37 258q-24 110 -86.5 172t-155.5 62q-32 0 -63 -8t-67 -26.5t-65.5 -55t-54.5 -88.5t-39 -132.5t-14 -181.5h508zM1012 946h297l14 -22l-45 -76q-94 15 -266 18v-499q0 -103 8 -163.5t31 -99t59.5 -52.5t97.5 -15v-43q-164 12 -250 12t-241 -12v43
q95 3 129.5 72.5t34.5 257.5v499h-508v-499q0 -197 38 -263t154 -67v-43q-172 12 -256 12q-77 0 -229 -12v43q93 3 127.5 73t34.5 257v499q-84 0 -162 -16l-12 16l51 80h123q0 131 33 234t83 164.5t117 101.5t128 55t122 15q92 0 159.5 -33t125.5 -105q134 162 352 162
q52 0 113 -12l202 12q-26 -166 -26 -440v-525l178 127q145 104 145 158q0 41 -61 47v45q110 -14 213 -14t213 14v-39q-192 -69 -412 -225l-123 -88q42 -16 74 -43t88 -88l164 -178q92 -102 162.5 -162.5t152.5 -97.5v-31h-147q-65 0 -93 15.5t-89 84.5l-261 287
q-82 92 -124 129t-80 47v-196q0 -184 32 -254t121 -76v-43q-132 12 -227 12q-103 0 -217 -12v43q62 3 96 34t49 100.5t15 195.5v733q0 89 -3.5 144t-14 101.5t-31.5 70t-53.5 36t-82.5 12.5q-323 0 -323 -518z" />
    <glyph glyph-name="f_h" unicode="fh" horiz-adv-x="1863" 
d="M379 946h289l14 -22l-45 -76q-29 5 -65.5 8t-61 4.5t-68.5 3t-63 2.5v-499q0 -140 7 -182q18 -108 103 -136q37 -12 86 -12v-43q-172 12 -260 12q-75 0 -235 -12v43q94 3 129 73t35 257v499q-124 -9 -164 -18l-12 18l53 80h123q3 96 18.5 179.5t51.5 161t90 132.5
t137.5 88t189.5 33q51 0 105 -12l204 12q-26 -244 -26 -440v-389q71 131 151.5 193.5t212.5 62.5q71 0 121 -20t78.5 -52t44.5 -86t20.5 -106t4.5 -128v-208q0 -185 33 -255.5t122 -74.5v-43q-115 12 -213 12q-91 0 -227 -12v43q89 6 121.5 76t32.5 254v172q0 161 -46.5 228
t-156.5 67q-175 0 -299 -203v-264q0 -183 33 -253.5t122 -76.5v-43q-115 12 -213 12q-97 0 -233 -12v43q91 5 125.5 75.5t34.5 254.5v733q0 56 -0.5 89.5t-3 74.5t-8 64t-14.5 49.5t-22.5 39.5t-32.5 25.5t-45 17t-59 4.5q-319 0 -319 -518z" />
    <glyph glyph-name="f_j" unicode="fj" horiz-adv-x="1159" 
d="M375 946h209q235 0 405 10q-16 -143 -16 -378v-531q0 -183 -22.5 -273t-86.5 -165q-47 -57 -118.5 -88t-153.5 -31q-78 0 -121 35.5t-43 99.5q0 66 47 108t119 42q17 0 31 -2q-35 -49 -35 -105q0 -44 23 -70t63 -26q166 0 166 403v574q0 197 -37 270q-15 28 -38.5 37.5
t-78.5 9.5h-313v-499q0 -102 7.5 -162t30 -99t58 -53t96.5 -16v-43q-164 12 -248 12q-79 0 -239 -12v43q94 3 129 73t35 257v499q-84 0 -164 -16l-12 16l55 80h121q7 295 125.5 445.5t337.5 150.5q129 0 198.5 -52t69.5 -144q0 -65 -42 -110.5t-102 -45.5q-4 0 -12.5 1
t-13.5 1q18 37 18 82q0 87 -41.5 137.5t-124.5 50.5q-268 0 -282 -516z" />
    <glyph glyph-name="f_k" unicode="fk" horiz-adv-x="1800" 
d="M379 946h289l14 -22l-45 -76q-29 5 -65.5 8t-61 4.5t-68.5 3t-63 2.5v-499q0 -140 7 -182q18 -108 103 -136q37 -12 86 -12v-43q-172 12 -260 12q-75 0 -235 -12v43q94 3 129 73t35 257v499q-124 -9 -164 -18l-12 18l53 80h123q3 96 18.5 179.5t51.5 161t90 132.5
t137.5 88t189.5 33q51 0 105 -12l204 12q-26 -244 -26 -440v-525l178 127q145 104 145 158q0 41 -61 47v45q110 -14 213 -14t213 14v-39q-192 -69 -412 -225l-123 -88q42 -16 74 -43t88 -88l164 -178q92 -102 162.5 -162.5t152.5 -97.5v-31h-147q-65 0 -93 15.5t-89 84.5
l-260 287q-81 91 -124 128.5t-81 47.5v-196q0 -184 32 -254t121 -76v-43q-132 12 -227 12q-103 0 -217 -12v43q62 3 96 34t49 100.5t15 195.5v733q0 56 -0.5 89.5t-3 74.5t-8 64t-14.5 49.5t-22.5 39.5t-32.5 25.5t-45 17t-59 4.5q-319 0 -319 -518z" />
    <glyph glyph-name="f_i" unicode="fi" horiz-adv-x="1232" 
d="M375 946h250q270 0 405 10q-16 -143 -16 -378v-211q0 -183 32.5 -253.5t120.5 -76.5v-43q-118 12 -213 12q-96 0 -229 -12v43q91 4 124.5 74.5t33.5 255.5v182q0 66 -4 116t-9.5 84t-18 56.5t-22 34.5t-29 18t-33 7t-38.5 1h-354v-499q0 -133 16 -200t56.5 -96.5
t121.5 -33.5v-43q-143 12 -264 12q-117 0 -225 -12v43q94 2 129 72.5t35 257.5v499q-105 0 -164 -16l-12 16l55 80h121q0 178 51.5 309.5t162 209t271.5 77.5q131 0 209 -53t78 -143q0 -65 -42 -110.5t-102 -45.5q-12 0 -26 2q18 37 18 82q0 83 -54 135.5t-140 52.5
q-81 0 -140.5 -43t-92 -118t-47.5 -163t-15 -192z" />
    <glyph glyph-name="f_l" unicode="fl" horiz-adv-x="1228" 
d="M379 946h289l14 -22l-45 -76q-29 5 -65.5 8t-61 4.5t-68.5 3t-63 2.5v-499q0 -133 16 -200t56.5 -96.5t121.5 -33.5v-43q-143 12 -264 12q-117 0 -225 -12v43q94 2 129 72.5t35 257.5v499q-124 -9 -164 -18l-12 18l53 80h123q3 96 18 179t50.5 161t89 133t136.5 88
t189 33q51 0 105 -12l204 12q-26 -244 -26 -440v-733q0 -183 32.5 -253.5t120.5 -76.5v-43q-118 12 -213 12q-96 0 -229 -12v43q91 4 124.5 74.5t33.5 255.5v688q0 137 -6 223q-7 104 -47 145t-132 41q-319 0 -319 -518z" />
    <glyph glyph-name="f_f" unicode="ff" horiz-adv-x="1339" 
d="M883 946q0 138 35 258q-58 234 -240 234q-290 0 -305 -492h510zM1014 946h297l12 -22l-43 -76q-68 13 -266 18v-499q0 -102 7.5 -162t30 -99t58 -53t96.5 -16v-43q-164 12 -248 12q-79 0 -239 -12v43q94 3 129 73t35 257v499h-510v-499q0 -197 38 -263t154 -67v-43
q-172 12 -256 12q-77 0 -229 -12v43q93 3 127.5 73t34.5 257v499q-84 0 -162 -16l-12 16l51 80h123q5 117 32.5 215t82.5 180t149.5 128.5t220.5 46.5q92 0 159.5 -32.5t123.5 -103.5q67 81 151 121.5t199 40.5q130 0 203 -52.5t73 -143.5q0 -65 -41.5 -110.5t-99.5 -45.5
q-15 0 -29 2q19 38 19 82q0 84 -50 136t-135 52q-58 0 -104.5 -23.5t-76.5 -65.5t-51 -91.5t-32 -111.5t-16 -114t-6 -110z" />
    <glyph glyph-name="f_f_i" unicode="ffi" horiz-adv-x="1875" 
d="M883 866h-510v-499q0 -197 38 -263t154 -67v-43q-172 12 -256 12q-77 0 -229 -12v43q93 3 127.5 73t34.5 257v499q-84 0 -162 -16l-12 16l51 80h123q5 117 32.5 215t82.5 180t149.5 128.5t220.5 46.5q92 0 159.5 -32.5t123.5 -103.5q74 85 159.5 123.5t200.5 38.5
q131 0 209 -53t78 -143q0 -65 -41.5 -110.5t-99.5 -45.5q-4 0 -14 1t-15 1q18 37 18 82q0 83 -54 135.5t-140 52.5q-286 0 -297 -516h252q270 0 405 10q-16 -143 -16 -378v-211q0 -184 33 -254t122 -76v-43q-113 12 -217 12q-105 0 -223 -12v43q89 6 121.5 76t32.5 254v182
q0 197 -37 270q-13 28 -37 37.5t-80 9.5h-356v-499q0 -102 7.5 -162t30 -99t58 -53t96.5 -16v-43q-164 12 -248 12q-79 0 -239 -12v43q94 3 129 73t35 257v499zM883 946q0 138 35 258q-58 234 -240 234q-290 0 -305 -492h510z" />
    <glyph glyph-name="f_f_l" unicode="ffl" horiz-adv-x="1867" 
d="M881 866h-508v-499q0 -197 38 -263t154 -67v-43q-111 12 -256 12q-100 0 -229 -12v43q93 3 127.5 73t34.5 257v499q-84 0 -162 -16l-12 16l51 80h123q0 264 130 417t353 153q92 0 159.5 -33t125.5 -105q134 162 352 162q52 0 113 -12l202 12q-26 -166 -26 -440v-733
q0 -181 30.5 -251t116.5 -79v-43q-94 12 -219 12q-117 0 -219 -12v43q92 3 127 73.5t35 256.5v688q0 124 -6 223q-6 101 -48 143.5t-133 42.5q-323 0 -323 -518h297l14 -22l-45 -76q-94 15 -266 18v-499q0 -103 8 -163.5t31 -99t59.5 -52.5t97.5 -15v-43q-120 12 -250 12
q-121 0 -241 -12v43q95 3 129.5 72.5t34.5 257.5v499zM881 946q0 151 37 258q-58 234 -242 234q-154 0 -228.5 -128t-74.5 -364h508z" />
    <glyph glyph-name=".notdef" horiz-adv-x="1024" 
d="M0 0v1434h1024v-1434h-1024zM512 809l348 522h-696zM573 717l349 -522v1044zM164 102h696l-348 523zM102 1239v-1044l349 522z" />
    <glyph glyph-name=".null" horiz-adv-x="0" 
 />
    <glyph glyph-name="nonmarkingreturn" horiz-adv-x="682" 
 />
    <glyph glyph-name="space" unicode=" " horiz-adv-x="512" 
 />
    <glyph glyph-name="exclam" unicode="!" horiz-adv-x="618" 
d="M403 1382l35 -24q-43 -205 -64.5 -413t-21.5 -523q-42 -24 -71 -49l-27 20q-3 678 -37 934q96 14 186 55zM309 217q48 0 82.5 -35t34.5 -84t-34.5 -82.5t-82.5 -33.5q-50 0 -84.5 33.5t-34.5 82.5q0 50 35 84.5t84 34.5z" />
    <glyph glyph-name="quotedbl" unicode="&#x22;" horiz-adv-x="694" 
d="M258 1397l29 -19q-43 -229 -43 -446l-82 -27l-25 8q0 192 -31 459q86 7 152 25zM559 1397l29 -19q-43 -229 -43 -446l-82 -27l-25 8q0 201 -30 459q84 7 151 25z" />
    <glyph glyph-name="numbersign" unicode="#" 
d="M649 446h-280l-78 -319h-131l78 319h-228l19 74h227l80 332h-227l16 76h227l76 311h131l-76 -311h281l76 311h131l-76 -311h227l-16 -76h-227l-80 -332h227l-18 -74h-228l-75 -319h-134zM668 520l80 332h-283l-78 -332h281z" />
    <glyph glyph-name="dollar" unicode="$" 
d="M508 1540h90v-180q152 -6 234.5 -55t82.5 -134q0 -58 -37.5 -91t-103.5 -33q-25 0 -59 10q33 47 33 104q0 60 -39.5 94t-110.5 37v-491q63 -31 99 -50.5t81.5 -46.5t70 -48t51.5 -50.5t39.5 -59.5t21 -68.5t8.5 -84.5q0 -158 -99.5 -260t-271.5 -121v-209h-90v207
q-164 0 -262.5 60.5t-98.5 160.5q0 73 53.5 122.5t131.5 49.5q23 0 43 -4q-49 -57 -49 -139q0 -169 182 -184v600q-152 77 -196 108q-96 66 -119 159q-9 37 -9 83q0 135 88.5 226t235.5 104v184zM508 1284q-85 -14 -131.5 -70t-46.5 -145q0 -79 41 -132t137 -99v446zM598 82
q101 12 162 87t61 187q0 97 -44.5 152.5t-178.5 126.5v-553z" />
    <glyph glyph-name="percent" unicode="%" horiz-adv-x="1613" 
d="M500 12q-53 -20 -81 -35.5t-75 -48.5l-22 19l704 1231q-99 -31 -180 -31q-96 0 -158 41q29 -88 29 -184q0 -173 -80 -270t-225 -97q-148 0 -229 99.5t-81 281.5q0 170 84.5 269t229.5 99q57 0 57 -30q0 -19 -29 -19q-95 -3 -148.5 -84.5t-53.5 -222.5q0 -143 48.5 -229
t129.5 -86q75 0 117.5 73t42.5 203q0 138 -48 234q-38 17 -38 47q0 24 30 40.5t56 16.5q42 0 71 -53q90 -53 207 -53q65 0 108 8.5t115 36.5q95 118 158 118q20 0 49 -27t29 -48q0 -25 -41.5 -54t-106.5 -49zM1511 350q0 -178 -79.5 -274t-227.5 -96q-149 0 -229 95.5
t-80 274.5q0 178 81 277.5t224 99.5q150 0 230.5 -97.5t80.5 -279.5zM1372 319q0 37 -3 74t-13.5 85.5t-28 84.5t-50 61t-75.5 25q-78 0 -123 -73.5t-45 -202.5q0 -144 49 -232t129 -88q74 0 117 70t43 196z" />
    <glyph glyph-name="ampersand" unicode="&#x26;" horiz-adv-x="1495" 
d="M827 668l62 106q129 -24 285 -24q208 0 260 106h16q-12 -95 -37.5 -147.5t-58.5 -70t-86 -17.5h-205q20 -58 20 -123q0 -145 -96 -269q137 -92 240 -92q55 0 87 18.5t68 71.5l39 -24q-75 -127 -124.5 -175t-108.5 -48q-39 0 -97 24.5t-100.5 49.5t-92.5 57q-10 7 -15 10
q-165 -141 -389 -141q-184 0 -288 91.5t-104 254.5q0 131 68 225.5t231 189.5q-36 99 -36 183q0 154 91.5 250t239.5 96q104 0 181 -71.5t77 -166.5q0 -29 -18 -50t-70 -52l-315 -189q123 -265 373 -467q75 93 75 211q0 80 -41 120t-116 40zM524 813q151 89 211 140.5
t60 93.5q0 43 -42 99t-104 56q-70 0 -110.5 -55t-40.5 -150q0 -93 26 -184zM428 666q-90 -61 -129 -128.5t-39 -160.5q0 -132 84.5 -214.5t220.5 -82.5q153 0 258 92q-140 109 -234 225.5t-161 268.5z" />
    <glyph glyph-name="quotesingle" unicode="'" horiz-adv-x="393" 
d="M258 1397l29 -19q-43 -229 -43 -446l-82 -27l-25 8q0 233 -31 459q84 7 152 25z" />
    <glyph glyph-name="parenleft" unicode="(" horiz-adv-x="602" 
d="M481 1554l25 -51q-144 -107 -196 -349.5t-52 -688.5q0 -389 53.5 -589.5t194.5 -352.5l-37 -37q-136 72 -212 185t-112 310t-36 517q0 124 3 217t12.5 194.5t26 177t44 151t66.5 131t94 104t126 81.5z" />
    <glyph glyph-name="parenright" unicode=")" horiz-adv-x="602" 
d="M121 1559q71 -33 126 -81.5t94 -104t67 -131.5t44.5 -151.5t26 -176.5t12.5 -194.5t3 -217.5q0 -320 -36 -517t-112.5 -310t-212.5 -185l-37 37q141 152 194.5 352.5t53.5 589.5q0 446 -52 688.5t-196 349.5z" />
    <glyph glyph-name="asterisk" unicode="*" horiz-adv-x="1032" 
d="M438 1571l152 35l20 -25l-69 -291l274 119l53 -127l-18 -37h-301l229 -196l-92 -103h-35l-135 266l-131 -266h-37l-88 101l223 198h-301l-18 37l45 127l283 -119z" />
    <glyph glyph-name="plus" unicode="+" 
d="M508 1149h117v-393h393v-107h-393v-401h-117v401h-393v107h393v393z" />
    <glyph glyph-name="comma" unicode="," horiz-adv-x="573" 
d="M137 139l-8 19q53 35 109 58.5t88 23.5q41 0 59 -33t18 -107q0 -98 -49 -187.5t-164 -201.5l-36 33q108 133 108 252q0 64 -34 103.5t-91 39.5z" />
    <glyph glyph-name="hyphen" unicode="-" horiz-adv-x="657" 
d="M575 705v-158q-247 -66 -493 -154v156q198 48 493 156z" />
    <glyph glyph-name="period" unicode="." horiz-adv-x="571" 
d="M287 225q51 0 86 -36t35 -87t-35 -86.5t-86 -35.5t-87 35.5t-36 86.5t36 87t87 36z" />
    <glyph glyph-name="slash" unicode="/" horiz-adv-x="890" 
d="M694 1591l115 -41l-729 -2115l-115 39z" />
    <glyph glyph-name="zero" unicode="0" 
d="M1034 700q3 -720 -473 -720q-229 0 -347 178.5t-118 523.5q0 346 118 525t347 179q232 0 352.5 -174.5t120.5 -511.5zM868 645q0 318 -81.5 495t-229.5 177q-143 0 -219 -158t-76 -454q0 -306 83.5 -481t229.5 -175q57 0 102.5 24t75.5 61.5t52 92.5t34 106.5t19 114.5
t8.5 106t1.5 91z" />
    <glyph glyph-name="one" unicode="1" 
d="M762 1417l31 -43q-21 -17 -37 -39t-26.5 -40.5t-17.5 -48t-11 -47.5t-5.5 -53.5t-2 -50t0 -54t0.5 -50.5v-622v-23v-56.5t3 -55.5t8.5 -57.5t16.5 -50t27 -44.5t41.5 -28.5t57.5 -14.5v-45q-140 12 -260 12q-118 0 -240 -12v45q84 4 126 33t58.5 96t16.5 201v790
q-149 -121 -334 -178l37 154q274 91 510 282z" />
    <glyph glyph-name="two" unicode="2" 
d="M958 362h43q-9 -61 -18.5 -107t-22 -91.5t-27.5 -77t-34 -57t-43.5 -37.5t-54.5 -12q-32 0 -236.5 14t-384.5 14q-35 -28 -67 -28q-20 0 -32.5 10.5t-12.5 29.5q0 33 39.5 74.5t72.5 46.5q563 600 563 938q0 106 -58.5 168t-158.5 62q-89 0 -141.5 -43t-52.5 -115
q0 -43 15.5 -72.5t53.5 -58.5q-57 -29 -110 -29q-61 0 -96 33t-35 92q0 112 122.5 191t297.5 79q335 0 335 -301q0 -70 -25 -148.5t-53.5 -140t-94.5 -148.5t-101 -131.5t-124 -134.5t-112 -112t-114 -107q-15 -15 -23 -22q91 0 238 -6t203 -6q104 0 160.5 52.5t88.5 180.5z
" />
    <glyph glyph-name="three" unicode="3" 
d="M678 784q149 -25 221 -109.5t72 -232.5q0 -210 -142.5 -336t-377.5 -126q-151 0 -234.5 54t-83.5 152q0 73 50 119.5t128 46.5q19 0 37 -4q-39 -58 -39 -119q0 -80 51 -128t136 -48q133 0 221 104.5t88 262.5q0 245 -213 315q-152 -63 -225 -63q-25 0 -39.5 13.5
t-14.5 37.5q0 78 209 78q37 0 70 -4q86 53 134 130t48 165q0 101 -57.5 161t-153.5 60q-87 0 -140.5 -45t-53.5 -117q0 -43 15.5 -71.5t53.5 -59.5q-57 -29 -112 -29q-61 0 -96 33t-35 92q0 115 122.5 192.5t305.5 77.5q152 0 232.5 -69t80.5 -201q0 -107 -59 -182.5
t-199 -149.5z" />
    <glyph glyph-name="four" unicode="4" 
d="M854 344v-336l-127 -33l-16 15v366q-172 21 -365 21q-124 0 -225 -12q-19 -27 -31 -36.5t-29 -9.5q-20 0 -31.5 13t-11.5 35q0 34 31.5 68.5t71.5 43.5q15 32 78 158.5t101.5 209.5t75 193t36.5 179q0 38 -14.5 59.5t-39.5 21.5q-24 0 -79 -28l-17 37q145 77 246 77
q47 0 72.5 -23t25.5 -65q0 -62 -85 -236.5t-170 -318.5t-156 -256q117 13 227 13q168 0 289 -17v537q57 13 110 45l33 -27v-565q78 0 124.5 59t68.5 177h36q-21 -214 -61.5 -290.5t-138.5 -76.5q-13 0 -29 2z" />
    <glyph glyph-name="five" unicode="5" 
d="M905 1503h43q-18 -135 -46.5 -202.5t-79 -95t-144.5 -27.5q-159 0 -338 43q14 -105 14 -220q0 -105 -14 -208q71 51 135.5 73.5t142.5 22.5q169 0 270 -113t101 -301q0 -227 -142.5 -361t-385.5 -134q-153 0 -234.5 52t-81.5 150q0 75 50 122.5t129 47.5q18 0 38 -2
q-40 -54 -40 -123q0 -79 50.5 -126.5t135.5 -47.5q141 0 226 107t85 282q0 154 -74 246t-198 92q-109 0 -217 -67q-3 -46 -25.5 -70.5t-60.5 -24.5q-49 0 -49 39q0 41 38 66q27 152 27 276q0 137 -47 361l20 16q209 -43 388 -43q136 0 192.5 34t91.5 136z" />
    <glyph glyph-name="six" unicode="6" 
d="M444 678q58 70 122.5 104.5t152.5 34.5q141 0 221 -96.5t80 -267.5q0 -216 -121 -344.5t-324 -128.5q-217 0 -334.5 133t-117.5 376q0 292 171 535t492 406l29 -52q-254 -158 -386 -382.5t-132 -497.5q0 -214 77 -331.5t216 -117.5q120 0 190 99.5t70 267.5
q0 135 -56 209.5t-159 74.5q-88 0 -164 -53z" />
    <glyph glyph-name="seven" unicode="7" 
d="M199 1010h-45q45 232 100 307q40 55 119 55q23 0 194 -11t275 -11q83 0 123 4q26 47 63 47q18 0 30.5 -11t12.5 -26q0 -40 -25.5 -80.5t-58.5 -52.5q-161 -346 -271.5 -636.5t-170.5 -574.5l-195 -53l-16 33q190 585 567 1225q-113 -11 -239 -11q-40 0 -113.5 2.5
t-102.5 2.5q-104 0 -158.5 -46.5t-88.5 -162.5z" />
    <glyph glyph-name="eight" unicode="8" 
d="M715 758q154 -77 215 -160.5t61 -218.5q0 -187 -117.5 -293t-324.5 -106q-195 0 -300.5 92t-105.5 262q0 141 73.5 236t229.5 153q-124 50 -187.5 122.5t-63.5 192.5q0 157 111 252.5t294 95.5q170 0 267.5 -82t97.5 -227q0 -110 -60.5 -187.5t-189.5 -131.5zM657 786
q85 54 120.5 116t35.5 157q0 118 -63.5 188t-169.5 70q-103 0 -167.5 -61.5t-64.5 -161.5q0 -60 22 -106.5t72.5 -84t83.5 -55t103 -49.5q19 -9 28 -13zM520 690q-117 -54 -173 -135.5t-56 -198.5q0 -140 76.5 -222.5t205.5 -82.5q120 0 191.5 77t71.5 206q0 57 -18 106.5
t-46.5 85t-72 67.5t-84.5 53.5t-95 43.5z" />
    <glyph glyph-name="nine" unicode="9" 
d="M688 717q-42 -58 -116.5 -100t-157.5 -42q-133 0 -215 99t-82 260q0 206 123.5 329t328.5 123q212 0 325.5 -128.5t113.5 -368.5q0 -611 -660 -952l-26 53q256 162 386 383.5t130 492.5q0 216 -75.5 333.5t-213.5 117.5q-118 0 -189 -92t-71 -246q0 -133 55 -209t152 -76
q84 0 166 60z" />
    <glyph glyph-name="colon" unicode=":" horiz-adv-x="571" 
d="M287 217q47 0 81.5 -35t34.5 -84t-34 -82.5t-82 -33.5q-50 0 -84.5 33.5t-34.5 82.5q0 50 35 84.5t84 34.5zM287 965q47 0 81.5 -35t34.5 -84q0 -47 -34.5 -82t-81.5 -35q-49 0 -84 34.5t-35 82.5q0 50 35 84.5t84 34.5z" />
    <glyph glyph-name="semicolon" unicode=";" horiz-adv-x="573" 
d="M137 139l-8 19q53 35 109 58.5t88 23.5q41 0 59 -33t18 -107q0 -98 -49 -187.5t-164 -201.5l-34 37q106 131 106 248q0 64 -34 103.5t-91 39.5zM274 965q48 0 82.5 -35t34.5 -84q0 -47 -35 -82t-82 -35q-49 0 -83.5 34.5t-34.5 82.5q0 50 34.5 84.5t83.5 34.5z" />
    <glyph glyph-name="less" unicode="&#x3c;" 
d="M195 698l661 492l72 -90l-543 -398l543 -399l-72 -88z" />
    <glyph glyph-name="equal" unicode="=" 
d="M135 911h864v-114h-864v114zM135 610h864v-114h-864v114z" />
    <glyph glyph-name="greater" unicode="&#x3e;" 
d="M938 698l-662 -483l-71 88l543 399l-543 398l71 90z" />
    <glyph glyph-name="question" unicode="?" horiz-adv-x="886" 
d="M539 504l16 -33q-128 -82 -221 -82q-46 0 -70 27t-24 78q0 59 45 126t155 175q116 115 156.5 180.5t40.5 136.5q0 91 -48.5 146t-129.5 55q-72 0 -117 -42t-45 -110q0 -73 55 -117q-47 -28 -104 -28t-91 33.5t-34 91.5q0 104 107.5 174.5t267.5 70.5q136 0 211 -62.5
t75 -176.5q0 -48 -10.5 -86t-38.5 -76.5t-56 -67.5t-83 -79q-109 -100 -156 -158t-47 -113q0 -37 20.5 -62.5t51.5 -25.5q32 0 74 25zM410 217q49 0 83.5 -34.5t34.5 -84.5q0 -49 -34 -82.5t-84 -33.5q-48 0 -82.5 33.5t-34.5 82.5t34.5 84t82.5 35z" />
    <glyph glyph-name="at" unicode="@" horiz-adv-x="1558" 
d="M1020 1042l102 13l27 -19q-46 -118 -82.5 -290.5t-36.5 -278.5q0 -54 13.5 -75t66.5 -21q112 0 190 121.5t78 293.5q0 237 -157.5 390t-399.5 153q-267 0 -438.5 -195.5t-171.5 -502.5q0 -278 149.5 -433t411.5 -155q202 0 336 61l25 -75q-171 -70 -373 -70
q-314 0 -503 180t-189 479q0 219 100 400t274.5 285t386.5 104q138 0 261.5 -47.5t212.5 -129t140.5 -195t51.5 -240.5q0 -217 -122.5 -357.5t-311.5 -140.5q-89 0 -117.5 18.5t-28.5 59.5q0 38 13 137l16 115q-103 -168 -179.5 -242t-148.5 -74q-63 0 -101 63.5t-38 166.5
q0 137 51.5 254t139 185.5t190.5 68.5q46 0 78.5 -12.5t71.5 -45.5zM596 559q0 -59 21 -96t55 -37q73 0 196 190q55 84 87 160t32 121q0 40 -31.5 64t-85.5 24q-107 0 -190.5 -129.5t-83.5 -296.5z" />
    <glyph glyph-name="A" unicode="A" horiz-adv-x="1318" 
d="M887 467h-535l-57 -150q-29 -80 -29 -139q0 -67 32.5 -100t104.5 -39v-45q-98 12 -194 12t-209 -12v35q58 16 108 97.5t113 244.5l266 688q35 90 43.5 119t8.5 57q0 43 -30.5 62t-102.5 22v43q33 -2 69 -2q100 0 223 20q37 -129 80 -237l338 -867q47 -122 88 -177.5
t94 -69.5v-35q-120 12 -229 12q-108 0 -233 -12v45q71 7 108 33t37 92q0 64 -43 172zM852 553l-236 604l-231 -604h467z" />
    <glyph glyph-name="B" unicode="B" horiz-adv-x="1230" 
d="M727 737q203 -31 296 -121t93 -256q0 -178 -113.5 -272t-326.5 -94q-75 0 -189 6t-149 6q-121 0 -227 -12v45q38 0 65 15t44.5 41t27.5 68.5t14 91t4 114.5v628q0 171 -30.5 247.5t-124.5 82.5v45q91 -12 219 -12q52 0 157.5 6t157.5 6q213 0 312.5 -70.5t99.5 -222.5
q0 -274 -330 -342zM418 762q33 -4 78 -4q397 0 397 268q0 127 -84.5 198.5t-233.5 71.5q-97 0 -157 -28v-506zM418 688v-307q0 -128 8 -191q11 -66 51.5 -93t132.5 -27q180 0 258 67.5t78 224.5q0 166 -113.5 247t-345.5 81q-34 0 -69 -2z" />
    <glyph glyph-name="C" unicode="C" horiz-adv-x="1329" 
d="M1163 971h-51q-37 173 -123 256.5t-229 83.5q-217 0 -341 -169t-124 -462q0 -295 118 -460t330 -165q319 0 490 340l49 -18q-61 -149 -94 -326q-198 -71 -436 -71q-637 0 -637 671q0 353 176.5 544t503.5 191q183 0 368 -55q-10 -88 -10 -164q0 -79 10 -196z" />
    <glyph glyph-name="D" unicode="D" horiz-adv-x="1505" 
d="M111 1372q108 -12 225 -12q37 0 141 6t164 6q391 0 569.5 -161t178.5 -513q0 -344 -174.5 -524t-507.5 -180q-103 0 -221 6t-146 6q-118 0 -229 -12v45q91 7 123 76t32 254v628q0 183 -32 252t-123 78v45zM418 1266v-891q0 -145 18 -219q12 -49 53.5 -66.5t143.5 -17.5
q311 0 449.5 136.5t138.5 442.5q0 318 -153 480.5t-452 162.5q-119 0 -198 -28z" />
    <glyph glyph-name="E" unicode="E" horiz-adv-x="1196" 
d="M418 1286v-516h151q52 0 84 2t72 10t65 23.5t47 44t33 70.5h43q-18 -108 -18 -197q0 -81 18 -186h-45q-11 35 -25 59.5t-35.5 40t-38.5 24t-51.5 12.5t-56.5 4.5t-69 0.5h-12h-162v-297q0 -238 53 -285q30 -24 119 -24q203 0 309.5 63.5t175.5 224.5l45 -24
q-86 -216 -119 -354q-148 18 -389 18h-258q-129 0 -243 -6v45q91 7 123 76t32 254v628q0 183 -32 252t-123 78v45q117 -6 270 -6h223q213 0 361 12q0 -123 36 -307l-43 -14q-26 94 -72.5 141.5t-133.5 67.5t-246 20h-88z" />
    <glyph glyph-name="F" unicode="F" horiz-adv-x="1062" 
d="M418 1286v-545h153q65 0 107 4.5t84 19.5t67.5 46t38.5 80h41q-12 -108 -12 -195q0 -84 12 -190h-41q-13 78 -82.5 112.5t-210.5 34.5h-157v-284q0 -99 6 -155.5t26.5 -98.5t57 -58t98.5 -18v-45q-120 12 -266 12q-111 0 -229 -12v45q91 7 123 76t32 254v628
q0 183 -32 252t-123 78v45q117 -6 307 -6h340q120 0 215 12q0 -160 31 -305l-46 -14q-29 130 -129 178.5t-321 48.5h-90z" />
    <glyph glyph-name="G" unicode="G" horiz-adv-x="1396" 
d="M1163 967h-51q-65 342 -350 342q-221 0 -344 -167.5t-123 -465.5q0 -296 121.5 -457.5t345.5 -161.5q92 0 165 25t115 70q39 42 39 151q0 97 -32 135.5t-117 46.5v45q92 -12 190 -12q93 0 189 12v-41q-47 -7 -61.5 -46t-14.5 -158v-131l53 -50q-236 -124 -547 -124
q-309 0 -467.5 170t-158.5 501q0 353 176 544t500 191q190 0 372 -57q-12 -71 -12 -162q0 -109 12 -200z" />
    <glyph glyph-name="H" unicode="H" horiz-adv-x="1572" 
d="M418 760h737v237q0 183 -32 252t-124 78v45q118 -12 232 -12q111 0 231 12v-45q-91 -9 -123 -78t-32 -252v-628q0 -185 32 -254t123 -76v-45q-120 12 -231 12q-112 0 -232 -12v45q92 7 124 76.5t32 253.5v305h-737v-305q0 -184 31.5 -253.5t123.5 -76.5v-45
q-122 12 -235 12q-107 0 -227 -12v45q91 7 123 76t32 254v628q0 183 -32 252t-123 78v45q120 -12 227 -12q113 0 235 12v-45q-93 -9 -124 -77.5t-31 -252.5v-237z" />
    <glyph glyph-name="I" unicode="I" horiz-adv-x="684" 
d="M573 39v-45q-120 12 -233 12q-111 0 -229 -12v45q91 7 123 76t32 254v628q0 183 -32 252t-123 78v45q110 -12 229 -12q118 0 233 12v-45q-91 -9 -123 -78t-32 -252v-628q0 -185 32 -254t123 -76z" />
    <glyph glyph-name="J" unicode="J" horiz-adv-x="849" 
d="M233 262q-24 -27 -33.5 -49t-9.5 -55q0 -46 27.5 -73.5t71.5 -27.5q42 0 72.5 14t52 46t35 74.5t21 110.5t10.5 142.5t3 180.5v372q0 183 -32 252t-123 78v45q110 -12 229 -12t234 12v-45q-92 -9 -124 -78t-32 -252v-372q0 -79 -1 -125.5t-6 -116.5t-16.5 -111.5
t-30 -94.5t-49 -83.5t-72.5 -59.5t-100.5 -41.5t-132.5 -12.5q-219 0 -219 137q0 66 50 108.5t128 42.5q26 0 47 -6z" />
    <glyph glyph-name="K" unicode="K" horiz-adv-x="1404" 
d="M573 39v-45q-120 12 -233 12q-111 0 -229 -12v45q91 7 123 76t32 254v628q0 183 -32 252t-123 78v45q110 -12 229 -12q118 0 233 12v-45q-91 -9 -123 -78t-32 -252v-628q0 -185 32 -254t123 -76zM606 770q26 -3 52 -15.5t42.5 -23t42.5 -36.5t34 -35.5t36 -41.5l324 -368
q163 -186 280 -223v-33h-157q-39 0 -55 1.5t-37.5 6t-38.5 19t-38 35t-55 59.5l-377 428q-59 68 -114 113.5t-123 72.5l381 324q87 73 133.5 125.5t46.5 89.5q0 57 -88 57v47q94 -12 213 -12q97 0 207 12v-37q-146 -91 -314 -231z" />
    <glyph glyph-name="L" unicode="L" horiz-adv-x="1118" 
d="M111 1372q131 -12 227 -12q89 0 225 12v-45q-84 -10 -114.5 -79.5t-30.5 -250.5v-616q0 -238 53 -285q30 -24 119 -24q203 0 309.5 63.5t175.5 224.5l45 -24q-86 -216 -119 -354q-148 18 -389 18h-258q-129 0 -243 -6v45q91 7 123 76t32 254v628q0 183 -32 252t-123 78
v45z" />
    <glyph glyph-name="M" unicode="M" horiz-adv-x="1843" 
d="M913 184l353 858q77 188 114 330q86 -12 160 -12q76 0 150 12v-43q-65 -9 -99.5 -64.5t-34.5 -150.5q0 -52 17 -295l22 -338q16 -234 51.5 -331t129.5 -115v-41q-110 12 -217 12q-116 0 -234 -12v43q137 12 137 176q0 81 -6 160l-51 772l-338 -821q-64 -152 -111 -330
h-122l-455 1151l-51 -676q-9 -153 -9 -195q0 -122 34 -174.5t120 -64.5v-41q-106 12 -209 12q-99 0 -217 -12v41q61 3 97 40t57.5 123t34.5 244l38 502q11 129 11 174q0 103 -28 151.5t-93 59.5v43q85 -12 160 -12q69 0 149 12q29 -127 94 -295z" />
    <glyph glyph-name="N" unicode="N" horiz-adv-x="1519" 
d="M1188 256v741q0 59 -2.5 100.5t-11 87t-24.5 73.5t-45 47.5t-69 21.5v45q117 -12 201 -12q95 0 203 12v-45q-50 -3 -81.5 -27t-47 -71.5t-20.5 -99.5t-5 -132v-487q0 -301 10 -516h-104l-842 1173v-798q0 -62 2.5 -104t11 -86.5t24.5 -71.5t44.5 -45.5t69.5 -22.5v-45
q-108 12 -199 12q-99 0 -201 -12v45q33 3 57.5 14t40.5 32.5t26.5 47t16 64.5t7.5 78t2 94v628q0 44 -0.5 71.5t-4 65.5t-9 61.5t-16.5 49.5t-27 41.5t-39.5 26.5t-53.5 14v45q90 -12 164 -12q82 0 158 12q61 -125 145 -244z" />
    <glyph glyph-name="O" unicode="O" horiz-adv-x="1517" 
d="M1403 684q0 -704 -664 -704q-311 0 -467.5 172.5t-156.5 515.5q0 344 175 531t498 187q305 0 460 -177t155 -525zM1223 666q0 316 -116 480.5t-339 164.5q-221 0 -346 -167.5t-125 -465.5q0 -299 120 -461t341 -162q226 0 345.5 157.5t119.5 453.5z" />
    <glyph glyph-name="P" unicode="P" horiz-adv-x="1130" 
d="M414 649v-280q0 -99 6 -155.5t26.5 -98.5t57 -58t98.5 -18v-45q-117 12 -262 12q-118 0 -229 -12v45q91 7 123 76t32 254v628q0 183 -32 252t-123 78v45q114 -12 221 -12q56 0 171 6t177 6q389 0 389 -330q0 -190 -133 -299.5t-363 -109.5q-89 0 -159 16zM414 727
q59 -16 141 -16q172 0 265 75.5t93 214.5t-92.5 216t-259.5 77q-94 0 -147 -22v-545z" />
    <glyph glyph-name="Q" unicode="Q" horiz-adv-x="1515" 
d="M1468 -176l35 -17q-71 -167 -126.5 -230.5t-137.5 -63.5q-32 0 -77.5 7t-114.5 25t-117.5 31.5t-144.5 44t-134.5 43t-148.5 49.5t-129 43q-59 -26 -88 -26q-39 0 -39 30q0 39 75 73t125 34q3 0 31 -4q87 21 143.5 43t147.5 69q-118 -1 -213 18t-178.5 67t-139.5 124.5
t-88 195t-32 273.5q0 352 173.5 542.5t495.5 190.5q303 0 459 -177t156 -521q0 -127 -19 -227.5t-62.5 -184t-106 -148t-156.5 -119.5t-207.5 -97.5t-265.5 -83.5q472 -158 661 -158q66 0 120.5 34.5t102.5 119.5zM1225 670q0 308 -119.5 474.5t-339.5 166.5
q-218 0 -345.5 -170.5t-127.5 -462.5q0 -299 122 -464t343 -165q105 0 187 36t134 94.5t85.5 140.5t47 167.5t13.5 182.5z" />
    <glyph glyph-name="R" unicode="R" horiz-adv-x="1320" 
d="M416 698v-329q0 -185 32 -254t123 -76v-45q-91 12 -233 12q-130 0 -229 -12v45q92 7 124.5 76.5t32.5 253.5v628q0 182 -32.5 251.5t-124.5 78.5v45q95 -12 208 -12q45 0 160 6t160 6q225 0 328.5 -76.5t103.5 -242.5q0 -140 -80 -224t-244 -118q29 -10 53 -27
t50.5 -49.5t38 -49t41.5 -61.5l155 -233q32 -48 52.5 -76.5t55.5 -71.5t71 -71t73 -41v-37h-168q-59 0 -78 8.5t-47 50.5l-260 402q-47 74 -105.5 141.5t-101.5 89.5q-110 0 -159 12zM416 772q69 -16 149 -16q168 0 257 66t89 190q0 132 -93 205t-259 73q-94 0 -143 -18
v-500z" />
    <glyph glyph-name="S" unicode="S" horiz-adv-x="1085" 
d="M924 983h-50q-32 160 -114 243t-211 83q-114 0 -181 -60.5t-67 -163.5q0 -38 6.5 -68t26 -56t38 -44t60 -41.5t73 -38.5t95.5 -44t104.5 -49.5t88 -49.5t75.5 -57t53.5 -65t36.5 -82t11 -99q0 -193 -132 -302t-364 -109q-90 0 -192 16.5t-179 42.5q9 88 9 162
q0 76 -9 184h56q13 -150 104 -237t234 -87q142 0 226.5 77t84.5 208q0 61 -16.5 105t-59.5 81.5t-91 64t-138 67.5q-46 21 -67.5 31.5t-60.5 30t-58 32t-49 33t-44.5 37.5t-33.5 41t-27 48t-14.5 54t-6.5 63q0 161 124 256.5t331 95.5q181 0 328 -47q-11 -86 -11 -157
q0 -84 11 -199z" />
    <glyph glyph-name="T" unicode="T" horiz-adv-x="1140" 
d="M649 1290v-921q0 -184 32 -253.5t124 -76.5v-45q-111 12 -234 12q-118 0 -235 -12v45q92 7 124 76.5t32 253.5v921q-82 0 -134.5 -3.5t-106 -16.5t-86 -37t-58.5 -65.5t-39 -102.5h-48q30 163 39 313q166 -12 357 -12h309q193 0 356 12q8 -144 39 -313h-47q-13 58 -36 98
t-55 65.5t-83 39t-108 18t-142 4.5z" />
    <glyph glyph-name="U" unicode="U" horiz-adv-x="1521" 
d="M1106 -6v356q-91 -192 -211.5 -281t-288.5 -89q-73 0 -131 14t-98 37t-69 60t-46 76t-27 92.5t-13 101.5t-3 110v526q0 183 -32 252t-124 78v45q110 -12 228 -12t233 12v-45q-91 -9 -123 -78t-32 -252v-471q0 -216 60.5 -309.5t215.5 -93.5q144 0 262 87t199 228v559
q0 183 -32 252t-124 78v45q110 -12 228 -12t233 12v-45q-92 -9 -124 -78t-32 -252v-628q0 -186 30.5 -254.5t121.5 -75.5v-45q-73 8 -150 8q-85 0 -151 -8z" />
    <glyph glyph-name="V" unicode="V" horiz-adv-x="1249" 
d="M670 231l268 703q76 194 76 270q0 59 -36 89t-112 36v43q122 -12 205 -12q91 0 213 12v-35q-103 -18 -246 -395l-221 -573q-76 -199 -119 -375h-102l-385 962q-73 185 -122.5 271t-111.5 110v35q89 -12 213 -12q137 0 248 12v-43q-73 -6 -106 -35t-33 -88q0 -33 11 -72.5
t46 -125.5z" />
    <glyph glyph-name="W" unicode="W" horiz-adv-x="2021" 
d="M1018 954l-225 -624q-68 -192 -107 -336h-113l-358 960q-51 136 -91.5 215.5t-72.5 113.5t-74 54v35q108 -12 220 -12q109 0 241 12v-43q-135 -6 -135 -121q0 -57 53 -200l295 -799l314 883q-45 114 -87.5 170t-97.5 75v35q123 -12 240 -12q96 0 225 12v-43
q-139 -9 -139 -121q0 -67 65 -241l281 -744l256 715q72 201 72 266q0 122 -144 125v43q132 -12 217 -12q92 0 203 12v-35q-109 -14 -260 -432l-201 -555q-76 -213 -110 -356h-105z" />
    <glyph glyph-name="X" unicode="X" horiz-adv-x="1363" 
d="M717 821l223 285q70 88 70 139q0 40 -26.5 58t-94.5 22v47q120 -12 209 -12q95 0 209 12v-35q-49 -16 -129.5 -97t-165.5 -189l-246 -308l295 -426q94 -136 164.5 -202.5t138.5 -85.5v-35q-114 12 -240 12q-114 0 -225 -12v45q51 1 68.5 12.5t17.5 42.5q0 29 -27 79.5
t-102 160.5l-199 293l-262 -334q-104 -129 -104 -180q0 -71 104 -74v-45q-120 12 -219 12q-96 0 -201 -12v35q84 32 182 132t238 277l211 267l-172 251q-124 182 -166 232q-91 110 -190 143l-6 2v39q114 -12 227 -12q102 0 231 12v-47q-88 -6 -88 -61q0 -25 13 -53t51 -83z
" />
    <glyph glyph-name="Y" unicode="Y" horiz-adv-x="1181" 
d="M621 690l184 307q42 72 68 137.5t26 100.5q0 88 -127 94v43q138 -12 221 -12q104 0 203 12v-31q-102 -34 -303 -374l-225 -381v-217q0 -185 32 -254t123 -76v-45q-120 12 -233 12q-112 0 -230 -12v45q92 7 124 76.5t32 253.5v196l-201 353q-42 73 -71 120t-69 104.5
t-73 92.5t-72.5 62.5t-78.5 35.5v39q120 -12 217 -12q109 0 244 12v-43q-90 0 -90 -72q0 -32 16 -72t61 -116z" />
    <glyph glyph-name="Z" unicode="Z" horiz-adv-x="1187" 
d="M152 1012l-46 14q57 267 117 311q25 19 64.5 24t111.5 5h695l12 -33q-271 -533 -834 -1183q128 0 309.5 -12.5t235.5 -12.5q117 0 174 52.5t103 203.5h47q-11 -95 -25 -164.5t-32 -112.5t-34 -69t-40.5 -37.5t-42 -14.5t-47.5 -3q-27 0 -295.5 17.5t-468.5 16.5
q-40 -34 -70 -34q-39 0 -39 38q0 46 32.5 88t72.5 46q532 661 725 1095q-93 8 -215 8q-128 0 -207.5 -9.5t-142 -36.5t-98.5 -73.5t-62 -123.5z" />
    <glyph glyph-name="bracketleft" unicode="[" horiz-adv-x="602" 
d="M174 1522q78 -4 201 -4q104 0 186 4v-97q-122 17 -242 17v-1848q113 0 242 21v-100q-86 6 -194 6q-105 0 -193 -6v2007z" />
    <glyph glyph-name="backslash" unicode="\" horiz-adv-x="890" 
d="M197 1591l729 -2117l-117 -39l-727 2115z" />
    <glyph glyph-name="bracketright" unicode="]" horiz-adv-x="602" 
d="M428 1522v-2007q-88 6 -192 6q-109 0 -195 -6v100q129 -21 242 -21v1848q-120 0 -242 -17v97q82 -4 186 -4q123 0 201 4z" />
    <glyph glyph-name="asciicircum" unicode="^" horiz-adv-x="1112" 
d="M178 721h-94l461 713h12l475 -713h-186l-338 502z" />
    <glyph glyph-name="underscore" unicode="_" horiz-adv-x="921" 
d="M0 -156h922v-106h-922v106z" />
    <glyph glyph-name="grave" unicode="`" horiz-adv-x="1024" 
d="M608 1106l-65 -29q-99 172 -226 299q41 37 67.5 53t76.5 35q104 -160 147 -358z" />
    <glyph glyph-name="a" unicode="a" horiz-adv-x="997" 
d="M934 184l33 -20q-75 -184 -201 -184q-72 0 -98.5 49.5t-26.5 179.5q-82 -123 -158.5 -176t-171.5 -53q-101 0 -159 59.5t-58 165.5q0 155 142.5 243.5t404.5 94.5v49q0 174 -40 241.5t-144 67.5q-69 0 -110.5 -38t-41.5 -101q0 -70 39 -109q-34 -14 -70 -14
q-63 0 -99 33.5t-36 93.5q0 91 101 146t266 55q145 0 211.5 -59.5t66.5 -219.5q0 -38 -3 -163.5t-3 -143.5q0 -158 15 -217.5t55 -59.5q24 0 42.5 17.5t43.5 62.5zM641 481q-185 -3 -287 -69t-102 -183q0 -63 31.5 -99t85.5 -36q64 0 134 50.5t138 144.5v192z" />
    <glyph glyph-name="b" unicode="b" horiz-adv-x="1107" 
d="M145 45l39 47v1018q0 206 -33.5 283t-127.5 84v39l315 24q-23 -155 -23 -493v-336q67 132 157 194t212 62q158 0 241 -109.5t83 -320.5q0 -557 -494 -557q-197 0 -369 65zM315 631v-252q0 -61 6 -108.5t22 -90.5t41.5 -71t67 -44t97.5 -16q145 0 226 113.5t81 316.5
q0 175 -58 268t-167 93q-88 0 -170.5 -54.5t-145.5 -154.5z" />
    <glyph glyph-name="c" unicode="c" horiz-adv-x="894" 
d="M805 244l49 -47q-101 -115 -195 -166t-204 -51q-171 0 -262 112t-91 322q0 255 131.5 404t358.5 149q103 0 158 -37.5t55 -106.5t-49.5 -117.5t-120.5 -48.5q-13 0 -27 2q35 47 35 105q0 60 -32 93.5t-89 33.5q-118 0 -195 -118t-77 -298q0 -175 75.5 -279t204.5 -104
q75 0 139.5 36t135.5 116z" />
    <glyph glyph-name="d" unicode="d" horiz-adv-x="1140" 
d="M938 1540q-16 -136 -16 -371v-772q0 -136 13.5 -210.5t45.5 -110.5t92 -45v-37q-65 10 -135 10q-67 0 -119 -10q-24 83 -28 248q-88 -138 -175 -200t-194 -62q-151 0 -235.5 117.5t-84.5 328.5q0 262 119.5 401.5t343.5 139.5q69 0 112.5 -7.5t113.5 -31.5v188
q0 138 -14.5 214.5t-48 112t-95.5 42.5v37zM791 322v217q0 199 -52.5 278.5t-183.5 79.5q-147 0 -226 -111.5t-79 -320.5q0 -173 57 -263.5t164 -90.5q157 0 320 211z" />
    <glyph glyph-name="e" unicode="e" horiz-adv-x="960" 
d="M246 559q-2 -29 -2 -63q0 -186 85 -297t226 -111q82 0 150.5 35t134.5 110l43 -43q-93 -113 -188 -161.5t-220 -48.5q-180 0 -276.5 118t-96.5 340q0 249 113.5 389t314.5 140q155 0 240.5 -82t85.5 -230q0 -52 -8 -96h-602zM258 631l444 28q3 21 3 29q0 97 -51.5 155
t-139.5 58q-97 0 -165.5 -72.5t-90.5 -197.5z" />
    <glyph glyph-name="f" unicode="f" horiz-adv-x="688" 
d="M375 946h297l12 -22l-43 -76q-93 18 -266 18v-499q0 -133 16 -200t56.5 -96.5t121.5 -33.5v-43q-143 12 -264 12q-117 0 -225 -12v43q94 2 129 72.5t35 257.5v499q-102 -4 -164 -18l-12 16l53 82h123q0 305 89.5 452.5t282.5 147.5q187 0 187 -133q0 -66 -43 -107
t-115 -42h-6q14 42 14 90q0 114 -98 114q-63 0 -102 -50t-58.5 -165.5t-19.5 -306.5z" />
    <glyph glyph-name="g" unicode="g" horiz-adv-x="1069" 
d="M373 375q-128 29 -186 95.5t-58 186.5q0 145 97 227.5t266 82.5q116 0 233 -43q201 9 213 153q78 -49 78 -125q0 -104 -127 -104q-45 0 -88 8q40 -40 56.5 -81.5t16.5 -102.5q0 -141 -97.5 -223t-266.5 -82q-24 0 -53 2q-83 -41 -118.5 -73.5t-35.5 -66.5q0 -49 50 -61.5
t239 -15.5q221 -3 320.5 -62t99.5 -203q0 -169 -152 -266.5t-414 -97.5q-193 0 -292 63t-99 185q0 197 260 268q-178 0 -178 104q0 56 54.5 109.5t181.5 122.5zM721 664q0 109 -60 175t-161 66t-159 -63t-58 -172q0 -116 58.5 -180t164.5 -64t160.5 65t54.5 173zM877 -156
q0 92 -85 139.5t-249 47.5q-169 0 -258.5 -54t-89.5 -157q0 -101 83 -158t232 -57q50 0 97 6t97.5 22.5t87.5 42.5t61 69.5t24 98.5z" />
    <glyph glyph-name="h" unicode="h" horiz-adv-x="1200" 
d="M375 1540q-25 -167 -25 -489v-340q47 86 91.5 138t113.5 85t160 33q71 0 121 -20t78 -52t44 -86t20.5 -106t4.5 -128v-208q0 -125 14.5 -194.5t47.5 -101t94 -34.5v-43q-115 12 -213 12q-92 0 -228 -12v43q89 6 121.5 76t32.5 254v172q0 161 -46.5 228t-156.5 67
q-175 0 -299 -203v-264q0 -183 33.5 -253.5t122.5 -76.5v-43q-115 12 -213 12t-234 -12v43q91 5 125.5 75.5t34.5 254.5v751q0 203 -34 280.5t-126 86.5v37z" />
    <glyph glyph-name="i" unicode="i" horiz-adv-x="591" 
d="M391 954q-16 -109 -16 -360v-227q0 -183 32.5 -253.5t120.5 -76.5v-43q-99 12 -213 12q-124 0 -229 -12v43q91 4 124.5 74.5t33.5 255.5v165q0 137 -14.5 213t-48 111.5t-95.5 42.5v37zM279 1448q44 0 76 -32.5t32 -76.5t-32 -76t-76 -32t-76.5 32t-32.5 76t32.5 76.5
t76.5 32.5z" />
    <glyph glyph-name="j" unicode="j" horiz-adv-x="546" 
d="M377 954q-9 -50 -13 -111.5t-4 -103.5t1 -117t1 -106v-469q0 -184 -22 -273.5t-86 -164.5q-47 -57 -118.5 -88t-153.5 -31q-78 0 -121 35.5t-43 99.5q0 66 47 108t119 42q16 0 30 -2q-34 -48 -34 -105q0 -44 23 -70t63 -26q165 0 165 403v557q0 207 -33 283.5t-128 83.5
v37zM268 1448q44 0 75.5 -32.5t31.5 -76.5t-31.5 -76t-75.5 -32q-45 0 -76.5 31.5t-31.5 76.5t31.5 77t76.5 32z" />
    <glyph glyph-name="k" unicode="k" horiz-adv-x="1136" 
d="M504 600q42 -16 74 -43t88 -88l163 -178q92 -101 163 -162t153 -98v-31h-148q-65 0 -93 15.5t-89 84.5l-260 287q-81 91 -124 128.5t-81 47.5v-196q0 -184 32.5 -254t121.5 -76v-43q-132 12 -228 12q-103 0 -217 -12v43q62 3 96 34t49 100.5t15 195.5v753q0 204 -34 282
t-126 87v37l322 14q-31 -195 -31 -520v-445l178 127q146 105 146 158q0 41 -62 47v45q110 -14 213 -14t213 14v-39q-190 -69 -411 -225z" />
    <glyph glyph-name="l" unicode="l" horiz-adv-x="567" 
d="M377 1540q-17 -96 -22 -199.5t-5 -300.5v-673q0 -181 31 -251t117 -79v-43q-92 12 -213 12q-117 0 -228 -12v43q92 3 127 73.5t35 256.5v751q0 204 -34 282t-128 85v37z" />
    <glyph glyph-name="m" unicode="m" horiz-adv-x="1804" 
d="M379 954v-243q78 137 157.5 196.5t184.5 59.5q236 0 260 -256q34 62 63 102.5t69 78.5t90.5 56.5t113.5 18.5q142 0 207 -85t65 -253v-262q0 -185 32.5 -254.5t121.5 -75.5v-43q-89 12 -221 12q-130 0 -222 -12v43q91 4 124.5 74.5t33.5 255.5v149q0 74 -7.5 126.5
t-27.5 98.5t-59 69.5t-98 23.5q-83 0 -157 -53t-128 -150v-264q0 -183 33 -253.5t121 -76.5v-43q-95 12 -220 12q-120 0 -225 -12v43q92 3 126 73.5t34 256.5v159q0 72 -7 123t-26 95.5t-56.5 67t-94.5 22.5q-80 0 -159 -55.5t-128 -147.5v-264q0 -182 31.5 -251.5
t117.5 -78.5v-43q-89 12 -215 12q-117 0 -225 -12v43q62 3 96 34t49 100.5t15 195.5v168q0 204 -34 281.5t-126 86.5v37z" />
    <glyph glyph-name="n" unicode="n" horiz-adv-x="1224" 
d="M375 954v-243q64 127 149 191.5t213 64.5q71 0 121 -20t78.5 -52t44.5 -86t20.5 -106t4.5 -128v-208q0 -185 33 -255.5t124 -74.5v-43q-95 12 -221 12q-108 0 -225 -12v43q91 4 124 74.5t33 255.5v170q0 159 -47.5 229t-156.5 70q-84 0 -155 -49.5t-140 -155.5v-264
q0 -184 32 -254t121 -76v-43q-95 12 -213 12q-101 0 -227 -12v43q89 4 122.5 75.5t33.5 254.5v168q0 202 -33 279.5t-123 88.5v37z" />
    <glyph glyph-name="o" unicode="o" horiz-adv-x="1110" 
d="M1008 479q0 -245 -118 -372t-343 -127q-213 0 -329 126t-116 363q0 243 120.5 370.5t348.5 127.5q211 0 324 -125.5t113 -362.5zM850 461q0 204 -80.5 320t-220.5 116q-136 0 -212.5 -105.5t-76.5 -295.5q0 -212 80 -329.5t221 -117.5q68 0 120.5 25.5t83.5 65t51 95.5
t27 110.5t7 115.5z" />
    <glyph glyph-name="p" unicode="p" horiz-adv-x="1140" 
d="M350 954v-243q87 140 168.5 198t194.5 58q160 0 242.5 -111.5t82.5 -325.5q0 -267 -122.5 -408.5t-352.5 -141.5q-133 0 -213 36v-153q0 -190 35.5 -259.5t132.5 -72.5v-41q-118 12 -239 12q-108 0 -226 -12v41q95 3 130.5 74t35.5 258v672q0 196 -30 272t-115 96v37z
M350 631v-236q0 -63 5 -110t20 -93.5t40 -76t68.5 -48t102.5 -18.5q146 0 224.5 115.5t78.5 329.5q0 169 -59.5 257.5t-172.5 88.5q-168 0 -307 -209z" />
    <glyph glyph-name="q" unicode="q" horiz-adv-x="1107" 
d="M907 1034l39 -10q-22 -167 -22 -457v-704q0 -185 33 -255.5t122 -76.5v-41q-102 12 -221 12q-116 0 -242 -12v41q103 0 140 69.5t37 262.5v366q-103 -139 -185 -194t-188 -55q-152 0 -235 113.5t-83 322.5q0 260 122.5 405.5t340.5 145.5q90 0 144.5 -14t113.5 -44z
M793 309v189q0 54 -1 87.5t-6 80.5t-14 75.5t-26.5 60.5t-42.5 49.5t-62.5 29.5t-85.5 12q-146 0 -224.5 -115t-78.5 -329q0 -166 55 -252t162 -86q80 0 157 46.5t167 151.5z" />
    <glyph glyph-name="r" unicode="r" horiz-adv-x="827" 
d="M375 954v-278q21 47 40 82.5t48 77t59 68.5t70 45t84 18q63 0 100 -36.5t37 -96.5t-36 -102.5t-99 -55.5q20 30 20 65q0 41 -24 68t-62 27q-74 0 -137 -97q-100 -150 -100 -372q0 -132 16 -201.5t53.5 -99t108.5 -29.5v-43q-132 12 -240 12q-98 0 -227 -12v43
q91 4 124.5 74.5t33.5 255.5v168q0 202 -33 279.5t-123 88.5v37z" />
    <glyph glyph-name="s" unicode="s" horiz-adv-x="843" 
d="M717 657h-45q-17 115 -81.5 178.5t-162.5 63.5q-75 0 -123.5 -41.5t-48.5 -107.5q0 -48 32.5 -84.5t64 -52.5t114.5 -49q10 -5 16 -7q67 -26 111 -50t81.5 -57.5t55 -78.5t17.5 -103q0 -136 -99 -212t-276 -76q-146 0 -291 45q10 65 10 143q0 72 -10 160h49
q14 -135 83 -206t187 -71q94 0 147.5 46t53.5 128q0 83 -54.5 130t-168.5 91q-123 49 -165 78q-92 64 -93 178q0 120 91.5 192.5t244.5 72.5q73 0 145.5 -14t114.5 -31q-8 -62 -8 -131q0 -68 8 -134z" />
    <glyph glyph-name="t" unicode="t" horiz-adv-x="694" 
d="M653 946l15 -28l-56 -70q-104 18 -256 18l-4 -467q-1 -56 2.5 -99.5t16 -90.5t35 -77.5t62 -50.5t93.5 -20q39 0 96 17l15 -47q-155 -54 -250 -54q-197 0 -203 218v204l6 467q-75 0 -149 -18l-10 39q108 87 168 191.5t83 246.5h56q-17 -180 -17 -379h297z" />
    <glyph glyph-name="u" unicode="u" horiz-adv-x="1171" 
d="M967 952q-15 -99 -15 -245v-310q0 -200 32 -274t122 -86v-43q-52 10 -131 10q-66 0 -121 -10q-33 139 -33 246q-80 -137 -164.5 -198.5t-193.5 -61.5q-52 0 -93.5 12t-69 30t-47 47.5t-30 57t-16 66t-7 66.5t-1.5 67v209q0 201 -32.5 278.5t-123.5 87.5v39l299 12
q-12 -84 -12 -245v-275q0 -46 1 -77t5.5 -68t12.5 -61t22.5 -48t34.5 -38t50 -22.5t68 -8.5q87 0 155.5 48t141.5 162v216q0 140 -15 216t-49 110.5t-98 39.5v39z" />
    <glyph glyph-name="v" unicode="v" horiz-adv-x="1030" 
d="M547 143l176 424q68 162 68 234q0 101 -127 104v47q103 -14 196 -14q90 0 176 14v-30q-82 -37 -198 -301l-189 -437q-43 -95 -74 -196h-112l-250 569q-81 185 -126 266.5t-87 98.5v30q86 -14 188 -14q98 0 203 14v-47q-62 -3 -87 -27t-25 -79q0 -37 19 -91t64 -155
q15 -32 185 -410z" />
    <glyph glyph-name="w" unicode="w" horiz-adv-x="1533" 
d="M768 616l-168 -419q-45 -108 -70 -209h-104l-225 610q-58 157 -98.5 223t-96.5 99v32q98 -12 187 -12q90 0 200 12v-43q-106 -9 -106 -102q0 -74 43 -182l176 -467l223 563q-35 90 -71.5 135t-82.5 59v37q94 -12 183 -12q72 0 194 12v-43q-100 -3 -100 -84q0 -51 53 -192
l176 -475l156 411q53 139 53 215q0 60 -33 92.5t-96 32.5v43q114 -12 182 -12q85 0 183 12v-34q-59 -52 -104 -133.5t-105 -235.5l-143 -369q-36 -90 -66 -192h-104z" />
    <glyph glyph-name="x" unicode="x" horiz-adv-x="1083" 
d="M608 506l203 -242q98 -117 150 -164.5t108 -70.5v-35q-114 12 -213 12q-109 0 -215 -12v45q62 5 80 14.5t18 40.5q0 26 -16.5 53.5t-48.5 67.5l-164 203l-170 -185q-78 -82 -78 -135q0 -32 25 -44.5t88 -14.5v-45q-102 12 -189 12q-92 0 -182 -12v35q57 25 100.5 63
t126.5 129l234 254l-211 256q-42 50 -59.5 70t-55.5 58.5t-69 62.5v30q100 -14 196 -14q95 0 195 14v-47q-52 -3 -72 -17t-20 -46q0 -26 18.5 -57.5t63.5 -86.5l110 -135l144 158q38 41 50.5 65t12.5 54q0 39 -23 52t-65 13v47q110 -14 180 -14q84 0 180 14v-30
q-44 -14 -215 -185q-33 -34 -217 -231z" />
    <glyph glyph-name="y" unicode="y" horiz-adv-x="1052" 
d="M555 129l176 403q72 169 72 259q0 58 -29.5 84.5t-97.5 31.5v45q105 -14 188 -14q93 0 189 14v-32q-57 -40 -95 -101t-100 -198l-213 -474q-23 -52 -65 -151.5t-78 -178.5t-74 -149q-51 -92 -108.5 -135t-129.5 -43q-69 0 -107 37.5t-38 105.5q0 101 64 148
q0 -131 100 -131q98 0 182 121q72 103 72 176q0 39 -20.5 96.5t-73.5 175.5l-203 457q-49 110 -87 171.5t-77 72.5v32q100 -14 201 -14q107 0 198 14v-45q-114 -6 -114 -106q0 -67 80 -248z" />
    <glyph glyph-name="z" unicode="z" horiz-adv-x="921" 
d="M819 946l27 -41q-104 -174 -260.5 -380.5t-321.5 -387.5q79 -2 182 -11t146 -9q95 0 150 49t92 166l43 -10q-49 -196 -96.5 -269t-125.5 -73q-38 0 -216.5 20t-276.5 20q-34 -34 -66 -34q-17 0 -27 12t-10 31q0 41 32.5 73t76.5 35q146 182 282.5 378.5t200.5 322.5
q-50 8 -151 8q-181 0 -261.5 -50.5t-117.5 -185.5h-43q34 198 63.5 267t83.5 69h594z" />
    <glyph glyph-name="braceleft" unicode="{" horiz-adv-x="602" 
d="M35 502v39q139 69 139 231q0 77 -10 239.5t-10 245.5q0 84 21.5 140t63 83.5t87.5 37.5t110 10q81 0 131 -8v-52q-37 -2 -55.5 -4t-51.5 -8t-50.5 -15t-40.5 -26t-35 -41t-20.5 -59.5t-8.5 -81.5q0 -80 10.5 -242.5t10.5 -214.5q0 -201 -148 -256q85 -41 115.5 -98
t30.5 -168q0 -80 -9.5 -241t-9.5 -224q0 -55 15 -95.5t38.5 -64t59.5 -38t70 -19.5t79 -6v-51q-65 -9 -133 -9q-157 0 -218.5 70t-61.5 236q0 83 9 223.5t9 195.5q0 108 -31.5 170.5t-105.5 100.5z" />
    <glyph glyph-name="bar" unicode="|" 
d="M508 1526h117v-2028h-117v2028z" />
    <glyph glyph-name="braceright" unicode="}" horiz-adv-x="602" 
d="M567 541v-39q-74 -38 -105.5 -100.5t-31.5 -170.5q0 -55 9.5 -195.5t9.5 -223.5q0 -166 -62 -236t-219 -70q-68 0 -133 9v51q45 1 79 6t70 19.5t59.5 38t38.5 64t15 95.5q0 63 -9 224t-9 241q0 111 30 168.5t115 97.5q-148 55 -148 256q0 52 10.5 214.5t10.5 242.5
q0 46 -8.5 81.5t-20.5 59.5t-35 41t-40.5 26t-50.5 15t-51.5 8t-55.5 4v52q50 8 131 8q64 0 110 -10t88 -37.5t63.5 -83.5t21.5 -140q0 -83 -10.5 -245.5t-10.5 -239.5q0 -162 139 -231z" />
    <glyph glyph-name="asciitilde" unicode="~" horiz-adv-x="1120" 
d="M1077 1233l43 -27q-162 -256 -366 -256q-63 0 -246 86q-86 41 -130.5 53.5t-94.5 12.5q-69 0 -123 -39.5t-117 -122.5l-43 31q80 127 167 191.5t195 64.5q55 0 104 -14.5t128 -53.5q152 -76 223 -76q73 0 135 36.5t125 113.5z" />
    <glyph glyph-name="uni00A0" unicode="&#xa0;" horiz-adv-x="512" 
 />
    <glyph glyph-name="exclamdown" unicode="&#xa1;" horiz-adv-x="618" 
d="M215 -436l-35 24q43 205 64.5 413t21.5 523q45 25 72 49l27 -20q3 -686 36 -934q-96 -14 -186 -55zM309 729q-47 0 -81.5 35t-34.5 84t34 83t82 34q50 0 84.5 -34t34.5 -83q0 -50 -35 -84.5t-84 -34.5z" />
    <glyph glyph-name="cent" unicode="&#xa2;" 
d="M539 1319h86v-166q33 2 55 2q229 0 229 -145q0 -67 -46.5 -113.5t-114.5 -46.5q-15 0 -27 2q39 53 39 109q0 122 -135 122v-759q85 3 150 41t132 110l47 -43q-90 -108 -166 -159.5t-163 -61.5v-191h-86v191q-164 14 -248 115.5t-84 287.5q0 204 87 344t245 181v180z
M539 1067q-86 -33 -136.5 -137t-50.5 -240q0 -141 49 -231.5t138 -120.5v729z" />
    <glyph glyph-name="sterling" unicode="&#xa3;" 
d="M942 774v-90h-410q-16 -66 -24.5 -99t-26 -90.5t-36 -92.5t-45.5 -79t-63 -78.5t-81 -64.5q158 0 335 -22.5t204 -22.5q92 0 151.5 57t93.5 175h43q-32 -205 -79.5 -296t-122.5 -91q-35 0 -137 18t-265.5 36.5t-347.5 18.5q-61 -73 -104 -73q-20 0 -33.5 14.5t-13.5 36.5
q0 51 43 93t108 56q93 90 161 222.5t97 281.5h-244v90h261q22 132 46.5 224.5t60.5 170t84.5 123t115 70t155.5 24.5q102 0 155.5 -40t53.5 -115q0 -68 -44.5 -109t-119.5 -41q-19 0 -39 4q50 59 50 127q0 53 -25.5 83t-69.5 30q-38 0 -70 -17.5t-58 -54t-47 -81.5
t-40.5 -112t-34.5 -132t-32 -154h395z" />
    <glyph glyph-name="currency" unicode="&#xa4;" horiz-adv-x="1153" 
d="M252 940l-131 129l84 82l129 -129q109 84 244 84q133 0 241 -84l133 133l84 -82l-135 -135q84 -108 84 -238q0 -132 -84 -245l131 -131l-84 -82l-129 129q-109 -84 -244 -84t-241 84l-133 -133l-84 81l135 136q-86 111 -86 245q0 132 86 240zM303 696q0 -116 79 -198
t191 -82q115 0 196 82.5t81 199.5q0 114 -80 196.5t-192 82.5q-113 0 -194 -83t-81 -198z" />
    <glyph glyph-name="yen" unicode="&#xa5;" 
d="M590 682l196 373q62 118 62 186q0 44 -26 63t-95 23v45q102 -12 209 -12q98 0 184 12v-41q-48 -15 -118 -98.5t-142 -224.5l-86 -166h279v-84h-326l-86 -172v-27h412v-84h-412v-106q0 -184 32 -253.5t124 -76.5v-45q-108 12 -226 12q-119 0 -221 -12v45q92 7 124 76.5
t32 253.5v106h-420v84h420l-96 199h-324v84h283l-76 147q-33 65 -55 105.5t-51 85t-54 71t-56 48.5t-65 32v41q94 -12 203 -12q113 0 215 12v-45q-51 -1 -73.5 -17t-22.5 -50q0 -48 51 -156z" />
    <glyph glyph-name="brokenbar" unicode="&#xa6;" 
d="M508 1366h117v-680h-117v680zM508 313h117v-655h-117v655z" />
    <glyph glyph-name="section" unicode="&#xa7;" horiz-adv-x="1153" 
d="M799 162q86 -60 120.5 -116.5t34.5 -139.5q0 -161 -120.5 -260t-317.5 -99q-158 0 -260 66.5t-102 167.5q0 72 54 119t138 47q33 0 53 -8q-59 -59 -59 -146q0 -78 53.5 -124t143.5 -46q115 0 187.5 66t72.5 170q0 90 -66.5 156.5t-236.5 140.5q-163 71 -216 106
q-110 70 -131 173q-6 30 -6 63q0 120 64.5 193.5t185.5 129.5q-84 45 -126 96.5t-42 137.5q0 149 114.5 240t299.5 91q141 0 225 -50.5t84 -135.5q0 -59 -38.5 -93t-104.5 -34q-37 0 -64 10q33 42 33 97q0 66 -42 100.5t-122 34.5q-104 0 -167.5 -54t-63.5 -143
q0 -31 8.5 -58t19 -47t36 -41.5t44 -34.5t59 -33t65 -30.5t77.5 -33.5q65 -28 109 -50t89 -54t71 -67t42.5 -83t16.5 -107q0 -100 -51.5 -176.5t-163.5 -140.5zM442 793q-75 -43 -113 -98.5t-38 -139.5q0 -33 8 -60.5t18.5 -49t34.5 -43t42.5 -35.5t57.5 -34t64 -31t76 -34
q72 -31 153 -75q60 43 89.5 98t29.5 135q0 46 -12.5 84t-30.5 63.5t-51 50.5t-60.5 40t-72.5 36q-33 15 -97.5 46t-97.5 47z" />
    <glyph glyph-name="dieresis" unicode="&#xa8;" horiz-adv-x="1024" 
d="M334 1348q41 0 70.5 -30t29.5 -71t-29.5 -70.5t-70.5 -29.5t-71 29.5t-30 70.5t30 71t71 30zM690 1348q41 0 71 -30t30 -71t-30 -70.5t-71 -29.5t-70.5 29.5t-29.5 70.5t29.5 71t70.5 30z" />
    <glyph glyph-name="copyright" unicode="&#xa9;" horiz-adv-x="1599" 
d="M1069 844h-51q-21 99 -71.5 144.5t-131.5 45.5q-115 0 -184.5 -95t-69.5 -255q0 -163 66.5 -255.5t177.5 -92.5q77 0 131.5 25.5t88.5 67t71 114.5l45 -21q-44 -113 -60 -196q-134 -56 -270 -56q-393 0 -393 396q0 207 109.5 319.5t310.5 112.5q115 0 231 -33
q-8 -49 -8 -102q0 -59 8 -119zM186 682q0 -125 48.5 -239t131 -196t196.5 -130.5t239 -48.5q166 0 307 82t223 223.5t82 308.5t-81.5 309t-222.5 224.5t-308 82.5q-125 0 -239 -49t-196.5 -131.5t-131 -196.5t-48.5 -239zM82 680q0 198 94 361t258.5 256.5t364.5 93.5
t365 -93.5t259.5 -256t94.5 -359.5q0 -196 -94.5 -358t-259.5 -255.5t-363 -93.5q-201 0 -366 93.5t-259 255t-94 356.5z" />
    <glyph glyph-name="ordfeminine" unicode="&#xaa;" horiz-adv-x="651" 
d="M590 928l35 -19q-29 -69 -62.5 -100t-79.5 -31q-43 0 -64.5 25t-27.5 86q-50 -63 -89 -87t-93 -24q-66 0 -106 40.5t-40 107.5q0 56 28.5 97t78 64t103.5 35t118 15v24q0 91 -20.5 126.5t-73.5 35.5q-34 0 -54 -21t-20 -57q0 -32 21 -61q-32 -21 -66 -21q-40 0 -64 25
t-24 65q0 60 64 96.5t170 36.5q104 0 145 -40t41 -150q0 -23 -1 -81.5t-1 -84.5q0 -55 1 -85t5.5 -46.5t10 -20.5t16.5 -4q23 0 49 54zM391 1073q-198 -15 -198 -133q0 -61 55 -61q66 0 143 88v106z" />
    <glyph glyph-name="guillemotleft" unicode="&#xab;" horiz-adv-x="909" 
d="M395 55h-22q0 36 -41 80q-12 13 -264 293q137 248 348 459v-205q-157 -89 -234 -184l213 -234q35 -38 35 -76q0 -35 -35 -133zM780 55h-22q0 36 -41 80q-12 13 -264 293q137 248 348 459v-205q-161 -93 -234 -184l213 -234q35 -38 35 -78q0 -38 -35 -131z" />
    <glyph glyph-name="logicalnot" unicode="&#xac;" 
d="M113 760h905v-379h-123v264h-782v115z" />
    <glyph glyph-name="uni00AD" unicode="&#xad;" horiz-adv-x="657" 
d="M575 705v-158q-247 -66 -493 -154v156q198 48 493 156z" />
    <glyph glyph-name="registered" unicode="&#xae;" horiz-adv-x="667" 
d="M295 1081v-63q0 -36 8 -50.5t29 -19.5v-18q-30 6 -68 6q-35 0 -71 -6v20q23 0 30.5 15t7.5 53v143q0 38 -7.5 53t-30.5 15v18q16 -2 55 -2q10 0 36 1t38 1q68 0 97.5 -17t29.5 -56q0 -55 -70 -78q17 -14 31 -39l30 -53q26 -44 54 -58v-14h-70q-13 0 -18.5 4.5t-18.5 28.5
l-41 71q-20 35 -35 43q-4 2 -16 2zM295 1116q8 -2 14 -2q32 0 51 13.5t19 35.5q0 54 -68 54q-7 0 -16 -3v-98zM37 1087q0 127 84 213t215 86t215 -86t84 -213t-84 -213t-215 -86t-215 86t-84 213zM96 1090q0 -103 67 -175.5t173 -72.5q105 0 172 73t67 175t-67 172.5
t-172 70.5q-106 0 -173 -70.5t-67 -172.5z" />
    <glyph glyph-name="macron" unicode="&#xaf;" horiz-adv-x="1024" 
d="M248 1300h571l15 -26l-56 -92h-573l-15 16z" />
    <glyph glyph-name="degree" unicode="&#xb0;" horiz-adv-x="993" 
d="M494 1380q131 0 223 -91t92 -220q0 -128 -91 -218.5t-220 -90.5q-130 0 -222 90.5t-92 218.5q0 129 91 220t219 91zM496 1274q-82 0 -140.5 -59.5t-58.5 -143.5q0 -85 58.5 -145t140.5 -60q83 0 141.5 60t58.5 145t-58.5 144t-141.5 59z" />
    <glyph glyph-name="plusminus" unicode="&#xb1;" 
d="M508 1190h115v-393h393v-107h-393v-401h-115v401h-393v107h393v393zM115 180h905v-104h-905v104z" />
    <glyph glyph-name="two.superior" unicode="&#xb2;" horiz-adv-x="696" 
d="M592 1036h53q-22 -139 -55.5 -198.5t-91.5 -59.5q-29 0 -158 10.5t-225 10.5q-30 -21 -47 -21q-21 0 -34.5 11.5t-13.5 29.5q0 25 29 53.5t60 32.5q337 350 337 533q0 58 -31.5 90.5t-88.5 32.5q-47 0 -76 -21.5t-29 -58.5q0 -26 13 -43.5t47 -36.5q-36 -33 -103 -33
q-47 0 -73.5 24.5t-26.5 67.5q0 74 80.5 124t201.5 50q112 0 171 -49t59 -143q0 -64 -28.5 -130t-85.5 -135.5t-119.5 -130.5t-153.5 -139q71 0 144 -4t95 -4q64 0 96 29.5t54 107.5z" />
    <glyph glyph-name="three.superior" unicode="&#xb3;" horiz-adv-x="665" 
d="M344 1290q47 26 73.5 67.5t26.5 86.5q0 54 -30.5 85.5t-83.5 31.5q-47 0 -77 -22.5t-30 -57.5q0 -28 13 -45.5t47 -34.5q-42 -33 -97 -33q-47 0 -76.5 25t-29.5 65q0 75 81.5 124.5t205.5 49.5q103 0 159 -45.5t56 -128.5q0 -59 -33 -103.5t-105 -82.5
q83 -26 121.5 -75.5t38.5 -131.5q0 -129 -95.5 -208t-250.5 -79q-101 0 -159 36.5t-58 100.5q0 51 36.5 83t94.5 32q14 0 51 -6q-23 -29 -30 -45.5t-7 -38.5q0 -40 27.5 -64t73.5 -24q79 0 129.5 55.5t50.5 143.5q0 131 -119 168q-84 -37 -137 -37q-26 0 -40.5 12.5
t-14.5 34.5q0 33 38.5 47t149.5 14z" />
    <glyph glyph-name="acute" unicode="&#xb4;" horiz-adv-x="1024" 
d="M383 1073l-43 62q128 93 207 162t168 167q27 -19 53 -53.5t39 -69.5q-173 -154 -424 -268z" />
    <glyph glyph-name="mu" unicode="&#xb5;" 
d="M29 907v39l299 12q-15 -120 -15 -426v-86q0 -59 2 -96t8 -80.5t19 -69t34 -48.5t54.5 -33t79.5 -10q85 0 153.5 48.5t141.5 161.5v222q0 206 -33 282.5t-127 83.5v39l311 12q-18 -136 -18 -368v-193q0 -137 14 -212t46.5 -110.5t93.5 -43.5v-37q-58 10 -134 10
q-58 0 -120 -10q-33 118 -33 246q-78 -136 -163 -198t-193 -62q-100 0 -168 47q3 -184 26 -408q-37 -6 -90.5 -23t-83.5 -32l-35 22q84 402 84 740v215q0 202 -32 279t-121 87z" />
    <glyph glyph-name="mu" unicode="&#x3bc;" 
d="M29 907v39l299 12q-15 -120 -15 -426v-86q0 -59 2 -96t8 -80.5t19 -69t34 -48.5t54.5 -33t79.5 -10q85 0 153.5 48.5t141.5 161.5v222q0 206 -33 282.5t-127 83.5v39l311 12q-18 -136 -18 -368v-193q0 -137 14 -212t46.5 -110.5t93.5 -43.5v-37q-58 10 -134 10
q-58 0 -120 -10q-33 118 -33 246q-78 -136 -163 -198t-193 -62q-100 0 -168 47q3 -184 26 -408q-37 -6 -90.5 -23t-83.5 -32l-35 22q84 402 84 740v215q0 202 -32 279t-121 87z" />
    <glyph glyph-name="paragraph" unicode="&#xb6;" horiz-adv-x="1153" 
d="M778 1436l92 32v-96h158l14 -29l-41 -71q-57 11 -131 16v-872q84 0 158 18l14 -18l-41 -78h-131v-229q0 -78 -1.5 -126t-9.5 -121t-22.5 -118.5t-43.5 -99t-70 -83.5t-104 -50.5t-144 -20.5q-77 0 -119.5 36.5t-42.5 102.5q0 67 47 109.5t119 42.5q23 0 39 -6
q-35 -49 -35 -105q0 -43 21 -66.5t59 -23.5q35 0 64.5 14t50 34t37.5 54.5t27 64.5t17.5 76t11 75.5t5.5 77t2 67v57.5v17v221h-98q-76 0 -134.5 4.5t-121 18t-108.5 37t-88 62t-68.5 91.5t-42 128.5t-15.5 170.5q0 96 18.5 173.5t49.5 131.5t79.5 94t99.5 63t118 37
t128 18.5t136 4.5h47v64zM778 1288q-92 -3 -128 -73t-36 -248v-193q0 -147 14 -219.5t47.5 -103.5t102.5 -35v872z" />
    <glyph glyph-name="periodcentered" unicode="&#xb7;" horiz-adv-x="573" 
d="M287 829q55 0 94 -38.5t39 -94.5t-39 -94.5t-94 -38.5t-94 38.5t-39 94.5t39 94.5t94 38.5z" />
    <glyph glyph-name="cedilla" unicode="&#xb8;" horiz-adv-x="1024" 
d="M410 -154l-15 25q81 68 140 68q38 0 73 -46t35 -96q0 -69 -73.5 -121.5t-170.5 -52.5q-30 0 -45 6l29 86q38 -14 68 -14q63 0 63 53q0 33 -26 66t-56 33q-12 0 -22 -7z" />
    <glyph glyph-name="one.superior" unicode="&#xb9;" horiz-adv-x="573" 
d="M414 1657l35 -45q-42 -34 -53 -72t-11 -149v-375q0 -106 19 -141.5t77 -36.5v-54q-120 9 -178 9q-59 0 -170 -9v56q78 0 102.5 33.5t24.5 142.5v434q-69 -41 -112.5 -60t-106.5 -36l35 129q77 20 177 71.5t161 102.5z" />
    <glyph glyph-name="ordmasculine" unicode="&#xba;" horiz-adv-x="712" 
d="M645 1083q0 -152 -76 -232.5t-217 -80.5q-135 0 -209.5 80t-74.5 225q0 149 78 230t221 81q133 0 205.5 -79t72.5 -224zM516 1069q0 117 -43.5 183.5t-120.5 66.5q-73 0 -114 -60.5t-41 -166.5q0 -120 43 -187t120 -67q45 0 77.5 21.5t48.5 57.5t23 73t7 79z" />
    <glyph glyph-name="guillemotright" unicode="&#xbb;" horiz-adv-x="888" 
d="M129 887h23q3 -34 41 -78l264 -293q-130 -243 -348 -461v205q155 86 233 184l-213 234q-35 41 -35 78q0 35 35 131zM494 887h22q0 -31 41 -78l264 -293q-140 -253 -348 -461v205q152 87 234 184l-213 234q-35 41 -35 78q0 22 35 131z" />
    <glyph glyph-name="onequarter" unicode="&#xbc;" horiz-adv-x="1802" 
d="M514 1411l35 -45q-42 -34 -53 -72t-11 -149v-375q0 -106 19.5 -141.5t77.5 -36.5v-53q-107 8 -179 8q-71 0 -170 -8v55q78 0 102.5 33.5t24.5 142.5v434q-69 -41 -112.5 -60t-106.5 -36l35 129q77 20 177 71.5t161 102.5zM1083 1389l111 -39l-473 -1373l-111 39z
M1614 201v-193l-96 -24l-23 18v205q-95 14 -225 14q-80 0 -127 -8q-21 -27 -47 -27q-19 0 -31 12t-12 31q0 25 21.5 50.5t47.5 31.5q185 301 185 416q0 37 -27 37q-20 0 -57 -21l-23 43q95 56 182 56q76 0 76 -68q0 -87 -252 -452q54 4 119 4q83 0 170 -11v310q47 9 82 30
l37 -24v-316q79 3 98 131h47q-10 -145 -41.5 -196t-103.5 -49z" />
    <glyph glyph-name="onehalf" unicode="&#xbd;" horiz-adv-x="1802" 
d="M514 1411l35 -45q-42 -34 -53 -72t-11 -149v-375q0 -106 19.5 -141.5t77.5 -36.5v-53q-107 8 -179 8q-71 0 -170 -8v55q78 0 102.5 33.5t24.5 142.5v434q-69 -41 -112.5 -60t-106.5 -36l35 129q77 20 177 71.5t161 102.5zM1083 1389l111 -39l-473 -1373l-111 39z
M1657 246h53q-22 -139 -55.5 -198.5t-91.5 -59.5q-29 0 -158 10t-225 10q-29 -20 -47 -20q-21 0 -34.5 11.5t-13.5 29.5q0 25 29 53.5t60 32.5q337 350 337 532q0 58 -31.5 90.5t-88.5 32.5q-47 0 -76 -21.5t-29 -58.5q0 -26 13 -43.5t47 -36.5q-35 -32 -103 -32
q-47 0 -73.5 24.5t-26.5 67.5q0 74 80.5 124t201.5 50q112 0 171 -49.5t59 -143.5q0 -64 -28.5 -130t-85.5 -135t-119.5 -130t-153.5 -139q70 0 143 -4t96 -4q64 0 96 29.5t54 107.5z" />
    <glyph glyph-name="threequarters" unicode="&#xbe;" horiz-adv-x="1802" 
d="M500 1026q83 -26 121 -75.5t38 -131.5q0 -129 -95.5 -208t-250.5 -79q-101 0 -159 37t-58 101q0 51 36 82.5t95 31.5q15 0 52 -6q-23 -29 -30 -45.5t-7 -38.5q0 -40 27 -64t73 -24q79 0 129.5 55.5t50.5 143.5q0 131 -119 168q-84 -37 -137 -37q-26 0 -40.5 12.5
t-14.5 34.5q0 33 38.5 47t149.5 14q47 26 74 67.5t27 86.5q0 54 -31 85.5t-84 31.5q-47 0 -76.5 -22.5t-29.5 -57.5q0 -28 12.5 -45.5t46.5 -34.5q-42 -33 -96 -33q-47 0 -77 25t-30 65q0 75 81.5 124.5t205.5 49.5q103 0 159 -45.5t56 -128.5q0 -59 -32.5 -103.5
t-104.5 -82.5zM1081 1389l111 -39l-471 -1373l-111 39zM1614 201v-193l-96 -24l-23 18v205q-95 14 -225 14q-80 0 -127 -8q-21 -27 -47 -27q-19 0 -31 12t-12 31q0 25 21.5 50.5t47.5 31.5q185 301 185 416q0 37 -27 37q-20 0 -57 -21l-23 43q95 56 182 56q76 0 76 -68
q0 -87 -252 -452q54 4 119 4q83 0 170 -11v310q47 9 82 30l37 -24v-316q79 3 98 131h47q-10 -145 -41.5 -196t-103.5 -49z" />
    <glyph glyph-name="questiondown" unicode="&#xbf;" horiz-adv-x="886" 
d="M346 440l-14 31q143 86 223 86q44 0 68 -26.5t24 -77.5q0 -31 -13 -66t-28.5 -60.5t-47 -62t-48.5 -53.5t-54.5 -52.5t-45.5 -43.5q-92 -89 -126 -150t-34 -131q0 -92 49 -147.5t129 -55.5q72 0 117 42.5t45 111.5q0 38 -12 64.5t-43 52.5q55 28 106 28q57 0 90 -34
t33 -91q0 -106 -107 -176.5t-268 -70.5q-137 0 -212 62.5t-75 176.5q0 40 10.5 77.5t21 60.5t41 58.5t43.5 47.5t56 52q11 11 17 16q7 7 36 33t45.5 41.5t43 44t41 50t26 49t11.5 50.5q0 38 -20.5 63t-51.5 25t-76 -25zM477 729q-49 0 -83 34.5t-34 82.5q0 50 34 84.5
t83 34.5t83 -34.5t34 -84.5q0 -48 -34 -82.5t-83 -34.5z" />
    <glyph glyph-name="Agrave" unicode="&#xc0;" horiz-adv-x="1318" 
d="M887 467h-535l-57 -150q-29 -80 -29 -139q0 -67 32.5 -100t104.5 -39v-45q-98 12 -194 12t-209 -12v35q58 16 108 97.5t113 244.5l266 688q35 90 43.5 119t8.5 57q0 43 -30.5 62t-102.5 22v43q33 -2 69 -2q100 0 223 20q37 -129 80 -237l338 -867q47 -122 88 -177.5
t94 -69.5v-35q-120 12 -229 12q-108 0 -233 -12v45q71 7 108 33t37 92q0 64 -43 172zM852 553l-236 604l-231 -604h467zM758 1526l-49 -56q-181 123 -340 181q24 53 41 79t55 64q170 -105 293 -268z" />
    <glyph glyph-name="Aacute" unicode="&#xc1;" horiz-adv-x="1318" 
d="M887 467h-535l-57 -150q-29 -80 -29 -139q0 -67 32.5 -100t104.5 -39v-45q-98 12 -194 12t-209 -12v35q58 16 108 97.5t113 244.5l266 688q35 90 43.5 119t8.5 57q0 43 -30.5 62t-102.5 22v43q33 -2 69 -2q100 0 223 20q37 -129 80 -237l338 -867q47 -122 88 -177.5
t94 -69.5v-35q-120 12 -229 12q-108 0 -233 -12v45q71 7 108 33t37 92q0 64 -43 172zM852 553l-236 604l-231 -604h467zM406 1473l-33 67q136 66 230.5 123.5t209.5 144.5q33 -42 46.5 -68t23.5 -71q-210 -133 -477 -196z" />
    <glyph glyph-name="Acircumflex" unicode="&#xc2;" horiz-adv-x="1318" 
d="M887 467h-535l-57 -150q-29 -80 -29 -139q0 -67 32.5 -100t104.5 -39v-45q-98 12 -194 12t-209 -12v35q58 16 108 97.5t113 244.5l266 688q35 90 43.5 119t8.5 57q0 43 -30.5 62t-102.5 22v43q33 -2 69 -2q100 0 223 20q37 -129 80 -237l338 -867q47 -122 88 -177.5
t94 -69.5v-35q-120 12 -229 12q-108 0 -233 -12v45q71 7 108 33t37 92q0 64 -43 172zM852 553l-236 604l-231 -604h467zM989 1602l19 -17q-85 -106 -123 -106q-7 0 -16 3.5t-14 6.5t-15.5 10t-12.5 8l-243 176q-118 -62 -187 -194h-186q82 105 200.5 175t270.5 122l215 -156
q49 -35 72 -35q6 0 20 7z" />
    <glyph glyph-name="Atilde" unicode="&#xc3;" horiz-adv-x="1318" 
d="M887 467h-535l-57 -150q-29 -80 -29 -139q0 -67 32.5 -100t104.5 -39v-45q-98 12 -194 12t-209 -12v35q58 16 108 97.5t113 244.5l266 688q35 90 43.5 119t8.5 57q0 43 -30.5 62t-102.5 22v43q33 -2 69 -2q100 0 223 20q37 -129 80 -237l338 -867q47 -122 88 -177.5
t94 -69.5v-35q-120 12 -229 12q-108 0 -233 -12v45q71 7 108 33t37 92q0 64 -43 172zM852 553l-236 604l-231 -604h467zM948 1722l45 -20q-50 -119 -88 -163t-90 -44q-41 0 -209 57q-116 41 -188 41q-42 0 -69 -19.5t-62 -76.5l-41 19q42 120 81 164t101 44q35 0 221 -57
q117 -37 168 -37q86 0 131 92z" />
    <glyph glyph-name="Adieresis" unicode="&#xc4;" horiz-adv-x="1318" 
d="M887 467h-535l-57 -150q-29 -80 -29 -139q0 -67 32.5 -100t104.5 -39v-45q-98 12 -194 12t-209 -12v35q58 16 108 97.5t113 244.5l266 688q35 90 43.5 119t8.5 57q0 43 -30.5 62t-102.5 22v43q33 -2 69 -2q100 0 223 20q37 -129 80 -237l338 -867q47 -122 88 -177.5
t94 -69.5v-35q-120 12 -229 12q-108 0 -233 -12v45q71 7 108 33t37 92q0 64 -43 172zM852 553l-236 604l-231 -604h467zM428 1708q42 0 72 -30t30 -72q0 -43 -30 -74t-72 -31q-41 0 -71.5 31t-30.5 74q0 41 30.5 71.5t71.5 30.5zM797 1708q42 0 72 -30t30 -72q0 -43 -30 -74
t-72 -31q-43 0 -73 31t-30 74q0 42 30 72t73 30z" />
    <glyph glyph-name="Aring" unicode="&#xc5;" horiz-adv-x="1318" 
d="M887 467h-535l-57 -150q-29 -80 -29 -139q0 -67 32.5 -100t104.5 -39v-45q-98 12 -194 12t-209 -12v35q58 16 108 97.5t113 244.5l266 688q35 90 43.5 119t8.5 57q0 43 -30.5 62t-102.5 22v43q33 -2 69 -2q100 0 223 20q37 -129 80 -237l338 -867q47 -122 88 -177.5
t94 -69.5v-35q-120 12 -229 12q-108 0 -233 -12v45q71 7 108 33t37 92q0 64 -43 172zM852 553l-236 604l-231 -604h467zM602 1882q89 0 154 -62t65 -149q0 -86 -65.5 -148.5t-153.5 -62.5t-152.5 62t-64.5 149t64.5 149t152.5 62zM602 1794q-51 0 -84 -35t-33 -88
q0 -52 33.5 -87.5t83.5 -35.5q52 0 85.5 35.5t33.5 87.5q0 53 -33.5 88t-85.5 35z" />
    <glyph glyph-name="AE" unicode="&#xc6;" horiz-adv-x="1839" 
d="M1100 1286v-518h149q126 0 185.5 32.5t81.5 114.5h40q-14 -91 -14 -184q0 -104 14 -207h-40q-23 92 -81.5 125t-199.5 33h-135v-301q0 -85 4.5 -137t14 -89t31 -53.5t48.5 -23t74 -6.5q184 0 278 62t162 224l51 -26q-50 -124 -69.5 -181t-48.5 -169q-169 18 -342 18h-267
q-142 0 -237 -6v45q51 1 83 22.5t48 68t21 100t5 139.5v313h-376l-174 -262q-154 -230 -154 -303q0 -35 25 -53t88 -27v-43q-105 12 -209 12q-92 0 -197 -12v39q72 42 136 113t188 255l493 734q66 98 66 135q0 26 -19 39.5t-63 17.5v45q66 -6 219 -6h297q179 0 332 12
q3 -137 37 -313l-43 -12q-15 54 -37 94t-53 65t-61.5 40.5t-76.5 22.5t-83.5 9t-96.5 2h-94zM956 768v483l-319 -483h319z" />
    <glyph glyph-name="Ccedilla" unicode="&#xc7;" horiz-adv-x="1329" 
d="M1163 971h-51q-37 173 -123 256.5t-229 83.5q-217 0 -341 -169t-124 -462q0 -295 118 -460t330 -165q319 0 490 340l49 -18q-61 -149 -94 -326q-198 -71 -436 -71q-637 0 -637 671q0 353 176.5 544t503.5 191q183 0 368 -55q-10 -88 -10 -164q0 -79 10 -196zM629 -158
l-15 25q94 70 144 70q43 0 77.5 -51t34.5 -97q0 -69 -76.5 -123.5t-175.5 -54.5q-18 0 -45 6l31 90q38 -14 68 -14q65 0 65 53q0 33 -27 70t-59 37q-11 0 -22 -11z" />
    <glyph glyph-name="Egrave" unicode="&#xc8;" horiz-adv-x="1196" 
d="M418 1286v-516h151q52 0 84 2t72 10t65 23.5t47 44t33 70.5h43q-18 -108 -18 -197q0 -81 18 -186h-45q-11 35 -25 59.5t-35.5 40t-38.5 24t-51.5 12.5t-56.5 4.5t-69 0.5h-12h-162v-297q0 -238 53 -285q30 -24 119 -24q203 0 309.5 63.5t175.5 224.5l45 -24
q-86 -216 -119 -354q-148 18 -389 18h-258q-129 0 -243 -6v45q91 7 123 76t32 254v628q0 183 -32 252t-123 78v45q117 -6 270 -6h223q213 0 361 12q0 -123 36 -307l-43 -14q-26 94 -72.5 141.5t-133.5 67.5t-246 20h-88zM709 1526l-50 -56q-181 123 -340 181q23 52 41 78.5
t56 64.5q170 -105 293 -268z" />
    <glyph glyph-name="Eacute" unicode="&#xc9;" horiz-adv-x="1196" 
d="M418 1286v-516h151q52 0 84 2t72 10t65 23.5t47 44t33 70.5h43q-18 -108 -18 -197q0 -81 18 -186h-45q-11 35 -25 59.5t-35.5 40t-38.5 24t-51.5 12.5t-56.5 4.5t-69 0.5h-12h-162v-297q0 -238 53 -285q30 -24 119 -24q203 0 309.5 63.5t175.5 224.5l45 -24
q-86 -216 -119 -354q-148 18 -389 18h-258q-129 0 -243 -6v45q91 7 123 76t32 254v628q0 183 -32 252t-123 78v45q117 -6 270 -6h223q213 0 361 12q0 -123 36 -307l-43 -14q-26 94 -72.5 141.5t-133.5 67.5t-246 20h-88zM418 1473l-33 67q136 66 230.5 123.5t209.5 144.5
q33 -42 46.5 -68t23.5 -71q-210 -133 -477 -196z" />
    <glyph glyph-name="Ecircumflex" unicode="&#xca;" horiz-adv-x="1196" 
d="M418 1286v-516h151q52 0 84 2t72 10t65 23.5t47 44t33 70.5h43q-18 -108 -18 -197q0 -81 18 -186h-45q-11 35 -25 59.5t-35.5 40t-38.5 24t-51.5 12.5t-56.5 4.5t-69 0.5h-12h-162v-297q0 -238 53 -285q30 -24 119 -24q203 0 309.5 63.5t175.5 224.5l45 -24
q-86 -216 -119 -354q-148 18 -389 18h-258q-129 0 -243 -6v45q91 7 123 76t32 254v628q0 183 -32 252t-123 78v45q117 -6 270 -6h223q213 0 361 12q0 -123 36 -307l-43 -14q-26 94 -72.5 141.5t-133.5 67.5t-246 20h-88zM965 1602l18 -17q-85 -106 -123 -106q-7 0 -15.5 3.5
t-14 6.5t-15 9.5t-12.5 8.5l-244 176q-117 -61 -186 -194h-187q82 105 200.5 175t270.5 122l215 -156q49 -35 72 -35q7 0 21 7z" />
    <glyph glyph-name="Edieresis" unicode="&#xcb;" horiz-adv-x="1196" 
d="M418 1286v-516h151q52 0 84 2t72 10t65 23.5t47 44t33 70.5h43q-18 -108 -18 -197q0 -81 18 -186h-45q-11 35 -25 59.5t-35.5 40t-38.5 24t-51.5 12.5t-56.5 4.5t-69 0.5h-12h-162v-297q0 -238 53 -285q30 -24 119 -24q203 0 309.5 63.5t175.5 224.5l45 -24
q-86 -216 -119 -354q-148 18 -389 18h-258q-129 0 -243 -6v45q91 7 123 76t32 254v628q0 183 -32 252t-123 78v45q117 -6 270 -6h223q213 0 361 12q0 -123 36 -307l-43 -14q-26 94 -72.5 141.5t-133.5 67.5t-246 20h-88zM373 1708q42 0 72 -30t30 -72q0 -43 -30 -74t-72 -31
q-41 0 -72 31t-31 74q0 41 31 71.5t72 30.5zM741 1708q43 0 73 -30t30 -72q0 -43 -30 -74t-73 -31q-42 0 -72 31t-30 74q0 42 30 72t72 30z" />
    <glyph glyph-name="Igrave" unicode="&#xcc;" horiz-adv-x="684" 
d="M573 39v-45q-120 12 -233 12q-111 0 -229 -12v45q91 7 123 76t32 254v628q0 183 -32 252t-123 78v45q110 -12 229 -12q118 0 233 12v-45q-91 -9 -123 -78t-32 -252v-628q0 -185 32 -254t123 -76zM496 1526l-50 -56q-181 123 -340 181q23 52 41 78.5t56 64.5
q170 -105 293 -268z" />
    <glyph glyph-name="Iacute" unicode="&#xcd;" horiz-adv-x="684" 
d="M573 39v-45q-120 12 -233 12q-111 0 -229 -12v45q91 7 123 76t32 254v628q0 183 -32 252t-123 78v45q110 -12 229 -12q118 0 233 12v-45q-91 -9 -123 -78t-32 -252v-628q0 -185 32 -254t123 -76zM135 1473l-33 67q137 66 232 124t209 144q33 -42 46 -68t23 -71
q-210 -133 -477 -196z" />
    <glyph glyph-name="Icircumflex" unicode="&#xce;" horiz-adv-x="681" 
d="M573 39v-45q-120 12 -233 12q-111 0 -229 -12v45q91 7 123 76t32 254v628q0 183 -32 252t-123 78v45q110 -12 229 -12q118 0 233 12v-45q-91 -9 -123 -78t-32 -252v-628q0 -185 32 -254t123 -76zM721 1602l18 -17q-85 -106 -123 -106q-7 0 -15.5 3.5t-14 6.5t-15 9.5
t-12.5 8.5l-244 176q-117 -61 -186 -194h-186q82 105 200.5 175t270.5 122l215 -156q49 -35 71 -35q7 0 21 7z" />
    <glyph glyph-name="Idieresis" unicode="&#xcf;" horiz-adv-x="684" 
d="M190 1708q42 0 72.5 -30t30.5 -72q0 -43 -30 -74t-73 -31q-41 0 -71.5 31t-30.5 74q0 41 30.5 71.5t71.5 30.5zM492 1708q43 0 73.5 -30.5t30.5 -71.5q0 -43 -30.5 -74t-73.5 -31q-41 0 -72 31t-31 74q0 41 31 71.5t72 30.5zM573 39v-45q-120 12 -233 12q-111 0 -229 -12
v45q91 7 123 76t32 254v628q0 183 -32 252t-123 78v45q110 -12 229 -12q118 0 233 12v-45q-91 -9 -123 -78t-32 -252v-628q0 -185 32 -254t123 -76z" />
    <glyph glyph-name="Eth" unicode="&#xd0;" horiz-adv-x="1505" 
d="M266 655q-75 0 -151 -16l-13 14l62 92h102v252q0 184 -33 254t-122 76v45q102 -12 202 -12q41 0 159.5 6t170.5 6q390 0 569 -161t179 -513q0 -343 -174 -523.5t-515 -180.5q-64 0 -192.5 6t-190.5 6q-117 0 -208 -12v45q89 6 122 76t33 254v286zM418 655v-280
q0 -52 6 -120t14 -99q12 -47 53.5 -65.5t137.5 -18.5q306 0 450 133.5t144 439.5q0 323 -152 486t-453 163q-132 0 -200 -28v-521h270l12 -22l-51 -84q-125 16 -231 16z" />
    <glyph glyph-name="Ntilde" unicode="&#xd1;" horiz-adv-x="1519" 
d="M1188 256v741q0 59 -2.5 100.5t-11 87t-24.5 73.5t-45 47.5t-69 21.5v45q117 -12 201 -12q95 0 203 12v-45q-50 -3 -81.5 -27t-47 -71.5t-20.5 -99.5t-5 -132v-487q0 -301 10 -516h-104l-842 1173v-798q0 -62 2.5 -104t11 -86.5t24.5 -71.5t44.5 -45.5t69.5 -22.5v-45
q-108 12 -199 12q-99 0 -201 -12v45q33 3 57.5 14t40.5 32.5t26.5 47t16 64.5t7.5 78t2 94v628q0 44 -0.5 71.5t-4 65.5t-9 61.5t-16.5 49.5t-27 41.5t-39.5 26.5t-53.5 14v45q90 -12 164 -12q82 0 158 12q61 -125 145 -244zM1110 1722l45 -20q-50 -119 -88 -163t-90 -44
q-41 0 -209 57q-116 41 -188 41q-42 0 -69 -19.5t-62 -76.5l-41 19q42 120 81 164t101 44q35 0 221 -57q117 -37 168 -37q86 0 131 92z" />
    <glyph glyph-name="Ograve" unicode="&#xd2;" horiz-adv-x="1517" 
d="M1403 684q0 -704 -664 -704q-311 0 -467.5 172.5t-156.5 515.5q0 344 175 531t498 187q305 0 460 -177t155 -525zM1223 666q0 316 -116 480.5t-339 164.5q-221 0 -346 -167.5t-125 -465.5q0 -299 120 -461t341 -162q226 0 345.5 157.5t119.5 453.5zM913 1526l-49 -56
q-181 123 -340 181q23 52 41 78.5t56 64.5q168 -104 292 -268z" />
    <glyph glyph-name="Oacute" unicode="&#xd3;" horiz-adv-x="1517" 
d="M1403 684q0 -704 -664 -704q-311 0 -467.5 172.5t-156.5 515.5q0 344 175 531t498 187q305 0 460 -177t155 -525zM1223 666q0 316 -116 480.5t-339 164.5q-221 0 -346 -167.5t-125 -465.5q0 -299 120 -461t341 -162q226 0 345.5 157.5t119.5 453.5zM598 1473l-33 67
q137 66 232 124t209 144q33 -42 46 -68t23 -71q-210 -133 -477 -196z" />
    <glyph glyph-name="Ocircumflex" unicode="&#xd4;" horiz-adv-x="1517" 
d="M1403 684q0 -704 -664 -704q-311 0 -467.5 172.5t-156.5 515.5q0 344 175 531t498 187q305 0 460 -177t155 -525zM1223 666q0 316 -116 480.5t-339 164.5q-221 0 -346 -167.5t-125 -465.5q0 -299 120 -461t341 -162q226 0 345.5 157.5t119.5 453.5zM1139 1602l18 -17
q-85 -106 -123 -106q-7 0 -15.5 3.5t-14 6.5t-15 9.5t-12.5 8.5l-244 176q-117 -61 -186 -194h-187q82 105 200.5 175t270.5 122l216 -156q49 -35 71 -35q7 0 21 7z" />
    <glyph glyph-name="Otilde" unicode="&#xd5;" horiz-adv-x="1517" 
d="M1403 684q0 -704 -664 -704q-311 0 -467.5 172.5t-156.5 515.5q0 344 175 531t498 187q305 0 460 -177t155 -525zM1223 666q0 316 -116 480.5t-339 164.5q-221 0 -346 -167.5t-125 -465.5q0 -299 120 -461t341 -162q226 0 345.5 157.5t119.5 453.5zM1087 1722l46 -20
q-49 -118 -87.5 -162.5t-91.5 -44.5q-41 0 -209 57q-116 41 -188 41q-42 0 -69 -19.5t-62 -76.5l-41 19q42 120 81 164t101 44q35 0 221 -57q117 -37 168 -37q86 0 131 92z" />
    <glyph glyph-name="Odieresis" unicode="&#xd6;" horiz-adv-x="1517" 
d="M1403 684q0 -704 -664 -704q-311 0 -467.5 172.5t-156.5 515.5q0 344 175 531t498 187q305 0 460 -177t155 -525zM1223 666q0 316 -116 480.5t-339 164.5q-221 0 -346 -167.5t-125 -465.5q0 -299 120 -461t341 -162q226 0 345.5 157.5t119.5 453.5zM588 1708q42 0 72 -30
t30 -72q0 -43 -30 -74t-72 -31q-41 0 -72 31t-31 74q0 41 31 71.5t72 30.5zM956 1708q42 0 72.5 -30t30.5 -72q0 -43 -30 -74t-73 -31q-42 0 -72 31t-30 74q0 42 30 72t72 30z" />
    <glyph glyph-name="multiply" unicode="&#xd7;" 
d="M154 1028l84 82l327 -330l332 332l82 -84l-330 -330l330 -331l-82 -82l-332 329l-327 -327l-82 84l327 327z" />
    <glyph glyph-name="Oslash" unicode="&#xd8;" horiz-adv-x="1517" 
d="M1266 1430l82 -68l-111 -139q87 -99 126.5 -227.5t39.5 -313.5q0 -344 -166.5 -523t-486.5 -179q-129 0 -217.5 23t-178.5 81l-125 -166l-82 62l134 167q-86 100 -126 226.5t-40 298.5q0 339 176.5 526.5t494.5 187.5q115 0 202 -22.5t169 -73.5zM1077 1196
q-69 63 -139 89t-168 26q-232 0 -355.5 -164.5t-123.5 -470.5q0 -134 21 -231.5t69 -184.5zM442 174q53 -61 139.5 -89t180.5 -28q230 0 349.5 156.5t119.5 458.5q0 129 -20.5 233.5t-73.5 206.5z" />
    <glyph glyph-name="Ugrave" unicode="&#xd9;" horiz-adv-x="1521" 
d="M1106 -6v356q-91 -192 -211.5 -281t-288.5 -89q-73 0 -131 14t-98 37t-69 60t-46 76t-27 92.5t-13 101.5t-3 110v526q0 183 -32 252t-124 78v45q110 -12 228 -12t233 12v-45q-91 -9 -123 -78t-32 -252v-471q0 -216 60.5 -309.5t215.5 -93.5q144 0 262 87t199 228v559
q0 183 -32 252t-124 78v45q110 -12 228 -12t233 12v-45q-92 -9 -124 -78t-32 -252v-628q0 -186 30.5 -254.5t121.5 -75.5v-45q-73 8 -150 8q-85 0 -151 -8zM864 1526l-49 -56q-181 123 -340 181q24 53 41 79t55 64q170 -105 293 -268z" />
    <glyph glyph-name="Uacute" unicode="&#xda;" horiz-adv-x="1521" 
d="M1106 -6v356q-91 -192 -211.5 -281t-288.5 -89q-73 0 -131 14t-98 37t-69 60t-46 76t-27 92.5t-13 101.5t-3 110v526q0 183 -32 252t-124 78v45q110 -12 228 -12t233 12v-45q-91 -9 -123 -78t-32 -252v-471q0 -216 60.5 -309.5t215.5 -93.5q144 0 262 87t199 228v559
q0 183 -32 252t-124 78v45q110 -12 228 -12t233 12v-45q-92 -9 -124 -78t-32 -252v-628q0 -186 30.5 -254.5t121.5 -75.5v-45q-73 8 -150 8q-85 0 -151 -8zM621 1473l-33 67q136 66 230.5 123.5t209.5 144.5q33 -42 46.5 -68t23.5 -71q-210 -133 -477 -196z" />
    <glyph glyph-name="Ucircumflex" unicode="&#xdb;" horiz-adv-x="1521" 
d="M1106 -6v356q-91 -192 -211.5 -281t-288.5 -89q-73 0 -131 14t-98 37t-69 60t-46 76t-27 92.5t-13 101.5t-3 110v526q0 183 -32 252t-124 78v45q110 -12 228 -12t233 12v-45q-91 -9 -123 -78t-32 -252v-471q0 -216 60.5 -309.5t215.5 -93.5q144 0 262 87t199 228v559
q0 183 -32 252t-124 78v45q110 -12 228 -12t233 12v-45q-92 -9 -124 -78t-32 -252v-628q0 -186 30.5 -254.5t121.5 -75.5v-45q-73 8 -150 8q-85 0 -151 -8zM1141 1602l18 -17q-85 -106 -123 -106q-7 0 -15.5 3.5t-14 6.5t-15 9.5t-12.5 8.5l-244 176q-117 -61 -186 -194
h-187q82 105 200.5 175t271.5 122l215 -156q49 -35 71 -35q7 0 21 7z" />
    <glyph glyph-name="Udieresis" unicode="&#xdc;" horiz-adv-x="1521" 
d="M1106 -6v356q-91 -192 -211.5 -281t-288.5 -89q-73 0 -131 14t-98 37t-69 60t-46 76t-27 92.5t-13 101.5t-3 110v526q0 183 -32 252t-124 78v45q110 -12 228 -12t233 12v-45q-91 -9 -123 -78t-32 -252v-471q0 -216 60.5 -309.5t215.5 -93.5q144 0 262 87t199 228v559
q0 183 -32 252t-124 78v45q110 -12 228 -12t233 12v-45q-92 -9 -124 -78t-32 -252v-628q0 -186 30.5 -254.5t121.5 -75.5v-45q-73 8 -150 8q-85 0 -151 -8zM563 1708q43 0 73 -30t30 -72q0 -43 -30 -74t-73 -31q-41 0 -71.5 31t-30.5 74q0 41 30.5 71.5t71.5 30.5zM932 1708
q42 0 72 -30t30 -72q0 -43 -30 -74t-72 -31q-43 0 -73 31t-30 74q0 42 30.5 72t72.5 30z" />
    <glyph glyph-name="Yacute" unicode="&#xdd;" horiz-adv-x="1181" 
d="M621 690l184 307q42 72 68 137.5t26 100.5q0 88 -127 94v43q138 -12 221 -12q104 0 203 12v-31q-102 -34 -303 -374l-225 -381v-217q0 -185 32 -254t123 -76v-45q-120 12 -233 12q-112 0 -230 -12v45q92 7 124 76.5t32 253.5v196l-201 353q-42 73 -71 120t-69 104.5
t-73 92.5t-72.5 62.5t-78.5 35.5v39q120 -12 217 -12q109 0 244 12v-43q-90 0 -90 -72q0 -32 16 -72t61 -116zM457 1473l-33 67q136 66 230.5 123.5t209.5 144.5q33 -42 46.5 -68t23.5 -71q-210 -133 -477 -196z" />
    <glyph glyph-name="Thorn" unicode="&#xde;" horiz-adv-x="1128" 
d="M416 1059q120 43 254 43q195 0 296 -84.5t101 -247.5q0 -191 -130 -299.5t-359 -108.5q-66 0 -162 11q0 -192 38 -262.5t144 -71.5v-45q-170 12 -248 12q-85 0 -241 -12v45q91 4 124 74t33 256v628q0 186 -33 256t-124 74v45q167 -12 233 -12q76 0 223 12v-45
q-40 1 -69 -18.5t-44 -46t-23.5 -67t-10.5 -70t-2 -66.5zM416 983v-526q92 -19 153 -19q158 0 247 77t89 214q0 135 -81.5 211t-227.5 76q-93 0 -180 -33z" />
    <glyph glyph-name="germandbls" unicode="&#xdf;" horiz-adv-x="1234" 
d="M244 946q0 132 31 237t81.5 171t118 109.5t136 61t141.5 17.5q133 0 214 -69t81 -183q0 -79 -38 -152t-130 -171q-84 -90 -112 -131t-28 -76q0 -44 34.5 -72t156.5 -92q57 -30 94 -55.5t72 -62t52 -84t17 -107.5q0 -143 -91 -225t-249 -82q-137 0 -225 32q10 61 10 133
q0 75 -6 131h39q12 -113 63 -173t136 -60q83 0 132.5 55.5t49.5 149.5q0 85 -46 135t-155 106q-132 68 -159 89q-51 37 -55 90q-1 8 -1 16q0 54 32.5 105t115.5 147q80 92 115.5 162.5t35.5 152.5q0 92 -60 150.5t-155 58.5q-317 0 -317 -545v-548q0 -183 32.5 -253.5
t120.5 -76.5v-43q-102 12 -213 12q-115 0 -229 -12v43q91 4 124.5 74.5t33.5 255.5v497q-63 0 -152 -14l-12 20l53 76h111z" />
    <glyph glyph-name="agrave" unicode="&#xe0;" horiz-adv-x="997" 
d="M934 184l33 -20q-75 -184 -201 -184q-72 0 -98.5 49.5t-26.5 179.5q-82 -123 -158.5 -176t-171.5 -53q-101 0 -159 59.5t-58 165.5q0 155 142.5 243.5t404.5 94.5v49q0 174 -40 241.5t-144 67.5q-69 0 -110.5 -38t-41.5 -101q0 -70 39 -109q-34 -14 -70 -14
q-63 0 -99 33.5t-36 93.5q0 91 101 146t266 55q145 0 211.5 -59.5t66.5 -219.5q0 -38 -3 -163.5t-3 -143.5q0 -158 15 -217.5t55 -59.5q24 0 42.5 17.5t43.5 62.5zM641 481q-185 -3 -287 -69t-102 -183q0 -63 31.5 -99t85.5 -36q64 0 134 50.5t138 144.5v192zM569 1106
l-65 -29q-100 174 -225 299q42 37 68 53t75 35q104 -160 147 -358z" />
    <glyph glyph-name="aacute" unicode="&#xe1;" horiz-adv-x="997" 
d="M934 184l33 -20q-75 -184 -201 -184q-72 0 -98.5 49.5t-26.5 179.5q-82 -123 -158.5 -176t-171.5 -53q-101 0 -159 59.5t-58 165.5q0 155 142.5 243.5t404.5 94.5v49q0 174 -40 241.5t-144 67.5q-69 0 -110.5 -38t-41.5 -101q0 -70 39 -109q-34 -14 -70 -14
q-63 0 -99 33.5t-36 93.5q0 91 101 146t266 55q145 0 211.5 -59.5t66.5 -219.5q0 -38 -3 -163.5t-3 -143.5q0 -158 15 -217.5t55 -59.5q24 0 42.5 17.5t43.5 62.5zM641 481q-185 -3 -287 -69t-102 -183q0 -63 31.5 -99t85.5 -36q64 0 134 50.5t138 144.5v192zM322 1073
l-43 62q127 92 206 161.5t168 167.5q27 -19 53 -53.5t39 -69.5q-174 -155 -423 -268z" />
    <glyph glyph-name="acircumflex" unicode="&#xe2;" horiz-adv-x="997" 
d="M934 184l33 -20q-75 -184 -201 -184q-72 0 -98.5 49.5t-26.5 179.5q-82 -123 -158.5 -176t-171.5 -53q-101 0 -159 59.5t-58 165.5q0 155 142.5 243.5t404.5 94.5v49q0 174 -40 241.5t-144 67.5q-69 0 -110.5 -38t-41.5 -101q0 -70 39 -109q-34 -14 -70 -14
q-63 0 -99 33.5t-36 93.5q0 91 101 146t266 55q145 0 211.5 -59.5t66.5 -219.5q0 -38 -3 -163.5t-3 -143.5q0 -158 15 -217.5t55 -59.5q24 0 42.5 17.5t43.5 62.5zM641 481q-185 -3 -287 -69t-102 -183q0 -63 31.5 -99t85.5 -36q64 0 134 50.5t138 144.5v192zM498 1442
l239 -264q23 -26 40.5 -35.5t45.5 -9.5l4 -27l-114 -31q-16 -4 -27 -4q-34 0 -63 33l-181 213q-100 -121 -149 -242h-154q62 97 150 183t209 184z" />
    <glyph glyph-name="atilde" unicode="&#xe3;" horiz-adv-x="997" 
d="M934 184l33 -20q-75 -184 -201 -184q-72 0 -98.5 49.5t-26.5 179.5q-82 -123 -158.5 -176t-171.5 -53q-101 0 -159 59.5t-58 165.5q0 155 142.5 243.5t404.5 94.5v49q0 174 -40 241.5t-144 67.5q-69 0 -110.5 -38t-41.5 -101q0 -70 39 -109q-34 -14 -70 -14
q-63 0 -99 33.5t-36 93.5q0 91 101 146t266 55q145 0 211.5 -59.5t66.5 -219.5q0 -38 -3 -163.5t-3 -143.5q0 -158 15 -217.5t55 -59.5q24 0 42.5 17.5t43.5 62.5zM641 481q-185 -3 -287 -69t-102 -183q0 -63 31.5 -99t85.5 -36q64 0 134 50.5t138 144.5v192zM803 1354
l45 -21q-49 -115 -85.5 -154.5t-90.5 -39.5q-40 0 -168 43q-153 51 -217 51q-40 0 -66.5 -19t-58.5 -73l-43 18q42 116 79.5 156.5t98.5 40.5q42 0 197 -49q130 -43 180 -43q85 0 129 90z" />
    <glyph glyph-name="adieresis" unicode="&#xe4;" horiz-adv-x="997" 
d="M934 184l33 -20q-75 -184 -201 -184q-72 0 -98.5 49.5t-26.5 179.5q-82 -123 -158.5 -176t-171.5 -53q-101 0 -159 59.5t-58 165.5q0 155 142.5 243.5t404.5 94.5v49q0 174 -40 241.5t-144 67.5q-69 0 -110.5 -38t-41.5 -101q0 -70 39 -109q-34 -14 -70 -14
q-63 0 -99 33.5t-36 93.5q0 91 101 146t266 55q145 0 211.5 -59.5t66.5 -219.5q0 -38 -3 -163.5t-3 -143.5q0 -158 15 -217.5t55 -59.5q24 0 42.5 17.5t43.5 62.5zM641 481q-185 -3 -287 -69t-102 -183q0 -63 31.5 -99t85.5 -36q64 0 134 50.5t138 144.5v192zM279 1348
q41 0 70.5 -30t29.5 -71t-29.5 -70.5t-70.5 -29.5t-71 29.5t-30 70.5t30 71t71 30zM635 1348q41 0 70.5 -30t29.5 -71t-29.5 -70.5t-70.5 -29.5t-70.5 29.5t-29.5 70.5t29.5 71t70.5 30z" />
    <glyph glyph-name="aring" unicode="&#xe5;" horiz-adv-x="997" 
d="M934 184l33 -20q-75 -184 -201 -184q-72 0 -98.5 49.5t-26.5 179.5q-82 -123 -158.5 -176t-171.5 -53q-101 0 -159 59.5t-58 165.5q0 155 142.5 243.5t404.5 94.5v49q0 174 -40 241.5t-144 67.5q-69 0 -110.5 -38t-41.5 -101q0 -70 39 -109q-34 -14 -70 -14
q-63 0 -99 33.5t-36 93.5q0 91 101 146t266 55q145 0 211.5 -59.5t66.5 -219.5q0 -38 -3 -163.5t-3 -143.5q0 -158 15 -217.5t55 -59.5q24 0 42.5 17.5t43.5 62.5zM641 481q-185 -3 -287 -69t-102 -183q0 -63 31.5 -99t85.5 -36q64 0 134 50.5t138 144.5v192zM475 1477
q91 0 150 -57.5t59 -143.5t-59 -143.5t-150 -57.5t-150 57.5t-59 143.5t59 143.5t150 57.5zM475 1397q-50 0 -81.5 -34.5t-31.5 -86.5q0 -51 31.5 -86t81.5 -35q49 0 81 35.5t32 85.5q0 52 -31.5 86.5t-81.5 34.5z" />
    <glyph glyph-name="ae" unicode="&#xe6;" horiz-adv-x="1431" 
d="M1313 231l41 -45q-92 -110 -183 -158t-206 -48q-117 0 -192.5 56t-119.5 177q-78 -123 -158.5 -178t-183.5 -55q-100 0 -157.5 59t-57.5 162q0 161 133.5 247.5t391.5 92.5q2 27 2 94q0 138 -39.5 202t-126.5 64q-70 0 -113 -38.5t-43 -100.5q0 -70 39 -109
q-36 -14 -72 -14q-61 0 -97 34t-36 93q0 91 100.5 146t264.5 55q103 0 152.5 -32t74.5 -114q53 78 119.5 112t167.5 34q146 0 231.5 -81t85.5 -216q0 -62 -18 -111h-559q-2 -23 -2 -51q0 -197 77.5 -303.5t219.5 -106.5q145 0 264 133zM621 481q-181 -6 -274 -69.5
t-93 -180.5q0 -65 30 -99t87 -34q141 0 266 172q-16 66 -16 162v49zM1176 655q2 16 2 50q0 86 -50 141t-127 55q-95 0 -159.5 -72t-81.5 -198z" />
    <glyph glyph-name="ccedilla" unicode="&#xe7;" horiz-adv-x="894" 
d="M805 244l49 -47q-101 -115 -195 -166t-204 -51q-171 0 -262 112t-91 322q0 255 131.5 404t358.5 149q103 0 158 -37.5t55 -106.5t-49.5 -117.5t-120.5 -48.5q-13 0 -27 2q35 47 35 105q0 60 -32 93.5t-89 33.5q-118 0 -195 -118t-77 -298q0 -175 75.5 -279t204.5 -104
q75 0 139.5 36t135.5 116zM410 -154l-15 25q81 68 140 68q38 0 73 -46t35 -96q0 -69 -73.5 -121.5t-170.5 -52.5q-30 0 -45 6l29 86q38 -14 68 -14q63 0 63 53q0 33 -26 66t-56 33q-12 0 -22 -7z" />
    <glyph glyph-name="egrave" unicode="&#xe8;" horiz-adv-x="960" 
d="M246 559q-2 -29 -2 -63q0 -186 85 -297t226 -111q82 0 150.5 35t134.5 110l43 -43q-93 -113 -188 -161.5t-220 -48.5q-180 0 -276.5 118t-96.5 340q0 249 113.5 389t314.5 140q155 0 240.5 -82t85.5 -230q0 -52 -8 -96h-602zM258 631l444 28q3 21 3 29q0 97 -51.5 155
t-139.5 58q-97 0 -165.5 -72.5t-90.5 -197.5zM608 1106l-65 -29q-99 172 -226 299q41 37 67.5 53t76.5 35q104 -160 147 -358z" />
    <glyph glyph-name="eacute" unicode="&#xe9;" horiz-adv-x="960" 
d="M246 559q-2 -29 -2 -63q0 -186 85 -297t226 -111q82 0 150.5 35t134.5 110l43 -43q-93 -113 -188 -161.5t-220 -48.5q-180 0 -276.5 118t-96.5 340q0 249 113.5 389t314.5 140q155 0 240.5 -82t85.5 -230q0 -52 -8 -96h-602zM258 631l444 28q3 21 3 29q0 97 -51.5 155
t-139.5 58q-97 0 -165.5 -72.5t-90.5 -197.5zM356 1073l-43 62q128 93 207 162t168 167q27 -19 53 -53.5t39 -69.5q-173 -154 -424 -268z" />
    <glyph glyph-name="ecircumflex" unicode="&#xea;" horiz-adv-x="960" 
d="M246 559q-2 -29 -2 -63q0 -186 85 -297t226 -111q82 0 150.5 35t134.5 110l43 -43q-93 -113 -188 -161.5t-220 -48.5q-180 0 -276.5 118t-96.5 340q0 249 113.5 389t314.5 140q155 0 240.5 -82t85.5 -230q0 -52 -8 -96h-602zM258 631l444 28q3 21 3 29q0 97 -51.5 155
t-139.5 58q-97 0 -165.5 -72.5t-90.5 -197.5zM528 1442l240 -264q23 -26 40.5 -35.5t45.5 -9.5l4 -27l-115 -31q-16 -4 -26 -4q-35 0 -64 33l-180 213q-100 -121 -149 -242h-154q63 97 151 183.5t207 183.5z" />
    <glyph glyph-name="edieresis" unicode="&#xeb;" horiz-adv-x="960" 
d="M246 559q-2 -29 -2 -63q0 -186 85 -297t226 -111q82 0 150.5 35t134.5 110l43 -43q-93 -113 -188 -161.5t-220 -48.5q-180 0 -276.5 118t-96.5 340q0 249 113.5 389t314.5 140q155 0 240.5 -82t85.5 -230q0 -52 -8 -96h-602zM258 631l444 28q3 21 3 29q0 97 -51.5 155
t-139.5 58q-97 0 -165.5 -72.5t-90.5 -197.5zM334 1348q41 0 70.5 -30t29.5 -71t-29.5 -70.5t-70.5 -29.5t-71 29.5t-30 70.5t30 71t71 30zM690 1348q41 0 71 -30t30 -71t-30 -70.5t-71 -29.5t-70.5 29.5t-29.5 70.5t29.5 71t70.5 30z" />
    <glyph glyph-name="igrave" unicode="&#xec;" horiz-adv-x="589" 
d="M391 956q-16 -109 -16 -360v-229q0 -183 32.5 -253.5t120.5 -76.5v-43q-99 12 -213 12q-124 0 -229 -12v43q91 4 124.5 74.5t33.5 255.5v168q0 137 -14.5 213t-48 111t-95.5 42v37zM373 1106l-66 -29q-100 174 -225 299q42 37 68 53t75 35q105 -162 148 -358z" />
    <glyph glyph-name="iacute" unicode="&#xed;" horiz-adv-x="591" 
d="M391 956q-16 -109 -16 -360v-229q0 -183 32.5 -253.5t120.5 -76.5v-43q-99 12 -213 12q-124 0 -229 -12v43q91 4 124.5 74.5t33.5 255.5v168q0 137 -14.5 213t-48 111t-95.5 42v37zM104 1073l-43 62q128 93 207 162t168 167q27 -19 53 -53.5t39 -69.5
q-173 -154 -424 -268z" />
    <glyph glyph-name="icircumflex" unicode="&#xee;" horiz-adv-x="589" 
d="M391 956q-16 -109 -16 -360v-229q0 -183 32.5 -253.5t120.5 -76.5v-43q-99 12 -213 12q-124 0 -229 -12v43q91 4 124.5 74.5t33.5 255.5v168q0 137 -14.5 213t-48 111t-95.5 42v37zM295 1442l240 -264q23 -26 40.5 -35.5t45.5 -9.5l4 -27l-115 -31q-16 -4 -27 -4
q-34 0 -63 33l-180 213q-102 -123 -150 -242h-153q63 97 151 183.5t207 183.5z" />
    <glyph glyph-name="idieresis" unicode="&#xef;" horiz-adv-x="589" 
d="M129 1348q40 0 69 -30t29 -71t-29 -70.5t-69 -29.5q-41 0 -70.5 29.5t-29.5 70.5t29.5 71t70.5 30zM424 1348q41 0 69.5 -29.5t28.5 -71.5q0 -41 -28.5 -70.5t-69.5 -29.5t-70.5 29.5t-29.5 70.5t29.5 71t70.5 30zM391 956q-16 -109 -16 -360v-229q0 -183 32.5 -253.5
t120.5 -76.5v-43q-99 12 -213 12q-124 0 -229 -12v43q91 4 124.5 74.5t33.5 255.5v168q0 137 -14.5 213t-48 111t-95.5 42v37z" />
    <glyph glyph-name="eth" unicode="&#xf0;" horiz-adv-x="1107" 
d="M211 1497l41 57q92 -58 240 -174l210 160l27 -12v-84q-107 -49 -188 -109q251 -228 358 -425t107 -429q0 -243 -118.5 -372t-340.5 -129q-215 0 -331 128t-116 367q0 232 115.5 362t321.5 130q89 0 182 -35q-92 168 -266 336q-145 -118 -215 -205h-27v117l192 139
q-108 108 -192 178zM549 897q-135 0 -213 -106.5t-78 -290.5q0 -211 80 -331t221 -120q135 0 213 109t78 299q0 206 -80 323t-221 117z" />
    <glyph glyph-name="ntilde" unicode="&#xf1;" horiz-adv-x="1224" 
d="M375 954v-243q64 127 149 191.5t213 64.5q71 0 121 -20t78.5 -52t44.5 -86t20.5 -106t4.5 -128v-208q0 -185 33 -255.5t124 -74.5v-43q-95 12 -221 12q-108 0 -225 -12v43q91 4 124 74.5t33 255.5v170q0 159 -47.5 229t-156.5 70q-84 0 -155 -49.5t-140 -155.5v-264
q0 -184 32 -254t121 -76v-43q-95 12 -213 12q-101 0 -227 -12v43q89 4 122.5 75.5t33.5 254.5v168q0 202 -33 279.5t-123 88.5v37zM932 1354l45 -21q-49 -115 -85.5 -154.5t-90.5 -39.5q-40 0 -168 43q-153 51 -217 51q-40 0 -66.5 -19t-58.5 -73l-43 18q42 116 79.5 156.5
t98.5 40.5q42 0 197 -49q130 -43 180 -43q85 0 129 90z" />
    <glyph glyph-name="ograve" unicode="&#xf2;" horiz-adv-x="1110" 
d="M1008 479q0 -245 -118 -372t-343 -127q-213 0 -329 126t-116 363q0 243 120.5 370.5t348.5 127.5q211 0 324 -125.5t113 -362.5zM850 461q0 204 -80.5 320t-220.5 116q-136 0 -212.5 -105.5t-76.5 -295.5q0 -212 80 -329.5t221 -117.5q68 0 120.5 25.5t83.5 65t51 95.5
t27 110.5t7 115.5zM645 1106l-65 -29q-99 172 -226 299q41 37 67.5 53t76.5 35q104 -160 147 -358z" />
    <glyph glyph-name="oacute" unicode="&#xf3;" horiz-adv-x="1110" 
d="M1008 479q0 -245 -118 -372t-343 -127q-213 0 -329 126t-116 363q0 243 120.5 370.5t348.5 127.5q211 0 324 -125.5t113 -362.5zM850 461q0 204 -80.5 320t-220.5 116q-136 0 -212.5 -105.5t-76.5 -295.5q0 -212 80 -329.5t221 -117.5q68 0 120.5 25.5t83.5 65t51 95.5
t27 110.5t7 115.5zM383 1073l-43 62q128 93 207 162t168 167q27 -19 53 -53.5t39 -69.5q-173 -154 -424 -268z" />
    <glyph glyph-name="ocircumflex" unicode="&#xf4;" horiz-adv-x="1110" 
d="M1008 479q0 -245 -118 -372t-343 -127q-213 0 -329 126t-116 363q0 243 120.5 370.5t348.5 127.5q211 0 324 -125.5t113 -362.5zM850 461q0 204 -80.5 320t-220.5 116q-136 0 -212.5 -105.5t-76.5 -295.5q0 -212 80 -329.5t221 -117.5q68 0 120.5 25.5t83.5 65t51 95.5
t27 110.5t7 115.5zM567 1442l240 -264q23 -26 40.5 -35.5t45.5 -9.5l4 -27l-115 -31q-16 -4 -26 -4q-35 0 -64 33l-180 213q-102 -123 -150 -242h-153q63 97 151 183.5t207 183.5z" />
    <glyph glyph-name="otilde" unicode="&#xf5;" horiz-adv-x="1110" 
d="M1008 479q0 -245 -118 -372t-343 -127q-213 0 -329 126t-116 363q0 243 120.5 370.5t348.5 127.5q211 0 324 -125.5t113 -362.5zM850 461q0 204 -80.5 320t-220.5 116q-136 0 -212.5 -105.5t-76.5 -295.5q0 -212 80 -329.5t221 -117.5q68 0 120.5 25.5t83.5 65t51 95.5
t27 110.5t7 115.5zM877 1354l45 -21q-48 -114 -85.5 -154t-91.5 -40q-39 0 -167 43q-153 51 -218 51q-40 0 -66 -19t-58 -73l-43 18q42 116 79.5 156.5t98.5 40.5q41 0 196 -49q130 -43 181 -43q85 0 129 90z" />
    <glyph glyph-name="odieresis" unicode="&#xf6;" horiz-adv-x="1110" 
d="M1008 479q0 -245 -118 -372t-343 -127q-213 0 -329 126t-116 363q0 243 120.5 370.5t348.5 127.5q211 0 324 -125.5t113 -362.5zM850 461q0 204 -80.5 320t-220.5 116q-136 0 -212.5 -105.5t-76.5 -295.5q0 -212 80 -329.5t221 -117.5q68 0 120.5 25.5t83.5 65t51 95.5
t27 110.5t7 115.5zM379 1348q41 0 70.5 -30t29.5 -71t-29.5 -70.5t-70.5 -29.5t-70.5 29.5t-29.5 70.5t29.5 71t70.5 30zM735 1348q41 0 71 -30t30 -71t-30 -70.5t-71 -29.5t-70.5 29.5t-29.5 70.5t29.5 71t70.5 30z" />
    <glyph glyph-name="divide" unicode="&#xf7;" 
d="M135 760h864v-115h-864v115zM567 1143q46 0 78.5 -33.5t32.5 -79.5t-32.5 -79t-78.5 -33t-79 33t-33 79t33 79.5t79 33.5zM567 477q46 0 78.5 -32t32.5 -78q0 -47 -32.5 -80t-78.5 -33t-79 33t-33 80q0 46 33 78t79 32z" />
    <glyph glyph-name="oslash" unicode="&#xf8;" horiz-adv-x="1103" 
d="M903 1016l68 -55l-86 -109q66 -76 91 -168.5t25 -210.5q0 -242 -116.5 -371t-335.5 -129q-158 0 -270 76l-103 -133l-67 55l104 140q-59 72 -85 157t-26 203q0 242 121.5 372t347.5 130q152 0 250 -66zM745 825q-75 78 -194 78q-142 0 -222.5 -108t-80.5 -297
q0 -162 59 -283zM356 135q44 -51 92 -72.5t115 -21.5q144 0 221.5 109t77.5 311q0 168 -65 293z" />
    <glyph glyph-name="ugrave" unicode="&#xf9;" horiz-adv-x="1171" 
d="M967 952q-15 -99 -15 -245v-310q0 -200 32 -274t122 -86v-43q-52 10 -131 10q-66 0 -121 -10q-33 139 -33 246q-80 -137 -164.5 -198.5t-193.5 -61.5q-52 0 -93.5 12t-69 30t-47 47.5t-30 57t-16 66t-7 66.5t-1.5 67v209q0 201 -32.5 278.5t-123.5 87.5v39l299 12
q-12 -84 -12 -245v-275q0 -46 1 -77t5.5 -68t12.5 -61t22.5 -48t34.5 -38t50 -22.5t68 -8.5q87 0 155.5 48t141.5 162v216q0 140 -15 216t-49 110.5t-98 39.5v39zM608 1106l-65 -29q-99 172 -226 299q41 37 67.5 53t76.5 35q104 -160 147 -358z" />
    <glyph glyph-name="uacute" unicode="&#xfa;" horiz-adv-x="1171" 
d="M967 952q-15 -99 -15 -245v-310q0 -200 32 -274t122 -86v-43q-52 10 -131 10q-66 0 -121 -10q-33 139 -33 246q-80 -137 -164.5 -198.5t-193.5 -61.5q-52 0 -93.5 12t-69 30t-47 47.5t-30 57t-16 66t-7 66.5t-1.5 67v209q0 201 -32.5 278.5t-123.5 87.5v39l299 12
q-12 -84 -12 -245v-275q0 -46 1 -77t5.5 -68t12.5 -61t22.5 -48t34.5 -38t50 -22.5t68 -8.5q87 0 155.5 48t141.5 162v216q0 140 -15 216t-49 110.5t-98 39.5v39zM383 1073l-43 62q128 93 207 162t168 167q27 -19 53 -53.5t39 -69.5q-173 -154 -424 -268z" />
    <glyph glyph-name="ucircumflex" unicode="&#xfb;" horiz-adv-x="1171" 
d="M967 952q-15 -99 -15 -245v-310q0 -200 32 -274t122 -86v-43q-52 10 -131 10q-66 0 -121 -10q-33 139 -33 246q-80 -137 -164.5 -198.5t-193.5 -61.5q-52 0 -93.5 12t-69 30t-47 47.5t-30 57t-16 66t-7 66.5t-1.5 67v209q0 201 -32.5 278.5t-123.5 87.5v39l299 12
q-12 -84 -12 -245v-275q0 -46 1 -77t5.5 -68t12.5 -61t22.5 -48t34.5 -38t50 -22.5t68 -8.5q87 0 155.5 48t141.5 162v216q0 140 -15 216t-49 110.5t-98 39.5v39zM569 1442l240 -264q23 -26 40.5 -35.5t45.5 -9.5l4 -27l-115 -31q-16 -4 -26 -4q-35 0 -64 33l-180 213
q-100 -121 -149 -242h-154q63 97 151 183.5t207 183.5z" />
    <glyph glyph-name="udieresis" unicode="&#xfc;" horiz-adv-x="1171" 
d="M967 952q-15 -99 -15 -245v-310q0 -200 32 -274t122 -86v-43q-52 10 -131 10q-66 0 -121 -10q-33 139 -33 246q-80 -137 -164.5 -198.5t-193.5 -61.5q-52 0 -93.5 12t-69 30t-47 47.5t-30 57t-16 66t-7 66.5t-1.5 67v209q0 201 -32.5 278.5t-123.5 87.5v39l299 12
q-12 -84 -12 -245v-275q0 -46 1 -77t5.5 -68t12.5 -61t22.5 -48t34.5 -38t50 -22.5t68 -8.5q87 0 155.5 48t141.5 162v216q0 140 -15 216t-49 110.5t-98 39.5v39zM375 1348q41 0 70.5 -30t29.5 -71t-29.5 -70.5t-70.5 -29.5t-71 29.5t-30 70.5t30 71t71 30zM731 1348
q41 0 70.5 -30t29.5 -71t-29.5 -70.5t-70.5 -29.5t-70.5 29.5t-29.5 70.5t29.5 71t70.5 30z" />
    <glyph glyph-name="yacute" unicode="&#xfd;" horiz-adv-x="1052" 
d="M555 129l176 403q72 169 72 259q0 58 -29.5 84.5t-97.5 31.5v45q105 -14 188 -14q93 0 189 14v-32q-57 -40 -95 -101t-100 -198l-213 -474q-23 -52 -65 -151.5t-78 -178.5t-74 -149q-51 -92 -108.5 -135t-129.5 -43q-69 0 -107 37.5t-38 105.5q0 101 64 148
q0 -131 100 -131q98 0 182 121q72 103 72 176q0 39 -20.5 96.5t-73.5 175.5l-203 457q-49 110 -87 171.5t-77 72.5v32q100 -14 201 -14q107 0 198 14v-45q-114 -6 -114 -106q0 -67 80 -248zM412 1073l-43 62q127 92 206 161.5t168 167.5q27 -19 53.5 -53.5t39.5 -69.5
q-173 -154 -424 -268z" />
    <glyph glyph-name="thorn" unicode="&#xfe;" horiz-adv-x="1105" 
d="M315 1540v-829q86 141 167.5 198.5t195.5 57.5q160 0 243 -111.5t83 -323.5q0 -267 -123.5 -409.5t-352.5 -142.5q-114 0 -213 36v-153q0 -189 35.5 -258.5t132.5 -71.5v-43q-160 12 -239 12q-68 0 -224 -12v43q94 2 129 72.5t35 257.5v1259q0 134 -12.5 207t-42.5 110
t-88 50v37zM315 631v-232q0 -85 10 -145t35.5 -108t72.5 -71.5t118 -23.5q145 0 223 115.5t78 329.5q0 167 -59 255.5t-170 88.5q-171 0 -308 -209z" />
    <glyph glyph-name="ydieresis" unicode="&#xff;" horiz-adv-x="1052" 
d="M555 129l176 403q72 169 72 259q0 58 -29.5 84.5t-97.5 31.5v45q105 -14 188 -14q93 0 189 14v-32q-57 -40 -95 -101t-100 -198l-213 -474q-23 -52 -65 -151.5t-78 -178.5t-74 -149q-51 -92 -108.5 -135t-129.5 -43q-69 0 -107 37.5t-38 105.5q0 101 64 148
q0 -131 100 -131q98 0 182 121q72 103 72 176q0 39 -20.5 96.5t-73.5 175.5l-203 457q-49 110 -87 171.5t-77 72.5v32q100 -14 201 -14q107 0 198 14v-45q-114 -6 -114 -106q0 -67 80 -248zM367 1348q41 0 70.5 -30t29.5 -71t-29.5 -70.5t-70.5 -29.5t-71 29.5t-30 70.5
t30 71t71 30zM723 1348q41 0 70.5 -30t29.5 -71t-29.5 -70.5t-70.5 -29.5t-70.5 29.5t-29.5 70.5t29.5 71t70.5 30z" />
    <glyph glyph-name="Amacron" unicode="&#x100;" horiz-adv-x="1318" 
d="M887 467h-535l-57 -150q-29 -80 -29 -139q0 -67 32.5 -100t104.5 -39v-45q-98 12 -194 12t-209 -12v35q58 16 108 97.5t113 244.5l266 688q35 90 43.5 119t8.5 57q0 43 -30.5 62t-102.5 22v43q33 -2 69 -2q100 0 223 20q37 -129 80 -237l338 -867q47 -122 88 -177.5
t94 -69.5v-35q-120 12 -229 12q-108 0 -233 -12v45q71 7 108 33t37 92q0 64 -43 172zM852 553l-236 604l-231 -604h467zM330 1681h624l15 -26l-56 -92h-634l-15 16z" />
    <glyph glyph-name="amacron" unicode="&#x101;" horiz-adv-x="997" 
d="M934 184l33 -20q-75 -184 -201 -184q-72 0 -98.5 49.5t-26.5 179.5q-82 -123 -158.5 -176t-171.5 -53q-101 0 -159 59.5t-58 165.5q0 155 142.5 243.5t404.5 94.5v49q0 174 -40 241.5t-144 67.5q-69 0 -110.5 -38t-41.5 -101q0 -70 39 -109q-34 -14 -70 -14
q-63 0 -99 33.5t-36 93.5q0 91 101 146t266 55q145 0 211.5 -59.5t66.5 -219.5q0 -38 -3 -163.5t-3 -143.5q0 -158 15 -217.5t55 -59.5q24 0 42.5 17.5t43.5 62.5zM641 481q-185 -3 -287 -69t-102 -183q0 -63 31.5 -99t85.5 -36q64 0 134 50.5t138 144.5v192zM223 1300h572
l14 -26l-55 -92h-574l-14 16z" />
    <glyph glyph-name="Abreve" unicode="&#x102;" horiz-adv-x="1318" 
d="M887 467h-535l-57 -150q-29 -80 -29 -139q0 -67 32.5 -100t104.5 -39v-45q-98 12 -194 12t-209 -12v35q58 16 108 97.5t113 244.5l266 688q35 90 43.5 119t8.5 57q0 43 -30.5 62t-102.5 22v43q33 -2 69 -2q100 0 223 20q37 -129 80 -237l338 -867q47 -122 88 -177.5
t94 -69.5v-35q-120 12 -229 12q-108 0 -233 -12v45q71 7 108 33t37 92q0 64 -43 172zM852 553l-236 604l-231 -604h467zM770 1784h141q2 -14 2 -37q0 -98 -86 -162.5t-241 -64.5q-157 0 -229 60.5t-78 180.5q21 25 63.5 35t83.5 4q10 -207 197 -207q157 0 157 125
q0 36 -10 66z" />
    <glyph glyph-name="abreve" unicode="&#x103;" horiz-adv-x="997" 
d="M934 184l33 -20q-75 -184 -201 -184q-72 0 -98.5 49.5t-26.5 179.5q-82 -123 -158.5 -176t-171.5 -53q-101 0 -159 59.5t-58 165.5q0 155 142.5 243.5t404.5 94.5v49q0 174 -40 241.5t-144 67.5q-69 0 -110.5 -38t-41.5 -101q0 -70 39 -109q-34 -14 -70 -14
q-63 0 -99 33.5t-36 93.5q0 91 101 146t266 55q145 0 211.5 -59.5t66.5 -219.5q0 -38 -3 -163.5t-3 -143.5q0 -158 15 -217.5t55 -59.5q24 0 42.5 17.5t43.5 62.5zM641 481q-185 -3 -287 -69t-102 -183q0 -63 31.5 -99t85.5 -36q64 0 134 50.5t138 144.5v192zM621 1397h135
q2 -14 2 -37q0 -124 -79 -196t-214 -72q-128 0 -191 68t-69 214q19 22 58.5 33t82.5 6q4 -121 46.5 -184.5t119.5 -63.5q54 0 86.5 39t32.5 105q0 37 -10 88z" />
    <glyph glyph-name="Aogonek" unicode="&#x104;" horiz-adv-x="1318" 
d="M887 467h-535l-57 -150q-29 -80 -29 -139q0 -67 32.5 -100t104.5 -39v-45q-98 12 -194 12t-209 -12v35q58 16 108 97.5t113 244.5l266 688q35 90 43.5 119t8.5 57q0 43 -30.5 62t-102.5 22v43q33 -2 69 -2q100 0 223 20q37 -129 80 -237l338 -867q47 -122 88 -177.5
t94 -69.5v-35q-84 8 -190 12q-47 -40 -83 -123t-36 -162q0 -116 103 -116q63 0 129 71l34 -32q-53 -73 -121.5 -113.5t-142.5 -40.5t-114.5 41.5t-40.5 124.5q0 95 61 193t135 157q-96 -3 -196 -12v45q71 7 108 33t37 92q0 64 -43 172zM852 553l-236 604l-231 -604h467z" />
    <glyph glyph-name="aogonek" unicode="&#x105;" horiz-adv-x="997" 
d="M934 184l33 -20q-59 -140 -150 -176q-71 -28 -117.5 -107.5t-46.5 -156.5q0 -45 23 -82t80 -37q63 0 129 71l33 -30q-54 -74 -121.5 -115t-141.5 -41t-109.5 43.5t-35.5 120.5q0 97 57.5 184t149.5 148q-42 13 -59 65t-17 158q-82 -123 -158.5 -176t-171.5 -53
q-101 0 -159 59.5t-58 165.5q0 155 142.5 243.5t404.5 94.5v49q0 174 -40 241.5t-144 67.5q-69 0 -110.5 -38t-41.5 -101q0 -70 39 -109q-34 -14 -70 -14q-63 0 -99 33.5t-36 93.5q0 91 101 146t266 55q145 0 211.5 -59.5t66.5 -219.5q0 -38 -3 -163.5t-3 -143.5
q0 -158 15 -217.5t55 -59.5q24 0 42.5 17.5t43.5 62.5zM641 481q-185 -3 -287 -69t-102 -183q0 -63 31.5 -99t85.5 -36q64 0 134 50.5t138 144.5v192z" />
    <glyph glyph-name="Cacute" unicode="&#x106;" horiz-adv-x="1329" 
d="M1163 971h-51q-37 173 -123 256.5t-229 83.5q-217 0 -341 -169t-124 -462q0 -295 118 -460t330 -165q319 0 490 340l49 -18q-61 -149 -94 -326q-198 -71 -436 -71q-637 0 -637 671q0 353 176.5 544t503.5 191q183 0 368 -55q-10 -88 -10 -164q0 -79 10 -196zM571 1473
l-32 67q136 66 230.5 123.5t209.5 144.5q33 -42 46.5 -68t23.5 -71q-209 -133 -478 -196z" />
    <glyph glyph-name="cacute" unicode="&#x107;" horiz-adv-x="894" 
d="M805 244l49 -47q-101 -115 -195 -166t-204 -51q-171 0 -262 112t-91 322q0 255 131.5 404t358.5 149q103 0 158 -37.5t55 -106.5t-49.5 -117.5t-120.5 -48.5q-13 0 -27 2q35 47 35 105q0 60 -32 93.5t-89 33.5q-118 0 -195 -118t-77 -298q0 -175 75.5 -279t204.5 -104
q75 0 139.5 36t135.5 116zM389 1073l-43 62q128 93 207 162t168 167q27 -19 53 -53.5t39 -69.5q-173 -154 -424 -268z" />
    <glyph glyph-name="Ccircumflex" unicode="&#x108;" horiz-adv-x="1329" 
d="M1163 971h-51q-37 173 -123 256.5t-229 83.5q-217 0 -341 -169t-124 -462q0 -295 118 -460t330 -165q319 0 490 340l49 -18q-61 -149 -94 -326q-198 -71 -436 -71q-637 0 -637 671q0 353 176.5 544t503.5 191q183 0 368 -55q-10 -88 -10 -164q0 -79 10 -196zM1135 1602
l18 -17q-85 -106 -123 -106q-7 0 -15.5 3.5t-14 6.5t-15 9.5t-12.5 8.5l-244 176q-117 -61 -186 -194h-187q82 105 200.5 175t270.5 122l215 -156q49 -35 72 -35q7 0 21 7z" />
    <glyph glyph-name="ccircumflex" unicode="&#x109;" horiz-adv-x="894" 
d="M805 244l49 -47q-101 -115 -195 -166t-204 -51q-171 0 -262 112t-91 322q0 255 131.5 404t358.5 149q103 0 158 -37.5t55 -106.5t-49.5 -117.5t-120.5 -48.5q-13 0 -27 2q35 47 35 105q0 60 -32 93.5t-89 33.5q-118 0 -195 -118t-77 -298q0 -175 75.5 -279t204.5 -104
q75 0 139.5 36t135.5 116zM545 1442l239 -264q23 -26 40.5 -35.5t45.5 -9.5l4 -27l-114 -31q-16 -4 -27 -4q-34 0 -63 33l-181 213q-100 -121 -149 -242h-154q62 97 150 183t209 184z" />
    <glyph glyph-name="Cdotaccent" unicode="&#x10a;" horiz-adv-x="1329" 
d="M1163 971h-51q-37 173 -123 256.5t-229 83.5q-217 0 -341 -169t-124 -462q0 -295 118 -460t330 -165q319 0 490 340l49 -18q-61 -149 -94 -326q-198 -71 -436 -71q-637 0 -637 671q0 353 176.5 544t503.5 191q183 0 368 -55q-10 -88 -10 -164q0 -79 10 -196zM766 1737
q47 0 82 -35t35 -82t-35 -82t-82 -35t-82 35t-35 82t35 82t82 35z" />
    <glyph glyph-name="cdotaccent" unicode="&#x10b;" horiz-adv-x="894" 
d="M805 244l49 -47q-101 -115 -195 -166t-204 -51q-171 0 -262 112t-91 322q0 255 131.5 404t358.5 149q103 0 158 -37.5t55 -106.5t-49.5 -117.5t-120.5 -48.5q-13 0 -27 2q35 47 35 105q0 60 -32 93.5t-89 33.5q-118 0 -195 -118t-77 -298q0 -175 75.5 -279t204.5 -104
q75 0 139.5 36t135.5 116zM530 1348q41 0 71 -30t30 -71t-30 -70.5t-71 -29.5t-70.5 29.5t-29.5 70.5t29.5 71t70.5 30z" />
    <glyph glyph-name="Ccaron" unicode="&#x10c;" horiz-adv-x="1329" 
d="M1163 971h-51q-37 173 -123 256.5t-229 83.5q-217 0 -341 -169t-124 -462q0 -295 118 -460t330 -165q319 0 490 340l49 -18q-61 -149 -94 -326q-198 -71 -436 -71q-637 0 -637 671q0 353 176.5 544t503.5 191q183 0 368 -55q-10 -88 -10 -164q0 -79 10 -196zM406 1661
l-19 16q85 109 123 109q10 0 17.5 -4t39.5 -27l244 -174q52 23 103 75.5t83 117.5h189q-67 -89 -192 -167.5t-279 -129.5l-217 155q-49 35 -72 35q-8 0 -20 -6z" />
    <glyph glyph-name="ccaron" unicode="&#x10d;" horiz-adv-x="894" 
d="M805 244l49 -47q-101 -115 -195 -166t-204 -51q-171 0 -262 112t-91 322q0 255 131.5 404t358.5 149q103 0 158 -37.5t55 -106.5t-49.5 -117.5t-120.5 -48.5q-13 0 -27 2q35 47 35 105q0 60 -32 93.5t-89 33.5q-118 0 -195 -118t-77 -298q0 -175 75.5 -279t204.5 -104
q75 0 139.5 36t135.5 116zM496 1071l-240 264q-24 27 -41.5 37t-44.5 10l-4 23l115 33q16 4 26 4q35 0 64 -33l180 -213q106 136 149 242h154q-63 -99 -164.5 -201t-193.5 -166z" />
    <glyph glyph-name="Dcaron" unicode="&#x10e;" horiz-adv-x="1505" 
d="M111 1372q108 -12 225 -12q37 0 141 6t164 6q391 0 569.5 -161t178.5 -513q0 -344 -174.5 -524t-507.5 -180q-103 0 -221 6t-146 6q-118 0 -229 -12v45q91 7 123 76t32 254v628q0 183 -32 252t-123 78v45zM418 1266v-891q0 -145 18 -219q12 -49 53.5 -66.5t143.5 -17.5
q311 0 449.5 136.5t138.5 442.5q0 318 -153 480.5t-452 162.5q-119 0 -198 -28zM352 1696l-18 16q85 109 123 109q10 0 17.5 -4t39.5 -27l244 -174q53 23 103.5 75.5t82.5 116.5h189q-67 -89 -192 -167.5t-279 -129.5l-218 156q-49 35 -71 35q-9 0 -21 -6z" />
    <glyph glyph-name="dcaron" unicode="&#x10f;" horiz-adv-x="1140" 
d="M938 1540q-16 -136 -16 -371v-772q0 -136 13.5 -210.5t45.5 -110.5t92 -45v-37q-65 10 -135 10q-67 0 -119 -10q-24 83 -28 248q-88 -138 -175 -200t-194 -62q-151 0 -235.5 117.5t-84.5 328.5q0 262 119.5 401.5t343.5 139.5q69 0 112.5 -7.5t113.5 -31.5v188
q0 138 -14.5 214.5t-48 112t-95.5 42.5v37zM791 322v217q0 199 -52.5 278.5t-183.5 79.5q-147 0 -226 -111.5t-79 -320.5q0 -173 57 -263.5t164 -90.5q157 0 320 211zM979 1440l-8 18q38 29 97 55.5t99 26.5q41 0 59.5 -31t18.5 -98q0 -95 -58 -163.5t-161 -86.5l-12 43
q90 26 90 117q0 47 -35 83t-90 36z" />
    <glyph glyph-name="Dcroat" unicode="&#x110;" horiz-adv-x="1505" 
d="M266 655q-75 0 -151 -16l-13 14l62 92h102v252q0 184 -33 254t-122 76v45q102 -12 202 -12q41 0 159.5 6t170.5 6q390 0 569 -161t179 -513q0 -343 -174 -523.5t-515 -180.5q-64 0 -192.5 6t-190.5 6q-117 0 -208 -12v45q89 6 122 76t33 254v286zM418 655v-280
q0 -52 6 -120t14 -99q12 -47 53.5 -65.5t137.5 -18.5q306 0 450 133.5t144 439.5q0 323 -152 486t-453 163q-132 0 -200 -28v-521h270l12 -22l-51 -84q-125 16 -231 16z" />
    <glyph glyph-name="dcroat" unicode="&#x111;" horiz-adv-x="1140" 
d="M467 1249h319q-9 123 -43.5 175t-109.5 61v37l305 18q-14 -101 -16 -291h137l14 -26l-33 -54h-118v-772q0 -136 13.5 -210.5t45.5 -110.5t92 -45v-37q-65 10 -135 10q-67 0 -119 -10q-24 83 -28 248q-88 -138 -175 -200t-194 -62q-151 0 -235.5 117.5t-84.5 328.5
q0 262 119.5 401.5t343.5 139.5q69 0 112.5 -7.5t113.5 -31.5v241h-345l-14 17zM791 322v217q0 199 -52.5 278.5t-183.5 79.5q-147 0 -226 -111.5t-79 -320.5q0 -173 57 -263.5t164 -90.5q157 0 320 211z" />
    <glyph glyph-name="Emacron" unicode="&#x112;" horiz-adv-x="1196" 
d="M418 1286v-516h151q52 0 84 2t72 10t65 23.5t47 44t33 70.5h43q-18 -108 -18 -197q0 -81 18 -186h-45q-11 35 -25 59.5t-35.5 40t-38.5 24t-51.5 12.5t-56.5 4.5t-69 0.5h-12h-162v-297q0 -238 53 -285q30 -24 119 -24q203 0 309.5 63.5t175.5 224.5l45 -24
q-86 -216 -119 -354q-148 18 -389 18h-258q-129 0 -243 -6v45q91 7 123 76t32 254v628q0 183 -32 252t-123 78v45q117 -6 270 -6h223q213 0 361 12q0 -123 36 -307l-43 -14q-26 94 -72.5 141.5t-133.5 67.5t-246 20h-88zM326 1681h624l15 -26l-56 -92h-635l-14 16z" />
    <glyph glyph-name="emacron" unicode="&#x113;" horiz-adv-x="960" 
d="M246 559q-2 -29 -2 -63q0 -186 85 -297t226 -111q82 0 150.5 35t134.5 110l43 -43q-93 -113 -188 -161.5t-220 -48.5q-180 0 -276.5 118t-96.5 340q0 249 113.5 389t314.5 140q155 0 240.5 -82t85.5 -230q0 -52 -8 -96h-602zM258 631l444 28q3 21 3 29q0 97 -51.5 155
t-139.5 58q-97 0 -165.5 -72.5t-90.5 -197.5zM254 1300h571l15 -26l-56 -92h-573l-14 16z" />
    <glyph glyph-name="Ebreve" unicode="&#x114;" horiz-adv-x="1196" 
d="M418 1286v-516h151q52 0 84 2t72 10t65 23.5t47 44t33 70.5h43q-18 -108 -18 -197q0 -81 18 -186h-45q-11 35 -25 59.5t-35.5 40t-38.5 24t-51.5 12.5t-56.5 4.5t-69 0.5h-12h-162v-297q0 -238 53 -285q30 -24 119 -24q203 0 309.5 63.5t175.5 224.5l45 -24
q-86 -216 -119 -354q-148 18 -389 18h-258q-129 0 -243 -6v45q91 7 123 76t32 254v628q0 183 -32 252t-123 78v45q117 -6 270 -6h223q213 0 361 12q0 -123 36 -307l-43 -14q-26 94 -72.5 141.5t-133.5 67.5t-246 20h-88zM768 1784h141q2 -14 2 -37q0 -98 -86 -162.5
t-241 -64.5q-158 0 -230 60.5t-78 180.5q21 25 64 35t84 4q10 -207 197 -207q157 0 157 125q0 36 -10 66z" />
    <glyph glyph-name="ebreve" unicode="&#x115;" horiz-adv-x="960" 
d="M246 559q-2 -29 -2 -63q0 -186 85 -297t226 -111q82 0 150.5 35t134.5 110l43 -43q-93 -113 -188 -161.5t-220 -48.5q-180 0 -276.5 118t-96.5 340q0 249 113.5 389t314.5 140q155 0 240.5 -82t85.5 -230q0 -52 -8 -96h-602zM258 631l444 28q3 21 3 29q0 97 -51.5 155
t-139.5 58q-97 0 -165.5 -72.5t-90.5 -197.5zM641 1397h135q2 -14 2 -37q0 -124 -79 -196t-214 -72q-128 0 -191 68t-69 214q19 22 59 33t83 6q5 -122 47 -185t118 -63q54 0 86.5 39t32.5 105q0 37 -10 88z" />
    <glyph glyph-name="Edotaccent" unicode="&#x116;" horiz-adv-x="1196" 
d="M418 1286v-516h151q52 0 84 2t72 10t65 23.5t47 44t33 70.5h43q-18 -108 -18 -197q0 -81 18 -186h-45q-11 35 -25 59.5t-35.5 40t-38.5 24t-51.5 12.5t-56.5 4.5t-69 0.5h-12h-162v-297q0 -238 53 -285q30 -24 119 -24q203 0 309.5 63.5t175.5 224.5l45 -24
q-86 -216 -119 -354q-148 18 -389 18h-258q-129 0 -243 -6v45q91 7 123 76t32 254v628q0 183 -32 252t-123 78v45q117 -6 270 -6h223q213 0 361 12q0 -123 36 -307l-43 -14q-26 94 -72.5 141.5t-133.5 67.5t-246 20h-88zM586 1737q47 0 81.5 -35t34.5 -82t-34.5 -82
t-81.5 -35t-82 35t-35 82t35 82t82 35z" />
    <glyph glyph-name="edotaccent" unicode="&#x117;" horiz-adv-x="960" 
d="M246 559q-2 -29 -2 -63q0 -186 85 -297t226 -111q82 0 150.5 35t134.5 110l43 -43q-93 -113 -188 -161.5t-220 -48.5q-180 0 -276.5 118t-96.5 340q0 249 113.5 389t314.5 140q155 0 240.5 -82t85.5 -230q0 -52 -8 -96h-602zM258 631l444 28q3 21 3 29q0 97 -51.5 155
t-139.5 58q-97 0 -165.5 -72.5t-90.5 -197.5zM522 1348q41 0 71 -30t30 -71t-30 -70.5t-71 -29.5t-70.5 29.5t-29.5 70.5t29.5 71t70.5 30z" />
    <glyph glyph-name="Eogonek" unicode="&#x118;" horiz-adv-x="1196" 
d="M418 1286v-516h151q52 0 84 2t72 10t65 23.5t47 44t33 70.5h43q-18 -108 -18 -197q0 -81 18 -186h-45q-11 35 -25 59.5t-35.5 40t-38.5 24t-51.5 12.5t-56.5 4.5t-69 0.5h-12h-162v-297q0 -238 53 -285q30 -24 119 -24q203 0 309.5 63.5t175.5 224.5l45 -24
q-86 -216 -119 -354q-46 8 -86 8q-47 -9 -106 -95.5t-59 -179.5q0 -110 102 -110q63 0 129 71l35 -32q-53 -73 -121.5 -113.5t-142.5 -40.5t-115 41.5t-41 122.5q0 100 63 190.5t160 151.5q-136 4 -207 4h-258q-129 0 -243 -6v45q91 7 123 76t32 254v628q0 183 -32 252
t-123 78v45q117 -6 270 -6h223q213 0 361 12q0 -123 36 -307l-43 -14q-26 94 -72.5 141.5t-133.5 67.5t-246 20h-88z" />
    <glyph glyph-name="eogonek" unicode="&#x119;" horiz-adv-x="960" 
d="M246 559q-2 -29 -2 -63q0 -186 85 -297t226 -111q82 0 150.5 35t134.5 110l43 -43q-30 -35 -103 -104q-90 -84 -141 -169t-51 -193q0 -58 27.5 -88.5t74.5 -30.5q63 0 129 71l31 -30q-114 -156 -260 -156q-74 0 -110 43.5t-36 120.5t43 169t111 171q-55 -14 -123 -14
q-180 0 -276.5 118t-96.5 340q0 249 113.5 389t314.5 140q155 0 240.5 -82t85.5 -230q0 -52 -8 -96h-602zM258 631l444 28q3 21 3 29q0 97 -51.5 155t-139.5 58q-97 0 -165.5 -72.5t-90.5 -197.5z" />
    <glyph glyph-name="Ecaron" unicode="&#x11a;" horiz-adv-x="1196" 
d="M418 1286v-516h151q52 0 84 2t72 10t65 23.5t47 44t33 70.5h43q-18 -108 -18 -197q0 -81 18 -186h-45q-11 35 -25 59.5t-35.5 40t-38.5 24t-51.5 12.5t-56.5 4.5t-69 0.5h-12h-162v-297q0 -238 53 -285q30 -24 119 -24q203 0 309.5 63.5t175.5 224.5l45 -24
q-86 -216 -119 -354q-148 18 -389 18h-258q-129 0 -243 -6v45q91 7 123 76t32 254v628q0 183 -32 252t-123 78v45q117 -6 270 -6h223q213 0 361 12q0 -123 36 -307l-43 -14q-26 94 -72.5 141.5t-133.5 67.5t-246 20h-88zM254 1661l-18 16q85 109 122 109q11 0 18.5 -4
t39.5 -27l243 -174q53 23 104 76t83 117h188q-67 -89 -192 -167.5t-279 -129.5l-217 155q-49 35 -72 35q-8 0 -20 -6z" />
    <glyph glyph-name="ecaron" unicode="&#x11b;" horiz-adv-x="960" 
d="M246 559q-2 -29 -2 -63q0 -186 85 -297t226 -111q82 0 150.5 35t134.5 110l43 -43q-93 -113 -188 -161.5t-220 -48.5q-180 0 -276.5 118t-96.5 340q0 249 113.5 389t314.5 140q155 0 240.5 -82t85.5 -230q0 -52 -8 -96h-602zM258 631l444 28q3 21 3 29q0 97 -51.5 155
t-139.5 58q-97 0 -165.5 -72.5t-90.5 -197.5zM504 1071l-240 264q-24 27 -41.5 37t-44.5 10l-4 23l115 33q16 4 26 4q35 0 64 -33l180 -213q108 139 150 242h153q-63 -99 -164.5 -201t-193.5 -166z" />
    <glyph glyph-name="Gcircumflex" unicode="&#x11c;" horiz-adv-x="1396" 
d="M1163 967h-51q-65 342 -350 342q-221 0 -344 -167.5t-123 -465.5q0 -296 121.5 -457.5t345.5 -161.5q92 0 165 25t115 70q39 42 39 151q0 97 -32 135.5t-117 46.5v45q92 -12 190 -12q93 0 189 12v-41q-47 -7 -61.5 -46t-14.5 -158v-131l53 -50q-236 -124 -547 -124
q-309 0 -467.5 170t-158.5 501q0 353 176 544t500 191q190 0 372 -57q-12 -71 -12 -162q0 -109 12 -200zM1151 1602l18 -17q-85 -106 -122 -106q-7 0 -16 3.5t-14 6.5t-15.5 10t-12.5 8l-244 176q-117 -61 -186 -194h-186q82 105 200.5 175t270.5 122l215 -156
q49 -35 71 -35q7 0 21 7z" />
    <glyph glyph-name="gcircumflex" unicode="&#x11d;" horiz-adv-x="1069" 
d="M373 375q-128 29 -186 95.5t-58 186.5q0 145 97 227.5t266 82.5q116 0 233 -43q201 9 213 153q78 -49 78 -125q0 -104 -127 -104q-45 0 -88 8q40 -40 56.5 -81.5t16.5 -102.5q0 -141 -97.5 -223t-266.5 -82q-24 0 -53 2q-83 -41 -118.5 -73.5t-35.5 -66.5q0 -49 50 -61.5
t239 -15.5q221 -3 320.5 -62t99.5 -203q0 -169 -152 -266.5t-414 -97.5q-193 0 -292 63t-99 185q0 197 260 268q-178 0 -178 104q0 56 54.5 109.5t181.5 122.5zM721 664q0 109 -60 175t-161 66t-159 -63t-58 -172q0 -116 58.5 -180t164.5 -64t160.5 65t54.5 173zM877 -156
q0 92 -85 139.5t-249 47.5q-169 0 -258.5 -54t-89.5 -157q0 -101 83 -158t232 -57q50 0 97 6t97.5 22.5t87.5 42.5t61 69.5t24 98.5zM549 1442l239 -264q23 -26 40.5 -35.5t45.5 -9.5l5 -27l-115 -31q-16 -4 -27 -4q-34 0 -63 33l-180 213q-102 -123 -150 -242h-154
q62 97 150 183t209 184z" />
    <glyph glyph-name="Gbreve" unicode="&#x11e;" horiz-adv-x="1396" 
d="M1163 967h-51q-65 342 -350 342q-221 0 -344 -167.5t-123 -465.5q0 -296 121.5 -457.5t345.5 -161.5q92 0 165 25t115 70q39 42 39 151q0 97 -32 135.5t-117 46.5v45q92 -12 190 -12q93 0 189 12v-41q-47 -7 -61.5 -46t-14.5 -158v-131l53 -50q-236 -124 -547 -124
q-309 0 -467.5 170t-158.5 501q0 353 176 544t500 191q190 0 372 -57q-12 -71 -12 -162q0 -109 12 -200zM940 1784h141q2 -14 2 -37q0 -98 -86 -162.5t-241 -64.5q-157 0 -229 60.5t-78 180.5q21 25 63.5 35t83.5 4q10 -207 197 -207q157 0 157 125q0 36 -10 66z" />
    <glyph glyph-name="gbreve" unicode="&#x11f;" horiz-adv-x="1069" 
d="M373 375q-128 29 -186 95.5t-58 186.5q0 145 97 227.5t266 82.5q116 0 233 -43q201 9 213 153q78 -49 78 -125q0 -104 -127 -104q-45 0 -88 8q40 -40 56.5 -81.5t16.5 -102.5q0 -141 -97.5 -223t-266.5 -82q-24 0 -53 2q-83 -41 -118.5 -73.5t-35.5 -66.5q0 -49 50 -61.5
t239 -15.5q221 -3 320.5 -62t99.5 -203q0 -169 -152 -266.5t-414 -97.5q-193 0 -292 63t-99 185q0 197 260 268q-178 0 -178 104q0 56 54.5 109.5t181.5 122.5zM721 664q0 109 -60 175t-161 66t-159 -63t-58 -172q0 -116 58.5 -180t164.5 -64t160.5 65t54.5 173zM877 -156
q0 92 -85 139.5t-249 47.5q-169 0 -258.5 -54t-89.5 -157q0 -101 83 -158t232 -57q50 0 97 6t97.5 22.5t87.5 42.5t61 69.5t24 98.5zM647 1397h135q2 -14 2 -37q0 -124 -78.5 -196t-213.5 -72q-128 0 -191.5 68t-69.5 214q19 22 59 33t83 6q4 -121 46.5 -184.5t119.5 -63.5
q54 0 86 39t32 105q0 37 -10 88z" />
    <glyph glyph-name="Gdotaccent" unicode="&#x120;" horiz-adv-x="1396" 
d="M1163 967h-51q-65 342 -350 342q-221 0 -344 -167.5t-123 -465.5q0 -296 121.5 -457.5t345.5 -161.5q92 0 165 25t115 70q39 42 39 151q0 97 -32 135.5t-117 46.5v45q92 -12 190 -12q93 0 189 12v-41q-47 -7 -61.5 -46t-14.5 -158v-131l53 -50q-236 -124 -547 -124
q-309 0 -467.5 170t-158.5 501q0 353 176 544t500 191q190 0 372 -57q-12 -71 -12 -162q0 -109 12 -200zM760 1737q47 0 82 -35t35 -82t-35 -82t-82 -35t-82 35t-35 82t35 82t82 35z" />
    <glyph glyph-name="gdotaccent" unicode="&#x121;" horiz-adv-x="1069" 
d="M373 375q-128 29 -186 95.5t-58 186.5q0 145 97 227.5t266 82.5q116 0 233 -43q201 9 213 153q78 -49 78 -125q0 -104 -127 -104q-45 0 -88 8q40 -40 56.5 -81.5t16.5 -102.5q0 -141 -97.5 -223t-266.5 -82q-24 0 -53 2q-83 -41 -118.5 -73.5t-35.5 -66.5q0 -49 50 -61.5
t239 -15.5q221 -3 320.5 -62t99.5 -203q0 -169 -152 -266.5t-414 -97.5q-193 0 -292 63t-99 185q0 197 260 268q-178 0 -178 104q0 56 54.5 109.5t181.5 122.5zM721 664q0 109 -60 175t-161 66t-159 -63t-58 -172q0 -116 58.5 -180t164.5 -64t160.5 65t54.5 173zM877 -156
q0 92 -85 139.5t-249 47.5q-169 0 -258.5 -54t-89.5 -157q0 -101 83 -158t232 -57q50 0 97 6t97.5 22.5t87.5 42.5t61 69.5t24 98.5zM510 1348q41 0 70.5 -30t29.5 -71t-29.5 -70.5t-70.5 -29.5t-70.5 29.5t-29.5 70.5t29.5 71t70.5 30z" />
    <glyph glyph-name="Gcommaaccent" unicode="&#x122;" horiz-adv-x="1396" 
d="M1163 967h-51q-65 342 -350 342q-221 0 -344 -167.5t-123 -465.5q0 -296 121.5 -457.5t345.5 -161.5q92 0 165 25t115 70q39 42 39 151q0 97 -32 135.5t-117 46.5v45q92 -12 190 -12q93 0 189 12v-41q-47 -7 -61.5 -46t-14.5 -158v-131l53 -50q-236 -124 -547 -124
q-309 0 -467.5 170t-158.5 501q0 353 176 544t500 191q190 0 372 -57q-12 -71 -12 -162q0 -109 12 -200zM598 -225l-8 18q53 35 108.5 58.5t87.5 23.5q41 0 59.5 -31t18.5 -98q0 -96 -57.5 -168t-159.5 -98l-16 43q92 27 92 141q0 51 -34 81t-91 30z" />
    <glyph glyph-name="gcommaaccent" unicode="&#x123;" horiz-adv-x="1069" 
d="M645 1186l6 -19q-49 -33 -102 -55t-84 -22q-39 0 -56.5 29t-17.5 93q0 91 55.5 155t159.5 87l21 -39q-101 -33 -101 -117q0 -45 33 -78.5t86 -33.5zM373 375q-128 29 -186 95.5t-58 186.5q0 145 97 227.5t266 82.5q116 0 233 -43q201 9 213 153q78 -49 78 -125
q0 -104 -127 -104q-45 0 -88 8q40 -40 56.5 -81.5t16.5 -102.5q0 -141 -97.5 -223t-266.5 -82q-24 0 -53 2q-83 -41 -118.5 -73.5t-35.5 -66.5q0 -49 50 -61.5t239 -15.5q221 -3 320.5 -62t99.5 -203q0 -169 -152 -266.5t-414 -97.5q-193 0 -292 63t-99 185q0 197 260 268
q-178 0 -178 104q0 56 54.5 109.5t181.5 122.5zM721 664q0 109 -60 175t-161 66t-159 -63t-58 -172q0 -116 58.5 -180t164.5 -64t160.5 65t54.5 173zM877 -156q0 92 -85 139.5t-249 47.5q-169 0 -258.5 -54t-89.5 -157q0 -101 83 -158t232 -57q50 0 97 6t97.5 22.5
t87.5 42.5t61 69.5t24 98.5z" />
    <glyph glyph-name="Hcircumflex" unicode="&#x124;" horiz-adv-x="1572" 
d="M418 760h737v237q0 183 -32 252t-124 78v45q118 -12 232 -12q111 0 231 12v-45q-91 -9 -123 -78t-32 -252v-628q0 -185 32 -254t123 -76v-45q-120 12 -231 12q-112 0 -232 -12v45q92 7 124 76.5t32 253.5v305h-737v-305q0 -184 31.5 -253.5t123.5 -76.5v-45
q-122 12 -235 12q-107 0 -227 -12v45q91 7 123 76t32 254v628q0 183 -32 252t-123 78v45q120 -12 227 -12q113 0 235 12v-45q-93 -9 -124 -77.5t-31 -252.5v-237zM1178 1602l18 -17q-85 -106 -123 -106q-7 0 -15.5 3.5t-14 6.5t-15 9.5t-12.5 8.5l-244 176
q-117 -61 -186 -194h-187q82 105 200.5 175t270.5 122l215 -156q49 -35 72 -35q7 0 21 7z" />
    <glyph glyph-name="hcircumflex" unicode="&#x125;" horiz-adv-x="1200" 
d="M600 1673l18 -16q-80 -101 -116 -101q-6 0 -13 2.5t-12.5 6t-14 9.5t-13.5 9l-232 148q-101 -53 -178 -166h-176q144 160 446 262l205 -127q6 -3 17.5 -10.5t16 -10t12 -6.5t12.5 -5t10 -1q9 0 18 6zM375 1540q-25 -167 -25 -489v-340q47 86 91.5 138t113.5 85t160 33
q71 0 121 -20t78 -52t44 -86t20.5 -106t4.5 -128v-208q0 -125 14.5 -194.5t47.5 -101t94 -34.5v-43q-115 12 -213 12q-92 0 -228 -12v43q89 6 121.5 76t32.5 254v172q0 161 -46.5 228t-156.5 67q-175 0 -299 -203v-264q0 -183 33.5 -253.5t122.5 -76.5v-43q-115 12 -213 12
t-234 -12v43q91 5 125.5 75.5t34.5 254.5v751q0 203 -34 280.5t-126 86.5v37z" />
    <glyph glyph-name="Hbar" unicode="&#x126;" horiz-adv-x="1572" 
d="M104 1055h160q-3 148 -35.5 205.5t-117.5 66.5v45q120 -12 227 -12q113 0 235 12v-45q-86 -9 -118 -66.5t-37 -205.5h735q-3 147 -36 205t-118 67v45q118 -12 232 -12q111 0 231 12v-45q-85 -9 -118 -66.5t-37 -205.5h182l14 -27l-35 -59h-161v-600q0 -185 32 -254
t123 -76v-45q-120 12 -231 12q-112 0 -232 -12v45q92 7 124 76.5t32 253.5v305h-737v-305q0 -184 31.5 -253.5t123.5 -76.5v-45q-122 12 -235 12q-107 0 -227 -12v45q91 7 123 76t32 254v600h-184l-14 16zM418 760h737v209h-737v-209z" />
    <glyph glyph-name="hbar" unicode="&#x127;" horiz-adv-x="1200" 
d="M375 1540q-20 -133 -23 -291h303l15 -26l-33 -54h-287v-458q47 86 91.5 138t113.5 85t160 33q71 0 121 -20t78 -52t44 -86t20.5 -106t4.5 -128v-208q0 -125 14.5 -194.5t47.5 -101t94 -34.5v-43q-115 12 -213 12q-92 0 -228 -12v43q89 6 121.5 76t32.5 254v172
q0 161 -46.5 228t-156.5 67q-175 0 -299 -203v-264q0 -183 33.5 -253.5t122.5 -76.5v-43q-115 12 -213 12t-234 -12v43q91 5 125.5 75.5t34.5 254.5v802h-176l-14 17l34 63h152q-9 123 -44.5 175.5t-111.5 60.5v37z" />
    <glyph glyph-name="Itilde" unicode="&#x128;" horiz-adv-x="684" 
d="M573 39v-45q-120 12 -233 12q-111 0 -229 -12v45q91 7 123 76t32 254v628q0 183 -32 252t-123 78v45q110 -12 229 -12q118 0 233 12v-45q-91 -9 -123 -78t-32 -252v-628q0 -185 32 -254t123 -76zM670 1722l45 -20q-50 -119 -88 -163t-90 -44q-41 0 -209 57
q-116 41 -189 41q-42 0 -69 -19.5t-62 -76.5l-41 19q42 120 81.5 164t101.5 44q35 0 221 -57q117 -37 168 -37q86 0 131 92z" />
    <glyph glyph-name="itilde" unicode="&#x129;" horiz-adv-x="591" 
d="M391 956q-16 -109 -16 -360v-229q0 -183 32.5 -253.5t120.5 -76.5v-43q-99 12 -213 12q-124 0 -229 -12v43q91 4 124.5 74.5t33.5 255.5v168q0 137 -14.5 213t-48 111t-95.5 42v37zM594 1354l45 -21q-49 -115 -85.5 -154.5t-90.5 -39.5q-40 0 -168 43q-153 51 -217 51
q-40 0 -66.5 -19t-58.5 -73l-43 18q42 116 79.5 156.5t98.5 40.5q42 0 197 -49q130 -43 180 -43q85 0 129 90z" />
    <glyph glyph-name="Imacron" unicode="&#x12a;" horiz-adv-x="684" 
d="M573 39v-45q-120 12 -233 12q-111 0 -229 -12v45q91 7 123 76t32 254v628q0 183 -32 252t-123 78v45q110 -12 229 -12q118 0 233 12v-45q-91 -9 -123 -78t-32 -252v-628q0 -185 32 -254t123 -76zM70 1681h624l15 -26l-56 -92h-635l-14 16z" />
    <glyph glyph-name="imacron" unicode="&#x12b;" horiz-adv-x="591" 
d="M391 956q-16 -109 -16 -360v-229q0 -183 32.5 -253.5t120.5 -76.5v-43q-99 12 -213 12q-124 0 -229 -12v43q91 4 124.5 74.5t33.5 255.5v168q0 137 -14.5 213t-48 111t-95.5 42v37zM14 1300h572l14 -26l-55 -92h-574l-14 16z" />
    <glyph glyph-name="Ibreve" unicode="&#x12c;" horiz-adv-x="684" 
d="M573 39v-45q-120 12 -233 12q-111 0 -229 -12v45q91 7 123 76t32 254v628q0 183 -32 252t-123 78v45q110 -12 229 -12q118 0 233 12v-45q-91 -9 -123 -78t-32 -252v-628q0 -185 32 -254t123 -76zM512 1784h141q2 -14 2 -37q0 -98 -86 -162.5t-241 -64.5q-158 0 -230 60.5
t-78 180.5q21 25 64 35t84 4q10 -207 197 -207q157 0 157 125q0 36 -10 66z" />
    <glyph glyph-name="ibreve" unicode="&#x12d;" horiz-adv-x="589" 
d="M391 956q-16 -109 -16 -360v-229q0 -183 32.5 -253.5t120.5 -76.5v-43q-99 12 -213 12q-124 0 -229 -12v43q91 4 124.5 74.5t33.5 255.5v168q0 137 -14.5 213t-48 111t-95.5 42v37zM393 1397h135q2 -14 2 -37q0 -124 -78.5 -196t-213.5 -72q-128 0 -191.5 68t-69.5 214
q19 22 59 33t83 6q4 -121 46.5 -184.5t119.5 -63.5q54 0 86 39t32 105q0 37 -10 88z" />
    <glyph glyph-name="Iogonek" unicode="&#x12e;" horiz-adv-x="684" 
d="M573 39v-45q-105 10 -159 10q-47 -41 -82 -116.5t-35 -151.5q0 -131 102 -131q63 0 129 71l35 -32q-53 -73 -121.5 -113.5t-142.5 -40.5t-115 41.5t-41 124.5q0 187 197 350q-111 0 -229 -12v45q91 7 123 76t32 254v628q0 183 -32 252t-123 78v45q110 -12 229 -12
q118 0 233 12v-45q-91 -9 -123 -78t-32 -252v-628q0 -185 32 -254t123 -76z" />
    <glyph glyph-name="iogonek" unicode="&#x12f;" horiz-adv-x="591" 
d="M391 954q-16 -109 -16 -360v-227q0 -183 32.5 -253.5t120.5 -76.5v-43q-66 8 -172 12q-125 -116 -125 -274q0 -63 28 -95t75 -32q63 0 129 71l33 -30q-114 -156 -256 -156q-74 0 -110 44t-36 122q0 96 53.5 189t131.5 161q-108 -3 -193 -12v43q91 4 124.5 74.5
t33.5 255.5v165q0 137 -14.5 213t-48 111.5t-95.5 42.5v37zM279 1448q44 0 76 -32.5t32 -76.5t-32 -76t-76 -32t-76.5 32t-32.5 76t32.5 76.5t76.5 32.5z" />
    <glyph glyph-name="Idotaccent" unicode="&#x130;" horiz-adv-x="684" 
d="M573 39v-45q-120 12 -233 12q-111 0 -229 -12v45q91 7 123 76t32 254v628q0 183 -32 252t-123 78v45q110 -12 229 -12q118 0 233 12v-45q-91 -9 -123 -78t-32 -252v-628q0 -185 32 -254t123 -76zM340 1737q47 0 82 -35t35 -82t-35 -82t-82 -35t-82 35t-35 82t35 82t82 35
z" />
    <glyph glyph-name="dotlessi" unicode="&#x131;" horiz-adv-x="589" 
d="M391 956q-16 -109 -16 -360v-229q0 -183 32.5 -253.5t120.5 -76.5v-43q-99 12 -213 12q-124 0 -229 -12v43q91 4 124.5 74.5t33.5 255.5v168q0 137 -14.5 213t-48 111t-95.5 42v37z" />
    <glyph glyph-name="IJ" unicode="&#x132;" horiz-adv-x="1533" 
d="M573 39v-45q-120 12 -233 12q-111 0 -229 -12v45q91 7 123 76t32 254v628q0 183 -32 252t-123 78v45q110 -12 229 -12q118 0 233 12v-45q-91 -9 -123 -78t-32 -252v-628q0 -185 32 -254t123 -76zM918 262q-24 -28 -34 -50t-10 -54q0 -46 27.5 -73.5t71.5 -27.5
q42 0 72.5 14t52 46t35 74.5t21 110.5t10.5 142.5t3 180.5v372q0 183 -32 252t-123 78v45q110 -12 229 -12t234 12v-45q-92 -9 -124 -78t-32 -252v-372q0 -79 -1 -125.5t-6 -116.5t-16.5 -111.5t-30 -94.5t-49 -83.5t-72.5 -59.5t-100.5 -41.5t-132.5 -12.5q-219 0 -219 137
q0 66 50 108.5t128 42.5q27 0 48 -6z" />
    <glyph glyph-name="ij" unicode="&#x133;" horiz-adv-x="1138" 
d="M391 954q-16 -109 -16 -360v-227q0 -183 32.5 -253.5t120.5 -76.5v-43q-99 12 -213 12q-124 0 -229 -12v43q91 4 124.5 74.5t33.5 255.5v165q0 137 -14.5 213t-48 111.5t-95.5 42.5v37zM279 1448q44 0 76 -32.5t32 -76.5t-32 -76t-76 -32t-76.5 32t-32.5 76t32.5 76.5
t76.5 32.5zM969 954q-9 -50 -13 -111.5t-4 -103.5t1 -117t1 -106v-469q0 -184 -22 -273.5t-86 -164.5q-47 -57 -119 -88t-154 -31q-78 0 -120.5 35t-42.5 100q0 66 46.5 108t118.5 42q17 0 31 -2q-35 -49 -35 -105q0 -44 23 -70t63 -26q166 0 166 403v557q0 207 -33 283.5
t-128 83.5v37zM860 1448q44 0 75.5 -32.5t31.5 -76.5t-31.5 -76t-75.5 -32q-45 0 -76.5 31.5t-31.5 76.5t31.5 77t76.5 32z" />
    <glyph glyph-name="Jcircumflex" unicode="&#x134;" horiz-adv-x="849" 
d="M233 262q-24 -27 -33.5 -49t-9.5 -55q0 -46 27.5 -73.5t71.5 -27.5q42 0 72.5 14t52 46t35 74.5t21 110.5t10.5 142.5t3 180.5v372q0 183 -32 252t-123 78v45q110 -12 229 -12t234 12v-45q-92 -9 -124 -78t-32 -252v-372q0 -79 -1 -125.5t-6 -116.5t-16.5 -111.5
t-30 -94.5t-49 -83.5t-72.5 -59.5t-100.5 -41.5t-132.5 -12.5q-219 0 -219 137q0 66 50 108.5t128 42.5q26 0 47 -6zM940 1602l18 -17q-85 -106 -122 -106q-7 0 -16 3.5t-14 6.5t-15.5 10t-12.5 8l-243 176q-118 -62 -187 -194h-186q82 105 200.5 175t270.5 122l215 -156
q49 -35 72 -35q6 0 20 7z" />
    <glyph glyph-name="jcircumflex" unicode="&#x135;" horiz-adv-x="546" 
d="M377 954q-9 -50 -13 -111.5t-4 -103.5t1 -117t1 -106v-469q0 -184 -22 -273.5t-86 -164.5q-47 -57 -118.5 -88t-153.5 -31q-78 0 -121 35.5t-43 99.5q0 66 47 108t119 42q16 0 30 -2q-34 -48 -34 -105q0 -44 23 -70t63 -26q165 0 165 403v557q0 207 -33 283.5t-128 83.5
v37zM258 1442l240 -264q23 -26 40.5 -35.5t45.5 -9.5l4 -27l-115 -31q-16 -4 -27 -4q-34 0 -63 33l-180 213q-102 -123 -150 -242h-153q63 97 151 183.5t207 183.5z" />
    <glyph glyph-name="Kcommaaccent" unicode="&#x136;" horiz-adv-x="1404" 
d="M573 39v-45q-120 12 -233 12q-111 0 -229 -12v45q91 7 123 76t32 254v628q0 183 -32 252t-123 78v45q110 -12 229 -12q118 0 233 12v-45q-91 -9 -123 -78t-32 -252v-628q0 -185 32 -254t123 -76zM606 770q26 -3 52 -15.5t42.5 -23t42.5 -36.5t34 -35.5t36 -41.5l324 -368
q163 -186 280 -223v-33h-157q-39 0 -55 1.5t-37.5 6t-38.5 19t-38 35t-55 59.5l-377 428q-59 68 -114 113.5t-123 72.5l381 324q87 73 133.5 125.5t46.5 89.5q0 57 -88 57v47q94 -12 213 -12q97 0 207 12v-37q-146 -91 -314 -231zM602 -225l-8 18q53 35 109 58.5t88 23.5
q41 0 59 -31t18 -98q0 -96 -57.5 -168t-159.5 -98l-16 43q92 27 92 141q0 51 -34 81t-91 30z" />
    <glyph glyph-name="kcommaaccent" unicode="&#x137;" horiz-adv-x="1136" 
d="M504 600q42 -16 74 -43t88 -88l163 -178q92 -101 163 -162t153 -98v-31h-148q-65 0 -93 15.5t-89 84.5l-260 287q-81 91 -124 128.5t-81 47.5v-196q0 -184 32.5 -254t121.5 -76v-43q-132 12 -228 12q-103 0 -217 -12v43q62 3 96 34t49 100.5t15 195.5v753q0 204 -34 282
t-126 87v37l322 14q-31 -195 -31 -520v-445l178 127q146 105 146 158q0 41 -62 47v45q110 -14 213 -14t213 14v-39q-190 -69 -411 -225zM438 -242l-8 19q37 29 97 55.5t100 26.5q41 0 59.5 -31t18.5 -98q0 -95 -58.5 -163.5t-161.5 -86.5l-12 43q90 26 90 117q0 47 -35 82.5
t-90 35.5z" />
    <glyph glyph-name="kgreenlandic" unicode="&#x138;" horiz-adv-x="1136" 
d="M504 600q42 -16 74 -43t88 -88l163 -178q92 -101 163 -162t153 -98v-31h-148q-65 0 -93 15.5t-89 84.5l-260 287q-81 91 -124 128.5t-81 47.5v-196q0 -184 32.5 -254t121.5 -76v-43q-132 12 -228 12q-103 0 -217 -12v43q62 3 96 34t49 100.5t15 195.5v180
q0 204 -34 281.5t-126 86.5v37l322 15q-31 -195 -31 -392l178 127q146 105 146 158q0 41 -62 47v45q110 -14 213 -14t213 14v-39q-190 -69 -411 -225z" />
    <glyph glyph-name="Lacute" unicode="&#x139;" horiz-adv-x="1118" 
d="M111 1372q131 -12 227 -12q89 0 225 12v-45q-84 -10 -114.5 -79.5t-30.5 -250.5v-616q0 -238 53 -285q30 -24 119 -24q203 0 309.5 63.5t175.5 224.5l45 -24q-86 -216 -119 -354q-148 18 -389 18h-258q-129 0 -243 -6v45q91 7 123 76t32 254v628q0 183 -32 252t-123 78
v45zM281 1473l-33 67q136 66 230.5 123.5t209.5 144.5q33 -42 46.5 -68t23.5 -71q-210 -133 -477 -196z" />
    <glyph glyph-name="lacute" unicode="&#x13a;" horiz-adv-x="567" 
d="M92 1589l-31 68q141 69 231 123.5t195 136.5q22 -24 42.5 -62.5t27.5 -74.5q-200 -122 -465 -191zM377 1540q-17 -96 -22 -199.5t-5 -300.5v-673q0 -181 31 -251t117 -79v-43q-92 12 -213 12q-117 0 -228 -12v43q92 3 127 73.5t35 256.5v751q0 204 -34 282t-128 85v37z
" />
    <glyph glyph-name="Lcommaaccent" unicode="&#x13b;" horiz-adv-x="1118" 
d="M111 1372q131 -12 227 -12q89 0 225 12v-45q-84 -10 -114.5 -79.5t-30.5 -250.5v-616q0 -238 53 -285q30 -24 119 -24q203 0 309.5 63.5t175.5 224.5l45 -24q-86 -216 -119 -354q-148 18 -389 18h-258q-129 0 -243 -6v45q91 7 123 76t32 254v628q0 183 -32 252t-123 78
v45zM424 -225l-8 18q53 35 108.5 58.5t87.5 23.5q41 0 59.5 -31t18.5 -98q0 -96 -57.5 -168t-159.5 -98l-16 43q92 27 92 141q0 51 -34 81t-91 30z" />
    <glyph glyph-name="lcommaaccent" unicode="&#x13c;" horiz-adv-x="567" 
d="M377 1540q-17 -96 -22 -199.5t-5 -300.5v-673q0 -181 31 -251t117 -79v-43q-92 12 -213 12q-117 0 -228 -12v43q92 3 127 73.5t35 256.5v751q0 204 -34 282t-128 85v37zM127 -242l-8 19q38 29 97 55.5t99 26.5q41 0 59.5 -31t18.5 -98q0 -95 -58 -163.5t-161 -86.5
l-12 43q90 26 90 117q0 47 -35 82.5t-90 35.5z" />
    <glyph glyph-name="Lcaron" unicode="&#x13d;" horiz-adv-x="1118" 
d="M111 1372q131 -12 227 -12q89 0 225 12v-45q-84 -10 -114.5 -79.5t-30.5 -250.5v-616q0 -238 53 -285q30 -24 119 -24q203 0 309.5 63.5t175.5 224.5l45 -24q-86 -216 -119 -354q-148 18 -389 18h-258q-129 0 -243 -6v45q91 7 123 76t32 254v628q0 183 -32 252t-123 78
v45zM725 1268l-8 18q53 35 108.5 58.5t87.5 23.5q41 0 59.5 -31t18.5 -98q0 -96 -57.5 -168t-159.5 -98l-16 43q92 27 92 141q0 51 -34 81t-91 30z" />
    <glyph glyph-name="lcaron" unicode="&#x13e;" horiz-adv-x="567" 
d="M377 1540q-17 -96 -22 -199.5t-5 -300.5v-673q0 -181 31 -251t117 -79v-43q-92 12 -213 12q-117 0 -228 -12v43q92 3 127 73.5t35 256.5v751q0 204 -34 282t-128 85v37zM414 1440l-8 18q38 29 97 55.5t99 26.5q41 0 59.5 -31t18.5 -98q0 -95 -58 -163.5t-161 -86.5
l-12 43q90 26 90 117q0 47 -35 83t-90 36z" />
    <glyph glyph-name="Ldot" unicode="&#x13f;" horiz-adv-x="1118" 
d="M111 1372q131 -12 227 -12q89 0 225 12v-45q-84 -10 -114.5 -79.5t-30.5 -250.5v-616q0 -238 53 -285q30 -24 119 -24q203 0 309.5 63.5t175.5 224.5l45 -24q-86 -216 -119 -354q-148 18 -389 18h-258q-129 0 -243 -6v45q91 7 123 76t32 254v628q0 183 -32 252t-123 78
v45zM901 954q55 0 94 -39t39 -94t-39 -94t-94 -39t-94 39t-39 94t39 94t94 39z" />
    <glyph glyph-name="ldot" unicode="&#x140;" horiz-adv-x="741" 
d="M377 1540q-17 -96 -22 -199.5t-5 -300.5v-673q0 -181 31 -251t117 -79v-43q-92 12 -213 12q-117 0 -228 -12v43q92 3 127 73.5t35 256.5v751q0 204 -34 282t-128 85v37zM649 967q55 0 94 -38.5t39 -94.5t-39 -95t-94 -39t-94 39t-39 95t39 94.5t94 38.5z" />
    <glyph glyph-name="Lslash" unicode="&#x141;" horiz-adv-x="1118" 
d="M266 612q-83 -51 -135 -98l-18 6l24 119l129 74v284q0 183 -31.5 253t-117.5 77v45q144 -12 221 -12q78 0 225 12v-45q-84 -10 -114.5 -79.5t-30.5 -250.5v-211l227 134l23 -15l-23 -100q-137 -65 -227 -117v-223q0 -98 1.5 -154t8.5 -105.5t16.5 -71t30.5 -38
t45.5 -19.5t67.5 -3q201 0 313 65.5t172 218.5l45 -20q-83 -219 -117 -356q-203 18 -393 18h-176q-207 0 -315 -6v45q86 7 117.5 77t31.5 253v243z" />
    <glyph glyph-name="lslash" unicode="&#x142;" horiz-adv-x="606" 
d="M244 862q-107 -64 -172 -121l-19 9l23 104l168 98v166q0 204 -34 282t-126 85v37l317 18q-5 -28 -8.5 -56t-6.5 -59.5t-5 -55t-3 -60t-1.5 -55.5t-1 -60t-0.5 -55.5v-60v-56.5l168 98l22 -12l-16 -92q-92 -36 -174 -86v-563q0 -180 31 -249.5t116 -80.5v-43
q-120 12 -205 12q-77 0 -233 -12v43q92 3 126 73.5t34 256.5v495z" />
    <glyph glyph-name="Nacute" unicode="&#x143;" horiz-adv-x="1519" 
d="M1188 256v741q0 59 -2.5 100.5t-11 87t-24.5 73.5t-45 47.5t-69 21.5v45q117 -12 201 -12q95 0 203 12v-45q-50 -3 -81.5 -27t-47 -71.5t-20.5 -99.5t-5 -132v-487q0 -301 10 -516h-104l-842 1173v-798q0 -62 2.5 -104t11 -86.5t24.5 -71.5t44.5 -45.5t69.5 -22.5v-45
q-108 12 -199 12q-99 0 -201 -12v45q33 3 57.5 14t40.5 32.5t26.5 47t16 64.5t7.5 78t2 94v628q0 44 -0.5 71.5t-4 65.5t-9 61.5t-16.5 49.5t-27 41.5t-39.5 26.5t-53.5 14v45q90 -12 164 -12q82 0 158 12q61 -125 145 -244zM569 1473l-32 67q136 66 230.5 123.5
t209.5 144.5q33 -42 46.5 -68t23.5 -71q-209 -133 -478 -196z" />
    <glyph glyph-name="nacute" unicode="&#x144;" horiz-adv-x="1224" 
d="M375 954v-243q64 127 149 191.5t213 64.5q71 0 121 -20t78.5 -52t44.5 -86t20.5 -106t4.5 -128v-208q0 -185 33 -255.5t124 -74.5v-43q-95 12 -221 12q-108 0 -225 -12v43q91 4 124 74.5t33 255.5v170q0 159 -47.5 229t-156.5 70q-84 0 -155 -49.5t-140 -155.5v-264
q0 -184 32 -254t121 -76v-43q-95 12 -213 12q-101 0 -227 -12v43q89 4 122.5 75.5t33.5 254.5v168q0 202 -33 279.5t-123 88.5v37zM512 1073l-43 62q128 93 207 162t168 167q27 -19 53 -53.5t39 -69.5q-173 -154 -424 -268z" />
    <glyph glyph-name="Ncommaaccent" unicode="&#x145;" horiz-adv-x="1519" 
d="M1188 256v741q0 59 -2.5 100.5t-11 87t-24.5 73.5t-45 47.5t-69 21.5v45q117 -12 201 -12q95 0 203 12v-45q-50 -3 -81.5 -27t-47 -71.5t-20.5 -99.5t-5 -132v-487q0 -301 10 -516h-104l-842 1173v-798q0 -62 2.5 -104t11 -86.5t24.5 -71.5t44.5 -45.5t69.5 -22.5v-45
q-108 12 -199 12q-99 0 -201 -12v45q33 3 57.5 14t40.5 32.5t26.5 47t16 64.5t7.5 78t2 94v628q0 44 -0.5 71.5t-4 65.5t-9 61.5t-16.5 49.5t-27 41.5t-39.5 26.5t-53.5 14v45q90 -12 164 -12q82 0 158 12q61 -125 145 -244zM584 -225l-9 18q53 35 109 58.5t88 23.5
q41 0 59.5 -31t18.5 -98q0 -96 -57.5 -168t-159.5 -98l-17 43q93 27 93 141q0 51 -34 81t-91 30z" />
    <glyph glyph-name="ncommaaccent" unicode="&#x146;" horiz-adv-x="1224" 
d="M375 954v-243q64 127 149 191.5t213 64.5q71 0 121 -20t78.5 -52t44.5 -86t20.5 -106t4.5 -128v-208q0 -185 33 -255.5t124 -74.5v-43q-95 12 -221 12q-108 0 -225 -12v43q91 4 124 74.5t33 255.5v170q0 159 -47.5 229t-156.5 70q-84 0 -155 -49.5t-140 -155.5v-264
q0 -184 32 -254t121 -76v-43q-95 12 -213 12q-101 0 -227 -12v43q89 4 122.5 75.5t33.5 254.5v168q0 202 -33 279.5t-123 88.5v37zM471 -242l-8 19q38 29 97 55.5t99 26.5q41 0 59.5 -31t18.5 -98q0 -95 -58 -163.5t-161 -86.5l-12 43q90 26 90 117q0 47 -35 82.5t-90 35.5z
" />
    <glyph glyph-name="Ncaron" unicode="&#x147;" horiz-adv-x="1519" 
d="M1188 256v741q0 59 -2.5 100.5t-11 87t-24.5 73.5t-45 47.5t-69 21.5v45q117 -12 201 -12q95 0 203 12v-45q-50 -3 -81.5 -27t-47 -71.5t-20.5 -99.5t-5 -132v-487q0 -301 10 -516h-104l-842 1173v-798q0 -62 2.5 -104t11 -86.5t24.5 -71.5t44.5 -45.5t69.5 -22.5v-45
q-108 12 -199 12q-99 0 -201 -12v45q33 3 57.5 14t40.5 32.5t26.5 47t16 64.5t7.5 78t2 94v628q0 44 -0.5 71.5t-4 65.5t-9 61.5t-16.5 49.5t-27 41.5t-39.5 26.5t-53.5 14v45q90 -12 164 -12q82 0 158 12q61 -125 145 -244zM420 1661l-19 16q85 109 123 109q11 0 18.5 -4
t39.5 -27l243 -174q53 23 104 76t83 117h188q-67 -89 -192 -167.5t-279 -129.5l-217 155q-49 35 -72 35q-8 0 -20 -6z" />
    <glyph glyph-name="ncaron" unicode="&#x148;" horiz-adv-x="1224" 
d="M375 954v-243q64 127 149 191.5t213 64.5q71 0 121 -20t78.5 -52t44.5 -86t20.5 -106t4.5 -128v-208q0 -185 33 -255.5t124 -74.5v-43q-95 12 -221 12q-108 0 -225 -12v43q91 4 124 74.5t33 255.5v170q0 159 -47.5 229t-156.5 70q-84 0 -155 -49.5t-140 -155.5v-264
q0 -184 32 -254t121 -76v-43q-95 12 -213 12q-101 0 -227 -12v43q89 4 122.5 75.5t33.5 254.5v168q0 202 -33 279.5t-123 88.5v37zM598 1071l-240 264q-24 27 -41.5 37t-44.5 10l-4 23l115 33q16 4 27 4q34 0 63 -33l180 -213q108 139 150 242h153q-63 -99 -164.5 -201
t-193.5 -166z" />
    <glyph glyph-name="napostrophe" unicode="&#x149;" horiz-adv-x="1224" 
d="M375 954v-243q64 127 149 191.5t213 64.5q71 0 121 -20t78.5 -52t44.5 -86t20.5 -106t4.5 -128v-208q0 -185 33 -255.5t124 -74.5v-43q-95 12 -221 12q-108 0 -225 -12v43q91 4 124 74.5t33 255.5v170q0 159 -47.5 229t-156.5 70q-84 0 -155 -49.5t-140 -155.5v-264
q0 -184 32 -254t121 -76v-43q-95 12 -213 12q-101 0 -227 -12v43q89 4 122.5 75.5t33.5 254.5v168q0 202 -33 279.5t-123 88.5v37zM139 1354l-8 18q37 29 97 55.5t100 26.5q41 0 59.5 -31t18.5 -98q0 -95 -58.5 -163.5t-161.5 -86.5l-12 43q90 26 90 117q0 47 -35 83t-90 36
z" />
    <glyph glyph-name="Eng" unicode="&#x14a;" horiz-adv-x="1519" 
d="M1188 -6l-838 1173v-798q0 -62 2.5 -104t11 -86.5t24.5 -71.5t44.5 -45.5t69.5 -22.5v-45q-108 12 -199 12q-99 0 -201 -12v45q33 3 57.5 14t40.5 32.5t26.5 47t16 64.5t7.5 78t2 94v628q0 44 -0.5 71.5t-4 65.5t-9 61.5t-16.5 49.5t-27 41.5t-39.5 26.5t-53.5 14v45
q90 -12 164 -12q82 0 158 12q61 -125 145 -244l619 -872v741q0 59 -2.5 100.5t-11 87t-24.5 73.5t-45 47.5t-69 21.5v45q117 -12 201 -12q95 0 203 12v-45q-50 -3 -81.5 -27t-47 -71.5t-20.5 -99.5t-5 -132v-895q0 -102 -6.5 -175.5t-26.5 -142t-54.5 -110.5t-91.5 -67
t-136 -25q-101 0 -155 32.5t-54 94.5t44 94.5t109 32.5q52 0 72 -12q-43 -43 -43 -103q0 -61 68 -61q81 0 128.5 85t47.5 249z" />
    <glyph glyph-name="eng" unicode="&#x14b;" horiz-adv-x="1175" 
d="M375 954v-243q64 127 149 191.5t213 64.5q71 0 121 -20t78.5 -52t44.5 -86t20.5 -106t4.5 -128v-497q0 -164 -13 -238.5t-55 -128.5q-43 -55 -111.5 -83.5t-138.5 -28.5q-61 0 -93 29t-32 81q0 56 43.5 92.5t102.5 36.5q18 0 30 -4q-34 -48 -34 -96q0 -64 57 -64
q66 0 89 95.5t23 308.5v459q0 159 -47.5 229t-156.5 70q-84 0 -155 -49.5t-140 -155.5v-264q0 -184 32 -254t121 -76v-43q-95 12 -213 12q-101 0 -227 -12v43q89 4 122.5 75.5t33.5 254.5v168q0 202 -33 279.5t-123 88.5v37z" />
    <glyph glyph-name="Omacron" unicode="&#x14c;" horiz-adv-x="1517" 
d="M1403 684q0 -704 -664 -704q-311 0 -467.5 172.5t-156.5 515.5q0 344 175 531t498 187q305 0 460 -177t155 -525zM1223 666q0 316 -116 480.5t-339 164.5q-221 0 -346 -167.5t-125 -465.5q0 -299 120 -461t341 -162q226 0 345.5 157.5t119.5 453.5zM494 1681h624l15 -26
l-56 -92h-635l-14 16z" />
    <glyph glyph-name="omacron" unicode="&#x14d;" horiz-adv-x="1110" 
d="M1008 479q0 -245 -118 -372t-343 -127q-213 0 -329 126t-116 363q0 243 120.5 370.5t348.5 127.5q211 0 324 -125.5t113 -362.5zM850 461q0 204 -80.5 320t-220.5 116q-136 0 -212.5 -105.5t-76.5 -295.5q0 -212 80 -329.5t221 -117.5q68 0 120.5 25.5t83.5 65t51 95.5
t27 110.5t7 115.5zM291 1300h571l15 -26l-56 -92h-573l-15 16z" />
    <glyph glyph-name="Obreve" unicode="&#x14e;" horiz-adv-x="1517" 
d="M1403 684q0 -704 -664 -704q-311 0 -467.5 172.5t-156.5 515.5q0 344 175 531t498 187q305 0 460 -177t155 -525zM1223 666q0 316 -116 480.5t-339 164.5q-221 0 -346 -167.5t-125 -465.5q0 -299 120 -461t341 -162q226 0 345.5 157.5t119.5 453.5zM946 1784h141
q3 -21 3 -37q0 -98 -86.5 -162.5t-241.5 -64.5q-157 0 -229 60.5t-78 180.5q21 25 63.5 35t83.5 4q10 -207 197 -207q157 0 157 125q0 36 -10 66z" />
    <glyph glyph-name="obreve" unicode="&#x14f;" horiz-adv-x="1110" 
d="M1008 479q0 -245 -118 -372t-343 -127q-213 0 -329 126t-116 363q0 243 120.5 370.5t348.5 127.5q211 0 324 -125.5t113 -362.5zM850 461q0 204 -80.5 320t-220.5 116q-136 0 -212.5 -105.5t-76.5 -295.5q0 -212 80 -329.5t221 -117.5q68 0 120.5 25.5t83.5 65t51 95.5
t27 110.5t7 115.5zM694 1397h135q2 -14 2 -37q0 -124 -78.5 -196t-213.5 -72q-128 0 -191 68t-69 214q19 22 58.5 33t82.5 6q4 -121 46.5 -184.5t119.5 -63.5q54 0 86.5 39t32.5 105q0 32 -11 88z" />
    <glyph glyph-name="Ohungarumlaut" unicode="&#x150;" horiz-adv-x="1517" 
d="M1403 684q0 -704 -664 -704q-311 0 -467.5 172.5t-156.5 515.5q0 344 175 531t498 187q305 0 460 -177t155 -525zM1223 666q0 316 -116 480.5t-339 164.5q-221 0 -346 -167.5t-125 -465.5q0 -299 120 -461t341 -162q226 0 345.5 157.5t119.5 453.5zM827 1440l-43 63
q127 88 212 159.5t182 172.5q39 -37 56 -61t34 -66q-183 -160 -441 -268zM483 1440l-43 63q127 88 212 159.5t182 172.5q39 -37 56 -61t34 -66q-183 -160 -441 -268z" />
    <glyph glyph-name="ohungarumlaut" unicode="&#x151;" horiz-adv-x="1110" 
d="M1008 479q0 -245 -118 -372t-343 -127q-213 0 -329 126t-116 363q0 243 120.5 370.5t348.5 127.5q211 0 324 -125.5t113 -362.5zM850 461q0 204 -80.5 320t-220.5 116q-136 0 -212.5 -105.5t-76.5 -295.5q0 -212 80 -329.5t221 -117.5q68 0 120.5 25.5t83.5 65t51 95.5
t27 110.5t7 115.5zM373 1081l-47 47q81 112 166 336q53 -26 75.5 -40t55.5 -44q-95 -163 -250 -299zM659 1081l-47 47q81 112 166 336q53 -26 75.5 -40t55.5 -44q-95 -163 -250 -299z" />
    <glyph glyph-name="OE" unicode="&#x152;" horiz-adv-x="1916" 
d="M1180 1286v-514h147q129 0 190.5 34t75.5 112h41q-12 -132 -12 -193q0 -82 12 -188h-41q-22 80 -77 111.5t-173 31.5h-163v-291q0 -74 2.5 -119t11 -87t25.5 -63t44.5 -33.5t69.5 -12.5q189 0 293 64t162 218l55 -18q-76 -183 -123 -356q-206 18 -479 18h-289
q-125 -20 -223 -20q-305 0 -459.5 172t-154.5 510q0 344 172 534t481 190q96 0 199 -20h342q251 0 374 12q5 -140 37 -317l-43 -6q-31 126 -121.5 178.5t-275.5 52.5h-100zM1028 1063q0 129 -64 188.5t-202 59.5q-217 0 -342 -169.5t-125 -465.5q0 -294 119.5 -457.5
t333.5 -163.5q45 0 81 4.5t64 11.5t48.5 21.5t35 28t24 38t15 44.5t8.5 54.5t3.5 61t0.5 70.5v674z" />
    <glyph glyph-name="oe" unicode="&#x153;" horiz-adv-x="1636" 
d="M1520 229l39 -45q-165 -204 -379 -204q-113 0 -185.5 49t-115.5 155q-65 -112 -146 -158t-207 -46q-204 0 -314 126.5t-110 362.5q0 234 114 366t316 132q129 0 213 -49.5t134 -153.5q65 107 145 155t197 48q149 0 231 -79t82 -224q0 -57 -14 -105h-572v-51
q0 -192 83 -304t224 -112q140 0 265 137zM811 473q0 190 -77.5 306t-205.5 116q-126 0 -198 -107.5t-72 -295.5q0 -196 77.5 -315.5t205.5 -119.5q127 0 198.5 110.5t71.5 305.5zM1380 657q0 9 1 22t1 17q0 88 -50.5 143.5t-127.5 55.5q-96 0 -160.5 -68.5t-87.5 -195.5z
" />
    <glyph glyph-name="Racute" unicode="&#x154;" horiz-adv-x="1320" 
d="M416 698v-329q0 -185 32 -254t123 -76v-45q-91 12 -233 12q-130 0 -229 -12v45q92 7 124.5 76.5t32.5 253.5v628q0 182 -32.5 251.5t-124.5 78.5v45q95 -12 208 -12q45 0 160 6t160 6q225 0 328.5 -76.5t103.5 -242.5q0 -140 -80 -224t-244 -118q29 -10 53 -27
t50.5 -49.5t38 -49t41.5 -61.5l155 -233q32 -48 52.5 -76.5t55.5 -71.5t71 -71t73 -41v-37h-168q-59 0 -78 8.5t-47 50.5l-260 402q-47 74 -105.5 141.5t-101.5 89.5q-110 0 -159 12zM416 772q69 -16 149 -16q168 0 257 66t89 190q0 132 -93 205t-259 73q-94 0 -143 -18
v-500zM444 1473l-32 67q136 66 230.5 123.5t209.5 144.5q33 -42 46.5 -68t23.5 -71q-209 -133 -478 -196z" />
    <glyph glyph-name="racute" unicode="&#x155;" horiz-adv-x="827" 
d="M375 954v-278q21 47 40 82.5t48 77t59 68.5t70 45t84 18q63 0 100 -36.5t37 -96.5t-36 -102.5t-99 -55.5q20 30 20 65q0 41 -24 68t-62 27q-74 0 -137 -97q-100 -150 -100 -372q0 -132 16 -201.5t53.5 -99t108.5 -29.5v-43q-132 12 -240 12q-98 0 -227 -12v43
q91 4 124.5 74.5t33.5 255.5v168q0 202 -33 279.5t-123 88.5v37zM324 1073l-43 62q127 92 206 161.5t168 167.5q27 -19 53.5 -53.5t39.5 -69.5q-173 -154 -424 -268z" />
    <glyph glyph-name="Rcommaaccent" unicode="&#x156;" horiz-adv-x="1320" 
d="M416 698v-329q0 -185 32 -254t123 -76v-45q-91 12 -233 12q-130 0 -229 -12v45q92 7 124.5 76.5t32.5 253.5v628q0 182 -32.5 251.5t-124.5 78.5v45q95 -12 208 -12q45 0 160 6t160 6q225 0 328.5 -76.5t103.5 -242.5q0 -140 -80 -224t-244 -118q29 -10 53 -27
t50.5 -49.5t38 -49t41.5 -61.5l155 -233q32 -48 52.5 -76.5t55.5 -71.5t71 -71t73 -41v-37h-168q-59 0 -78 8.5t-47 50.5l-260 402q-47 74 -105.5 141.5t-101.5 89.5q-110 0 -159 12zM416 772q69 -16 149 -16q168 0 257 66t89 190q0 132 -93 205t-259 73q-94 0 -143 -18
v-500zM510 -225l-8 18q53 35 108.5 58.5t87.5 23.5q41 0 59.5 -31t18.5 -98q0 -96 -57.5 -168t-159.5 -98l-16 43q92 27 92 141q0 51 -34 81t-91 30z" />
    <glyph glyph-name="rcommaaccent" unicode="&#x157;" horiz-adv-x="827" 
d="M375 954v-278q21 47 40 82.5t48 77t59 68.5t70 45t84 18q63 0 100 -36.5t37 -96.5t-36 -102.5t-99 -55.5q20 30 20 65q0 41 -24 68t-62 27q-74 0 -137 -97q-100 -150 -100 -372q0 -132 16 -201.5t53.5 -99t108.5 -29.5v-43q-132 12 -240 12q-98 0 -227 -12v43
q91 4 124.5 74.5t33.5 255.5v168q0 202 -33 279.5t-123 88.5v37zM164 -242l-8 19q38 29 97 55.5t99 26.5q41 0 59.5 -31t18.5 -98q0 -95 -58 -163.5t-161 -86.5l-12 43q90 26 90 117q0 47 -35 82.5t-90 35.5z" />
    <glyph glyph-name="Rcaron" unicode="&#x158;" horiz-adv-x="1320" 
d="M416 698v-329q0 -185 32 -254t123 -76v-45q-91 12 -233 12q-130 0 -229 -12v45q92 7 124.5 76.5t32.5 253.5v628q0 182 -32.5 251.5t-124.5 78.5v45q95 -12 208 -12q45 0 160 6t160 6q225 0 328.5 -76.5t103.5 -242.5q0 -140 -80 -224t-244 -118q29 -10 53 -27
t50.5 -49.5t38 -49t41.5 -61.5l155 -233q32 -48 52.5 -76.5t55.5 -71.5t71 -71t73 -41v-37h-168q-59 0 -78 8.5t-47 50.5l-260 402q-47 74 -105.5 141.5t-101.5 89.5q-110 0 -159 12zM416 772q69 -16 149 -16q168 0 257 66t89 190q0 132 -93 205t-259 73q-94 0 -143 -18
v-500zM254 1661l-18 16q85 109 122 109q11 0 18.5 -4t39.5 -27l243 -174q53 23 104 76t83 117h188q-67 -89 -192 -167.5t-279 -129.5l-217 155q-49 35 -72 35q-8 0 -20 -6z" />
    <glyph glyph-name="rcaron" unicode="&#x159;" horiz-adv-x="827" 
d="M375 954v-278q21 47 40 82.5t48 77t59 68.5t70 45t84 18q63 0 100 -36.5t37 -96.5t-36 -102.5t-99 -55.5q20 30 20 65q0 41 -24 68t-62 27q-74 0 -137 -97q-100 -150 -100 -372q0 -132 16 -201.5t53.5 -99t108.5 -29.5v-43q-132 12 -240 12q-98 0 -227 -12v43
q91 4 124.5 74.5t33.5 255.5v168q0 202 -33 279.5t-123 88.5v37zM420 1071l-240 264q-24 27 -41.5 37t-44.5 10l-4 23l115 33q16 4 26 4q35 0 64 -33l180 -213q108 139 150 242h153q-63 -99 -164.5 -201t-193.5 -166z" />
    <glyph glyph-name="Sacute" unicode="&#x15a;" horiz-adv-x="1085" 
d="M924 983h-50q-32 160 -114 243t-211 83q-114 0 -181 -60.5t-67 -163.5q0 -38 6.5 -68t26 -56t38 -44t60 -41.5t73 -38.5t95.5 -44t104.5 -49.5t88 -49.5t75.5 -57t53.5 -65t36.5 -82t11 -99q0 -193 -132 -302t-364 -109q-90 0 -192 16.5t-179 42.5q9 88 9 162
q0 76 -9 184h56q13 -150 104 -237t234 -87q142 0 226.5 77t84.5 208q0 61 -16.5 105t-59.5 81.5t-91 64t-138 67.5q-46 21 -67.5 31.5t-60.5 30t-58 32t-49 33t-44.5 37.5t-33.5 41t-27 48t-14.5 54t-6.5 63q0 161 124 256.5t331 95.5q181 0 328 -47q-11 -86 -11 -157
q0 -84 11 -199zM440 1473l-32 67q136 66 230.5 123.5t209.5 144.5q33 -42 46.5 -68t23.5 -71q-209 -133 -478 -196z" />
    <glyph glyph-name="sacute" unicode="&#x15b;" horiz-adv-x="843" 
d="M717 657h-45q-17 115 -81.5 178.5t-162.5 63.5q-75 0 -123.5 -41.5t-48.5 -107.5q0 -48 32.5 -84.5t64 -52.5t114.5 -49q10 -5 16 -7q67 -26 111 -50t81.5 -57.5t55 -78.5t17.5 -103q0 -136 -99 -212t-276 -76q-146 0 -291 45q10 65 10 143q0 72 -10 160h49
q14 -135 83 -206t187 -71q94 0 147.5 46t53.5 128q0 83 -54.5 130t-168.5 91q-123 49 -165 78q-92 64 -93 178q0 120 91.5 192.5t244.5 72.5q73 0 145.5 -14t114.5 -31q-8 -62 -8 -131q0 -68 8 -134zM313 1073l-43 62q128 93 207 162t168 167q27 -19 53 -53.5t39 -69.5
q-173 -154 -424 -268z" />
    <glyph glyph-name="Scircumflex" unicode="&#x15c;" horiz-adv-x="1085" 
d="M924 983h-50q-32 160 -114 243t-211 83q-114 0 -181 -60.5t-67 -163.5q0 -38 6.5 -68t26 -56t38 -44t60 -41.5t73 -38.5t95.5 -44t104.5 -49.5t88 -49.5t75.5 -57t53.5 -65t36.5 -82t11 -99q0 -193 -132 -302t-364 -109q-90 0 -192 16.5t-179 42.5q9 88 9 162
q0 76 -9 184h56q13 -150 104 -237t234 -87q142 0 226.5 77t84.5 208q0 61 -16.5 105t-59.5 81.5t-91 64t-138 67.5q-46 21 -67.5 31.5t-60.5 30t-58 32t-49 33t-44.5 37.5t-33.5 41t-27 48t-14.5 54t-6.5 63q0 161 124 256.5t331 95.5q181 0 328 -47q-11 -86 -11 -157
q0 -84 11 -199zM971 1602l18 -17q-85 -106 -123 -106q-7 0 -15.5 3.5t-14 6.5t-15 9.5t-12.5 8.5l-244 176q-117 -61 -186 -194h-186q82 105 200.5 175t270.5 122l215 -156q49 -35 71 -35q7 0 21 7z" />
    <glyph glyph-name="scircumflex" unicode="&#x15d;" horiz-adv-x="843" 
d="M717 657h-45q-17 115 -81.5 178.5t-162.5 63.5q-75 0 -123.5 -41.5t-48.5 -107.5q0 -48 32.5 -84.5t64 -52.5t114.5 -49q10 -5 16 -7q67 -26 111 -50t81.5 -57.5t55 -78.5t17.5 -103q0 -136 -99 -212t-276 -76q-146 0 -291 45q10 65 10 143q0 72 -10 160h49
q14 -135 83 -206t187 -71q94 0 147.5 46t53.5 128q0 83 -54.5 130t-168.5 91q-123 49 -165 78q-92 64 -93 178q0 120 91.5 192.5t244.5 72.5q73 0 145.5 -14t114.5 -31q-8 -62 -8 -131q0 -68 8 -134zM477 1442l240 -264q23 -26 40.5 -35.5t45.5 -9.5l4 -27l-115 -31
q-16 -4 -26 -4q-35 0 -64 33l-180 213q-102 -123 -150 -242h-153q63 97 151 183.5t207 183.5z" />
    <glyph glyph-name="Scedilla" unicode="&#x15e;" horiz-adv-x="1085" 
d="M924 983h-50q-32 160 -114 243t-211 83q-114 0 -181 -60.5t-67 -163.5q0 -38 6.5 -68t26 -56t38 -44t60 -41.5t73 -38.5t95.5 -44t104.5 -49.5t88 -49.5t75.5 -57t53.5 -65t36.5 -82t11 -99q0 -193 -132 -302t-364 -109q-90 0 -192 16.5t-179 42.5q9 88 9 162
q0 76 -9 184h56q13 -150 104 -237t234 -87q142 0 226.5 77t84.5 208q0 61 -16.5 105t-59.5 81.5t-91 64t-138 67.5q-46 21 -67.5 31.5t-60.5 30t-58 32t-49 33t-44.5 37.5t-33.5 41t-27 48t-14.5 54t-6.5 63q0 161 124 256.5t331 95.5q181 0 328 -47q-11 -86 -11 -157
q0 -84 11 -199zM412 -158l-15 25q94 70 144 70q43 0 77.5 -51t34.5 -97q0 -69 -76.5 -123.5t-175.5 -54.5q-18 0 -45 6l31 90q38 -14 68 -14q65 0 65 53q0 33 -27 70t-59 37q-11 0 -22 -11z" />
    <glyph glyph-name="scedilla" unicode="&#x15f;" horiz-adv-x="843" 
d="M717 657h-45q-17 115 -81.5 178.5t-162.5 63.5q-75 0 -123.5 -41.5t-48.5 -107.5q0 -48 32.5 -84.5t64 -52.5t114.5 -49q10 -5 16 -7q67 -26 111 -50t81.5 -57.5t55 -78.5t17.5 -103q0 -136 -99 -212t-276 -76q-146 0 -291 45q10 65 10 143q0 72 -10 160h49
q14 -135 83 -206t187 -71q94 0 147.5 46t53.5 128q0 83 -54.5 130t-168.5 91q-123 49 -165 78q-92 64 -93 178q0 120 91.5 192.5t244.5 72.5q73 0 145.5 -14t114.5 -31q-8 -62 -8 -131q0 -68 8 -134zM293 -154l-14 25q81 68 139 68q38 0 73 -46t35 -96q0 -69 -73 -121.5
t-170 -52.5q-30 0 -45 6l28 86q38 -14 68 -14q63 0 63 53q0 33 -26 66t-56 33q-11 0 -22 -7z" />
    <glyph glyph-name="Scaron" unicode="&#x160;" horiz-adv-x="1085" 
d="M924 983h-50q-32 160 -114 243t-211 83q-114 0 -181 -60.5t-67 -163.5q0 -38 6.5 -68t26 -56t38 -44t60 -41.5t73 -38.5t95.5 -44t104.5 -49.5t88 -49.5t75.5 -57t53.5 -65t36.5 -82t11 -99q0 -193 -132 -302t-364 -109q-90 0 -192 16.5t-179 42.5q9 88 9 162
q0 76 -9 184h56q13 -150 104 -237t234 -87q142 0 226.5 77t84.5 208q0 61 -16.5 105t-59.5 81.5t-91 64t-138 67.5q-46 21 -67.5 31.5t-60.5 30t-58 32t-49 33t-44.5 37.5t-33.5 41t-27 48t-14.5 54t-6.5 63q0 161 124 256.5t331 95.5q181 0 328 -47q-11 -86 -11 -157
q0 -84 11 -199zM193 1661l-19 16q85 109 123 109q11 0 18 -4t39 -27l244 -174q52 23 103 75.5t83 117.5h189q-67 -89 -192 -167.5t-279 -129.5l-217 155q-49 35 -72 35q-8 0 -20 -6z" />
    <glyph glyph-name="scaron" unicode="&#x161;" horiz-adv-x="843" 
d="M717 657h-45q-17 115 -81.5 178.5t-162.5 63.5q-75 0 -123.5 -41.5t-48.5 -107.5q0 -48 32.5 -84.5t64 -52.5t114.5 -49q10 -5 16 -7q67 -26 111 -50t81.5 -57.5t55 -78.5t17.5 -103q0 -136 -99 -212t-276 -76q-146 0 -291 45q10 65 10 143q0 72 -10 160h49
q14 -135 83 -206t187 -71q94 0 147.5 46t53.5 128q0 83 -54.5 130t-168.5 91q-123 49 -165 78q-92 64 -93 178q0 120 91.5 192.5t244.5 72.5q73 0 145.5 -14t114.5 -31q-8 -62 -8 -131q0 -68 8 -134zM408 1071l-240 264q-24 27 -41.5 37t-44.5 10l-4 23l115 33q16 4 26 4
q35 0 64 -33l180 -213q106 136 149 242h154q-63 -99 -164.5 -201t-193.5 -166z" />
    <glyph glyph-name="Tcommaaccent" unicode="&#x162;" horiz-adv-x="1140" 
d="M649 1290v-921q0 -184 32 -253.5t124 -76.5v-45q-111 12 -234 12q-118 0 -235 -12v45q92 7 124 76.5t32 253.5v921q-82 0 -134.5 -3.5t-106 -16.5t-86 -37t-58.5 -65.5t-39 -102.5h-48q30 163 39 313q166 -12 357 -12h309q193 0 356 12q8 -144 39 -313h-47q-13 58 -36 98
t-55 65.5t-83 39t-108 18t-142 4.5zM397 -225l-8 18q53 35 109 58.5t88 23.5q41 0 59.5 -31t18.5 -98q0 -96 -58 -168t-160 -98l-16 43q92 27 92 141q0 51 -34 81t-91 30z" />
    <glyph glyph-name="tcommaaccent" unicode="&#x163;" horiz-adv-x="694" 
d="M653 946l15 -28l-56 -70q-104 18 -256 18l-4 -467q-1 -56 2.5 -99.5t16 -90.5t35 -77.5t62 -50.5t93.5 -20q39 0 96 17l15 -47q-155 -54 -250 -54q-197 0 -203 218v204l6 467q-75 0 -149 -18l-10 39q108 87 168 191.5t83 246.5h56q-17 -180 -17 -379h297zM244 -242l-8 19
q38 29 97 55.5t99 26.5q41 0 59.5 -31t18.5 -98q0 -95 -58 -163.5t-161 -86.5l-12 43q90 26 90 117q0 47 -35 82.5t-90 35.5z" />
    <glyph glyph-name="Tcaron" unicode="&#x164;" horiz-adv-x="1140" 
d="M649 1290v-921q0 -184 32 -253.5t124 -76.5v-45q-111 12 -234 12q-118 0 -235 -12v45q92 7 124 76.5t32 253.5v921q-82 0 -134.5 -3.5t-106 -16.5t-86 -37t-58.5 -65.5t-39 -102.5h-48q30 163 39 313q166 -12 357 -12h309q193 0 356 12q8 -144 39 -313h-47q-13 58 -36 98
t-55 65.5t-83 39t-108 18t-142 4.5zM223 1661l-18 16q85 109 123 109q10 0 17.5 -4t39.5 -27l244 -174q52 23 103 75.5t83 117.5h189q-67 -89 -192 -167.5t-280 -129.5l-217 155q-49 35 -71 35q-9 0 -21 -6z" />
    <glyph glyph-name="tcaron" unicode="&#x165;" horiz-adv-x="694" 
d="M653 946l15 -28l-56 -70q-104 18 -256 18l-4 -467q-1 -56 2.5 -99.5t16 -90.5t35 -77.5t62 -50.5t93.5 -20q39 0 96 17l15 -47q-155 -54 -250 -54q-197 0 -203 218v204l6 467q-75 0 -149 -18l-10 39q108 87 168 191.5t83 246.5h56q-17 -180 -17 -379h297zM438 1382l-8 19
q37 29 97 55.5t100 26.5q41 0 59.5 -31t18.5 -98q0 -95 -58.5 -163.5t-161.5 -86.5l-12 43q90 26 90 117q0 47 -35 82.5t-90 35.5z" />
    <glyph glyph-name="Tbar" unicode="&#x166;" horiz-adv-x="1140" 
d="M649 1290v-528h312l14 -27l-35 -59h-291v-307q0 -184 32 -253.5t124 -76.5v-45q-111 12 -234 12q-118 0 -235 -12v45q92 7 124 76.5t32 253.5v307h-308l-14 16l37 70h285v528q-82 0 -134.5 -3.5t-106 -16.5t-86 -37t-58.5 -65.5t-39 -102.5h-48q30 163 39 313
q166 -12 357 -12h309q193 0 356 12q8 -144 39 -313h-47q-13 58 -36 98t-55 65.5t-83 39t-108 18t-142 4.5z" />
    <glyph glyph-name="tbar" unicode="&#x167;" horiz-adv-x="694" 
d="M653 946l15 -28l-56 -70q-104 18 -256 18l-2 -291h299l15 -26l-33 -53h-283v-97q-1 -56 2.5 -99.5t16 -90.5t35 -77.5t62 -50.5t93.5 -20q39 0 96 17l15 -47q-155 -54 -250 -54q-197 0 -203 218v301h-139l-14 16l34 63h121l4 291q-75 0 -149 -18l-10 39q108 87 168 191.5
t83 246.5h56q-17 -180 -17 -379h297z" />
    <glyph glyph-name="Utilde" unicode="&#x168;" horiz-adv-x="1521" 
d="M1106 -6v356q-91 -192 -211.5 -281t-288.5 -89q-73 0 -131 14t-98 37t-69 60t-46 76t-27 92.5t-13 101.5t-3 110v526q0 183 -32 252t-124 78v45q110 -12 228 -12t233 12v-45q-91 -9 -123 -78t-32 -252v-471q0 -216 60.5 -309.5t215.5 -93.5q144 0 262 87t199 228v559
q0 183 -32 252t-124 78v45q110 -12 228 -12t233 12v-45q-92 -9 -124 -78t-32 -252v-628q0 -186 30.5 -254.5t121.5 -75.5v-45q-73 8 -150 8q-85 0 -151 -8zM1100 1722l45 -20q-50 -119 -88 -163t-90 -44q-41 0 -209 57q-116 41 -189 41q-42 0 -69 -19.5t-62 -76.5l-41 19
q42 120 81.5 164t101.5 44q35 0 221 -57q117 -37 168 -37q86 0 131 92z" />
    <glyph glyph-name="utilde" unicode="&#x169;" horiz-adv-x="1171" 
d="M967 952q-15 -99 -15 -245v-310q0 -200 32 -274t122 -86v-43q-52 10 -131 10q-66 0 -121 -10q-33 139 -33 246q-80 -137 -164.5 -198.5t-193.5 -61.5q-52 0 -93.5 12t-69 30t-47 47.5t-30 57t-16 66t-7 66.5t-1.5 67v209q0 201 -32.5 278.5t-123.5 87.5v39l299 12
q-12 -84 -12 -245v-275q0 -46 1 -77t5.5 -68t12.5 -61t22.5 -48t34.5 -38t50 -22.5t68 -8.5q87 0 155.5 48t141.5 162v216q0 140 -15 216t-49 110.5t-98 39.5v39zM895 1354l45 -21q-49 -115 -85.5 -154.5t-90.5 -39.5q-40 0 -168 43q-153 51 -217 51q-40 0 -66.5 -19
t-58.5 -73l-43 18q42 116 79.5 156.5t98.5 40.5q42 0 197 -49q130 -43 180 -43q85 0 129 90z" />
    <glyph glyph-name="Umacron" unicode="&#x16a;" horiz-adv-x="1521" 
d="M1106 -6v356q-91 -192 -211.5 -281t-288.5 -89q-73 0 -131 14t-98 37t-69 60t-46 76t-27 92.5t-13 101.5t-3 110v526q0 183 -32 252t-124 78v45q110 -12 228 -12t233 12v-45q-91 -9 -123 -78t-32 -252v-471q0 -216 60.5 -309.5t215.5 -93.5q144 0 262 87t199 228v559
q0 183 -32 252t-124 78v45q110 -12 228 -12t233 12v-45q-92 -9 -124 -78t-32 -252v-628q0 -186 30.5 -254.5t121.5 -75.5v-45q-73 8 -150 8q-85 0 -151 -8zM489 1681h625l14 -26l-55 -92h-635l-14 16z" />
    <glyph glyph-name="umacron" unicode="&#x16b;" horiz-adv-x="1171" 
d="M967 952q-15 -99 -15 -245v-310q0 -200 32 -274t122 -86v-43q-52 10 -131 10q-66 0 -121 -10q-33 139 -33 246q-80 -137 -164.5 -198.5t-193.5 -61.5q-52 0 -93.5 12t-69 30t-47 47.5t-30 57t-16 66t-7 66.5t-1.5 67v209q0 201 -32.5 278.5t-123.5 87.5v39l299 12
q-12 -84 -12 -245v-275q0 -46 1 -77t5.5 -68t12.5 -61t22.5 -48t34.5 -38t50 -22.5t68 -8.5q87 0 155.5 48t141.5 162v216q0 140 -15 216t-49 110.5t-98 39.5v39zM283 1300h571l14 -26l-55 -92h-573l-15 16z" />
    <glyph glyph-name="Ubreve" unicode="&#x16c;" horiz-adv-x="1521" 
d="M1106 -6v356q-91 -192 -211.5 -281t-288.5 -89q-73 0 -131 14t-98 37t-69 60t-46 76t-27 92.5t-13 101.5t-3 110v526q0 183 -32 252t-124 78v45q110 -12 228 -12t233 12v-45q-91 -9 -123 -78t-32 -252v-471q0 -216 60.5 -309.5t215.5 -93.5q144 0 262 87t199 228v559
q0 183 -32 252t-124 78v45q110 -12 228 -12t233 12v-45q-92 -9 -124 -78t-32 -252v-628q0 -186 30.5 -254.5t121.5 -75.5v-45q-73 8 -150 8q-85 0 -151 -8zM922 1784h141q2 -14 2 -37q0 -98 -86.5 -162.5t-241.5 -64.5q-157 0 -229 60.5t-78 180.5q21 25 64 35t84 4
q10 -207 196 -207q158 0 158 125q0 36 -10 66z" />
    <glyph glyph-name="ubreve" unicode="&#x16d;" horiz-adv-x="1171" 
d="M967 952q-15 -99 -15 -245v-310q0 -200 32 -274t122 -86v-43q-52 10 -131 10q-66 0 -121 -10q-33 139 -33 246q-80 -137 -164.5 -198.5t-193.5 -61.5q-52 0 -93.5 12t-69 30t-47 47.5t-30 57t-16 66t-7 66.5t-1.5 67v209q0 201 -32.5 278.5t-123.5 87.5v39l299 12
q-12 -84 -12 -245v-275q0 -46 1 -77t5.5 -68t12.5 -61t22.5 -48t34.5 -38t50 -22.5t68 -8.5q87 0 155.5 48t141.5 162v216q0 140 -15 216t-49 110.5t-98 39.5v39zM680 1397h135q2 -14 2 -37q0 -124 -79 -196t-214 -72q-128 0 -191 68t-69 214q19 22 59 33t83 6
q5 -122 47 -185t118 -63q54 0 86.5 39t32.5 105q0 37 -10 88z" />
    <glyph glyph-name="Uring" unicode="&#x16e;" horiz-adv-x="1521" 
d="M1106 -6v356q-91 -192 -211.5 -281t-288.5 -89q-73 0 -131 14t-98 37t-69 60t-46 76t-27 92.5t-13 101.5t-3 110v526q0 183 -32 252t-124 78v45q110 -12 228 -12t233 12v-45q-91 -9 -123 -78t-32 -252v-471q0 -216 60.5 -309.5t215.5 -93.5q144 0 262 87t199 228v559
q0 183 -32 252t-124 78v45q110 -12 228 -12t233 12v-45q-92 -9 -124 -78t-32 -252v-628q0 -186 30.5 -254.5t121.5 -75.5v-45q-73 8 -150 8q-85 0 -151 -8zM737 1882q89 0 154 -62t65 -149q0 -86 -65.5 -148.5t-153.5 -62.5t-152.5 62t-64.5 149t64.5 149t152.5 62z
M737 1794q-51 0 -83.5 -35t-32.5 -88q0 -52 33 -87.5t83 -35.5q52 0 85.5 35.5t33.5 87.5q0 53 -33.5 88t-85.5 35z" />
    <glyph glyph-name="uring" unicode="&#x16f;" horiz-adv-x="1171" 
d="M967 952q-15 -99 -15 -245v-310q0 -200 32 -274t122 -86v-43q-52 10 -131 10q-66 0 -121 -10q-33 139 -33 246q-80 -137 -164.5 -198.5t-193.5 -61.5q-52 0 -93.5 12t-69 30t-47 47.5t-30 57t-16 66t-7 66.5t-1.5 67v209q0 201 -32.5 278.5t-123.5 87.5v39l299 12
q-12 -84 -12 -245v-275q0 -46 1 -77t5.5 -68t12.5 -61t22.5 -48t34.5 -38t50 -22.5t68 -8.5q87 0 155.5 48t141.5 162v216q0 140 -15 216t-49 110.5t-98 39.5v39zM555 1477q91 0 150 -57.5t59 -143.5t-59 -143.5t-150 -57.5t-150 57.5t-59 143.5t59 143.5t150 57.5z
M555 1397q-50 0 -81.5 -34.5t-31.5 -86.5q0 -51 31.5 -86t81.5 -35q49 0 81 35.5t32 85.5q0 52 -31.5 86.5t-81.5 34.5z" />
    <glyph glyph-name="Uhungarumlaut" unicode="&#x170;" horiz-adv-x="1521" 
d="M1106 -6v356q-91 -192 -211.5 -281t-288.5 -89q-73 0 -131 14t-98 37t-69 60t-46 76t-27 92.5t-13 101.5t-3 110v526q0 183 -32 252t-124 78v45q110 -12 228 -12t233 12v-45q-91 -9 -123 -78t-32 -252v-471q0 -216 60.5 -309.5t215.5 -93.5q144 0 262 87t199 228v559
q0 183 -32 252t-124 78v45q110 -12 228 -12t233 12v-45q-92 -9 -124 -78t-32 -252v-628q0 -186 30.5 -254.5t121.5 -75.5v-45q-73 8 -150 8q-85 0 -151 -8zM827 1440l-43 63q127 88 212 159.5t182 172.5q39 -37 56 -61t34 -66q-183 -160 -441 -268zM483 1440l-43 63
q127 88 212 159.5t182 172.5q39 -37 56 -61t34 -66q-183 -160 -441 -268z" />
    <glyph glyph-name="uhungarumlaut" unicode="&#x171;" horiz-adv-x="1171" 
d="M967 952q-15 -99 -15 -245v-310q0 -200 32 -274t122 -86v-43q-52 10 -131 10q-66 0 -121 -10q-33 139 -33 246q-80 -137 -164.5 -198.5t-193.5 -61.5q-52 0 -93.5 12t-69 30t-47 47.5t-30 57t-16 66t-7 66.5t-1.5 67v209q0 201 -32.5 278.5t-123.5 87.5v39l299 12
q-12 -84 -12 -245v-275q0 -46 1 -77t5.5 -68t12.5 -61t22.5 -48t34.5 -38t50 -22.5t68 -8.5q87 0 155.5 48t141.5 162v216q0 140 -15 216t-49 110.5t-98 39.5v39zM381 1081l-47 47q81 112 166 336q53 -26 75.5 -40t55.5 -44q-95 -163 -250 -299zM668 1081l-47 47
q50 69 86.5 147t78.5 189q54 -26 77 -40.5t55 -43.5q-95 -163 -250 -299z" />
    <glyph glyph-name="Uogonek" unicode="&#x172;" horiz-adv-x="1521" 
d="M1106 -4v354q-91 -192 -211.5 -281t-288.5 -89q-73 0 -131 14t-98 37t-69 60t-46 76t-27 92.5t-13 101.5t-3 110v526q0 183 -32 252t-124 78v45q110 -12 228 -12t233 12v-45q-91 -9 -123 -78t-32 -252v-471q0 -216 60.5 -309.5t215.5 -93.5q144 0 262 87t199 228v559
q0 183 -32 252t-124 78v45q110 -12 228 -12t233 12v-45q-92 -9 -124 -78t-32 -252v-628q0 -186 30.5 -254.5t121.5 -75.5v-45q-73 8 -143 8h-23q-74 -22 -138.5 -108.5t-64.5 -169.5q0 -119 103 -119q63 0 129 71l35 -32q-53 -73 -122 -113.5t-143 -40.5t-114.5 41
t-40.5 123q0 101 62 191t159 151z" />
    <glyph glyph-name="uogonek" unicode="&#x173;" horiz-adv-x="1171" 
d="M967 952q-15 -99 -15 -245v-310q0 -200 32 -274t122 -86v-43q-48 10 -102 10q-91 0 -163.5 -89.5t-72.5 -190.5q0 -58 28 -88.5t74 -30.5q63 0 129 71l33 -30q-114 -156 -262 -156q-74 0 -109.5 43.5t-35.5 120.5q0 101 64 192t163 152q-31 127 -31 242
q-80 -137 -164.5 -198.5t-193.5 -61.5q-52 0 -93.5 12t-69 30t-47 47.5t-30 57t-16 66t-7 66.5t-1.5 67v209q0 201 -32.5 278.5t-123.5 87.5v39l299 12q-12 -84 -12 -245v-275q0 -46 1 -77t5.5 -68t12.5 -61t22.5 -48t34.5 -38t50 -22.5t68 -8.5q87 0 155.5 48t141.5 162
v216q0 140 -15 216t-49 110.5t-98 39.5v39z" />
    <glyph glyph-name="Wcircumflex" unicode="&#x174;" horiz-adv-x="2021" 
d="M1018 954l-225 -624q-68 -192 -107 -336h-113l-358 960q-51 136 -91.5 215.5t-72.5 113.5t-74 54v35q108 -12 220 -12q109 0 241 12v-43q-135 -6 -135 -121q0 -57 53 -200l295 -799l314 883q-45 114 -87.5 170t-97.5 75v35q123 -12 240 -12q96 0 225 12v-43
q-139 -9 -139 -121q0 -67 65 -241l281 -744l256 715q72 201 72 266q0 122 -144 125v43q132 -12 217 -12q92 0 203 12v-35q-109 -14 -260 -432l-201 -555q-76 -213 -110 -356h-105zM1391 1602l18 -17q-85 -106 -123 -106q-7 0 -15.5 3.5t-14 6.5t-15 9.5t-12.5 8.5l-244 176
q-117 -61 -186 -194h-187q82 105 200.5 175t270.5 122l215 -156q49 -35 72 -35q7 0 21 7z" />
    <glyph glyph-name="wcircumflex" unicode="&#x175;" horiz-adv-x="1533" 
d="M768 616l-168 -419q-45 -108 -70 -209h-104l-225 610q-58 157 -98.5 223t-96.5 99v32q98 -12 187 -12q90 0 200 12v-43q-106 -9 -106 -102q0 -74 43 -182l176 -467l223 563q-35 90 -71.5 135t-82.5 59v37q94 -12 183 -12q72 0 194 12v-43q-100 -3 -100 -84q0 -51 53 -192
l176 -475l156 411q53 139 53 215q0 60 -33 92.5t-96 32.5v43q114 -12 182 -12q85 0 183 12v-34q-59 -52 -104 -133.5t-105 -235.5l-143 -369q-36 -90 -66 -192h-104zM780 1442l240 -264q23 -26 40.5 -35.5t45.5 -9.5l4 -27l-115 -31q-16 -4 -26 -4q-35 0 -64 33l-180 213
q-102 -123 -150 -242h-153q63 97 151 183.5t207 183.5z" />
    <glyph glyph-name="Ycircumflex" unicode="&#x176;" horiz-adv-x="1181" 
d="M621 690l184 307q42 72 68 137.5t26 100.5q0 88 -127 94v43q138 -12 221 -12q104 0 203 12v-31q-102 -34 -303 -374l-225 -381v-217q0 -185 32 -254t123 -76v-45q-120 12 -233 12q-112 0 -230 -12v45q92 7 124 76.5t32 253.5v196l-201 353q-42 73 -71 120t-69 104.5
t-73 92.5t-72.5 62.5t-78.5 35.5v39q120 -12 217 -12q109 0 244 12v-43q-90 0 -90 -72q0 -32 16 -72t61 -116zM991 1602l19 -17q-85 -106 -123 -106q-7 0 -16 3.5t-14 6.5t-15.5 10t-12.5 8l-243 176q-118 -62 -187 -194h-186q82 105 200.5 175t270.5 122l215 -156
q49 -35 72 -35q6 0 20 7z" />
    <glyph glyph-name="ycircumflex" unicode="&#x177;" horiz-adv-x="1052" 
d="M555 129l176 403q72 169 72 259q0 58 -29.5 84.5t-97.5 31.5v45q105 -14 188 -14q93 0 189 14v-32q-57 -40 -95 -101t-100 -198l-213 -474q-23 -52 -65 -151.5t-78 -178.5t-74 -149q-51 -92 -108.5 -135t-129.5 -43q-69 0 -107 37.5t-38 105.5q0 101 64 148
q0 -131 100 -131q98 0 182 121q72 103 72 176q0 39 -20.5 96.5t-73.5 175.5l-203 457q-49 110 -87 171.5t-77 72.5v32q100 -14 201 -14q107 0 198 14v-45q-114 -6 -114 -106q0 -67 80 -248zM582 1442l239 -264q23 -26 40.5 -35.5t45.5 -9.5l4 -27l-114 -31q-16 -4 -27 -4
q-34 0 -63 33l-181 213q-100 -121 -149 -242h-154q62 97 150 183t209 184z" />
    <glyph glyph-name="Ydieresis" unicode="&#x178;" horiz-adv-x="1181" 
d="M621 690l184 307q42 72 68 137.5t26 100.5q0 88 -127 94v43q138 -12 221 -12q104 0 203 12v-31q-102 -34 -303 -374l-225 -381v-217q0 -185 32 -254t123 -76v-45q-120 12 -233 12q-112 0 -230 -12v45q92 7 124 76.5t32 253.5v196l-201 353q-42 73 -71 120t-69 104.5
t-73 92.5t-72.5 62.5t-78.5 35.5v39q120 -12 217 -12q109 0 244 12v-43q-90 0 -90 -72q0 -32 16 -72t61 -116zM426 1708q42 0 72 -30t30 -72q0 -43 -30 -74t-72 -31q-41 0 -71.5 31t-30.5 74q0 41 30.5 71.5t71.5 30.5zM795 1708q42 0 72 -30t30 -72q0 -43 -30 -74t-72 -31
q-43 0 -73 31t-30 74q0 42 30 72t73 30z" />
    <glyph glyph-name="Zacute" unicode="&#x179;" horiz-adv-x="1187" 
d="M152 1012l-46 14q57 267 117 311q25 19 64.5 24t111.5 5h695l12 -33q-271 -533 -834 -1183q128 0 309.5 -12.5t235.5 -12.5q117 0 174 52.5t103 203.5h47q-11 -95 -25 -164.5t-32 -112.5t-34 -69t-40.5 -37.5t-42 -14.5t-47.5 -3q-27 0 -295.5 17.5t-468.5 16.5
q-40 -34 -70 -34q-39 0 -39 38q0 46 32.5 88t72.5 46q532 661 725 1095q-93 8 -215 8q-128 0 -207.5 -9.5t-142 -36.5t-98.5 -73.5t-62 -123.5zM485 1473l-32 67q136 66 230.5 123.5t209.5 144.5q33 -42 46.5 -68t23.5 -71q-209 -133 -478 -196z" />
    <glyph glyph-name="zacute" unicode="&#x17a;" horiz-adv-x="921" 
d="M819 946l27 -41q-104 -174 -260.5 -380.5t-321.5 -387.5q79 -2 182 -11t146 -9q95 0 150 49t92 166l43 -10q-49 -196 -96.5 -269t-125.5 -73q-38 0 -216.5 20t-276.5 20q-34 -34 -66 -34q-17 0 -27 12t-10 31q0 41 32.5 73t76.5 35q146 182 282.5 378.5t200.5 322.5
q-50 8 -151 8q-181 0 -261.5 -50.5t-117.5 -185.5h-43q34 198 63.5 267t83.5 69h594zM373 1073l-43 62q128 93 207 162t168 167q27 -19 53 -53.5t39 -69.5q-173 -154 -424 -268z" />
    <glyph glyph-name="Zdotaccent" unicode="&#x17b;" horiz-adv-x="1187" 
d="M152 1012l-46 14q57 267 117 311q25 19 64.5 24t111.5 5h695l12 -33q-271 -533 -834 -1183q128 0 309.5 -12.5t235.5 -12.5q117 0 174 52.5t103 203.5h47q-11 -95 -25 -164.5t-32 -112.5t-34 -69t-40.5 -37.5t-42 -14.5t-47.5 -3q-27 0 -295.5 17.5t-468.5 16.5
q-40 -34 -70 -34q-39 0 -39 38q0 46 32.5 88t72.5 46q532 661 725 1095q-93 8 -215 8q-128 0 -207.5 -9.5t-142 -36.5t-98.5 -73.5t-62 -123.5zM641 1737q47 0 82 -35t35 -82t-35 -82t-82 -35t-82 35t-35 82t35 82t82 35z" />
    <glyph glyph-name="zdotaccent" unicode="&#x17c;" horiz-adv-x="921" 
d="M819 946l27 -41q-104 -174 -260.5 -380.5t-321.5 -387.5q79 -2 182 -11t146 -9q95 0 150 49t92 166l43 -10q-49 -196 -96.5 -269t-125.5 -73q-38 0 -216.5 20t-276.5 20q-34 -34 -66 -34q-17 0 -27 12t-10 31q0 41 32.5 73t76.5 35q146 182 282.5 378.5t200.5 322.5
q-50 8 -151 8q-181 0 -261.5 -50.5t-117.5 -185.5h-43q34 198 63.5 267t83.5 69h594zM492 1348q41 0 70.5 -30t29.5 -71t-29.5 -70.5t-70.5 -29.5t-71 29.5t-30 70.5t30 71t71 30z" />
    <glyph glyph-name="Zcaron" unicode="&#x17d;" horiz-adv-x="1187" 
d="M152 1012l-46 14q57 267 117 311q25 19 64.5 24t111.5 5h695l12 -33q-271 -533 -834 -1183q128 0 309.5 -12.5t235.5 -12.5q117 0 174 52.5t103 203.5h47q-11 -95 -25 -164.5t-32 -112.5t-34 -69t-40.5 -37.5t-42 -14.5t-47.5 -3q-27 0 -295.5 17.5t-468.5 16.5
q-40 -34 -70 -34q-39 0 -39 38q0 46 32.5 88t72.5 46q532 661 725 1095q-93 8 -215 8q-128 0 -207.5 -9.5t-142 -36.5t-98.5 -73.5t-62 -123.5zM291 1661l-19 16q85 109 123 109q11 0 18.5 -4t39.5 -27l243 -174q53 23 104 76t83 117h188q-67 -89 -192 -167.5t-279 -129.5
l-217 155q-49 35 -72 35q-8 0 -20 -6z" />
    <glyph glyph-name="zcaron" unicode="&#x17e;" horiz-adv-x="921" 
d="M819 946l27 -41q-104 -174 -260.5 -380.5t-321.5 -387.5q79 -2 182 -11t146 -9q95 0 150 49t92 166l43 -10q-49 -196 -96.5 -269t-125.5 -73q-38 0 -216.5 20t-276.5 20q-34 -34 -66 -34q-17 0 -27 12t-10 31q0 41 32.5 73t76.5 35q146 182 282.5 378.5t200.5 322.5
q-50 8 -151 8q-181 0 -261.5 -50.5t-117.5 -185.5h-43q34 198 63.5 267t83.5 69h594zM469 1071l-240 264q-24 27 -41.5 37t-44.5 10l-4 23l115 33q16 4 27 4q34 0 63 -33l180 -213q108 139 150 242h153q-63 -99 -164.5 -201t-193.5 -166z" />
    <glyph glyph-name="longs" unicode="&#x17f;" horiz-adv-x="688" 
d="M121 946h123q0 305 89.5 452.5t282.5 147.5q187 0 187 -133q0 -66 -43 -107t-115 -42h-6q14 42 14 90q0 114 -98 114q-63 0 -102 -50t-58.5 -165.5t-19.5 -306.5v-579q0 -133 16 -200t56.5 -96.5t121.5 -33.5v-43q-143 12 -264 12q-117 0 -225 -12v43q94 2 129 72.5
t35 257.5v499q-102 -4 -164 -18l-12 16z" />
    <glyph glyph-name="florin" unicode="&#x192;" 
d="M915 780v-90h-319q-48 -397 -99 -614.5t-114 -333.5q-104 -188 -334 -188q-105 0 -164 45.5t-59 126.5q0 79 51.5 126.5t136.5 47.5q31 0 52 -6q-60 -67 -60 -162q0 -109 88 -109q76 0 136.5 105t114.5 339t106 623h-242v90h252q9 73 19 131t27 123.5t38 114.5t52.5 95.5
t70 76t91 47.5t115.5 18q97 0 150 -38.5t53 -110.5q0 -65 -44 -106t-113 -41q-32 0 -50 6q50 67 50 131q0 43 -23 68.5t-61 25.5q-37 0 -68.5 -27.5t-61.5 -88t-55.5 -167.5t-44.5 -258h309z" />
    <glyph glyph-name="AEacute" unicode="&#x1fc;" horiz-adv-x="1839" 
d="M1100 1286v-518h149q126 0 185.5 32.5t81.5 114.5h40q-14 -91 -14 -184q0 -104 14 -207h-40q-23 92 -81.5 125t-199.5 33h-135v-301q0 -85 4.5 -137t14 -89t31 -53.5t48.5 -23t74 -6.5q184 0 278 62t162 224l51 -26q-50 -124 -69.5 -181t-48.5 -169q-169 18 -342 18h-267
q-142 0 -237 -6v45q51 1 83 22.5t48 68t21 100t5 139.5v313h-376l-174 -262q-154 -230 -154 -303q0 -35 25 -53t88 -27v-43q-105 12 -209 12q-92 0 -197 -12v39q72 42 136 113t188 255l493 734q66 98 66 135q0 26 -19 39.5t-63 17.5v45q66 -6 219 -6h297q179 0 332 12
q3 -137 37 -313l-43 -12q-15 54 -37 94t-53 65t-61.5 40.5t-76.5 22.5t-83.5 9t-96.5 2h-94zM956 768v483l-319 -483h319zM1020 1473l-33 67q136 66 230.5 123.5t209.5 144.5q33 -42 46.5 -68t23.5 -71q-210 -133 -477 -196z" />
    <glyph glyph-name="aeacute" unicode="&#x1fd;" horiz-adv-x="1431" 
d="M1313 231l41 -45q-92 -110 -183 -158t-206 -48q-117 0 -192.5 56t-119.5 177q-78 -123 -158.5 -178t-183.5 -55q-100 0 -157.5 59t-57.5 162q0 161 133.5 247.5t391.5 92.5q2 27 2 94q0 138 -39.5 202t-126.5 64q-70 0 -113 -38.5t-43 -100.5q0 -70 39 -109
q-36 -14 -72 -14q-61 0 -97 34t-36 93q0 91 100.5 146t264.5 55q103 0 152.5 -32t74.5 -114q53 78 119.5 112t167.5 34q146 0 231.5 -81t85.5 -216q0 -62 -18 -111h-559q-2 -23 -2 -51q0 -197 77.5 -303.5t219.5 -106.5q145 0 264 133zM621 481q-181 -6 -274 -69.5
t-93 -180.5q0 -65 30 -99t87 -34q141 0 266 172q-16 66 -16 162v49zM1176 655q2 16 2 50q0 86 -50 141t-127 55q-95 0 -159.5 -72t-81.5 -198zM664 1073l-43 62q127 92 206 161.5t168 167.5q27 -19 53 -53.5t39 -69.5q-174 -155 -423 -268z" />
    <glyph glyph-name="Oslashacute" unicode="&#x1fe;" horiz-adv-x="1517" 
d="M1266 1430l82 -68l-111 -139q87 -99 126.5 -227.5t39.5 -313.5q0 -344 -166.5 -523t-486.5 -179q-129 0 -217.5 23t-178.5 81l-125 -166l-82 62l134 167q-86 100 -126 226.5t-40 298.5q0 339 176.5 526.5t494.5 187.5q115 0 202 -22.5t169 -73.5zM1077 1196
q-69 63 -139 89t-168 26q-232 0 -355.5 -164.5t-123.5 -470.5q0 -134 21 -231.5t69 -184.5zM442 174q53 -61 139.5 -89t180.5 -28q230 0 349.5 156.5t119.5 458.5q0 129 -20.5 233.5t-73.5 206.5zM578 1473l-33 67q136 66 230.5 123.5t209.5 144.5q33 -42 46.5 -68t23.5 -71
q-210 -133 -477 -196z" />
    <glyph glyph-name="oslashacute" unicode="&#x1ff;" horiz-adv-x="1103" 
d="M903 1016l68 -55l-86 -109q66 -76 91 -168.5t25 -210.5q0 -242 -116.5 -371t-335.5 -129q-158 0 -270 76l-103 -133l-67 55l104 140q-59 72 -85 157t-26 203q0 242 121.5 372t347.5 130q152 0 250 -66zM745 825q-75 78 -194 78q-142 0 -222.5 -108t-80.5 -297
q0 -162 59 -283zM356 135q44 -51 92 -72.5t115 -21.5q144 0 221.5 109t77.5 311q0 168 -65 293zM442 1073l-43 62q128 93 207 162t168 167q27 -19 53 -53.5t39 -69.5q-173 -154 -424 -268z" />
    <glyph glyph-name="Scommaaccent" unicode="&#x218;" horiz-adv-x="1085" 
d="M924 983h-50q-32 160 -114 243t-211 83q-114 0 -181 -60.5t-67 -163.5q0 -38 6.5 -68t26 -56t38 -44t60 -41.5t73 -38.5t95.5 -44t104.5 -49.5t88 -49.5t75.5 -57t53.5 -65t36.5 -82t11 -99q0 -193 -132 -302t-364 -109q-90 0 -192 16.5t-179 42.5q9 88 9 162
q0 76 -9 184h56q13 -150 104 -237t234 -87q142 0 226.5 77t84.5 208q0 61 -16.5 105t-59.5 81.5t-91 64t-138 67.5q-46 21 -67.5 31.5t-60.5 30t-58 32t-49 33t-44.5 37.5t-33.5 41t-27 48t-14.5 54t-6.5 63q0 161 124 256.5t331 95.5q181 0 328 -47q-11 -86 -11 -157
q0 -84 11 -199zM362 -225l-8 18q53 35 109 58.5t88 23.5q41 0 59.5 -31t18.5 -98q0 -96 -57.5 -168t-159.5 -98l-17 43q92 27 92 141q0 51 -34 81t-91 30z" />
    <glyph glyph-name="scommaaccent" unicode="&#x219;" horiz-adv-x="843" 
d="M717 657h-45q-17 115 -81.5 178.5t-162.5 63.5q-75 0 -123.5 -41.5t-48.5 -107.5q0 -48 32.5 -84.5t64 -52.5t114.5 -49q10 -5 16 -7q67 -26 111 -50t81.5 -57.5t55 -78.5t17.5 -103q0 -136 -99 -212t-276 -76q-146 0 -291 45q10 65 10 143q0 72 -10 160h49
q14 -135 83 -206t187 -71q94 0 147.5 46t53.5 128q0 83 -54.5 130t-168.5 91q-123 49 -165 78q-92 64 -93 178q0 120 91.5 192.5t244.5 72.5q73 0 145.5 -14t114.5 -31q-8 -62 -8 -131q0 -68 8 -134zM256 -242l-8 19q38 29 97 55.5t99 26.5q41 0 59.5 -31t18.5 -98
q0 -95 -58 -163.5t-161 -86.5l-12 43q90 26 90 117q0 47 -35 82.5t-90 35.5z" />
    <glyph glyph-name="uni021A" unicode="&#x21a;" horiz-adv-x="1140" 
d="M649 1290v-921q0 -184 32 -253.5t124 -76.5v-45q-111 12 -234 12q-118 0 -235 -12v45q92 7 124 76.5t32 253.5v921q-82 0 -134.5 -3.5t-106 -16.5t-86 -37t-58.5 -65.5t-39 -102.5h-48q30 163 39 313q166 -12 357 -12h309q193 0 356 12q8 -144 39 -313h-47q-13 58 -36 98
t-55 65.5t-83 39t-108 18t-142 4.5zM401 -225l-8 18q53 35 109 58.5t88 23.5q41 0 59.5 -31t18.5 -98q0 -96 -57.5 -168t-159.5 -98l-17 43q92 27 92 141q0 51 -34 81t-91 30z" />
    <glyph glyph-name="uni021B" unicode="&#x21b;" horiz-adv-x="694" 
d="M653 946l15 -28l-56 -70q-104 18 -256 18l-4 -467q-1 -56 2.5 -99.5t16 -90.5t35 -77.5t62 -50.5t93.5 -20q39 0 96 17l15 -47q-155 -54 -250 -54q-197 0 -203 218v204l6 467q-75 0 -149 -18l-10 39q108 87 168 191.5t83 246.5h56q-17 -180 -17 -379h297zM238 -242l-9 19
q37 29 97 55.5t100 26.5q41 0 59.5 -31t18.5 -98q0 -95 -58 -163.5t-161 -86.5l-13 43q90 26 90 117q0 47 -34.5 82.5t-89.5 35.5z" />
    <glyph glyph-name="dotlessj" unicode="&#x237;" horiz-adv-x="546" 
d="M377 954q-9 -50 -13 -111.5t-4 -103.5t1 -117t1 -106v-469q0 -184 -22 -273.5t-86 -164.5q-47 -57 -118.5 -88t-153.5 -31q-78 0 -121 35.5t-43 99.5q0 66 47 108t119 42q16 0 30 -2q-34 -48 -34 -105q0 -44 23 -70t63 -26q165 0 165 403v557q0 207 -33 283.5t-128 83.5
v37z" />
    <glyph glyph-name="circumflex" unicode="&#x2c6;" horiz-adv-x="1024" 
d="M528 1442l240 -264q23 -26 40.5 -35.5t45.5 -9.5l4 -27l-115 -31q-16 -4 -26 -4q-35 0 -64 33l-180 213q-100 -121 -149 -242h-154q63 97 151 183.5t207 183.5z" />
    <glyph glyph-name="caron" unicode="&#x2c7;" horiz-adv-x="1024" 
d="M496 1071l-240 264q-24 27 -41.5 37t-44.5 10l-4 23l115 33q16 4 26 4q35 0 64 -33l180 -213q106 136 149 242h154q-63 -99 -164.5 -201t-193.5 -166z" />
    <glyph glyph-name="uni02C9" unicode="&#x2c9;" horiz-adv-x="1024" 
d="M248 1300h571l15 -26l-56 -92h-573l-15 16z" />
    <glyph glyph-name="breve" unicode="&#x2d8;" horiz-adv-x="1024" 
d="M651 1397h135q2 -14 2 -37q0 -124 -78.5 -196t-213.5 -72q-128 0 -191 68t-69 214q19 22 58.5 33t82.5 6q4 -121 46.5 -184.5t119.5 -63.5q54 0 86.5 39t32.5 105q0 32 -11 88z" />
    <glyph glyph-name="dotaccent" unicode="&#x2d9;" horiz-adv-x="1024" 
d="M512 1348q41 0 70.5 -30t29.5 -71t-29.5 -70.5t-70.5 -29.5t-70.5 29.5t-29.5 70.5t29.5 71t70.5 30z" />
    <glyph glyph-name="ring" unicode="&#x2da;" horiz-adv-x="1024" 
d="M512 1477q91 0 150 -57.5t59 -143.5t-59 -143.5t-150 -57.5t-150 57.5t-59 143.5t59 143.5t150 57.5zM512 1397q-50 0 -81.5 -34.5t-31.5 -86.5q0 -51 31.5 -86t81.5 -35q49 0 81 35.5t32 85.5q0 52 -31.5 86.5t-81.5 34.5z" />
    <glyph glyph-name="ogonek" unicode="&#x2db;" horiz-adv-x="1024" 
d="M707 51l36 -47q-84 -11 -160.5 -101t-76.5 -179q0 -58 28 -88.5t74 -30.5q63 0 129 71l33 -30q-114 -156 -262 -156q-74 0 -110 43.5t-36 120.5q0 89 52.5 173t129.5 141t163 83z" />
    <glyph glyph-name="tilde" unicode="&#x2dc;" horiz-adv-x="1024" 
d="M831 1354l46 -21q-48 -114 -85.5 -154t-91.5 -40q-40 0 -168 43q-153 51 -217 51q-40 0 -66.5 -19t-58.5 -73l-43 18q42 115 80 156t99 41q41 0 196 -49q130 -43 180 -43q85 0 129 90z" />
    <glyph glyph-name="hungarumlaut" unicode="&#x2dd;" horiz-adv-x="1024" 
d="M336 1081l-47 47q81 112 166 336q53 -26 75.5 -40t55.5 -44q-95 -163 -250 -299zM623 1081l-48 47q81 112 166 336q53 -26 75.5 -40t55.5 -44q-96 -165 -249 -299z" />
    <glyph glyph-name="uni037E" unicode="&#x37e;" horiz-adv-x="573" 
d="M137 139l-8 19q53 35 109 58.5t88 23.5q41 0 59 -33t18 -107q0 -98 -49 -187.5t-164 -201.5l-34 37q106 131 106 248q0 64 -34 103.5t-91 39.5zM274 965q48 0 82.5 -35t34.5 -84q0 -47 -35 -82t-82 -35q-49 0 -83.5 34.5t-34.5 82.5q0 50 34.5 84.5t83.5 34.5z" />
    <glyph glyph-name="Delta" unicode="&#x394;" horiz-adv-x="1259" 
d="M662 1386l577 -1357l-22 -29h-1178l-19 29l576 1357h66zM602 1182l-442 -1065h876z" />
    <glyph glyph-name="Delta" unicode="&#x2206;" horiz-adv-x="1259" 
d="M662 1386l577 -1357l-22 -29h-1178l-19 29l576 1357h66zM602 1182l-442 -1065h876z" />
    <glyph glyph-name="Omega" unicode="&#x3a9;" horiz-adv-x="1558" 
d="M621 0h-463q-12 142 -43 281h57q36 -100 66 -128t92 -28h168q-56 46 -106.5 103t-100.5 135t-79.5 178t-29.5 207q0 301 151.5 469.5t444.5 168.5q290 0 444 -164t154 -466q0 -346 -311 -631h154q40 0 59.5 3.5t39.5 20.5t33.5 46t34.5 86h58q-35 -147 -41 -281h-467
l-10 27q284 379 284 727q0 254 -115.5 408.5t-316.5 154.5q-203 0 -316.5 -152t-113.5 -417q0 -308 287 -723z" />
    <glyph glyph-name="pi" unicode="&#x3c0;" 
d="M82 686l-35 19q17 39 29.5 64t40 61t59 57t82.5 37t113 16q65 0 254.5 -2t267.5 -2q95 0 121 92l33 -6q-11 -163 -50 -199q-22 -20 -170 -14q-13 -183 -8 -524q0 -181 76 -181q24 0 42.5 17.5t43.5 62.5l33 -20q-75 -184 -201 -184q-72 0 -98.5 49.5t-26.5 179.5
q0 294 17 602q-109 2 -308 2q0 -231 -23.5 -425t-45.5 -275.5t-35 -100.5q-74 -31 -146 -35l-14 37q94 122 143.5 340t49.5 461q-88 0 -143.5 -29.5t-100.5 -99.5z" />
    <glyph glyph-name="Wgrave" unicode="&#x1e80;" horiz-adv-x="2021" 
d="M1018 954l-225 -624q-68 -192 -107 -336h-113l-358 960q-51 136 -91.5 215.5t-72.5 113.5t-74 54v35q108 -12 220 -12q109 0 241 12v-43q-135 -6 -135 -121q0 -57 53 -200l295 -799l314 883q-45 114 -87.5 170t-97.5 75v35q123 -12 240 -12q96 0 225 12v-43
q-139 -9 -139 -121q0 -67 65 -241l281 -744l256 715q72 201 72 266q0 122 -144 125v43q132 -12 217 -12q92 0 203 12v-35q-109 -14 -260 -432l-201 -555q-76 -213 -110 -356h-105zM1204 1526l-49 -56q-181 123 -340 181q24 53 41 79t55 64q170 -105 293 -268z" />
    <glyph glyph-name="wgrave" unicode="&#x1e81;" horiz-adv-x="1533" 
d="M768 616l-168 -419q-45 -108 -70 -209h-104l-225 610q-58 157 -98.5 223t-96.5 99v32q98 -12 187 -12q90 0 200 12v-43q-106 -9 -106 -102q0 -74 43 -182l176 -467l223 563q-35 90 -71.5 135t-82.5 59v37q94 -12 183 -12q72 0 194 12v-43q-100 -3 -100 -84q0 -51 53 -192
l176 -475l156 411q53 139 53 215q0 60 -33 92.5t-96 32.5v43q114 -12 182 -12q85 0 183 12v-34q-59 -52 -104 -133.5t-105 -235.5l-143 -369q-36 -90 -66 -192h-104zM850 1106l-66 -29q-100 174 -225 299q42 37 68 53t75 35q105 -162 148 -358z" />
    <glyph glyph-name="Wacute" unicode="&#x1e82;" horiz-adv-x="2021" 
d="M1018 954l-225 -624q-68 -192 -107 -336h-113l-358 960q-51 136 -91.5 215.5t-72.5 113.5t-74 54v35q108 -12 220 -12q109 0 241 12v-43q-135 -6 -135 -121q0 -57 53 -200l295 -799l314 883q-45 114 -87.5 170t-97.5 75v35q123 -12 240 -12q96 0 225 12v-43
q-139 -9 -139 -121q0 -67 65 -241l281 -744l256 715q72 201 72 266q0 122 -144 125v43q132 -12 217 -12q92 0 203 12v-35q-109 -14 -260 -432l-201 -555q-76 -213 -110 -356h-105zM850 1473l-33 67q136 66 230.5 123.5t209.5 144.5q33 -42 46.5 -68t23.5 -71
q-210 -133 -477 -196z" />
    <glyph glyph-name="wacute" unicode="&#x1e83;" horiz-adv-x="1533" 
d="M768 616l-168 -419q-45 -108 -70 -209h-104l-225 610q-58 157 -98.5 223t-96.5 99v32q98 -12 187 -12q90 0 200 12v-43q-106 -9 -106 -102q0 -74 43 -182l176 -467l223 563q-35 90 -71.5 135t-82.5 59v37q94 -12 183 -12q72 0 194 12v-43q-100 -3 -100 -84q0 -51 53 -192
l176 -475l156 411q53 139 53 215q0 60 -33 92.5t-96 32.5v43q114 -12 182 -12q85 0 183 12v-34q-59 -52 -104 -133.5t-105 -235.5l-143 -369q-36 -90 -66 -192h-104zM672 1073l-43 62q128 93 207 162t168 167q27 -19 53 -53.5t39 -69.5q-173 -154 -424 -268z" />
    <glyph glyph-name="Wdieresis" unicode="&#x1e84;" horiz-adv-x="2021" 
d="M1018 954l-225 -624q-68 -192 -107 -336h-113l-358 960q-51 136 -91.5 215.5t-72.5 113.5t-74 54v35q108 -12 220 -12q109 0 241 12v-43q-135 -6 -135 -121q0 -57 53 -200l295 -799l314 883q-45 114 -87.5 170t-97.5 75v35q123 -12 240 -12q96 0 225 12v-43
q-139 -9 -139 -121q0 -67 65 -241l281 -744l256 715q72 201 72 266q0 122 -144 125v43q132 -12 217 -12q92 0 203 12v-35q-109 -14 -260 -432l-201 -555q-76 -213 -110 -356h-105zM831 1708q43 0 73 -30t30 -72q0 -43 -30 -74t-73 -31q-41 0 -71.5 31t-30.5 74
q0 41 30.5 71.5t71.5 30.5zM1200 1708q42 0 72.5 -30t30.5 -72q0 -43 -30 -74t-73 -31q-42 0 -72 31t-30 74q0 42 30 72t72 30z" />
    <glyph glyph-name="wdieresis" unicode="&#x1e85;" horiz-adv-x="1533" 
d="M768 616l-168 -419q-45 -108 -70 -209h-104l-225 610q-58 157 -98.5 223t-96.5 99v32q98 -12 187 -12q90 0 200 12v-43q-106 -9 -106 -102q0 -74 43 -182l176 -467l223 563q-35 90 -71.5 135t-82.5 59v37q94 -12 183 -12q72 0 194 12v-43q-100 -3 -100 -84q0 -51 53 -192
l176 -475l156 411q53 139 53 215q0 60 -33 92.5t-96 32.5v43q114 -12 182 -12q85 0 183 12v-34q-59 -52 -104 -133.5t-105 -235.5l-143 -369q-36 -90 -66 -192h-104zM588 1348q41 0 70.5 -30t29.5 -71t-29.5 -70.5t-70.5 -29.5t-71 29.5t-30 70.5t30 71t71 30zM944 1348
q41 0 70.5 -30t29.5 -71t-29.5 -70.5t-70.5 -29.5t-70.5 29.5t-29.5 70.5t29.5 71t70.5 30z" />
    <glyph glyph-name="Ygrave" unicode="&#x1ef2;" horiz-adv-x="1181" 
d="M621 690l184 307q42 72 68 137.5t26 100.5q0 88 -127 94v43q138 -12 221 -12q104 0 203 12v-31q-102 -34 -303 -374l-225 -381v-217q0 -185 32 -254t123 -76v-45q-120 12 -233 12q-112 0 -230 -12v45q92 7 124 76.5t32 253.5v196l-201 353q-42 73 -71 120t-69 104.5
t-73 92.5t-72.5 62.5t-78.5 35.5v39q120 -12 217 -12q109 0 244 12v-43q-90 0 -90 -72q0 -32 16 -72t61 -116zM725 1526l-49 -56q-181 123 -340 181q24 53 41 79t55 64q170 -105 293 -268z" />
    <glyph glyph-name="ygrave" unicode="&#x1ef3;" horiz-adv-x="1052" 
d="M555 129l176 403q72 169 72 259q0 58 -29.5 84.5t-97.5 31.5v45q105 -14 188 -14q93 0 189 14v-32q-57 -40 -95 -101t-100 -198l-213 -474q-23 -52 -65 -151.5t-78 -178.5t-74 -149q-51 -92 -108.5 -135t-129.5 -43q-69 0 -107 37.5t-38 105.5q0 101 64 148
q0 -131 100 -131q98 0 182 121q72 103 72 176q0 39 -20.5 96.5t-73.5 175.5l-203 457q-49 110 -87 171.5t-77 72.5v32q100 -14 201 -14q107 0 198 14v-45q-114 -6 -114 -106q0 -67 80 -248zM590 1106l-66 -29q-100 174 -225 299q42 37 68 53t75 35q105 -162 148 -358z" />
    <glyph glyph-name="endash" unicode="&#x2013;" horiz-adv-x="1153" 
d="M958 573v-122h-763v122h763z" />
    <glyph glyph-name="emdash" unicode="&#x2014;" horiz-adv-x="1589" 
d="M1466 573v-122h-1343v122h1343z" />
    <glyph glyph-name="quoteleft" unicode="&#x2018;" horiz-adv-x="573" 
d="M434 1231l8 -19q-53 -35 -108.5 -58.5t-87.5 -23.5q-40 0 -58 33.5t-18 108.5q0 98 49.5 188.5t163.5 198.5l35 -35q-107 -132 -107 -248q0 -64 33.5 -104.5t89.5 -40.5z" />
    <glyph glyph-name="quoteright" unicode="&#x2019;" horiz-adv-x="573" 
d="M137 1495l-8 18q54 35 110 58.5t87 23.5q41 0 59 -33t18 -106q0 -99 -49 -189t-164 -200l-34 35q106 131 106 250q0 62 -34.5 102.5t-90.5 40.5z" />
    <glyph glyph-name="quotesinglbase" unicode="&#x201a;" horiz-adv-x="573" 
d="M137 139l-8 19q53 35 109 58.5t88 23.5q41 0 59 -33.5t18 -108.5q0 -97 -49.5 -187t-163.5 -200l-34 37q106 131 106 248q0 64 -34 103.5t-91 39.5z" />
    <glyph glyph-name="quotedblleft" unicode="&#x201c;" horiz-adv-x="950" 
d="M434 1231l8 -19q-53 -35 -108.5 -58.5t-87.5 -23.5q-40 0 -58 33.5t-18 108.5q0 98 49.5 188.5t163.5 198.5l35 -35q-107 -132 -107 -248q0 -64 33.5 -104.5t89.5 -40.5zM813 1231l8 -19q-53 -35 -108.5 -58.5t-87.5 -23.5q-78 0 -78 140q0 98 49.5 188.5t163.5 200.5
l35 -35q-105 -130 -105 -248q0 -65 33.5 -105t89.5 -40z" />
    <glyph glyph-name="quotedblright" unicode="&#x201d;" horiz-adv-x="950" 
d="M137 1495l-8 18q54 35 110 58.5t87 23.5q41 0 59 -33t18 -106q0 -99 -49 -189t-164 -200l-34 35q106 131 106 250q0 62 -34.5 102.5t-90.5 40.5zM516 1495l-8 18q53 35 109 58.5t88 23.5q41 0 59 -33t18 -108q0 -97 -49.5 -188t-163.5 -199l-34 35q104 128 104 248
q0 64 -33.5 104.5t-89.5 40.5z" />
    <glyph glyph-name="quotedblbase" unicode="&#x201e;" horiz-adv-x="950" 
d="M137 139l-8 19q55 36 110 59t87 23q41 0 59 -33t18 -107q0 -98 -49 -187.5t-164 -201.5l-34 37q106 131 106 248q0 64 -34 103.5t-91 39.5zM516 139l-8 19q53 35 109 58.5t88 23.5q41 0 59 -33.5t18 -108.5q0 -97 -49.5 -187t-163.5 -200l-34 37q104 128 104 248
q0 64 -33.5 103.5t-89.5 39.5z" />
    <glyph glyph-name="dagger" unicode="&#x2020;" horiz-adv-x="1153" 
d="M635 1401l39 -23q-37 -179 -49 -422q210 6 432 64l16 -23q-52 -80 -78 -170q-196 47 -370 47q-9 -156 -9 -292q0 -470 58 -854q-46 -40 -72 -69t-76 -99h-24v469q0 248 -18 348t-72 201l90 59v237q-217 -10 -396 -73l-24 26q38 86 57 146q171 -17 363 -17q0 162 -17 349z
" />
    <glyph glyph-name="daggerdbl" unicode="&#x2021;" horiz-adv-x="1153" 
d="M631 1401l45 -27q-45 -202 -51 -418q234 10 432 64l14 -27q-53 -88 -74 -166q-161 37 -372 47q0 -229 15.5 -330t61.5 -175l-77 -50v-239q205 6 417 76l29 -25q-36 -61 -59 -151q-147 16 -387 16q0 -190 24 -346l-151 -94l-39 20q45 258 45 420q-187 0 -406 -57l-16 26
q51 73 78 166q165 -45 344 -51q0 225 -12 320.5t-60 185.5l72 51v237q-201 -21 -393 -75l-29 28q46 86 61 146q145 -17 361 -17q0 174 -21 349z" />
    <glyph glyph-name="bullet" unicode="&#x2022;" horiz-adv-x="1366" 
d="M684 983q116 0 198.5 -84.5t82.5 -202.5t-82.5 -202t-198.5 -84q-117 0 -200 84t-83 202q0 119 83 203t200 84z" />
    <glyph glyph-name="ellipsis" unicode="&#x2026;" horiz-adv-x="1716" 
d="M287 225q51 0 86 -36t35 -87t-35 -86.5t-86 -35.5t-87 35.5t-36 86.5t36 87t87 36zM858 225q51 0 87 -36t36 -87t-36 -86.5t-87 -35.5t-87 35.5t-36 86.5t36 87t87 36zM1432 225q51 0 85.5 -36t34.5 -87t-34.5 -86.5t-85.5 -35.5t-87 35.5t-36 86.5t36 87t87 36z" />
    <glyph glyph-name="perthousand" unicode="&#x2030;" horiz-adv-x="2328" 
d="M500 12q-53 -20 -81 -35.5t-75 -48.5l-22 19l704 1231q-99 -31 -180 -31q-96 0 -158 41q29 -88 29 -184q0 -173 -80 -270t-225 -97q-148 0 -229 99.5t-81 281.5q0 170 84.5 269t229.5 99q57 0 57 -30q0 -19 -29 -19q-95 -3 -148.5 -84.5t-53.5 -222.5q0 -143 48.5 -229
t129.5 -86q75 0 117.5 73t42.5 203q0 138 -48 234q-38 17 -38 47q0 24 30 40.5t56 16.5q42 0 71 -53q90 -53 207 -53q65 0 108 8.5t115 36.5q95 118 158 118q20 0 49 -27.5t29 -47.5q0 -25 -41.5 -54t-106.5 -49zM1511 350q0 -178 -79.5 -274t-227.5 -96q-149 0 -229 95.5
t-80 274.5q0 178 81 277.5t224 99.5q150 0 230.5 -97.5t80.5 -279.5zM1372 328q0 151 -45 236t-125 85q-78 0 -123 -73.5t-45 -202.5q0 -144 49 -232t129 -88q48 0 82 27.5t50 73.5t22 88t6 86zM2226 350q0 -178 -80.5 -274t-228.5 -96t-227.5 96t-79.5 276q0 177 80 276
t225 99q150 0 230.5 -97.5t80.5 -279.5zM2087 328q0 150 -46 235.5t-124 85.5t-123 -74t-45 -204q0 -142 49 -230t127 -88q49 0 83.5 27.5t50 73t22 87.5t6.5 87z" />
    <glyph glyph-name="guilsinglleft" unicode="&#x2039;" horiz-adv-x="524" 
d="M395 55h-22q0 36 -41 80l-264 293q137 248 348 459v-205q-157 -89 -234 -184l213 -234q35 -38 35 -76q0 -35 -35 -133z" />
    <glyph glyph-name="guilsinglright" unicode="&#x203a;" horiz-adv-x="524" 
d="M129 887h23q3 -34 41 -78l264 -293q-130 -243 -348 -461v205q155 86 233 184l-213 234q-35 41 -35 78q0 35 35 131z" />
    <glyph glyph-name="fraction" unicode="&#x2044;" horiz-adv-x="335" 
d="M348 1386l111 -36l-471 -1373l-111 39z" />
    <glyph glyph-name="zero.superior" unicode="&#x2070;" horiz-adv-x="755" 
d="M684 1214q0 -215 -81.5 -325.5t-227.5 -110.5q-140 0 -221.5 111t-81.5 317q0 205 81.5 315.5t221.5 110.5q144 0 226.5 -108t82.5 -310zM547 1184q0 187 -45.5 281t-126.5 94q-73 0 -119.5 -87t-46.5 -253q0 -180 47.5 -273.5t126.5 -93.5q45 0 79.5 35.5t51.5 90.5
t25 107t8 99z" />
    <glyph glyph-name="four.superior" unicode="&#x2074;" horiz-adv-x="757" 
d="M571 989v-192l-96 -25l-22 19v204q-102 15 -226 15q-75 0 -127 -9q-20 -26 -47 -26q-19 0 -31 12t-12 31q0 25 22 50.5t48 31.5q184 300 184 416q0 36 -26 36q-22 0 -58 -20l-22 43q94 55 182 55q76 0 76 -67q0 -88 -252 -453q54 4 119 4q91 0 170 -10v309q45 9 82 31
l36 -25v-315q80 3 99 131h47q-10 -145 -42 -196.5t-104 -49.5z" />
    <glyph glyph-name="five.superior" unicode="&#x2075;" horiz-adv-x="690" 
d="M565 1712h37q-15 -127 -53.5 -176t-124.5 -49q-103 0 -191 18q9 -52 9 -88q0 -61 -9 -102q56 35 154 35q109 0 175.5 -68t66.5 -186q0 -147 -91 -232.5t-249 -85.5q-98 0 -157.5 35t-59.5 102q0 55 38.5 85t92.5 30q33 0 51 -6q-37 -46 -37 -82q0 -48 30 -69t72 -21
q76 0 124.5 54t48.5 169q0 197 -150 197q-81 0 -121 -37q-7 -35 -28 -51.5t-48 -16.5q-34 0 -34 29q0 27 20 47q19 84 19 172q0 78 -27 205l8 12q140 -26 264 -26q73 0 111 22.5t59 83.5z" />
    <glyph glyph-name="six.superior" unicode="&#x2076;" horiz-adv-x="706" 
d="M500 1675l30 -53q-156 -96 -238.5 -232t-82.5 -292q0 -123 49.5 -184.5t120.5 -61.5q139 0 139 197q0 83 -31.5 119t-80.5 36q-54 0 -84 -30l-33 36q21 34 62.5 61t107.5 27q87 0 141.5 -62t54.5 -167q0 -133 -79 -212t-203 -79q-138 0 -219.5 82.5t-81.5 231.5
q0 180 113 329.5t315 253.5z" />
    <glyph glyph-name="seven.superior" unicode="&#x2077;" horiz-adv-x="614" 
d="M80 1407h-49q25 138 63 188q23 33 70 33q53 0 148.5 -7t150.5 -7q48 0 76 4q17 29 49 29q10 0 18 -7t8 -16q0 -30 -21 -65t-42 -43q-205 -438 -260 -715l-139 -35l-11 20q99 320 332 723q-50 -4 -147 -4q-23 0 -68.5 1t-64.5 1q-46 0 -68 -21t-45 -79z" />
    <glyph glyph-name="eight.superior" unicode="&#x2078;" horiz-adv-x="679" 
d="M446 1253q95 -51 133.5 -101.5t38.5 -131.5q0 -106 -80.5 -174t-205.5 -68q-121 0 -196 59t-75 154q0 164 185 236q-154 75 -154 194q0 96 70.5 153.5t195.5 57.5q118 0 181 -49t63 -137q0 -51 -23.5 -90.5t-54 -60t-78.5 -42.5zM387 1284q39 26 60.5 59.5t21.5 90.5
q0 63 -34 97t-91 34q-50 0 -85.5 -26.5t-35.5 -82.5q0 -32 13.5 -58.5t40.5 -48t50 -35t60 -30.5zM305 1194q-110 -50 -110 -186q0 -68 37.5 -111t111.5 -43q68 0 104.5 39.5t36.5 97.5q0 43 -13.5 75.5t-42 56t-55 38t-69.5 33.5z" />
    <glyph glyph-name="nine.superior" unicode="&#x2079;" horiz-adv-x="694" 
d="M387 1255l27 -36q-62 -86 -170 -86q-83 0 -138 61t-55 158q0 127 80.5 203.5t208.5 76.5q140 0 211.5 -79t71.5 -228q0 -183 -107.5 -331.5t-310.5 -254.5l-31 54q155 99 233 232t78 286q0 118 -42.5 183t-114.5 65q-70 0 -106 -51t-36 -128q0 -66 32 -109.5t77 -43.5
q56 0 92 28z" />
    <glyph glyph-name="parenleft.superior" unicode="&#x207d;" horiz-adv-x="542" 
d="M471 1778q-96 -84 -126 -191.5t-30 -361.5q0 -268 35.5 -411.5t120.5 -201.5l-18 -39q-155 48 -212 188t-57 445q0 277 57 415.5t208 193.5z" />
    <glyph glyph-name="parenright.superior" unicode="&#x207e;" horiz-adv-x="542" 
d="M94 1815q151 -55 207.5 -193.5t56.5 -415.5q0 -305 -56.5 -445t-211.5 -188l-18 39q85 58 120 201t35 412q0 254 -29.5 361.5t-125.5 191.5z" />
    <glyph glyph-name="n.superior" unicode="&#x207f;" horiz-adv-x="831" 
d="M276 1231v-141q51 73 109.5 111t138.5 38q95 0 135.5 -61.5t40.5 -190.5v-131q0 -112 22 -156t79 -47v-37q-89 9 -158 9q-63 0 -168 -9v37q57 3 78.5 46.5t21.5 156.5v109q0 99 -26 139.5t-84 40.5q-103 0 -189 -131v-158q0 -111 21.5 -155t79.5 -48v-37q-94 9 -160 9
q-58 0 -166 -9v37q57 3 79 47.5t22 155.5v107q0 121 -22 168t-79 55v37z" />
    <glyph glyph-name="zero.inferior" unicode="&#x2080;" horiz-adv-x="755" 
d="M684 170q0 -215 -81.5 -325.5t-227.5 -110.5q-140 0 -221.5 111t-81.5 317q0 205 81.5 315.5t221.5 110.5q144 0 226.5 -108t82.5 -310zM547 139q0 187 -45.5 281t-126.5 94q-73 0 -119.5 -87t-46.5 -253q0 -180 47.5 -273.5t126.5 -93.5q45 0 79.5 35.5t51.5 90.5
t25 107t8 99z" />
    <glyph glyph-name="one.inferior" unicode="&#x2081;" horiz-adv-x="573" 
d="M414 610l35 -45q-42 -34 -53 -72t-11 -149v-375q0 -106 19 -141.5t77 -36.5v-53q-107 8 -178 8t-170 -8v55q78 0 102.5 33.5t24.5 142.5v434q-69 -41 -112.5 -60t-106.5 -36l35 129q77 20 177 71.5t161 102.5z" />
    <glyph glyph-name="two.inferior" unicode="&#x2082;" horiz-adv-x="696" 
d="M592 -8h53q-22 -139 -55.5 -198.5t-91.5 -59.5q-29 0 -158 10t-225 10q-29 -20 -47 -20q-21 0 -34.5 11.5t-13.5 29.5q0 25 29 53.5t60 32.5q337 350 337 532q0 58 -31.5 90.5t-88.5 32.5q-47 0 -76 -21.5t-29 -58.5q0 -26 13 -43.5t47 -36.5q-35 -32 -103 -32
q-47 0 -73.5 24.5t-26.5 67.5q0 74 80.5 124t201.5 50q112 0 171 -49.5t59 -143.5q0 -64 -28.5 -130t-85.5 -135t-119.5 -130t-153.5 -139q71 0 144 -4t95 -4q64 0 96 29.5t54 107.5z" />
    <glyph glyph-name="three.inferior" unicode="&#x2083;" horiz-adv-x="665" 
d="M444 227q83 -26 121.5 -75.5t38.5 -131.5q0 -129 -95.5 -207.5t-250.5 -78.5q-101 0 -159 36.5t-58 100.5q0 51 36.5 83t94.5 32q14 0 51 -6q-23 -29 -30 -45.5t-7 -38.5q0 -40 27.5 -64.5t73.5 -24.5q79 0 129.5 55.5t50.5 143.5q0 131 -119 168q-84 -37 -137 -37
q-26 0 -40.5 12.5t-14.5 34.5q0 33 38.5 47.5t149.5 14.5q47 26 73.5 67t26.5 86q0 54 -30.5 85.5t-83.5 31.5q-47 0 -77 -22.5t-30 -57.5q0 -28 13 -45.5t47 -34.5q-40 -32 -97 -32q-47 0 -76.5 25t-29.5 65q0 75 81.5 124.5t205.5 49.5q103 0 159 -45.5t56 -128.5
q0 -114 -138 -187z" />
    <glyph glyph-name="four.inferior" unicode="&#x2084;" horiz-adv-x="757" 
d="M571 -53v-193l-96 -24l-22 18v205q-95 14 -226 14q-80 0 -127 -8q-21 -27 -47 -27q-19 0 -31 12t-12 31q0 25 22 50.5t48 31.5q184 300 184 416q0 37 -26 37q-20 0 -58 -21l-22 43q95 56 182 56q76 0 76 -68q0 -87 -252 -452q54 4 119 4q83 0 170 -11v310q47 9 82 30
l36 -24v-316q79 3 99 132h47q-10 -145 -42 -196.5t-104 -49.5z" />
    <glyph glyph-name="five.inferior" unicode="&#x2085;" horiz-adv-x="690" 
d="M565 668h37q-15 -127 -53.5 -176.5t-124.5 -49.5q-98 0 -191 19q9 -52 9 -88q0 -63 -9 -103q56 35 154 35q109 0 175.5 -68t66.5 -186q0 -147 -91 -232t-249 -85q-98 0 -157.5 35t-59.5 102q0 55 38.5 85t92.5 30q33 0 51 -6q-37 -46 -37 -82q0 -48 30 -69.5t72 -21.5
q76 0 124.5 54.5t48.5 169.5q0 196 -150 196q-81 0 -121 -37q-14 -67 -76 -67q-34 0 -34 29q0 27 20 47q19 84 19 172q0 77 -27 204l8 13q145 -27 264 -27q73 0 111 23t59 84z" />
    <glyph glyph-name="six.inferior" unicode="&#x2086;" horiz-adv-x="706" 
d="M500 631l30 -53q-156 -96 -238.5 -232.5t-82.5 -292.5q0 -123 49.5 -184.5t120.5 -61.5q139 0 139 197q0 83 -32 119.5t-80 36.5q-53 0 -84 -31l-33 37q21 34 62.5 61t107.5 27q87 0 141.5 -62t54.5 -167q0 -133 -79 -212t-203 -79q-139 0 -220 82t-81 231q0 180 113 330
t315 254z" />
    <glyph glyph-name="seven.inferior" unicode="&#x2087;" horiz-adv-x="614" 
d="M80 367h-49q25 138 63 188q23 33 70 33q53 0 148.5 -7.5t150.5 -7.5q41 0 76 5q17 28 49 28q11 0 18.5 -6.5t7.5 -15.5q0 -30 -21 -65.5t-42 -43.5q-205 -438 -260 -715l-139 -34l-11 20q99 320 332 723q-50 -4 -147 -4q-23 0 -68.5 1t-64.5 1q-46 0 -68 -21t-45 -79z
" />
    <glyph glyph-name="eight.inferior" unicode="&#x2088;" horiz-adv-x="679" 
d="M446 209q95 -51 133.5 -102t38.5 -132q0 -106 -80.5 -173.5t-205.5 -67.5q-121 0 -196 59t-75 154q0 163 185 235q-154 75 -154 195q0 96 70.5 153.5t195.5 57.5q118 0 181 -49t63 -138q0 -74 -40.5 -116t-115.5 -76zM387 240q39 26 60.5 59t21.5 90q0 63 -34 97t-91 34
q-50 0 -85.5 -26t-35.5 -82q0 -32 13.5 -58.5t40.5 -48t50 -35t60 -30.5zM305 150q-110 -50 -110 -187q0 -67 37.5 -110t111.5 -43q68 0 104.5 39.5t36.5 97.5q0 43 -13.5 75.5t-42 56t-55 38t-69.5 33.5z" />
    <glyph glyph-name="nine.inferior" unicode="&#x2089;" horiz-adv-x="694" 
d="M387 211l27 -37q-62 -86 -170 -86q-83 0 -138 61t-55 158q0 127 80.5 204t208.5 77q140 0 211.5 -79t71.5 -228q0 -183 -107.5 -331.5t-310.5 -254.5l-31 53q155 99 233 232t78 286q0 118 -42.5 183t-114.5 65q-70 0 -106 -50.5t-36 -127.5q0 -66 32 -110t77 -44
q55 0 92 29z" />
    <glyph glyph-name="parenleft.inferior" unicode="&#x208d;" horiz-adv-x="542" 
d="M471 741q-96 -84 -126 -191.5t-30 -361.5q0 -268 35.5 -411t120.5 -201l-18 -39q-155 48 -212 188t-57 445q0 277 57 415t208 193z" />
    <glyph glyph-name="parenright.inferior" unicode="&#x208e;" horiz-adv-x="542" 
d="M94 778q151 -55 207.5 -193t56.5 -415q0 -305 -56.5 -445t-211.5 -188l-18 39q85 58 120 200.5t35 411.5q0 254 -29.5 361.5t-125.5 191.5z" />
    <glyph glyph-name="Euro" unicode="&#x20ac;" horiz-adv-x="1275" 
d="M102 858h148q48 263 192 395.5t353 132.5q220 0 344 -61q-11 -87 -11 -158q0 -88 9 -196h-52q-35 180 -103 260t-206 80q-140 0 -238.5 -114.5t-129.5 -338.5h610v-84h-621q-4 -40 -4 -84q0 -49 2 -74h551v-84h-547q21 -226 128.5 -351.5t263.5 -125.5q67 0 118 15.5
t84.5 40t61 70t44 90t36.5 114.5l49 -6q-15 -95 -15 -170q0 -77 9 -154q-169 -75 -400 -75q-235 0 -374 137t-166 415h-207v84h202v25q0 68 7 133h-138v84z" />
    <glyph glyph-name="trademark" unicode="&#x2122;" horiz-adv-x="1118" 
d="M287 1335v-278q0 -57 10 -75.5t39 -18.5v-23q-35 6 -90 6q-48 0 -86 -6v23q30 0 40.5 19t10.5 75v278q-60 0 -85 -14t-34 -55h-31q15 62 15 110q50 -6 123 -6h108q59 0 117 6q4 -57 14 -110h-30q-9 43 -31.5 56t-89.5 13zM762 1022l98 246q31 75 39 104q30 -6 70 -6
q31 0 67 6v-22q-45 -9 -45 -64q0 -13 4 -59l13 -133q7 -79 18 -101t39 -30v-23q-37 6 -82 6q-41 0 -90 -6v23q45 3 45 43q0 19 -4 69l-16 205l-93 -236q-3 -10 -17 -47t-20 -57h-75l-125 340l-15 -184q-4 -32 -4 -74q0 -30 11.5 -42t40.5 -17v-23q-38 6 -84 6q-37 0 -78 -6
v23q31 1 42 23.5t19 96.5l15 154q2 29 2 53q0 30 -8.5 43.5t-30.5 16.5v22q36 -6 59 -6q40 0 76 6q4 -13 33 -94z" />
    <glyph glyph-name="onethird" unicode="&#x2153;" horiz-adv-x="1804" 
d="M516 1411l35 -45q-42 -34 -53 -72t-11 -149v-375q0 -106 19.5 -141.5t77.5 -36.5v-53q-107 8 -178 8t-170 -8v55q78 0 102 33.5t24 142.5v434q-69 -41 -112.5 -60t-106.5 -36l35 129q77 20 177 71.5t161 102.5zM1085 1389l111 -39l-473 -1373l-111 39zM1532 473
q83 -26 121.5 -75.5t38.5 -131.5q0 -129 -95.5 -207.5t-250.5 -78.5q-102 0 -160 36.5t-58 100.5q0 51 36.5 82.5t95.5 31.5q14 0 51 -6q-23 -29 -30 -45.5t-7 -38.5q0 -40 27 -64t73 -24q79 0 129.5 55.5t50.5 143.5q0 131 -118 168q-84 -37 -138 -37q-26 0 -40.5 12.5
t-14.5 34.5q0 33 39 47.5t150 14.5q47 26 73.5 67t26.5 86q0 54 -31 85.5t-84 31.5q-47 0 -76.5 -22.5t-29.5 -57.5q0 -28 12.5 -45.5t46.5 -34.5q-42 -33 -96 -33q-47 0 -77 25t-30 65q0 75 81.5 125t205.5 50q103 0 159 -46t56 -129q0 -59 -32.5 -103.5t-104.5 -82.5z" />
    </font>
</defs>
</svg>
